<?xml version="1.0" encoding="UTF-8" standalone="no"?><!DOCTYPE svg PUBLIC "-//W3C//DTD SVG 1.1//EN" "http://www.w3.org/Graphics/SVG/1.1/DTD/svg11.dtd"><svg width="100%" height="100%" viewBox="0 0 30 30" version="1.1" xmlns="http://www.w3.org/2000/svg" xmlns:xlink="http://www.w3.org/1999/xlink" xml:space="preserve" style="fill-rule:evenodd;clip-rule:evenodd;stroke-linejoin:round;stroke-miterlimit:1.41421;"><g id="g4553"><path id="path4555" d="M22.915,20.142c-2.333,1.541 -4.975,2.312 -7.927,2.312c-2.952,0 -5.589,-0.771 -7.911,-2.312l-0.281,0.141l-0.094,0.25c0.333,2.04 0.63,3.561 0.89,4.56c0.209,0.365 0.479,0.685 0.813,0.961c0.333,0.276 0.713,0.502 1.14,0.679c0.427,0.177 0.825,0.318 1.195,0.422c0.369,0.104 0.793,0.198 1.272,0.281c1.073,0.177 2.122,0.274 3.148,0.289c1.026,0.016 2.077,-0.099 3.155,-0.343c1.077,-0.245 2.064,-0.617 2.959,-1.117c0.375,-0.208 0.677,-0.503 0.906,-0.882c0.229,-0.38 0.378,-0.745 0.445,-1.094c0.068,-0.349 0.141,-0.786 0.219,-1.312c0.079,-0.526 0.159,-0.924 0.243,-1.195c0,-0.093 0.042,-0.286 0.124,-0.577c0.083,-0.292 0.11,-0.526 0.079,-0.703c-0.032,-0.178 -0.157,-0.297 -0.375,-0.36Z" style="fill:#2ab77e;fill-rule:nonzero;"/><path id="path4557" d="M25.742,5.132c-0.625,-0.791 -1.744,-1.426 -3.358,-1.905c-3.093,-0.906 -6.613,-1.166 -10.559,-0.781c-1.957,0.187 -3.587,0.52 -4.888,0.999c-0.313,0.115 -0.563,0.211 -0.75,0.289c-0.188,0.078 -0.427,0.196 -0.719,0.352c-0.291,0.156 -0.526,0.312 -0.703,0.468c-0.177,0.156 -0.341,0.352 -0.492,0.586c-0.151,0.234 -0.242,0.487 -0.273,0.757c0.093,0.75 0.208,1.573 0.344,2.468c0.135,0.896 0.257,1.664 0.367,2.304c0.109,0.64 0.255,1.481 0.437,2.522c0.182,1.042 0.32,1.823 0.414,2.343c0.021,0.094 0.049,0.276 0.086,0.547c0.036,0.271 0.067,0.477 0.093,0.617c0.026,0.141 0.073,0.318 0.141,0.531c0.068,0.214 0.156,0.396 0.265,0.547c0.11,0.151 0.243,0.29 0.399,0.414c1.52,1.166 3.571,1.89 6.154,2.171c3.727,0.396 6.904,-0.062 9.527,-1.374c0.344,-0.177 0.627,-0.339 0.851,-0.484c0.224,-0.146 0.451,-0.355 0.68,-0.625c0.229,-0.271 0.369,-0.562 0.421,-0.875c0.886,-5.081 1.463,-8.492 1.734,-10.23c0.063,-0.24 0.091,-0.521 0.087,-0.844c-0.005,-0.323 -0.092,-0.589 -0.258,-0.797Zm-8.06,11.574c-0.636,0.791 -1.427,1.228 -2.375,1.312c-0.957,0.083 -1.819,-0.208 -2.584,-0.875c-0.765,-0.666 -1.169,-1.473 -1.211,-2.421c-0.031,-0.718 0.149,-1.392 0.539,-2.022c0.391,-0.63 0.914,-1.091 1.57,-1.383c1.021,-0.458 2.046,-0.39 3.077,0.203c1.031,0.594 1.619,1.448 1.765,2.562c0.114,0.958 -0.146,1.832 -0.781,2.624Zm3.342,-10.363c-0.479,0.182 -0.856,0.294 -1.132,0.336c-0.276,0.041 -0.741,0.104 -1.397,0.187c-2.292,0.292 -4.624,0.286 -6.998,-0.015c-0.625,-0.073 -1.08,-0.133 -1.367,-0.18c-0.286,-0.047 -0.668,-0.162 -1.148,-0.344c-0.479,-0.182 -0.874,-0.419 -1.187,-0.711c0.188,-0.27 0.448,-0.494 0.781,-0.671c0.334,-0.177 0.62,-0.292 0.859,-0.344c0.24,-0.052 0.584,-0.114 1.031,-0.187c2.864,-0.51 5.811,-0.521 8.841,-0.031c0.51,0.083 0.88,0.148 1.109,0.195c0.229,0.047 0.531,0.161 0.905,0.343c0.375,0.183 0.667,0.414 0.875,0.695c-0.302,0.302 -0.693,0.545 -1.172,0.727Z" style="fill:#2ab77e;fill-rule:nonzero;"/><path id="path4559" d="M16.3,13.356c-0.287,-0.308 -0.62,-0.492 -1,-0.555c-0.38,-0.062 -0.757,0 -1.132,0.187c-0.396,0.177 -0.667,0.479 -0.812,0.906c-0.146,0.427 -0.144,0.854 0.007,1.281c0.152,0.427 0.43,0.729 0.836,0.906c0.552,0.334 1.132,0.302 1.742,-0.094c0.609,-0.395 0.872,-0.921 0.788,-1.577c0,-0.396 -0.143,-0.747 -0.429,-1.054Z" style="fill:#2ab77e;fill-rule:nonzero;"/></g></svg>