<?xml version="1.0" encoding="UTF-8" standalone="no"?><!DOCTYPE svg PUBLIC "-//W3C//DTD SVG 1.1//EN" "http://www.w3.org/Graphics/SVG/1.1/DTD/svg11.dtd"><svg width="100%" height="100%" viewBox="0 0 30 30" version="1.1" xmlns="http://www.w3.org/2000/svg" xmlns:xlink="http://www.w3.org/1999/xlink" xml:space="preserve" style="fill-rule:evenodd;clip-rule:evenodd;stroke-linejoin:round;stroke-miterlimit:1.41421;"><path id="Cat" d="M19.812,28.261l-3.533,0l-3.537,0c0,0 0.01,-2.097 0,-3.536c-4.838,1.041 -6.188,-2.652 -6.188,-2.652c-0.884,-1.769 -1.768,-2.653 -1.768,-2.653c-1.768,-1.05 0,-0.884 0,-0.884c1.768,0 2.652,1.768 2.652,1.768c1.552,2.636 4.313,2.211 5.304,1.769c0,-0.885 0.388,-2.221 0.885,-2.653c-3.862,-0.435 -7.077,-2.652 -7.077,-7.072c0,-4.421 0.888,-5.305 1.772,-6.189c-0.178,-0.436 -0.918,-2.046 0.028,-4.42c0,0 1.737,0 3.505,2.652c0.876,-0.876 3.536,-0.884 4.421,-0.884c0.883,0 3.543,0.008 4.42,0.884c1.768,-2.652 3.508,-2.652 3.508,-2.652c0.946,2.374 0.206,3.984 0.028,4.42c0.884,0.884 1.768,1.768 1.768,6.189c0,4.42 -3.211,6.637 -7.073,7.072c0.497,0.432 0.885,1.954 0.885,2.653l0,6.188Z" style="fill:#2ab77e;"/></svg>