<?xml version="1.0" encoding="UTF-8" standalone="no"?><!DOCTYPE svg PUBLIC "-//W3C//DTD SVG 1.1//EN" "http://www.w3.org/Graphics/SVG/1.1/DTD/svg11.dtd"><svg width="100%" height="100%" viewBox="0 0 30 30" version="1.1" xmlns="http://www.w3.org/2000/svg" xmlns:xlink="http://www.w3.org/1999/xlink" xml:space="preserve" style="fill-rule:evenodd;clip-rule:evenodd;stroke-linejoin:round;stroke-miterlimit:1.41421;"><path d="M25.341,3.994l-21.072,12.048c-0.499,0.308 -0.269,0.741 0.402,1.004l4.214,1.406c0.673,0.228 1.091,0.409 1.605,0l11.841,-10.442l-8.91,11.688c-0.077,0.113 -0.113,0.393 -0.121,0.762l0,4.819c0.039,0.934 0.215,1.132 0.602,0.402l2.207,-4.619c0.095,-0.195 0.419,-0.15 0.803,0l4.214,1.607c0.696,0.257 1.34,0.095 1.405,-0.201l3.412,-17.872c0.167,-0.661 -0.033,-0.88 -0.602,-0.602Z" style="fill:#2ab77e;"/></svg>