<?xml version="1.0" encoding="UTF-8" standalone="no"?><!DOCTYPE svg PUBLIC "-//W3C//DTD SVG 1.1//EN" "http://www.w3.org/Graphics/SVG/1.1/DTD/svg11.dtd"><svg width="100%" height="100%" viewBox="0 0 30 30" version="1.1" xmlns="http://www.w3.org/2000/svg" xmlns:xlink="http://www.w3.org/1999/xlink" xml:space="preserve" style="fill-rule:evenodd;clip-rule:evenodd;stroke-linejoin:round;stroke-miterlimit:1.41421;"><path d="M17.782,6.111c-1.987,0.724 -3.243,2.588 -3.1,4.628l0.047,0.787l-0.795,-0.096c-2.892,-0.37 -5.42,-1.623 -7.566,-3.728l-1.05,-1.045l-0.268,0.771c-0.573,1.719 -0.207,3.536 0.985,4.758c0.636,0.675 0.493,0.771 -0.603,0.37c-0.381,-0.129 -0.716,-0.225 -0.747,-0.176c-0.111,0.112 0.27,1.574 0.572,2.154c0.414,0.804 1.256,1.59 2.178,2.058l0.779,0.369l-0.923,0.014c-0.89,0 -0.922,0.016 -0.826,0.355c0.318,1.045 1.573,2.154 2.973,2.636l0.985,0.338l-0.858,0.514c-1.272,0.741 -2.766,1.159 -4.261,1.189c-0.716,0.016 -1.304,0.08 -1.304,0.128c0,0.16 1.94,1.06 3.067,1.415c3.386,1.044 7.408,0.593 10.428,-1.19c2.147,-1.269 4.292,-3.793 5.294,-6.237c0.541,-1.301 1.081,-3.68 1.081,-4.82c0,-0.74 0.048,-0.836 0.937,-1.72c0.525,-0.514 1.017,-1.077 1.114,-1.237c0.159,-0.306 0.142,-0.306 -0.668,-0.032c-1.35,0.482 -1.541,0.418 -0.873,-0.305c0.492,-0.515 1.081,-1.447 1.081,-1.719c0,-0.048 -0.239,0.032 -0.509,0.176c-0.286,0.161 -0.922,0.402 -1.399,0.546l-0.859,0.274l-0.778,-0.533c-0.43,-0.288 -1.032,-0.611 -1.351,-0.707c-0.812,-0.225 -2.051,-0.192 -2.783,0.065Z" style="fill:#2ab77e;fill-rule:nonzero;"/></svg>