<?xml version="1.0" encoding="UTF-8" standalone="no"?><!DOCTYPE svg PUBLIC "-//W3C//DTD SVG 1.1//EN" "http://www.w3.org/Graphics/SVG/1.1/DTD/svg11.dtd"><svg width="100%" height="100%" viewBox="0 0 506 476" version="1.1" xmlns="http://www.w3.org/2000/svg" xmlns:xlink="http://www.w3.org/1999/xlink" xml:space="preserve" xmlns:serif="http://www.serif.com/" style="fill-rule:evenodd;clip-rule:evenodd;stroke-linejoin:round;stroke-miterlimit:1.41421;"><path id="Second-Man" serif:id="Second Man" d="M23.381,91.065c-3.08,-44.503 19.849,-83.169 54.376,-88.859c37.371,-6.158 74.269,28.633 82.346,77.645c6.995,42.453 -9.913,81.739 -38.851,95.495l0.477,-0.077l42.375,257.625l78.75,-84.375c3.661,-4.178 9.513,-5.773 18.75,-3.375l201.375,33.75l10.125,-60.375c3.183,-7.604 8.223,-12.42 17.25,-11.25c8.39,1.839 12.68,7.29 13.125,16.125l-7.875,48.375c5.749,2.663 9.557,6.947 9.75,14.25l-1.875,75c-0.594,7.217 -2.791,13.739 -15.375,15.75l-225,-6l-105,5.25c-11.181,1.14 -18.907,-2.507 -20.25,-15l-24,-144.375l-98.25,-77.25c-5.295,-3.96 -8.349,-8.506 -8.25,-18.375l-6.75,-79.875c-1.078,-4.083 -1.187,-8.807 3.75,-16.875l19.027,-33.204Zm235.973,284.829l-63.375,67.5l67.125,-3.375l210,5.25l1.125,-33.75l-214.875,-35.625Zm-176.281,-197.58l-11.594,17.316l30,44.889c-4.699,-28.589 -10.501,-61.212 -9.75,-60.375l0.151,-0.025c-2.969,-0.362 -5.91,-0.969 -8.807,-1.805Zm-48.512,-44.746l-3.207,5.701l6.375,78.375l24.375,19.125l-20.625,-30.75c-4.24,-6.618 -5.43,-13.503 0.375,-21l14.515,-21.959c-8.643,-7.756 -16.132,-17.794 -21.808,-29.492Z"/></svg>