<?xml version="1.0" standalone="no"?>
<!DOCTYPE svg PUBLIC "-//W3C//DTD SVG 1.1//EN" "http://www.w3.org/Graphics/SVG/1.1/DTD/svg11.dtd">
<svg width="100%" height="100%" viewBox="0 0 512 512" version="1.1" xmlns="http://www.w3.org/2000/svg" xmlns:xlink="http://www.w3.org/1999/xlink" xml:space="preserve" style="fill-rule:evenodd;clip-rule:evenodd;stroke-linejoin:round;stroke-miterlimit:1.41421;">
    <g transform="matrix(10.6667,0,0,10.6667,0,0)">
        <circle cx="24" cy="24" r="24" style="fill:rgb(78,113,168);"/>
    </g>
    <g transform="matrix(16,0,0,16,-2.84217e-14,0)">
        <path d="M13.69,24.903L17.369,24.903L17.369,15.999L19.823,15.999L20.148,12.931L17.369,12.931L17.373,11.395C17.373,10.595 17.449,10.166 18.597,10.166L20.131,10.166L20.131,7.097L17.676,7.097C14.727,7.097 13.69,8.586 13.69,11.089L13.69,12.931L11.852,12.931L11.852,16L13.69,16L13.69,24.903Z" style="fill:white;fill-rule:nonzero;"/>
    </g>
</svg>
