<?xml version="1.0" standalone="no"?>
<!DOCTYPE svg PUBLIC "-//W3C//DTD SVG 1.1//EN" "http://www.w3.org/Graphics/SVG/1.1/DTD/svg11.dtd">
<svg width="100%" height="100%" viewBox="0 0 512 512" version="1.1" xmlns="http://www.w3.org/2000/svg" xmlns:xlink="http://www.w3.org/1999/xlink" xml:space="preserve" style="fill-rule:evenodd;clip-rule:evenodd;stroke-linejoin:round;stroke-miterlimit:1.41421;">
    <g id="Flat_copy" transform="matrix(16,0,0,16,0,0)">
        <g>
            <path d="M16,31.625C7.384,31.625 0.375,24.615 0.375,16C0.375,7.384 7.384,0.375 16,0.375C24.615,0.375 31.625,7.384 31.625,16C31.625,24.615 24.615,31.625 16,31.625Z" style="fill:white;fill-opacity:0.647059;fill-rule:nonzero;"/>
            <path d="M16,0.75C24.409,0.75 31.25,7.591 31.25,16C31.25,24.409 24.409,31.25 16,31.25C7.591,31.25 0.75,24.409 0.75,16C0.75,7.591 7.591,0.75 16,0.75M16,0C7.163,0 0,7.163 0,16C0,24.836 7.163,32 16,32C24.837,32 32,24.836 32,16C32,7.163 24.837,0 16,0Z" style="fill:rgb(51,51,51);fill-opacity:0.647059;fill-rule:nonzero;"/>
        </g>
        <path d="M13.69,24.903L17.369,24.903L17.369,15.999L19.823,15.999L20.148,12.931L17.369,12.931L17.373,11.395C17.373,10.595 17.449,10.166 18.597,10.166L20.131,10.166L20.131,7.097L17.676,7.097C14.727,7.097 13.69,8.586 13.69,11.089L13.69,12.931L11.852,12.931L11.852,16L13.69,16L13.69,24.903Z" style="fill:rgb(51,51,51);fill-rule:nonzero;"/>
    </g>
</svg>
