<?xml version="1.0" standalone="no"?>
<!DOCTYPE svg PUBLIC "-//W3C//DTD SVG 1.1//EN" "http://www.w3.org/Graphics/SVG/1.1/DTD/svg11.dtd">
<svg width="100%" height="100%" viewBox="0 0 512 512" version="1.1" xmlns="http://www.w3.org/2000/svg" xmlns:xlink="http://www.w3.org/1999/xlink" xml:space="preserve" style="fill-rule:evenodd;clip-rule:evenodd;stroke-linejoin:round;stroke-miterlimit:1.41421;">
    <g transform="matrix(16.384,0,0,16.384,-6.144,-6.144)">
        <path d="M16,31.625C7.384,31.625 0.375,24.615 0.375,16C0.375,7.384 7.384,0.375 16,0.375C24.615,0.375 31.625,7.384 31.625,16C31.625,24.615 24.615,31.625 16,31.625Z" style="fill:white;fill-opacity:0.647059;fill-rule:nonzero;"/>
    </g>
    <g transform="matrix(16,0,0,16,0,0)">
        <path d="M16,0.75C24.409,0.75 31.25,7.591 31.25,16C31.25,24.409 24.409,31.25 16,31.25C7.591,31.25 0.75,24.409 0.75,16C0.75,7.591 7.591,0.75 16,0.75M16,0C7.163,0 0,7.163 0,16C0,24.836 7.163,32 16,32C24.837,32 32,24.836 32,16C32,7.163 24.837,0 16,0Z" style="fill:rgb(51,51,51);fill-opacity:0.647059;fill-rule:nonzero;"/>
    </g>
    <g id="Cat" transform="matrix(8.03701,-3.69779e-31,-3.69779e-31,8.03701,147.038,135.445)">
        <path d="M19,30L15.004,30L11.004,30C11.004,30 11.015,27.628 11.004,26C5.531,27.178 4.004,23 4.004,23C3.004,21 2.004,20 2.004,20C0.004,18.812 2.004,19 2.004,19C4.004,19 5.004,21 5.004,21C6.759,23.981 9.882,23.501 11.004,23C11.004,22 11.442,20.488 12.004,20C7.636,19.508 4,17 4,12C4,7 5.004,6 6.004,5C5.802,4.507 4.965,2.685 6.035,0C6.035,0 8,0 10,3C10.991,2.009 14,2 15.001,2C16,2 19.009,2.009 20,3C22,0 23.969,0 23.969,0C25.039,2.685 24.202,4.507 24,5C25,6 26,7 26,12C26,17 22.368,19.508 18,20C18.562,20.488 19,22.21 19,23L19,30Z" style="fill:rgb(51,51,51);"/>
    </g>
</svg>
