<?xml version="1.0" standalone="no"?>
<!DOCTYPE svg PUBLIC "-//W3C//DTD SVG 1.1//EN" "http://www.w3.org/Graphics/SVG/1.1/DTD/svg11.dtd">
<svg width="100%" height="100%" viewBox="0 0 512 512" version="1.1" xmlns="http://www.w3.org/2000/svg" xmlns:xlink="http://www.w3.org/1999/xlink" xml:space="preserve" style="fill-rule:evenodd;clip-rule:evenodd;stroke-linejoin:round;stroke-miterlimit:1.41421;">
    <g id="Flat_copy" transform="matrix(16,0,0,16,0,0)">
        <g>
            <path d="M16,31.625C7.384,31.625 0.375,24.615 0.375,16C0.375,7.385 7.384,0.375 16,0.375C24.615,0.375 31.625,7.385 31.625,16C31.625,24.615 24.615,31.625 16,31.625Z" style="fill:white;fill-opacity:0.647059;fill-rule:nonzero;"/>
            <path d="M16,0.75C24.409,0.75 31.25,7.591 31.25,16C31.25,24.409 24.409,31.25 16,31.25C7.591,31.25 0.75,24.409 0.75,16C0.75,7.591 7.591,0.75 16,0.75M16,0C7.163,0 0,7.163 0,16C0,24.836 7.163,32 16,32C24.837,32 32,24.836 32,16C32,7.163 24.837,0 16,0Z" style="fill:rgb(51,51,51);fill-opacity:0.647059;fill-rule:nonzero;"/>
        </g>
        <path d="M18.226,8.886C16.636,9.465 15.631,10.957 15.745,12.59L15.783,13.22L15.147,13.143C12.832,12.847 10.809,11.844 9.091,10.159L8.251,9.323L8.036,9.94C7.578,11.316 7.871,12.77 8.825,13.748C9.334,14.288 9.219,14.365 8.342,14.044C8.037,13.941 7.769,13.864 7.744,13.903C7.655,13.993 7.96,15.163 8.202,15.627C8.533,16.271 9.207,16.9 9.945,17.274L10.569,17.57L9.83,17.581C9.118,17.581 9.092,17.594 9.169,17.865C9.423,18.701 10.428,19.589 11.548,19.975L12.337,20.245L11.65,20.657C10.632,21.25 9.436,21.584 8.24,21.608C7.667,21.621 7.196,21.672 7.196,21.711C7.196,21.839 8.749,22.559 9.651,22.843C12.361,23.679 15.58,23.318 17.997,21.891C19.715,20.875 21.432,18.855 22.234,16.899C22.667,15.858 23.099,13.954 23.099,13.041C23.099,12.449 23.137,12.372 23.849,11.665C24.269,11.253 24.663,10.803 24.74,10.675C24.868,10.43 24.854,10.43 24.206,10.649C23.125,11.035 22.972,10.984 23.507,10.405C23.901,9.993 24.372,9.247 24.372,9.029C24.372,8.991 24.181,9.055 23.965,9.17C23.736,9.299 23.227,9.492 22.845,9.607L22.158,9.826L21.535,9.4C21.191,9.169 20.709,8.911 20.454,8.834C19.804,8.654 18.812,8.68 18.226,8.886Z" style="fill:rgb(51,51,51);fill-rule:nonzero;"/>
    </g>
</svg>
