<?xml version="1.0" encoding="UTF-8" standalone="no"?><!DOCTYPE svg PUBLIC "-//W3C//DTD SVG 1.1//EN" "http://www.w3.org/Graphics/SVG/1.1/DTD/svg11.dtd"><svg width="100%" height="100%" viewBox="0 0 1024 1024" version="1.1" xmlns="http://www.w3.org/2000/svg" xmlns:xlink="http://www.w3.org/1999/xlink" xml:space="preserve" style="fill-rule:evenodd;clip-rule:evenodd;stroke-linecap:round;stroke-linejoin:round;stroke-miterlimit:1.5;"><path d="M1024,27.816c0,-15.352 -12.464,-27.816 -27.816,-27.816l-968.368,0c-15.352,0 -27.816,12.464 -27.816,27.816l0,968.368c0,15.352 12.464,27.816 27.816,27.816l968.368,0c15.352,0 27.816,-12.464 27.816,-27.816l0,-968.368l0,0Z" style="fill:#acacac;"/><g><path d="M1006.21,36.061c0,-5.558 -4.513,-10.072 -10.072,-10.072l-965.712,0c-5.559,0 -10.072,4.514 -10.072,10.072l0,951.92c0,5.559 4.513,10.072 10.072,10.072l965.712,0c5.559,0 10.072,-4.513 10.072,-10.072l0,-951.92l0,0Z" style="fill:#d9d7da;"/><path d="M965.824,248.902c0,-12.644 -10.265,-22.909 -22.909,-22.909l-851.158,0c-12.644,0 -22.909,10.265 -22.909,22.909l0,642.993c0,12.644 10.265,22.909 22.909,22.909l851.158,0c12.644,0 22.909,-10.265 22.909,-22.909l0,-642.993l0,0Z" style="fill:#dde2e8;"/><g><path d="M55.392,116.454c0,28.642 23.201,51.842 51.84,51.842c28.592,0 51.809,-23.2 51.809,-51.842c0,-28.642 -23.217,-51.858 -51.809,-51.858c-28.639,0 -51.84,23.216 -51.84,51.858l0,0Z" style="fill:#b1b0b1;fill-rule:nonzero;"/><path d="M62.72,116.454c0,24.592 19.92,44.525 44.512,44.525c24.576,0 44.496,-19.933 44.496,-44.525c0,-24.592 -19.92,-44.541 -44.496,-44.541c-24.592,0 -44.512,19.949 -44.512,44.541l0,0Z" style="fill:#d0d0d0;fill-rule:nonzero;"/><path d="M190.064,116.454c0,28.642 23.217,51.842 51.825,51.842c28.624,0 51.84,-23.2 51.84,-51.842c0,-28.642 -23.216,-51.858 -51.84,-51.858c-28.608,0 -51.825,23.216 -51.825,51.858l0,0Z" style="fill:#b1b0b1;fill-rule:nonzero;"/><path d="M197.376,116.454c0,24.592 19.952,44.525 44.513,44.525c24.576,0 44.496,-19.933 44.496,-44.525c0,-24.592 -19.92,-44.541 -44.496,-44.541c-24.561,0 -44.513,19.949 -44.513,44.541l0,0Z" style="fill:#d0d0d0;fill-rule:nonzero;"/><path d="M326.674,116.454c0,28.642 23.232,51.842 51.824,51.842c28.624,0 51.84,-23.2 51.84,-51.842c0,-28.642 -23.216,-51.858 -51.84,-51.858c-28.592,0 -51.824,23.216 -51.824,51.858l0,0Z" style="fill:#b1b0b1;fill-rule:nonzero;"/><path d="M334.002,116.454c0,24.592 19.936,44.525 44.496,44.525c24.592,0 44.512,-19.933 44.512,-44.525c0,-24.592 -19.92,-44.541 -44.512,-44.541c-24.56,0 -44.496,19.949 -44.496,44.541l0,0Z" style="fill:#d0d0d0;fill-rule:nonzero;"/></g><g><path d="M507,367.5l-198,0l0,405.5l406,0l0,-206" style="fill:none;stroke:#c4c4c4;stroke-width:15px;"/><path d="M502.2,473.477c-4.2,4.257 -6.3,8.515 -6.3,14.9c0,5.677 2.1,10.644 6.3,14.902c4.2,4.257 8.4,6.387 14.7,6.387c5.6,0 10.5,-2.13 14.7,-6.387c4.2,-4.258 6.3,-9.225 6.3,-14.902c0,-6.385 -2.1,-11.353 -6.3,-14.9c-4.2,-4.258 -9.1,-5.677 -14.7,-5.677c-5.6,-0.71 -9.8,1.419 -14.7,5.677Z" style="fill:#c4c4c4;fill-rule:nonzero;"/><rect x="506.4" y="553.732" width="21" height="117.037" style="fill:#c4c4c4;"/></g></g></svg>