<?xml version="1.0" encoding="UTF-8" standalone="no"?><!DOCTYPE svg PUBLIC "-//W3C//DTD SVG 1.1//EN" "http://www.w3.org/Graphics/SVG/1.1/DTD/svg11.dtd"><svg width="100%" height="100%" viewBox="0 0 1024 1024" version="1.1" xmlns="http://www.w3.org/2000/svg" xmlns:xlink="http://www.w3.org/1999/xlink" xml:space="preserve" style="fill-rule:evenodd;clip-rule:evenodd;stroke-linejoin:round;stroke-miterlimit:1.41421;"><path d="M1024,27.816c0,-15.352 -12.464,-27.816 -27.816,-27.816l-968.368,0c-15.352,0 -27.816,12.464 -27.816,27.816l0,968.368c0,15.352 12.464,27.816 27.816,27.816l968.368,0c15.352,0 27.816,-12.464 27.816,-27.816l0,-968.368l0,0Z" style="fill:#acacac;"/><g><path d="M1006.21,36.061c0,-5.558 -4.513,-10.072 -10.072,-10.072l-965.712,0c-5.559,0 -10.072,4.514 -10.072,10.072l0,951.92c0,5.559 4.513,10.072 10.072,10.072l965.712,0c5.559,0 10.072,-4.513 10.072,-10.072l0,-951.92l0,0Z" style="fill:#d9d7da;"/><path d="M965.824,248.902c0,-12.644 -10.265,-22.909 -22.909,-22.909l-851.158,0c-12.644,0 -22.909,10.265 -22.909,22.909l0,642.993c0,12.644 10.265,22.909 22.909,22.909l851.158,0c12.644,0 22.909,-10.265 22.909,-22.909l0,-642.993l0,0Z" style="fill:#dde2e8;"/><g><path d="M55.392,116.454c0,28.642 23.201,51.842 51.84,51.842c28.592,0 51.809,-23.2 51.809,-51.842c0,-28.642 -23.217,-51.858 -51.809,-51.858c-28.639,0 -51.84,23.216 -51.84,51.858l0,0Z" style="fill:#b1b0b1;fill-rule:nonzero;"/><path d="M62.72,116.454c0,24.592 19.92,44.525 44.512,44.525c24.576,0 44.496,-19.933 44.496,-44.525c0,-24.592 -19.92,-44.541 -44.496,-44.541c-24.592,0 -44.512,19.949 -44.512,44.541l0,0Z" style="fill:#d0d0d0;fill-rule:nonzero;"/><path d="M190.064,116.454c0,28.642 23.217,51.842 51.825,51.842c28.624,0 51.84,-23.2 51.84,-51.842c0,-28.642 -23.216,-51.858 -51.84,-51.858c-28.608,0 -51.825,23.216 -51.825,51.858l0,0Z" style="fill:#b1b0b1;fill-rule:nonzero;"/><path d="M197.376,116.454c0,24.592 19.952,44.525 44.513,44.525c24.576,0 44.496,-19.933 44.496,-44.525c0,-24.592 -19.92,-44.541 -44.496,-44.541c-24.561,0 -44.513,19.949 -44.513,44.541l0,0Z" style="fill:#d0d0d0;fill-rule:nonzero;"/><path d="M326.674,116.454c0,28.642 23.232,51.842 51.824,51.842c28.624,0 51.84,-23.2 51.84,-51.842c0,-28.642 -23.216,-51.858 -51.84,-51.858c-28.592,0 -51.824,23.216 -51.824,51.858l0,0Z" style="fill:#b1b0b1;fill-rule:nonzero;"/><path d="M334.002,116.454c0,24.592 19.936,44.525 44.496,44.525c24.592,0 44.512,-19.933 44.512,-44.525c0,-24.592 -19.92,-44.541 -44.512,-44.541c-24.56,0 -44.496,19.949 -44.496,44.541l0,0Z" style="fill:#d0d0d0;fill-rule:nonzero;"/></g><g><g><path d="M598.862,689.661c-2.297,0 -4.511,-0.902 -6.234,-2.625c-3.281,-3.445 -3.199,-8.94 0.246,-12.221l114.504,-110.649c3.445,-3.281 8.94,-3.198 12.221,0.246c3.281,3.445 3.199,8.941 -0.246,12.222l-114.503,110.648c-1.723,1.559 -3.855,2.379 -5.988,2.379Z" style="fill:#c4c4c4;fill-rule:nonzero;"/><path d="M713.366,579.013c-2.133,0 -4.348,-0.821 -5.988,-2.461l-114.586,-110.567c-3.445,-3.281 -3.527,-8.776 -0.246,-12.221c3.281,-3.445 8.777,-3.527 12.222,-0.246l114.503,110.648c3.445,3.281 3.527,8.777 0.246,12.222c-1.64,1.804 -3.937,2.625 -6.151,2.625Z" style="fill:#c4c4c4;fill-rule:nonzero;"/></g><g><path d="M425.138,689.661c-2.133,0 -4.347,-0.82 -5.988,-2.461l-114.503,-110.566c-3.445,-3.281 -3.527,-8.777 -0.246,-12.222c3.281,-3.444 8.776,-3.527 12.221,-0.246l114.504,110.649c3.445,3.281 3.527,8.776 0.246,12.221c-1.723,1.805 -3.937,2.625 -6.234,2.625Z" style="fill:#c4c4c4;fill-rule:nonzero;"/><path d="M310.634,579.013c-2.296,0 -4.511,-0.903 -6.233,-2.625c-3.281,-3.445 -3.199,-8.941 0.246,-12.222l114.503,-110.648c3.445,-3.281 8.941,-3.199 12.222,0.246c3.281,3.445 3.199,8.94 -0.246,12.221l-114.422,110.649c-1.722,1.64 -3.855,2.379 -6.07,2.379Z" style="fill:#c4c4c4;fill-rule:nonzero;"/></g><path d="M470.825,726.325c-0.739,0 -1.559,-0.082 -2.297,-0.328c-4.593,-1.312 -7.3,-6.07 -5.988,-10.663l82.269,-294.543c1.312,-4.593 6.07,-7.3 10.663,-5.988c4.593,1.313 7.3,6.07 5.988,10.663l-82.269,294.543c-1.066,3.856 -4.593,6.316 -8.366,6.316Z" style="fill:#c4c4c4;fill-rule:nonzero;"/></g></g></svg>