<?xml version="1.0" encoding="UTF-8" standalone="no"?><!DOCTYPE svg PUBLIC "-//W3C//DTD SVG 1.1//EN" "http://www.w3.org/Graphics/SVG/1.1/DTD/svg11.dtd"><svg width="100%" height="100%" viewBox="0 0 512 512" version="1.1" xmlns="http://www.w3.org/2000/svg" xmlns:xlink="http://www.w3.org/1999/xlink" xml:space="preserve" style="fill-rule:evenodd;clip-rule:evenodd;stroke-linejoin:round;stroke-miterlimit:1.41421;"><path d="M256.002,10.988c-135.098,0 -245.002,109.913 -245.002,245.012c0.01,135.104 109.919,245.012 245.012,245.012c135.089,0 244.988,-109.908 244.988,-245.012c0,-135.099 -109.904,-245.012 -244.998,-245.012Zm0.01,470.475c-124.307,0 -225.452,-101.136 -225.462,-225.463c0,-124.322 101.136,-225.462 225.452,-225.462c124.312,0 225.448,101.14 225.448,225.462c0,124.327 -101.131,225.463 -225.438,225.463Zm70.893,-201.427l-61.118,52.668l0,-174.736c0,-5.396 -4.379,-9.775 -9.775,-9.775c-5.396,0 -9.775,4.379 -9.775,9.775l0,174.736l-61.127,-52.668c-4.091,-3.523 -10.268,-3.064 -13.787,1.027c-3.519,4.091 -3.065,10.268 1.026,13.787l83.663,72.08l83.654,-72.08c4.09,-3.528 4.55,-9.696 1.021,-13.787c-3.519,-4.091 -9.692,-4.55 -13.782,-1.027Z" style="fill:#2cc185;fill-rule:nonzero;"/></svg>