<?xml version="1.0" standalone="no"?>
<!DOCTYPE svg PUBLIC "-//W3C//DTD SVG 1.1//EN" "http://www.w3.org/Graphics/SVG/1.1/DTD/svg11.dtd">
<svg width="100%" height="100%" viewBox="0 0 512 512" version="1.1" xmlns="http://www.w3.org/2000/svg" xmlns:xlink="http://www.w3.org/1999/xlink" xml:space="preserve" style="fill-rule:evenodd;clip-rule:evenodd;stroke-linejoin:round;stroke-miterlimit:1.41421;">
    <g transform="matrix(4.88744,0,0,4.88744,-56.9501,-56.7961)">
        <path d="M64.032,13.869C36.39,13.869 13.903,36.358 13.903,64C13.905,91.643 36.393,114.131 64.034,114.131C91.674,114.131 114.16,91.643 114.16,64C114.16,36.358 91.673,13.869 64.032,13.869ZM64.034,110.131C38.6,110.131 17.905,89.438 17.903,64C17.903,38.563 38.596,17.869 64.032,17.869C89.467,17.869 110.16,38.563 110.16,64C110.16,89.438 89.468,110.131 64.034,110.131ZM78.539,68.918L66.034,79.694L66.034,43.942C66.034,42.838 65.138,41.942 64.034,41.942C62.93,41.942 62.034,42.838 62.034,43.942L62.034,79.694L49.527,68.918C48.69,68.197 47.426,68.291 46.706,69.128C45.986,69.965 46.079,71.229 46.916,71.949L64.034,86.697L81.15,71.949C81.987,71.227 82.081,69.965 81.359,69.128C80.639,68.291 79.376,68.197 78.539,68.918Z" style="fill:white;fill-rule:nonzero;"/>
    </g>
</svg>
