<?xml version="1.0" standalone="no"?>
<!DOCTYPE svg PUBLIC "-//W3C//DTD SVG 1.1//EN" "http://www.w3.org/Graphics/SVG/1.1/DTD/svg11.dtd">
<svg width="100%" height="100%" viewBox="0 0 512 512" version="1.1" xmlns="http://www.w3.org/2000/svg" xmlns:xlink="http://www.w3.org/1999/xlink" xml:space="preserve" style="fill-rule:evenodd;clip-rule:evenodd;stroke-linejoin:round;stroke-miterlimit:1.41421;">
    <g transform="matrix(16.384,0,0,16.384,-6.144,-6.144)">
        <path d="M16,31.625C7.384,31.625 0.375,24.615 0.375,16C0.375,7.384 7.384,0.375 16,0.375C24.615,0.375 31.625,7.384 31.625,16C31.625,24.615 24.615,31.625 16,31.625Z" style="fill:rgb(32,80,129);fill-rule:nonzero;"/>
    </g>
    <g id="g4597" transform="matrix(0.547066,-2.45204e-32,-2.45204e-32,0.547066,128.734,140.406)">
        <g id="g4553">
            <path id="path4555" d="M377.309,326.631C334.676,354.796 286.371,368.885 232.413,368.885C178.454,368.885 130.249,354.796 87.805,326.631L82.665,329.197L80.951,333.766C87.042,371.071 92.466,398.859 97.225,417.133C101.034,423.792 105.982,429.651 112.074,434.695C118.164,439.732 125.109,443.877 132.913,447.114C140.717,450.347 147.999,452.915 154.755,454.817C161.512,456.723 169.267,458.431 178.024,459.961C197.628,463.198 216.802,464.957 235.55,465.241C254.304,465.528 273.523,463.43 293.224,458.962C312.925,454.492 330.96,447.686 347.325,438.552C354.177,434.74 359.696,429.36 363.888,422.42C368.07,415.473 370.784,408.807 372.019,402.435C373.258,396.059 374.593,388.062 376.02,378.449C377.454,368.84 378.925,361.561 380.452,356.612C380.452,354.898 381.219,351.373 382.734,346.048C384.251,340.72 384.729,336.436 384.162,333.201C383.592,329.958 381.306,327.771 377.309,326.631L377.309,326.631Z" style="fill:white;fill-rule:nonzero;"/>
            <path id="path4557" d="M428.99,52.258C417.566,37.796 397.102,26.186 367.603,17.429C311.069,0.868 246.732,-3.891 174.599,3.154C138.82,6.578 109.034,12.667 85.24,21.425C79.528,23.518 74.962,25.277 71.534,26.705C68.107,28.132 63.732,30.273 58.4,33.129C53.07,35.984 48.785,38.839 45.549,41.694C42.315,44.547 39.319,48.116 36.557,52.399C33.795,56.682 32.132,61.296 31.561,66.245C33.27,79.951 35.363,94.986 37.841,111.356C40.319,127.724 42.553,141.762 44.551,153.467C46.548,165.171 49.212,180.54 52.544,199.575C55.877,218.611 58.396,232.888 60.11,242.402C60.491,244.117 61.013,247.443 61.679,252.395C62.346,257.346 62.916,261.107 63.393,263.674C63.869,266.247 64.725,269.485 65.961,273.386C67.198,277.294 68.817,280.62 70.815,283.382C72.815,286.14 75.24,288.669 78.096,290.944C105.886,312.264 143.382,325.491 190.584,330.632C258.722,337.86 316.783,329.492 364.745,305.506C371.024,302.276 376.206,299.325 380.299,296.66C384.392,293.99 388.539,290.184 392.721,285.236C396.907,280.288 399.477,274.96 400.428,269.252C416.608,176.362 427.169,114.027 432.117,82.241C433.26,77.864 433.78,72.724 433.698,66.823C433.61,60.921 432.029,56.063 428.99,52.258L428.99,52.258ZM281.656,263.814C270.041,278.28 255.575,286.271 238.254,287.8C220.747,289.322 205,283.994 191.01,271.812C177.02,259.632 169.644,244.879 168.884,227.557C168.312,214.423 171.596,202.099 178.735,190.584C185.874,179.069 195.437,170.648 207.428,165.318C226.081,156.942 244.824,158.179 263.667,169.029C282.509,179.878 293.269,195.486 295.931,215.853C298.027,233.364 293.274,249.349 281.656,263.814L281.656,263.814ZM342.755,74.387C333.998,77.717 327.099,79.763 322.062,80.523C317.017,81.284 308.503,82.426 296.512,83.955C254.631,89.28 211.996,89.186 168.603,83.668C157.183,82.335 148.855,81.238 143.621,80.379C138.389,79.525 131.394,77.432 122.637,74.099C113.88,70.767 106.647,66.44 100.939,61.108C104.366,56.161 109.125,52.068 115.216,48.833C121.305,45.599 126.541,43.506 130.918,42.553C135.295,41.6 141.578,40.459 149.761,39.126C202.105,29.799 255.969,29.609 311.357,38.556C320.686,40.079 327.442,41.268 331.63,42.125C335.818,42.98 341.335,45.077 348.186,48.405C355.038,51.735 360.373,55.971 364.174,61.108C358.654,66.629 351.513,71.06 342.755,74.387L342.755,74.387Z" style="fill:white;fill-rule:nonzero;"/>
            <path id="path4559" d="M256.39,202.575C251.158,196.958 245.063,193.58 238.118,192.437C231.173,191.296 224.277,192.437 217.423,195.864C210.19,199.1 205.242,204.618 202.574,212.422C199.911,220.226 199.956,228.031 202.718,235.839C205.48,243.642 210.569,249.161 217.993,252.396C228.08,258.491 238.685,257.916 249.827,250.684C260.96,243.456 265.767,233.84 264.241,221.849C264.24,214.616 261.619,208.192 256.39,202.575L256.39,202.575Z" style="fill:white;fill-rule:nonzero;"/>
        </g>
    </g>
</svg>
