<?xml version="1.0" standalone="no"?>
<!DOCTYPE svg PUBLIC "-//W3C//DTD SVG 1.1//EN" "http://www.w3.org/Graphics/SVG/1.1/DTD/svg11.dtd">
<svg width="100%" height="100%" viewBox="0 0 512 512" version="1.1" xmlns="http://www.w3.org/2000/svg" xmlns:xlink="http://www.w3.org/1999/xlink" xml:space="preserve" style="fill-rule:evenodd;clip-rule:evenodd;stroke-linejoin:round;stroke-miterlimit:1.41421;">
    <g>
        <path d="M256,7.098C118.535,7.098 7.098,118.535 7.098,256C7.098,393.465 118.535,504.902 256,504.902C393.465,504.902 504.902,393.465 504.902,256C504.902,118.535 393.465,7.098 256,7.098Z" style="fill:url(#_Linear1);fill-rule:nonzero;"/>
    </g>
    <g transform="matrix(16,0,0,16,0,15.992)">
        <path d="M24.299,22.932L24.299,16.795C24.299,13.507 22.544,11.977 20.203,11.977C18.314,11.977 17.468,13.016 16.997,13.745L16.997,12.228L13.439,12.228C13.486,13.233 13.439,22.932 13.439,22.932L16.997,22.932L16.997,16.954C16.997,16.635 17.02,16.315 17.114,16.087C17.371,15.448 17.956,14.786 18.939,14.786C20.227,14.786 20.742,15.767 20.742,17.206L20.742,22.933L24.299,22.932ZM9.69,10.767C10.93,10.767 11.703,9.944 11.703,8.917C11.68,7.867 10.93,7.068 9.713,7.068C8.496,7.068 7.701,7.866 7.701,8.916C7.701,9.944 8.473,10.766 9.668,10.766L9.69,10.766L9.69,10.767ZM11.469,22.932L11.469,12.228L7.912,12.228L7.912,22.932L11.469,22.932Z" style="fill:white;fill-rule:nonzero;"/>
    </g>
    <defs>
        <linearGradient id="_Linear1" x1="0" y1="0" x2="1" y2="0" gradientUnits="userSpaceOnUse" gradientTransform="matrix(568.947,636.679,-636.679,568.947,-20.1191,-52.9904)"><stop offset="0%" style="stop-color:rgb(81,127,166);stop-opacity:1"/><stop offset="100%" style="stop-color:rgb(66,102,153);stop-opacity:1"/></linearGradient>
    </defs>
</svg>
