<?xml version="1.0" standalone="no"?>
<!DOCTYPE svg PUBLIC "-//W3C//DTD SVG 1.1//EN" "http://www.w3.org/Graphics/SVG/1.1/DTD/svg11.dtd">
<svg width="100%" height="100%" viewBox="0 0 512 512" version="1.1" xmlns="http://www.w3.org/2000/svg" xmlns:xlink="http://www.w3.org/1999/xlink" xml:space="preserve" style="fill-rule:evenodd;clip-rule:evenodd;stroke-linejoin:round;stroke-miterlimit:1.41421;">
    <g id="Flat_copy" transform="matrix(16,0,0,16,0,0)">
        <g>
            <path d="M16.005,31.614C7.39,31.614 0.38,24.604 0.38,15.989C0.38,7.374 7.39,0.364 16.005,0.364C24.62,0.364 31.63,7.374 31.63,15.989C31.63,24.604 24.62,31.614 16.005,31.614Z" style="fill:white;fill-opacity:0.647059;fill-rule:nonzero;"/>
            <path d="M16.005,0.739C24.414,0.739 31.255,7.58 31.255,15.989C31.255,24.398 24.414,31.239 16.005,31.239C7.596,31.239 0.755,24.398 0.755,15.989C0.755,7.58 7.596,0.739 16.005,0.739M16.005,-0.011C7.168,-0.011 0.005,7.152 0.005,15.989C0.005,24.825 7.168,31.989 16.005,31.989C24.842,31.989 32.005,24.825 32.005,15.989C32.005,7.153 24.842,-0.011 16.005,-0.011Z" style="fill:rgb(51,51,51);fill-opacity:0.647059;fill-rule:nonzero;"/>
        </g>
        <path d="M24.299,22.932L24.299,16.795C24.299,13.507 22.544,11.977 20.203,11.977C18.314,11.977 17.468,13.016 16.997,13.745L16.997,12.228L13.439,12.228C13.486,13.233 13.439,22.932 13.439,22.932L16.997,22.932L16.997,16.954C16.997,16.635 17.02,16.315 17.114,16.087C17.371,15.448 17.956,14.786 18.939,14.786C20.227,14.786 20.742,15.767 20.742,17.206L20.742,22.933L24.299,22.932ZM9.69,10.767C10.93,10.767 11.703,9.944 11.703,8.917C11.68,7.867 10.93,7.068 9.713,7.068C8.496,7.068 7.701,7.866 7.701,8.916C7.701,9.944 8.473,10.766 9.668,10.766L9.69,10.766L9.69,10.767ZM11.469,22.932L11.469,12.228L7.912,12.228L7.912,22.932L11.469,22.932Z" style="fill:rgb(51,51,51);fill-rule:nonzero;"/>
    </g>
</svg>
