<?xml version="1.0" encoding="UTF-8" standalone="no"?><!DOCTYPE svg PUBLIC "-//W3C//DTD SVG 1.1//EN" "http://www.w3.org/Graphics/SVG/1.1/DTD/svg11.dtd"><svg width="100%" height="100%" viewBox="0 0 512 512" version="1.1" xmlns="http://www.w3.org/2000/svg" xmlns:xlink="http://www.w3.org/1999/xlink" xml:space="preserve" style="fill-rule:evenodd;clip-rule:evenodd;stroke-linejoin:round;stroke-miterlimit:1.41421;"><g id="Flat_copy"><g><path d="M256,506c-137.856,0 -250,-112.16 -250,-250c0,-137.856 112.144,-250 250,-250c137.84,0 250,112.144 250,250c0,137.84 -112.16,250 -250,250Z" style="fill:#fff;fill-opacity:0.647059;fill-rule:nonzero;"/><path d="M256,12c134.544,0 244,109.456 244,244c0,134.544 -109.456,244 -244,244c-134.544,0 -244,-109.456 -244,-244c0,-134.544 109.456,-244 244,-244M256,0c-141.392,0 -256,114.608 -256,256c0,141.376 114.608,256 256,256c141.392,0 256,-114.624 256,-256c0,-141.392 -114.608,-256 -256,-256Z" style="fill:#333;fill-opacity:0.647059;fill-rule:nonzero;"/></g><g><path d="M88.242,358.881l91.805,-115.425l-91.805,-56.12l0,171.545Z" style="fill:#333;fill-rule:nonzero;"/><path d="M317.923,251.506l-62.118,38.251l-62.223,-38.039l-94.867,119.282l314.162,0l-94.954,-119.494Z" style="fill:#333;fill-rule:nonzero;"/><path d="M255.787,271.286l167.971,-103.447l0,-26.839l-335.516,0l0,27.883l167.545,102.403Z" style="fill:#333;fill-rule:nonzero;"/><path d="M331.423,243.191l92.335,116.185l0,-173.049l-92.335,56.864Z" style="fill:#333;fill-rule:nonzero;"/></g></g></svg>