<?xml version="1.0" encoding="UTF-8" standalone="no"?><!DOCTYPE svg PUBLIC "-//W3C//DTD SVG 1.1//EN" "http://www.w3.org/Graphics/SVG/1.1/DTD/svg11.dtd"><svg width="100%" height="100%" viewBox="0 0 512 512" version="1.1" xmlns="http://www.w3.org/2000/svg" xmlns:xlink="http://www.w3.org/1999/xlink" xml:space="preserve" style="fill-rule:evenodd;clip-rule:evenodd;stroke-linejoin:round;stroke-miterlimit:1.41421;"><g id="Flat_copy"><path d="M256,512c-141.165,0 -256,-114.852 -256,-256c0,-141.165 114.835,-256 256,-256c141.148,0 256,114.835 256,256c0,141.148 -114.852,256 -256,256Z" style="fill:#ffa700;fill-rule:nonzero;"/><g><path d="M88.242,358.881l91.805,-115.425l-91.805,-56.12l0,171.545Z" style="fill:#333;fill-rule:nonzero;"/><path d="M317.923,251.506l-62.118,38.251l-62.223,-38.039l-94.867,119.282l314.162,0l-94.954,-119.494Z" style="fill:#333;fill-rule:nonzero;"/><path d="M255.787,271.286l167.971,-103.447l0,-26.839l-335.516,0l0,27.883l167.545,102.403Z" style="fill:#333;fill-rule:nonzero;"/><path d="M331.423,243.191l92.335,116.185l0,-173.049l-92.335,56.864Z" style="fill:#333;fill-rule:nonzero;"/></g></g></svg>