<?xml version="1.0" standalone="no"?>
<!DOCTYPE svg PUBLIC "-//W3C//DTD SVG 1.1//EN" "http://www.w3.org/Graphics/SVG/1.1/DTD/svg11.dtd">
<svg width="100%" height="100%" viewBox="0 0 512 512" version="1.1" xmlns="http://www.w3.org/2000/svg" xmlns:xlink="http://www.w3.org/1999/xlink" xml:space="preserve" style="fill-rule:evenodd;clip-rule:evenodd;stroke-linejoin:round;stroke-miterlimit:1.41421;">
    <g id="layer1" transform="matrix(1.024,0,0,1.024,0,-565.619)">
        <path id="rect2990-1" d="M500,796.503C500,661.758 390.604,552.362 255.859,552.362L244.141,552.362C109.396,552.362 0,661.758 0,796.503L0,808.222C0,942.966 109.396,1052.36 244.141,1052.36L255.859,1052.36C390.604,1052.36 500,942.966 500,808.222L500,796.503Z" style="fill:rgb(85,172,238);"/>
        <g transform="matrix(15.625,0,0,15.625,0.00326812,552.359)">
            <path d="M18.226,8.886C16.636,9.465 15.631,10.957 15.745,12.59L15.783,13.22L15.147,13.143C12.832,12.847 10.809,11.844 9.091,10.159L8.251,9.323L8.036,9.94C7.578,11.316 7.871,12.77 8.825,13.748C9.334,14.288 9.219,14.365 8.342,14.044C8.037,13.941 7.769,13.864 7.744,13.903C7.655,13.993 7.96,15.163 8.202,15.627C8.533,16.271 9.207,16.9 9.945,17.274L10.569,17.57L9.83,17.581C9.118,17.581 9.092,17.594 9.169,17.865C9.423,18.701 10.428,19.589 11.548,19.975L12.337,20.245L11.65,20.657C10.632,21.25 9.436,21.584 8.24,21.608C7.667,21.621 7.196,21.672 7.196,21.711C7.196,21.839 8.749,22.559 9.651,22.843C12.361,23.679 15.58,23.318 17.997,21.891C19.715,20.875 21.432,18.855 22.234,16.899C22.667,15.858 23.099,13.954 23.099,13.041C23.099,12.449 23.137,12.372 23.849,11.665C24.269,11.253 24.663,10.803 24.74,10.675C24.868,10.43 24.854,10.43 24.206,10.649C23.125,11.035 22.972,10.984 23.507,10.405C23.901,9.993 24.372,9.247 24.372,9.029C24.372,8.991 24.181,9.055 23.965,9.17C23.736,9.299 23.227,9.492 22.845,9.607L22.158,9.826L21.535,9.4C21.191,9.169 20.709,8.911 20.454,8.834C19.804,8.654 18.812,8.68 18.226,8.886Z" style="fill:white;fill-rule:nonzero;"/>
        </g>
    </g>
</svg>
