<?xml version="1.0" encoding="UTF-8" standalone="no"?><!DOCTYPE svg PUBLIC "-//W3C//DTD SVG 1.1//EN" "http://www.w3.org/Graphics/SVG/1.1/DTD/svg11.dtd"><svg width="100%" height="100%" viewBox="0 0 512 299" version="1.1" xmlns="http://www.w3.org/2000/svg" xmlns:xlink="http://www.w3.org/1999/xlink" xml:space="preserve" xmlns:serif="http://www.serif.com/" style="fill-rule:evenodd;clip-rule:evenodd;stroke-linejoin:round;stroke-miterlimit:1.41421;"><rect x="0" y="0" width="512" height="299" style="fill:#888;"/><g><g><path d="M79,90l0,15l-34,0l0,104l-15,0l0,-119l49,0Z" style="fill:#fff;"/><path d="M80.5,209l0,-15l34,0l0,-104l15,0l0,119l-49,0Z" style="fill:#fff;"/></g><path d="M131.5,90l0,67l84.5,0l0,37.5l-84.5,0l0,14.5l99.5,0l0,-119l-15,0l0,52l-69.5,0l0,-52l-15,0Z" style="fill:#fff;"/><g><rect x="236.5" y="169.5" width="17.5" height="17.5" style="fill:#fff;"/><rect x="236.5" y="102.5" width="17.5" height="17.5" style="fill:#fff;"/></g><g><path d="M259.5,142l99.5,0l0,67l-99.5,0l0,-14.5l85,0l0,-37.5l-85,0l0,-15Z" style="fill:#fff;"/><rect x="259.5" y="90" width="99.5" height="15" style="fill:#fff;"/></g><rect x="445.5" y="90" width="15" height="119" style="fill:#fff;"/></g></svg>