<?xml version="1.0" encoding="UTF-8" standalone="no"?><!DOCTYPE svg PUBLIC "-//W3C//DTD SVG 1.1//EN" "http://www.w3.org/Graphics/SVG/1.1/DTD/svg11.dtd"><svg width="100%" height="100%" viewBox="0 0 40 27" version="1.1" xmlns="http://www.w3.org/2000/svg" xmlns:xlink="http://www.w3.org/1999/xlink" xml:space="preserve" xmlns:serif="http://www.serif.com/" style="fill-rule:evenodd;clip-rule:evenodd;stroke-linejoin:round;stroke-miterlimit:2;"><path d="M36.919,0c1.459,0 2.643,1.185 2.643,2.644l0,20.962c0,1.459 -1.184,2.644 -2.643,2.644l-34.088,0c-1.459,0 -2.643,-1.185 -2.644,-2.644l0,-20.962c0.001,-1.459 1.185,-2.644 2.644,-2.644l34.088,0Z" style="fill:#37363b;fill-opacity:0.89;"/><g id="colour"><path d="M28.134,9.838c-0.095,-0.287 -0.206,-0.574 -0.331,-0.857l-0.483,0.217c0.259,0.489 0.479,1.008 0.655,1.554l-1.738,0.571c0.558,2.65 -0.449,5.391 -2.711,7.051l1.304,1.813c3.283,-2.41 4.567,-6.543 3.304,-10.349Z" style="fill:#d589fc;fill-rule:nonzero;"/><path d="M25.741,20.058c0.241,-0.181 0.477,-0.376 0.705,-0.583l-0.354,-0.397c-0.38,0.4 -0.801,0.771 -1.261,1.109l-1.074,-1.493c-2.323,1.355 -5.215,1.234 -7.476,-0.425l-1.305,1.812c3.284,2.41 7.571,2.366 10.765,-0.023Z" style="fill:#fe2530;fill-rule:nonzero;"/><path d="M15.379,20.917c0.245,0.176 0.501,0.342 0.767,0.497l0.264,-0.463c-0.494,-0.242 -0.973,-0.531 -1.434,-0.868l1.074,-1.494c-1.993,-1.813 -2.774,-4.628 -1.91,-7.313l-2.11,-0.693c-1.254,3.899 0.113,8.004 3.349,10.334Z" style="fill:#008ffd;fill-rule:nonzero;"/><path d="M11.368,11.228c-0.09,0.289 -0.167,0.587 -0.231,0.89l0.518,0.111c0.075,-0.549 0.198,-1.099 0.374,-1.646l1.738,0.571c1.091,-2.476 3.501,-4.095 6.296,-4.095l0,-2.241c-4.058,0 -7.501,2.581 -8.695,6.41Z" style="fill:#fdd901;fill-rule:nonzero;"/><path d="M19.252,4.381c-0.301,0.003 -0.605,0.021 -0.91,0.053l0.055,0.532c0.541,-0.098 1.097,-0.149 1.666,-0.149l0,1.846c2.668,0.283 4.937,2.097 5.801,4.782l2.11,-0.692c-1.254,-3.899 -4.749,-6.409 -8.722,-6.372Z" style="fill:#00de2f;fill-rule:nonzero;"/></g></svg>