<?xml version="1.0" encoding="UTF-8" standalone="no"?>
<!DOCTYPE svg PUBLIC "-//W3C//DTD SVG 1.1//EN" "http://www.w3.org/Graphics/SVG/1.1/DTD/svg11.dtd">
<svg width="100%" height="100%" viewBox="0 0 53 35" version="1.1" xmlns="http://www.w3.org/2000/svg" xmlns:xlink="http://www.w3.org/1999/xlink" xml:space="preserve" xmlns:serif="http://www.serif.com/" style="fill-rule:evenodd;clip-rule:evenodd;stroke-linejoin:round;stroke-miterlimit:2;">
    <g transform="matrix(1.33333,0,0,1.33333,1.19349e-14,2.95987e-16)">
        <path d="M17.556,26.25L16.025,26.25L16.025,18.507L4.389,26.25L3.164,26.25L16.025,17.632L16.025,16.975L14.1,16.975L1.181,25.671C0.575,25.186 0.188,24.441 0.188,23.606L0.188,23.451L9.9,16.975L0.187,16.975L0.188,15.444L17.556,15.444L17.556,26.25ZM39.563,16.975L29.85,16.975L39.563,23.451L39.563,23.606C39.563,23.835 39.533,24.057 39.478,24.269L28.581,16.975L25.694,16.975L38.626,25.624C38.165,26.015 37.569,26.25 36.919,26.25L35.361,26.25L23.725,18.507L23.725,26.25L22.194,26.25L22.194,15.444L39.563,15.444L39.563,16.975ZM16.025,0L17.556,0L17.556,10.806L0.187,10.806L0.187,9.275L9.9,9.275L0.187,2.799L0.187,2.644C0.188,2.415 0.217,2.193 0.272,1.981L11.169,9.275L14.056,9.275L1.124,0.626C1.585,0.235 2.181,-0 2.831,-0L4.389,-0L16.025,7.743L16.025,-0ZM36.586,0L23.725,8.618L23.725,9.275L25.65,9.275L38.569,0.579C39.175,1.064 39.562,1.809 39.562,2.644L39.562,2.799L29.85,9.275L39.563,9.275L39.563,10.806L22.194,10.806L22.194,0L23.725,0L23.725,7.743L35.361,0L36.586,0Z" style="fill:rgb(237,237,237);"/>
    </g>
</svg>
