<?xml version="1.0" encoding="UTF-8" standalone="no"?><!DOCTYPE svg PUBLIC "-//W3C//DTD SVG 1.1//EN" "http://www.w3.org/Graphics/SVG/1.1/DTD/svg11.dtd"><svg width="100%" height="100%" viewBox="0 0 40 27" version="1.1" xmlns="http://www.w3.org/2000/svg" xmlns:xlink="http://www.w3.org/1999/xlink" xml:space="preserve" xmlns:serif="http://www.serif.com/" style="fill-rule:evenodd;clip-rule:evenodd;stroke-linejoin:round;stroke-miterlimit:2;"><path d="M17.556,26.25l-1.531,0l0,-7.743l-11.636,7.743l-1.225,0l12.861,-8.618l0,-0.657l-1.925,0l-12.919,8.696c-0.606,-0.485 -0.993,-1.23 -0.993,-2.065l0,-0.155l9.712,-6.476l-9.713,0l0.001,-1.531l17.368,0l0,10.806Zm22.007,-9.275l-9.713,0l9.713,6.476l0,0.155c0,0.229 -0.03,0.451 -0.085,0.663l-10.897,-7.294l-2.887,0l12.932,8.649c-0.461,0.391 -1.057,0.626 -1.707,0.626l-1.558,0l-11.636,-7.743l0,7.743l-1.531,0l0,-10.806l17.369,0l0,1.531Zm-23.538,-16.975l1.531,0l0,10.806l-17.369,0l0,-1.531l9.713,0l-9.713,-6.476l0,-0.155c0.001,-0.229 0.03,-0.451 0.085,-0.663l10.897,7.294l2.887,0l-12.932,-8.649c0.461,-0.391 1.057,-0.626 1.707,-0.626l1.558,0l11.636,7.743l0,-7.743Zm20.561,0l-12.861,8.618l0,0.657l1.925,0l12.919,-8.696c0.606,0.485 0.993,1.23 0.993,2.065l0,0.155l-9.712,6.476l9.713,0l0,1.531l-17.369,0l0,-10.806l1.531,0l0,7.743l11.636,-7.743l1.225,0Z" style="fill:#ededed;"/></svg>