<?xml version="1.0" encoding="UTF-8" standalone="no"?>
<!DOCTYPE svg PUBLIC "-//W3C//DTD SVG 1.1//EN" "http://www.w3.org/Graphics/SVG/1.1/DTD/svg11.dtd">
<svg width="100%" height="100%" viewBox="0 0 53 35" version="1.1" xmlns="http://www.w3.org/2000/svg" xmlns:xlink="http://www.w3.org/1999/xlink" xml:space="preserve" xmlns:serif="http://www.serif.com/" style="fill-rule:evenodd;clip-rule:evenodd;stroke-linejoin:round;stroke-miterlimit:2;">
    <g transform="matrix(1.33333,0,0,1.33333,0.000666667,0)">
        <path d="M36.919,0C38.378,0 39.562,1.185 39.562,2.644L39.562,23.606C39.562,25.065 38.378,26.25 36.919,26.25L2.831,26.25C1.372,26.25 0.188,25.065 0.187,23.606L0.187,2.644C0.188,1.185 1.372,0 2.831,0L36.919,0Z" style="fill:rgb(55,54,59);fill-opacity:0.89;"/>
        <g id="colour" transform="matrix(1,0,0,1,-0.000212802,9.54384e-05)">
            <path d="M28.134,9.838C28.039,9.551 27.928,9.264 27.803,8.981L27.32,9.198C27.579,9.687 27.799,10.206 27.975,10.752L26.237,11.323C26.795,13.973 25.788,16.714 23.526,18.374L24.83,20.187C28.113,17.777 29.397,13.644 28.134,9.838Z" style="fill:rgb(213,137,252);fill-rule:nonzero;"/>
            <path d="M25.741,20.058C25.982,19.877 26.218,19.682 26.446,19.475L26.092,19.078C25.712,19.478 25.291,19.849 24.831,20.187L23.757,18.694C21.434,20.049 18.542,19.928 16.281,18.269L14.976,20.081C18.26,22.491 22.547,22.447 25.741,20.058Z" style="fill:rgb(254,37,48);fill-rule:nonzero;"/>
            <path d="M15.379,20.917C15.624,21.093 15.88,21.259 16.146,21.414L16.41,20.951C15.916,20.709 15.437,20.42 14.976,20.083L16.05,18.589C14.057,16.776 13.276,13.961 14.14,11.276L12.03,10.583C10.776,14.482 12.143,18.587 15.379,20.917Z" style="fill:rgb(0,143,253);fill-rule:nonzero;"/>
            <path d="M11.368,11.228C11.278,11.517 11.201,11.815 11.137,12.118L11.655,12.229C11.73,11.68 11.853,11.13 12.029,10.583L13.767,11.154C14.858,8.678 17.268,7.059 20.063,7.059L20.063,4.818C16.005,4.818 12.562,7.399 11.368,11.228Z" style="fill:rgb(253,217,1);fill-rule:nonzero;"/>
            <path d="M19.252,4.381C18.951,4.384 18.647,4.402 18.342,4.434L18.397,4.966C18.938,4.868 19.494,4.817 20.063,4.817L20.063,6.663C22.731,6.946 25,8.76 25.864,11.445L27.974,10.753C26.72,6.854 23.225,4.344 19.252,4.381Z" style="fill:rgb(0,222,47);fill-rule:nonzero;"/>
        </g>
    </g>
</svg>
