<?xml version="1.0" encoding="UTF-8" standalone="no"?><!DOCTYPE svg PUBLIC "-//W3C//DTD SVG 1.1//EN" "http://www.w3.org/Graphics/SVG/1.1/DTD/svg11.dtd"><svg width="100%" height="100%" viewBox="0 0 53 35" version="1.1" xmlns="http://www.w3.org/2000/svg" xmlns:xlink="http://www.w3.org/1999/xlink" xml:space="preserve" xmlns:serif="http://www.serif.com/" style="fill-rule:evenodd;clip-rule:evenodd;stroke-linejoin:round;stroke-miterlimit:2;"><path d="M49.225,0.001c1.945,0 3.525,1.58 3.525,3.525l0,27.948c0,1.945 -1.58,3.525 -3.525,3.525l-45.45,0c-1.945,0 -3.525,-1.58 -3.525,-3.525l0,-27.948c0,-1.945 1.58,-3.525 3.525,-3.525l45.45,0Z" style="fill:#ededed;fill-opacity:0.89;"/><g id="colour"><path d="M37.52,13.118c-0.127,-0.384 -0.275,-0.765 -0.442,-1.143l-0.644,0.29c0.345,0.651 0.639,1.343 0.873,2.071l-2.319,0.761c0.745,3.534 -0.599,7.188 -3.616,9.401l1.739,2.417c4.381,-3.213 6.094,-8.722 4.409,-13.797Z" style="fill:#b173d2;fill-rule:nonzero;"/><path d="M34.327,26.743c0.322,-0.241 0.636,-0.501 0.94,-0.777l-0.472,-0.529c-0.507,0.533 -1.068,1.028 -1.682,1.478l-1.433,-1.991c-3.1,1.807 -6.958,1.647 -9.976,-0.566l-1.74,2.417c4.381,3.212 10.102,3.154 14.363,-0.032Z" style="fill:#fe001d;fill-rule:nonzero;"/><path d="M20.501,27.888c0.327,0.235 0.669,0.456 1.023,0.663l0.353,-0.617c-0.659,-0.322 -1.299,-0.707 -1.913,-1.158l1.433,-1.991c-2.66,-2.417 -3.701,-6.17 -2.549,-9.751l-2.815,-0.923c-1.673,5.198 0.15,10.671 4.468,13.777Z" style="fill:#0086ff;fill-rule:nonzero;"/><path d="M15.15,14.971c-0.12,0.386 -0.223,0.782 -0.308,1.187l0.69,0.148c0.1,-0.733 0.265,-1.466 0.5,-2.195l2.319,0.761c1.455,-3.301 4.67,-5.46 8.4,-5.46l0,-2.988c-5.415,0 -10.009,3.442 -11.601,8.547Z" style="fill:#fdcf00;fill-rule:nonzero;"/><path d="M25.668,5.842c-0.401,0.004 -0.806,0.028 -1.214,0.071l0.074,0.708c0.721,-0.13 1.463,-0.198 2.222,-0.198l0,2.461c3.56,0.378 6.588,2.796 7.741,6.377l2.815,-0.923c-1.673,-5.198 -6.336,-8.545 -11.638,-8.496Z" style="fill:#00d61a;fill-rule:nonzero;"/></g></svg>