<?xml version="1.0" encoding="UTF-8" standalone="no"?>
<!DOCTYPE svg PUBLIC "-//W3C//DTD SVG 1.1//EN" "http://www.w3.org/Graphics/SVG/1.1/DTD/svg11.dtd">
<svg width="100%" height="100%" viewBox="0 0 53 35" version="1.1" xmlns="http://www.w3.org/2000/svg" xmlns:xlink="http://www.w3.org/1999/xlink" xml:space="preserve" xmlns:serif="http://www.serif.com/" style="fill-rule:evenodd;clip-rule:evenodd;stroke-linejoin:round;stroke-miterlimit:2;">
    <path d="M49.225,0.001C51.17,0.001 52.75,1.581 52.75,3.526L52.75,31.474C52.75,33.419 51.17,34.999 49.225,34.999L3.775,34.999C1.83,34.999 0.25,33.419 0.25,31.474L0.25,3.526C0.25,1.581 1.83,0.001 3.775,0.001L49.225,0.001Z" style="fill:rgb(237,237,237);"/>
    <g id="bw">
        <path d="M37.512,13.121C37.385,12.738 37.237,12.356 37.071,11.979L36.427,12.268C36.772,12.92 37.065,13.61 37.3,14.339L34.982,15.099C35.726,18.63 34.384,22.281 31.368,24.493L33.107,26.908C37.484,23.698 39.196,18.192 37.512,13.121Z" style="fill:rgb(55,54,59);fill-rule:nonzero;"/>
        <path d="M34.321,26.737C34.643,26.496 34.957,26.236 35.261,25.96L34.789,25.431C34.282,25.964 33.722,26.459 33.108,26.909L31.676,24.919C28.578,26.725 24.723,26.564 21.707,24.353L19.968,26.768C24.346,29.978 30.063,29.92 34.321,26.737Z" style="fill:rgb(55,54,59);fill-rule:nonzero;"/>
        <path d="M20.505,27.881C20.832,28.115 21.173,28.336 21.528,28.543L21.88,27.927C21.222,27.605 20.582,27.22 19.968,26.77L21.401,24.78C18.742,22.364 17.702,18.614 18.854,15.036L16.04,14.113C14.368,19.307 16.19,24.777 20.505,27.881Z" style="fill:rgb(55,54,59);fill-rule:nonzero;"/>
        <path d="M15.158,14.972C15.038,15.358 14.935,15.755 14.85,16.159L15.54,16.306C15.639,15.575 15.805,14.842 16.039,14.114L18.356,14.874C19.811,11.575 23.024,9.418 26.751,9.418L26.751,6.432C21.34,6.432 16.749,9.871 15.158,14.972Z" style="fill:rgb(55,54,59);fill-rule:nonzero;"/>
        <path d="M25.669,5.851C25.268,5.854 24.863,5.878 24.456,5.921L24.53,6.629C25.25,6.499 25.992,6.431 26.75,6.431L26.75,8.89C30.308,9.267 33.334,11.684 34.485,15.262L37.299,14.34C35.626,9.146 30.967,5.801 25.669,5.851Z" style="fill:rgb(55,54,59);fill-rule:nonzero;"/>
    </g>
</svg>
