<?xml version="1.0" encoding="UTF-8" standalone="no"?>
<!DOCTYPE svg PUBLIC "-//W3C//DTD SVG 1.1//EN" "http://www.w3.org/Graphics/SVG/1.1/DTD/svg11.dtd">
<svg width="100%" height="100%" viewBox="0 0 53 35" version="1.1" xmlns="http://www.w3.org/2000/svg" xmlns:xlink="http://www.w3.org/1999/xlink" xml:space="preserve" xmlns:serif="http://www.serif.com/" style="fill-rule:evenodd;clip-rule:evenodd;stroke-linejoin:round;stroke-miterlimit:2;">
    <g id="light-colour" transform="matrix(1,0,0,1,0.25,0.001)">
        <g transform="matrix(1,0,0,1,-0.25,-0.001)">
            <path d="M21.367,34.999L5.852,34.999L21.367,24.675L21.367,34.999ZM47.148,34.999L31.633,34.999L31.633,24.675L47.148,34.999ZM49.306,34.998L49.225,34.999L49.306,34.998ZM49.387,34.995L49.311,34.998L49.387,34.995ZM3.631,34.996L3.647,34.997L3.631,34.996ZM3.589,34.994L3.604,34.995L3.589,34.994ZM49.467,34.991L49.396,34.995L49.467,34.991ZM3.546,34.992L3.558,34.992L3.546,34.992ZM49.546,34.984L49.52,34.987L49.546,34.984ZM3.452,34.984L3.462,34.985L3.452,34.984ZM3.323,34.97L3.332,34.971L3.323,34.97ZM52.75,31.531C52.745,31.791 52.713,32.043 52.656,32.286C52.717,32.025 52.75,31.753 52.75,31.474L52.75,31.531ZM0.25,31.267L0.25,22.633L13.2,22.633L0.25,31.267ZM31.633,10.325L31.633,0.001L47.148,0.001L31.633,10.325ZM0.25,3.733L13.2,12.367L0.25,12.367L0.25,3.733ZM52.75,3.733L52.75,12.367L39.8,12.367L52.75,3.733ZM49.581,0.019L49.593,0.02L49.581,0.019ZM3.48,0.013L3.454,0.016L3.48,0.013ZM3.604,0.005L3.533,0.009L3.604,0.005ZM49.442,0.008L49.454,0.008L49.442,0.008ZM3.689,0.002L3.613,0.005L3.689,0.002ZM49.353,0.003L49.369,0.004L49.353,0.003ZM49.268,0.001L49.281,0.001L49.268,0.001ZM39.8,22.633L52.75,22.633L52.75,31.267L39.8,22.633ZM0.25,3.469C0.253,3.308 0.266,3.149 0.29,2.994C0.264,3.168 0.25,3.345 0.25,3.526L0.25,3.469ZM21.367,10.325L5.852,0.001L21.367,0.001L21.367,10.325ZM3.694,0.002L3.775,0.001C3.748,0.001 3.721,0.001 3.694,0.002Z" style="fill:rgb(1,116,232);fill-opacity:0.89;fill-rule:nonzero;"/>
        </g>
        <path d="M23.158,34.998L21.117,34.998L21.117,24.674L5.602,34.998L3.968,34.998L21.117,23.507L21.117,22.632L18.55,22.632L1.324,34.226C0.517,33.579 0,32.586 0,31.473L0,31.266L12.95,22.632L0,22.632L0,20.591L23.158,20.591L23.158,34.998ZM52.5,22.632L39.55,22.632L52.5,31.266L52.5,31.473C52.5,31.778 52.461,32.074 52.388,32.357L37.858,22.632L34.008,22.632L51.251,34.164C50.637,34.684 49.842,34.998 48.975,34.998L46.898,34.998L31.383,24.674L31.383,34.998L29.342,34.998L29.342,20.591L52.5,20.591L52.5,22.632ZM21.117,-0L23.158,-0L23.158,14.407L0,14.407L0,12.366L12.95,12.366L0,3.732L0,3.525C0,3.22 0.039,2.923 0.112,2.641L14.642,12.366L18.492,12.366L1.249,0.834C1.863,0.314 2.658,-0 3.525,-0L5.602,-0L21.117,10.324L21.117,-0ZM48.532,-0L31.383,11.491L31.383,12.366L33.95,12.366L51.176,0.772C51.983,1.418 52.5,2.412 52.5,3.525L52.5,3.732L39.55,12.366L52.5,12.366L52.5,14.407L29.342,14.407L29.342,-0L31.383,-0L31.383,10.324L46.898,-0L48.532,-0Z" style="fill:white;fill-opacity:0.89;"/>
        <g>
            <g>
                <path d="M48.975,0C49.807,0 50.573,0.289 51.176,0.772L33.95,12.366L31.383,12.366L31.383,11.491L48.532,0L48.975,0Z" style="fill:rgb(254,0,29);fill-opacity:0.89;"/>
                <path d="M18.492,12.366L14.642,12.366L0.112,2.641C0.297,1.925 0.702,1.298 1.249,0.834L18.492,12.366Z" style="fill:rgb(254,0,29);fill-opacity:0.89;"/>
                <path d="M34.008,22.632L37.858,22.632L52.388,32.357C52.203,33.073 51.798,33.7 51.251,34.164L34.008,22.632Z" style="fill:rgb(254,0,29);fill-opacity:0.89;"/>
                <path d="M18.55,22.632L21.117,22.632L21.117,23.507L3.968,34.998L3.525,34.998C2.693,34.998 1.927,34.709 1.324,34.226L18.55,22.632Z" style="fill:rgb(254,0,29);fill-opacity:0.89;"/>
            </g>
            <path d="M-0,14.407L23.158,14.407L23.158,0L29.342,-0L29.342,14.407L52.5,14.407L52.5,20.591L29.342,20.591L29.342,34.998L23.158,34.998L23.158,20.591L-0,20.591L-0,14.407Z" style="fill:rgb(228,11,49);fill-opacity:0.89;"/>
        </g>
    </g>
</svg>
