<?xml version="1.0" encoding="UTF-8" standalone="no"?>
<!DOCTYPE svg PUBLIC "-//W3C//DTD SVG 1.1//EN" "http://www.w3.org/Graphics/SVG/1.1/DTD/svg11.dtd">
<svg width="100%" height="100%" viewBox="0 0 53 35" version="1.1" xmlns="http://www.w3.org/2000/svg" xmlns:xlink="http://www.w3.org/1999/xlink" xml:space="preserve" xmlns:serif="http://www.serif.com/" style="fill-rule:evenodd;clip-rule:evenodd;stroke-linejoin:round;stroke-miterlimit:2;">
    <g transform="matrix(1,0,0,1,0.25,0.001)">
        <path d="M23.158,34.998L21.117,34.998L21.117,24.674L5.602,34.998L3.968,34.998L21.117,23.507L21.117,22.632L18.55,22.632L1.324,34.226C0.517,33.579 0,32.586 0,31.473L0,31.266L12.95,22.632L0,22.632L0,20.591L23.158,20.591L23.158,34.998ZM52.5,22.632L39.55,22.632L52.5,31.266L52.5,31.473C52.5,31.778 52.461,32.074 52.388,32.357L37.858,22.632L34.008,22.632L51.251,34.164C50.637,34.684 49.842,34.998 48.975,34.998L46.898,34.998L31.383,24.674L31.383,34.998L29.342,34.998L29.342,20.591L52.5,20.591L52.5,22.632ZM21.117,-0L23.158,-0L23.158,14.407L0,14.407L0,12.366L12.95,12.366L0,3.732L0,3.525C0,3.22 0.039,2.923 0.112,2.641L14.642,12.366L18.492,12.366L1.249,0.834C1.863,0.314 2.658,-0 3.525,-0L5.602,-0L21.117,10.324L21.117,-0ZM48.532,-0L31.383,11.491L31.383,12.366L33.95,12.366L51.176,0.772C51.983,1.418 52.5,2.412 52.5,3.525L52.5,3.732L39.55,12.366L52.5,12.366L52.5,14.407L29.342,14.407L29.342,-0L31.383,-0L31.383,10.324L46.898,-0L48.532,-0Z" style="fill:rgb(55,54,59);"/>
    </g>
</svg>
