<?xml version="1.0" encoding="UTF-8" standalone="no"?><!DOCTYPE svg PUBLIC "-//W3C//DTD SVG 1.1//EN" "http://www.w3.org/Graphics/SVG/1.1/DTD/svg11.dtd"><svg width="100%" height="100%" viewBox="0 0 53 35" version="1.1" xmlns="http://www.w3.org/2000/svg" xmlns:xlink="http://www.w3.org/1999/xlink" xml:space="preserve" xmlns:serif="http://www.serif.com/" style="fill-rule:evenodd;clip-rule:evenodd;stroke-linejoin:round;stroke-miterlimit:2;"><path d="M23.158,34.998l-2.041,0l0,-10.324l-15.515,10.324l-1.634,0l17.149,-11.491l0,-0.875l-2.567,0l-17.226,11.594c-0.807,-0.647 -1.324,-1.64 -1.324,-2.753l0,-0.207l12.95,-8.634l-12.95,0l0,-2.041l23.158,0l0,14.407Zm29.342,-12.366l-12.95,0l12.95,8.634l0,0.207c0,0.305 -0.039,0.601 -0.112,0.884l-14.53,-9.725l-3.85,0l17.243,11.532c-0.614,0.52 -1.409,0.834 -2.276,0.834l-2.077,0l-15.515,-10.324l0,10.324l-2.041,0l0,-14.407l23.158,0l0,2.041Zm-31.383,-22.632l2.041,0l0,14.407l-23.158,0l0,-2.041l12.95,0l-12.95,-8.634l0,-0.207c0,-0.305 0.039,-0.602 0.112,-0.884l14.53,9.725l3.85,0l-17.243,-11.532c0.614,-0.52 1.409,-0.834 2.276,-0.834l2.077,0l15.515,10.324l0,-10.324Zm27.415,0l-17.149,11.491l0,0.875l2.567,0l17.226,-11.594c0.807,0.646 1.324,1.64 1.324,2.753l0,0.207l-12.95,8.634l12.95,0l0,2.041l-23.158,0l0,-14.407l2.041,0l0,10.324l15.515,-10.324l1.634,0Z" style="fill:#37363b;"/></svg>