<?xml version="1.0" encoding="UTF-8" standalone="no"?>
<!DOCTYPE svg PUBLIC "-//W3C//DTD SVG 1.1//EN" "http://www.w3.org/Graphics/SVG/1.1/DTD/svg11.dtd">
<svg width="100%" height="100%" viewBox="0 0 53 35" version="1.1" xmlns="http://www.w3.org/2000/svg" xmlns:xlink="http://www.w3.org/1999/xlink" xml:space="preserve" xmlns:serif="http://www.serif.com/" style="fill-rule:evenodd;clip-rule:evenodd;stroke-linejoin:round;stroke-miterlimit:2;">
    <path d="M49.225,0.001C51.17,0.001 52.75,1.581 52.75,3.526L52.75,31.474C52.75,33.419 51.17,34.999 49.225,34.999L3.775,34.999C1.83,34.999 0.25,33.419 0.25,31.474L0.25,3.526C0.25,1.581 1.83,0.001 3.775,0.001L49.225,0.001Z" style="fill:rgb(237,237,237);"/>
    <g id="colour">
        <path d="M37.52,13.118C37.393,12.734 37.245,12.353 37.078,11.975L36.434,12.265C36.779,12.916 37.073,13.608 37.307,14.336L34.988,15.097C35.733,18.631 34.389,22.285 31.372,24.498L33.111,26.915C37.492,23.702 39.205,18.193 37.52,13.118Z" style="fill:rgb(177,115,210);fill-rule:nonzero;"/>
        <path d="M34.327,26.743C34.649,26.502 34.963,26.242 35.267,25.966L34.795,25.437C34.288,25.97 33.727,26.465 33.113,26.915L31.68,24.924C28.58,26.731 24.722,26.571 21.704,24.358L19.964,26.775C24.345,29.987 30.066,29.929 34.327,26.743Z" style="fill:rgb(254,0,29);fill-rule:nonzero;"/>
        <path d="M20.501,27.888C20.828,28.123 21.17,28.344 21.524,28.551L21.877,27.934C21.218,27.612 20.578,27.227 19.964,26.776L21.397,24.785C18.737,22.368 17.696,18.615 18.848,15.034L16.033,14.111C14.36,19.309 16.183,24.782 20.501,27.888Z" style="fill:rgb(0,134,255);fill-rule:nonzero;"/>
        <path d="M15.15,14.971C15.03,15.357 14.927,15.753 14.842,16.158L15.532,16.306C15.632,15.573 15.797,14.84 16.032,14.111L18.351,14.872C19.806,11.571 23.021,9.412 26.751,9.412L26.751,6.424C21.336,6.424 16.742,9.866 15.15,14.971Z" style="fill:rgb(253,207,0);fill-rule:nonzero;"/>
        <path d="M25.668,5.842C25.267,5.846 24.862,5.87 24.454,5.913L24.528,6.621C25.249,6.491 25.991,6.423 26.75,6.423L26.75,8.884C30.31,9.262 33.338,11.68 34.491,15.261L37.306,14.338C35.633,9.14 30.97,5.793 25.668,5.842Z" style="fill:rgb(0,214,26);fill-rule:nonzero;"/>
    </g>
</svg>
