<?xml version="1.0" encoding="UTF-8" standalone="no"?><!DOCTYPE svg PUBLIC "-//W3C//DTD SVG 1.1//EN" "http://www.w3.org/Graphics/SVG/1.1/DTD/svg11.dtd"><svg width="100%" height="100%" viewBox="0 0 53 35" version="1.1" xmlns="http://www.w3.org/2000/svg" xmlns:xlink="http://www.w3.org/1999/xlink" xml:space="preserve" xmlns:serif="http://www.serif.com/" style="fill-rule:evenodd;clip-rule:evenodd;stroke-linejoin:round;stroke-miterlimit:2;"><path d="M49.225,0.001c1.945,0 3.525,1.58 3.525,3.525l0,27.948c0,1.945 -1.58,3.525 -3.525,3.525l-45.45,0c-1.945,0 -3.525,-1.58 -3.525,-3.525l0,-27.948c0,-1.945 1.58,-3.525 3.525,-3.525l45.45,0Z" style="fill:#ededed;fill-opacity:0.89;"/><g id="bw"><path d="M37.512,13.121c-0.127,-0.383 -0.275,-0.765 -0.441,-1.142l-0.644,0.289c0.345,0.652 0.638,1.342 0.873,2.071l-2.318,0.76c0.744,3.531 -0.598,7.182 -3.614,9.394l1.739,2.415c4.377,-3.21 6.089,-8.716 4.405,-13.787Z" style="fill:#37363b;fill-rule:nonzero;"/><path d="M34.321,26.737c0.322,-0.241 0.636,-0.501 0.94,-0.777l-0.472,-0.529c-0.507,0.533 -1.067,1.028 -1.681,1.478l-1.432,-1.99c-3.098,1.806 -6.953,1.645 -9.969,-0.566l-1.739,2.415c4.378,3.21 10.095,3.152 14.353,-0.031Z" style="fill:#37363b;fill-rule:nonzero;"/><path d="M20.505,27.881c0.327,0.234 0.668,0.455 1.023,0.662l0.352,-0.616c-0.658,-0.322 -1.298,-0.707 -1.912,-1.157l1.433,-1.99c-2.659,-2.416 -3.699,-6.166 -2.547,-9.744l-2.814,-0.923c-1.672,5.194 0.15,10.664 4.465,13.768Z" style="fill:#37363b;fill-rule:nonzero;"/><path d="M15.158,14.972c-0.12,0.386 -0.223,0.783 -0.308,1.187l0.69,0.147c0.099,-0.731 0.265,-1.464 0.499,-2.192l2.317,0.76c1.455,-3.299 4.668,-5.456 8.395,-5.456l0,-2.986c-5.411,0 -10.002,3.439 -11.593,8.54Z" style="fill:#37363b;fill-rule:nonzero;"/><path d="M25.669,5.851c-0.401,0.003 -0.806,0.027 -1.213,0.07l0.074,0.708c0.72,-0.13 1.462,-0.198 2.22,-0.198l0,2.459c3.558,0.377 6.584,2.794 7.735,6.372l2.814,-0.922c-1.673,-5.194 -6.332,-8.539 -11.63,-8.489Z" style="fill:#37363b;fill-rule:nonzero;"/></g></svg>