<?xml version="1.0" encoding="UTF-8" standalone="no"?><!DOCTYPE svg PUBLIC "-//W3C//DTD SVG 1.1//EN" "http://www.w3.org/Graphics/SVG/1.1/DTD/svg11.dtd"><svg width="100%" height="100%" viewBox="0 0 24 24" version="1.1" xmlns="http://www.w3.org/2000/svg" xmlns:xlink="http://www.w3.org/1999/xlink" xml:space="preserve" style="fill-rule:evenodd;clip-rule:evenodd;stroke-linejoin:round;stroke-miterlimit:1.41421;"><path d="M6.76,5.34l-1.8,-1.79l-1.41,1.41l1.79,1.79l1.42,-1.41Zm-2.76,5.66l-3,0l0,2l3,0l0,-2Zm9,-9.95l-2,0l0,2.95l2,0l0,-2.95l0,0Zm7.45,3.91l-1.41,-1.41l-1.79,1.79l1.41,1.41l1.79,-1.79Zm-3.21,13.7l1.79,1.8l1.41,-1.41l-1.8,-1.79l-1.4,1.4Zm2.76,-7.66l0,2l3,0l0,-2l-3,0Zm-8,-5c-3.31,0 -6,2.69 -6,6c0,3.31 2.69,6 6,6c3.31,0 6,-2.69 6,-6c0,-3.31 -2.69,-6 -6,-6Zm-1,16.95l2,0l0,-2.95l-2,0l0,2.95Zm-7.45,-3.91l1.41,1.41l1.79,-1.8l-1.41,-1.41l-1.79,1.8Z" style="fill:#f27a02;fill-rule:nonzero;"/></svg>