<?xml version="1.0" encoding="UTF-8" standalone="no"?><!DOCTYPE svg PUBLIC "-//W3C//DTD SVG 1.1//EN" "http://www.w3.org/Graphics/SVG/1.1/DTD/svg11.dtd"><svg width="100%" height="100%" viewBox="0 0 22 22" version="1.1" xmlns="http://www.w3.org/2000/svg" xmlns:xlink="http://www.w3.org/1999/xlink" xml:space="preserve" xmlns:serif="http://www.serif.com/" style="fill-rule:evenodd;clip-rule:evenodd;stroke-linejoin:round;stroke-miterlimit:1.41421;"><path d="M13.207,8.793c1.867,1.87 1.841,4.866 0.011,6.706c-0.004,0.004 -0.007,0.009 -0.011,0.012l-2.101,2.1c-1.852,1.852 -4.865,1.852 -6.717,0c-1.852,-1.852 -1.852,-4.865 0,-6.717l1.159,-1.16c0.308,-0.308 0.838,-0.103 0.854,0.331c0.02,0.554 0.119,1.111 0.303,1.648c0.061,0.182 0.017,0.384 -0.118,0.519l-0.41,0.409c-0.876,0.875 -0.904,2.302 -0.035,3.187c0.875,0.893 2.314,0.897 3.197,0.016l2.1,-2.101c0.88,-0.881 0.877,-2.304 0,-3.182c-0.116,-0.115 -0.232,-0.205 -0.323,-0.268c-0.131,-0.089 -0.212,-0.236 -0.218,-0.394c-0.011,-0.33 0.105,-0.671 0.367,-0.931l0.657,-0.658c0.173,-0.173 0.444,-0.193 0.643,-0.053c0.23,0.16 0.444,0.339 0.642,0.536Zm4.404,-4.404c-1.852,-1.852 -4.865,-1.852 -6.717,0l-2.101,2.1c-0.004,0.003 -0.007,0.008 -0.011,0.012c-1.83,1.84 -1.856,4.836 0.011,6.706c0.198,0.197 0.412,0.376 0.642,0.536c0.199,0.14 0.47,0.12 0.643,-0.053l0.657,-0.658c0.262,-0.262 0.378,-0.601 0.367,-0.931c-0.006,-0.158 -0.087,-0.305 -0.218,-0.394c-0.091,-0.063 -0.207,-0.153 -0.323,-0.268c-0.877,-0.878 -0.88,-2.301 0,-3.182l2.1,-2.101c0.883,-0.881 2.322,-0.877 3.197,0.016c0.869,0.885 0.841,2.312 -0.035,3.187l-0.41,0.409c-0.135,0.135 -0.179,0.337 -0.118,0.519c0.184,0.537 0.283,1.094 0.303,1.648c0.016,0.434 0.546,0.639 0.854,0.331l1.159,-1.16c1.852,-1.852 1.852,-4.865 0,-6.717Z" style="fill-rule:nonzero;"/></svg>