<?xml version="1.0" encoding="UTF-8" standalone="no"?><!DOCTYPE svg PUBLIC "-//W3C//DTD SVG 1.1//EN" "http://www.w3.org/Graphics/SVG/1.1/DTD/svg11.dtd"><svg width="100%" height="100%" viewBox="0 0 114 114" version="1.1" xmlns="http://www.w3.org/2000/svg" xmlns:xlink="http://www.w3.org/1999/xlink" xml:space="preserve" xmlns:serif="http://www.serif.com/" style="fill-rule:evenodd;clip-rule:evenodd;stroke-linejoin:round;stroke-miterlimit:1.41421;"><rect x="0" y="0" width="114" height="114" style="fill:#ebebeb;fill-opacity:0;"/><g id="Realdolmen"><g><path d="M93.204,113.787l-33.618,-41.38l0,41.38l33.618,0Z" style="fill:#268b32;"/><path d="M25.968,72.407l33.618,41.38l0,-41.38l-33.618,0Z" style="fill:#4a9135;"/><rect x="25.968" y="46.548" width="33.618" height="25.86" style="fill:#b4cc04;"/><path d="M59.586,72.407c19.995,0 36.204,-16.209 36.204,-36.203l-25.858,0c0,5.714 -4.632,10.346 -10.346,10.346l0,25.857Z" style="fill:#89bd24;"/><path d="M95.79,36.204c0,-19.995 -16.209,-36.204 -36.204,-36.204l0,25.857c5.714,0 10.346,4.633 10.346,10.347l25.858,0Z" style="fill:#4da734;"/><rect x="25.968" y="0.004" width="33.618" height="25.86" style="fill:#1b9a46;"/></g><path d="M54.381,92.869c-0.257,-7.591 -2.187,-16.082 -5.404,-24.317c-3.988,-9.907 -13.38,-27.019 -32.422,-36.282l0,2.316c17.883,9.135 26.633,25.345 30.493,34.867c3.345,8.491 5.146,17.368 5.274,25.217c-3.86,3.088 -6.69,6.562 -7.847,10.164c-1.416,4.374 -0.13,8.106 2.058,9.006c0.128,0 0.257,0.129 0.515,0.129c1.029,0.128 2.83,0 4.374,-3.217c1.93,-4.117 2.959,-9.263 2.959,-15.053c5.532,-4.117 13.123,-7.591 21.486,-9.52l-0.385,-2.06c-8.106,1.545 -15.44,4.761 -21.101,8.75Zm-4.76,16.726c-0.772,1.544 -1.544,2.316 -2.188,2.058c-1.157,-0.514 -2.059,-3.217 -0.9,-6.434c0.9,-2.701 2.958,-5.531 5.918,-8.104c-0.387,4.759 -1.287,9.135 -2.83,12.48Zm46.446,-32.423c-1.158,-1.801 -2.831,-2.83 -5.018,-3.345c-2.187,-0.515 -4.117,0 -5.918,1.158c-1.802,1.158 -2.831,2.831 -3.346,5.017c-0.385,2.188 0,4.117 1.159,5.92c1.157,1.801 2.83,2.83 5.018,3.345c2.186,0.385 4.117,0 5.918,-1.159c1.801,-1.157 2.83,-2.83 3.345,-5.018c0.514,-2.187 0.129,-4.117 -1.158,-5.918Z" style="fill:#f39200;fill-rule:nonzero;"/></g></svg>