<?xml version="1.0" encoding="UTF-8" standalone="no"?><!DOCTYPE svg PUBLIC "-//W3C//DTD SVG 1.1//EN" "http://www.w3.org/Graphics/SVG/1.1/DTD/svg11.dtd"><svg width="100%" height="100%" viewBox="0 0 338 484" version="1.1" xmlns="http://www.w3.org/2000/svg" xmlns:xlink="http://www.w3.org/1999/xlink" xml:space="preserve" xmlns:serif="http://www.serif.com/" style="fill-rule:evenodd;clip-rule:evenodd;stroke-linejoin:round;stroke-miterlimit:1.41421;"><g id="Fourth-Man" serif:id="Fourth Man"><path id="Fourth-Man1" serif:id="Fourth Man" d="M168.375,0c0.1,0 0.2,0 0.3,0.001l0.033,0l0.058,0.001l0.115,0l0.103,0.002l0.056,0l0.038,0.001l0.056,0l0.206,0.004l0.032,0l0.006,0c0.1,0.002 0.199,0.004 0.299,0.007l0.027,0.001l0.038,0.001c0.134,0.003 0.268,0.007 0.402,0.011l0.251,0.009l0.153,0.007l0.038,0.001l0.021,0.001c0.121,0.005 0.243,0.01 0.364,0.016l0.034,0.002l0.041,0.002c0.123,0.006 0.246,0.013 0.368,0.02l0.01,0l0.029,0.002l0.197,0.012l0.151,0.01l0.042,0.002l0.021,0.002c0.12,0.008 0.24,0.016 0.359,0.025l0.037,0.002l0.043,0.003c0.12,0.009 0.241,0.019 0.362,0.028l0.012,0.001l0.034,0.003l0.188,0.016l0.15,0.013l0.044,0.004l0.023,0.002c0.118,0.01 0.235,0.021 0.353,0.033l0.04,0.004l0.045,0.004c0.118,0.012 0.236,0.024 0.355,0.036l0.015,0.002l0.041,0.004l0.177,0.019l0.147,0.016l0.049,0.006l0.024,0.003c0.115,0.013 0.231,0.026 0.346,0.04l0.043,0.005l0.049,0.006c0.115,0.014 0.23,0.029 0.345,0.043l0.019,0.003l0.05,0.006l0.165,0.022l0.141,0.019l0.056,0.008l0.027,0.003c0.112,0.016 0.224,0.031 0.336,0.048l0.049,0.007l0.053,0.008c0.111,0.016 0.222,0.032 0.333,0.049l0.024,0.004l0.062,0.009l0.15,0.024l0.133,0.021l0.065,0.01l0.031,0.005c0.107,0.018 0.215,0.035 0.322,0.053l0.057,0.01l0.06,0.01c0.106,0.018 0.212,0.036 0.318,0.055l0.03,0.005l0.075,0.014l0.132,0.024l0.122,0.022l0.079,0.014l0.035,0.007c0.102,0.019 0.204,0.038 0.305,0.058l0.067,0.012l0.068,0.014c0.1,0.019 0.2,0.039 0.299,0.059l0.039,0.007l0.093,0.019l0.111,0.023l0.105,0.022l0.096,0.019l0.053,0.012l0.23,0.049l0.043,0.009l0.079,0.017l0.08,0.017l0.04,0.009l0.194,0.043l0.089,0.02l0.115,0.026l0.086,0.02l0.084,0.019l0.118,0.027l0.131,0.031l0.149,0.036l0.029,0.007l0.094,0.022l0.093,0.023l0.024,0.006l0.121,0.029l0.163,0.041l0.14,0.035l0.057,0.014l0.057,0.015l0.146,0.037l0.216,0.057l0.06,0.015l0.012,0.003l0.112,0.03l0.11,0.03l0.289,0.078l0.17,0.047l0.023,0.006l0.012,0.004c0.504,0.14 1.007,0.288 1.507,0.443l0.102,0.031l0.076,0.024l0.092,0.028l0.136,0.044l0.109,0.034l0.067,0.022l0.081,0.026l0.149,0.049l0.115,0.037l0.059,0.02l0.07,0.023l0.161,0.054l0.056,0.019l0.042,0.014l0.133,0.044l0.091,0.032l0.022,0.007l0.091,0.032l0.187,0.064l0.165,0.058l0.13,0.046l0.026,0.009l0.069,0.025l0.11,0.039l0.081,0.029l0.09,0.033l0.108,0.039l0.059,0.022l0.029,0.01l0.221,0.082l0.08,0.029l0.103,0.04l0.165,0.062l0.053,0.02l0.066,0.025l0.082,0.032l0.083,0.031l0.127,0.049l0.095,0.037l0.038,0.015c0.106,0.042 0.212,0.084 0.318,0.126l0.029,0.011l0.091,0.037l0.151,0.06l0.073,0.03l0.069,0.028l0.069,0.028l0.071,0.029l0.156,0.065l0.088,0.036l0.026,0.011c0.106,0.044 0.212,0.089 0.318,0.134l0.039,0.016l0.088,0.038l0.127,0.054l0.089,0.038l0.077,0.033l0.059,0.026l0.055,0.024l0.124,0.054l0.143,0.063l0.051,0.022l0.029,0.013c0.303,0.135 0.605,0.272 0.906,0.411l0.15,0.07l0.171,0.081l0.016,0.007c0.621,0.293 1.238,0.597 1.85,0.913l0.04,0.021l0.032,0.016c0.208,0.108 0.416,0.216 0.622,0.326l0.06,0.032l0.074,0.04l0.119,0.063l0.08,0.043l0.201,0.11l0.024,0.013l0.063,0.034l0.085,0.047l0.064,0.035l0.125,0.069l0.093,0.051l0.064,0.036l0.189,0.106l0.052,0.029l0.061,0.035l0.062,0.035l0.06,0.034l0.2,0.114l0.043,0.024l0.052,0.03l0.174,0.1l0.099,0.058l0.057,0.034l0.036,0.02c0.109,0.064 0.218,0.129 0.327,0.193l0.037,0.022l0.048,0.029c0.113,0.067 0.225,0.134 0.338,0.202l0.013,0.008l0.036,0.022l0.172,0.104l0.15,0.092l0.039,0.024l0.018,0.011c0.114,0.07 0.227,0.14 0.34,0.21l0.038,0.024l0.036,0.022c0.112,0.071 0.225,0.142 0.337,0.213l0.022,0.014l0.039,0.024l0.132,0.085l0.211,0.135l0.015,0.01c0.117,0.075 0.234,0.151 0.35,0.228l0.038,0.024l0.024,0.016c0.113,0.074 0.225,0.148 0.337,0.223l0.029,0.019l0.037,0.025c0.114,0.076 0.229,0.153 0.343,0.23l0.009,0.006l0.025,0.017l0.174,0.118l0.1,0.069l0.089,0.061l0.084,0.058l0.095,0.065l0.111,0.077l0.096,0.067l0.075,0.053l0.084,0.059l0.123,0.087l0.103,0.072l0.065,0.046l0.075,0.053l0.135,0.097l0.108,0.078l0.055,0.04l0.066,0.047l0.149,0.108l0.112,0.081l0.045,0.034l0.056,0.041c0.087,0.063 0.173,0.127 0.259,0.191l0.02,0.014l0.047,0.036l0.14,0.104l0.131,0.098l0.061,0.045l0.027,0.021c0.098,0.074 0.195,0.147 0.292,0.221l0.058,0.044l0.067,0.052l0.058,0.045l0.181,0.139l0.069,0.053l0.094,0.073l0.116,0.091l0.075,0.058l0.09,0.07l0.053,0.043c0.086,0.067 0.172,0.136 0.258,0.204l0.061,0.048l0.091,0.073l0.058,0.047l0.112,0.09l0.11,0.088l0.111,0.091l0.122,0.099l0.049,0.04l0.088,0.072l0.067,0.055c0.084,0.069 0.167,0.138 0.25,0.207l0.051,0.042l0.099,0.083l0.073,0.06l0.09,0.076l0.104,0.088l0.161,0.136l0.189,0.16l0.015,0.014l0.025,0.021l0.278,0.239l0.053,0.046l0.007,0.007l0.023,0.019l0.233,0.203l0.092,0.081l0.014,0.012l0.025,0.022l0.185,0.163l0.11,0.099l0.04,0.035l0.062,0.056l0.172,0.153l0.098,0.089l0.026,0.024l0.056,0.05l0.202,0.184l0.087,0.079l0.012,0.011l0.037,0.034c0.233,0.214 0.466,0.43 0.697,0.648l0.094,0.088l0.12,0.114l0.089,0.084l0.248,0.238l0.126,0.121l0.143,0.139l0.03,0.029l0.036,0.036c0.179,0.173 0.358,0.349 0.535,0.525l0.328,0.328l0.183,0.184l0.021,0.022l0.013,0.014l0.092,0.092l0.118,0.121l0.05,0.052l0.047,0.047l0.092,0.095l0.082,0.085l0.051,0.053l0.074,0.077l0.099,0.102l0.058,0.06l0.04,0.042l0.1,0.105l0.107,0.112l0.04,0.043l0.023,0.024l0.081,0.086l0.11,0.117l0.035,0.037l0.043,0.045l0.096,0.104l0.08,0.084l0.039,0.043l0.053,0.056l0.081,0.089l0.115,0.124l0.062,0.067l0.008,0.009l0.024,0.026c0.256,0.279 0.511,0.561 0.764,0.845c0.731,0.82 1.448,1.66 2.151,2.518l0.153,0.188l0.017,0.021l0.012,0.015l0.118,0.145l0.112,0.139l0.009,0.011l0.014,0.018l0.164,0.204c0.298,0.373 0.594,0.749 0.887,1.128l0.175,0.228c0.331,0.432 0.658,0.868 0.982,1.309l0.285,0.389c0.663,0.912 1.312,1.842 1.945,2.79l0.115,0.173l0.035,0.051l0.027,0.042l0.094,0.141l0.062,0.095l0.025,0.038l0.123,0.187l0.079,0.121l0.035,0.054l0.178,0.273l0.045,0.071l0.029,0.045l0.046,0.072l0.102,0.159l0.101,0.158l0.036,0.057l0.024,0.037l0.06,0.096l0.199,0.316c0.081,0.127 0.16,0.255 0.24,0.384l0.032,0.052l0.009,0.014l0.016,0.027l0.123,0.198l0.135,0.221l0.006,0.01c0.132,0.216 0.263,0.432 0.393,0.649c0.162,0.271 0.323,0.542 0.483,0.815l0.002,0.004c0.132,0.225 0.263,0.451 0.393,0.678l0.091,0.159l0.014,0.024l0.017,0.029l0.04,0.071l0.089,0.157l0.051,0.091l0.016,0.027l0.016,0.028c0.431,0.765 0.854,1.538 1.266,2.321l0.045,0.084l0.057,0.109l0.106,0.201l0.232,0.448c0.112,0.217 0.224,0.436 0.334,0.655l0.035,0.069l0.021,0.042l0.069,0.135l0.076,0.152l0.016,0.032l0.02,0.042l0.086,0.171l0.054,0.109l0.02,0.04l0.045,0.092l0.078,0.158l0.028,0.058l0.027,0.056l0.06,0.123l0.08,0.162l0.038,0.079l0.033,0.069l0.054,0.111l0.068,0.142l0.047,0.1l0.039,0.081l0.046,0.097l0.06,0.125l0.058,0.123l0.043,0.091l0.037,0.08l0.052,0.11l0.072,0.154l0.044,0.094l0.027,0.059l0.046,0.099l0.092,0.2l0.038,0.082l0.016,0.035l0.041,0.089l0.09,0.198l0.054,0.119l0.024,0.054l0.019,0.042l0.079,0.174l0.077,0.173l0.015,0.034l0.015,0.033l0.059,0.133l0.108,0.244l0.089,0.202l0.064,0.145l0.101,0.234l0.071,0.163c0.118,0.272 0.234,0.546 0.35,0.82l0.037,0.089l0.019,0.043l0.098,0.237l0.066,0.159l0.012,0.028l0.023,0.055l0.08,0.196l0.066,0.16l0.021,0.052l0.03,0.073l0.067,0.165l0.062,0.152l0.03,0.076l0.036,0.089l0.056,0.139l0.055,0.138l0.041,0.103l0.041,0.104l0.045,0.115l0.049,0.123l0.052,0.132l0.045,0.116l0.035,0.091l0.042,0.106l0.065,0.168l0.047,0.122l0.025,0.067l0.035,0.09l0.081,0.215l0.045,0.117l0.016,0.044l0.028,0.073l0.107,0.287l0.033,0.087l0.008,0.02c0.23,0.619 0.455,1.242 0.675,1.869c0.882,2.515 1.678,5.093 2.383,7.726l0.007,0.026c0.089,0.334 0.177,0.668 0.263,1.003l0.008,0.032l0.009,0.035l0.04,0.155l0.085,0.335c0.037,0.149 0.075,0.299 0.112,0.448l0.009,0.037l0.026,0.106l0.045,0.183l0.022,0.093l0.026,0.104l0.025,0.106l0.016,0.067l0.03,0.126c0.078,0.326 0.155,0.652 0.23,0.979l0.043,0.186l0.04,0.177l0.005,0.023c0.075,0.334 0.149,0.669 0.222,1.004l0.013,0.059l0.006,0.031l0.039,0.182l0.058,0.273l0.009,0.042l0.005,0.024l0.033,0.155l0.064,0.312l0.008,0.037l0.003,0.017l0.027,0.129l0.073,0.361l0.006,0.031c0.173,0.862 0.337,1.73 0.49,2.602c0.033,0.186 0.065,0.371 0.097,0.557l0.007,0.04l0.007,0.045l0.03,0.172l0.046,0.275l0.007,0.046l0.004,0.019c0.028,0.171 0.056,0.341 0.083,0.512l0.002,0.009l0.005,0.037l0.053,0.328l0.018,0.115l0.009,0.061l0.012,0.079l0.025,0.156l0.032,0.214l0.015,0.093l0.006,0.044c0.024,0.161 0.048,0.321 0.072,0.482l0.002,0.018l0.013,0.088l0.043,0.295l0.011,0.084l0.012,0.077l0.015,0.112l0.02,0.14l0.023,0.166l0.017,0.128l0.008,0.059c0.024,0.176 0.048,0.351 0.071,0.527l0.005,0.044l0.01,0.075c0.065,0.496 0.126,0.993 0.184,1.491l0.027,0.231l0.015,0.132l0.006,0.058l0.017,0.144l0.018,0.166l0.008,0.066l0.011,0.103c0.043,0.394 0.084,0.79 0.123,1.185l0.018,0.183l0.019,0.202l0.007,0.07l0.009,0.097l0.031,0.336l0.012,0.139l0.002,0.022l0.01,0.114c0.043,0.484 0.083,0.969 0.12,1.455l0.017,0.218l0.004,0.057l0.009,0.118l0.016,0.236l0.014,0.187l0.008,0.121l0.011,0.167l0.012,0.175l0.009,0.136l0.011,0.186l0.014,0.215l0.007,0.119l0.004,0.08l0.015,0.257l0.015,0.259l0.003,0.064l0.001,0.021l0.03,0.584l0.003,0.046l0.007,0.173l0.019,0.402l0.004,0.103l0.002,0.039l0.002,0.05c0.009,0.211 0.017,0.421 0.025,0.632l0.001,0.037l0.002,0.052c0.008,0.21 0.015,0.42 0.021,0.63l0.001,0.038l0.002,0.06c0.006,0.205 0.012,0.411 0.017,0.616l0.001,0.046l0.002,0.082c0.004,0.187 0.008,0.375 0.012,0.563l0,0.016l0.001,0.062l0.002,0.144l0.005,0.291l0.002,0.173l0.002,0.116l0.003,0.322l0.003,0.261l0,0.049l0.001,0.094l0.001,0.279l0,0.128l0.001,0.32c0,0 -0.001,0.454 -0.001,0.454l0,0.024l0,0.023l-0.001,0.135l-0.001,0.271l-0.001,0.05l0,0.043l-0.001,0.094l-0.003,0.265l-0.002,0.176l-0.001,0.054l0,0.045c-0.006,0.456 -0.015,0.911 -0.027,1.364l-0.001,0.04l0,0.017l-0.003,0.109l-0.006,0.235l-0.002,0.069l-0.001,0.034l-0.003,0.112l-0.007,0.207l-0.002,0.076l-0.002,0.043l-0.004,0.124l-0.007,0.194l-0.002,0.067l-0.002,0.046l-0.005,0.141l-0.007,0.191l-0.002,0.051l-0.002,0.039l-0.007,0.167l-0.008,0.194l-0.001,0.027l-0.001,0.025l-0.009,0.202l-0.009,0.199l-0.001,0.001l0,0.001c-0.021,0.449 -0.044,0.898 -0.07,1.345l-0.003,0.043l-0.003,0.058l-0.008,0.137l-0.01,0.147l-0.004,0.081l-0.006,0.083l-0.008,0.134l-0.008,0.121l-0.006,0.085l-0.007,0.104l-0.008,0.134l-0.007,0.1l-0.006,0.084l-0.009,0.124l-0.009,0.135l-0.007,0.084l-0.005,0.079l-0.011,0.142l-0.01,0.138l-0.005,0.07l-0.006,0.071l-0.012,0.159l-0.011,0.142l-0.005,0.059l-0.005,0.06l-0.014,0.176l-0.012,0.147l-0.004,0.047l-0.004,0.05l-0.017,0.193l-0.013,0.151l-0.003,0.037l-0.003,0.039l-0.013,0.14l-0.02,0.224l-0.006,0.065l-0.005,0.056l-0.021,0.232l-0.009,0.087l-0.001,0.02c-0.013,0.135 -0.026,0.27 -0.04,0.405l-0.001,0.014l-0.007,0.075l-0.026,0.257l-0.006,0.059l-0.005,0.047l-0.01,0.095l-0.016,0.161l-0.012,0.106l-0.007,0.075l-0.009,0.076l-0.011,0.105l-0.017,0.162l-0.011,0.094l-0.005,0.047l-0.006,0.059l-0.029,0.257l-0.008,0.074l-0.002,0.013c-0.014,0.126 -0.029,0.252 -0.043,0.377l-0.003,0.022c-0.018,0.153 -0.036,0.306 -0.055,0.458l0,0.001l-0.059,0.478l-0.019,0.148l-0.009,0.077l-0.011,0.085l-0.022,0.169l-0.033,0.249l-0.026,0.2l-0.013,0.095l-0.004,0.032l-0.028,0.205l-0.051,0.368l-0.012,0.085l-0.028,0.195l-0.052,0.363l-0.008,0.056l-0.003,0.017l-0.005,0.039l-0.059,0.393l-0.022,0.148l-0.015,0.1l-0.012,0.074c-0.03,0.197 -0.061,0.395 -0.092,0.592l-0.004,0.029l-0.009,0.052c-0.07,0.442 -0.143,0.884 -0.219,1.324l-0.001,0.007l-0.019,0.111l-0.006,0.034c-0.035,0.204 -0.071,0.408 -0.107,0.611l-0.011,0.058l-0.012,0.066l-0.03,0.167l-0.085,0.466c-0.072,0.388 -0.146,0.774 -0.222,1.16l-0.032,0.163l-0.004,0.019l-0.01,0.053l-0.093,0.463l-0.013,0.064l-0.009,0.042l-0.034,0.164l-0.063,0.307l-0.019,0.092l-0.016,0.076l-0.036,0.171l-0.05,0.237l-0.027,0.124l-0.023,0.106l-0.05,0.229l-0.025,0.115l-0.011,0.049l-0.014,0.065l-0.08,0.36l-0.022,0.098l-0.003,0.015l-0.001,0.002l-0.015,0.066l-0.111,0.488l-0.003,0.012l0,0.002l-0.03,0.129l-0.1,0.427l-0.002,0.008l-0.001,0.004l-0.043,0.181l-0.089,0.374l-0.002,0.007l-0.001,0.003l-0.056,0.23l-0.08,0.327l-0.001,0.005l-0.001,0.003l-0.003,0.011l-0.09,0.362l-0.031,0.121l-0.017,0.068l-0.018,0.072l-0.03,0.119l-0.07,0.273l-0.025,0.097l-0.045,0.172l-0.057,0.217l-0.015,0.057l-0.029,0.113l-0.013,0.047l-0.016,0.063l-0.12,0.448c0,0 -0.122,0.446 -0.122,0.446l0,0c-0.081,0.298 -0.164,0.596 -0.249,0.892l-0.114,0.402l-0.004,0.013l-0.008,0.026l-0.056,0.194l-0.049,0.17l-0.008,0.025l-0.015,0.053l-0.059,0.2l-0.037,0.125l-0.011,0.036l-0.023,0.08l-0.057,0.189l-0.029,0.096l-0.014,0.046l-0.032,0.109l-0.052,0.172l-0.023,0.073l-0.016,0.055l-0.043,0.138l-0.047,0.153l-0.016,0.054l-0.018,0.058l-0.054,0.173l-0.044,0.141l-0.008,0.027l-0.012,0.036l-0.062,0.196l-0.039,0.125l-0.013,0.04l-0.024,0.075l-0.051,0.16l-0.022,0.071l-0.052,0.161l-0.089,0.273l-0.142,0.433c-0.082,0.25 -0.166,0.499 -0.25,0.747l-0.018,0.054l-0.008,0.024l-0.05,0.145l-0.063,0.185l-0.013,0.038l-0.016,0.045l-0.074,0.215l-0.044,0.126l-0.001,0.005l-0.006,0.015l-0.117,0.335l-0.034,0.096l-0.041,0.117l-0.041,0.116l-0.054,0.151l-0.056,0.155l-0.034,0.096l-0.03,0.082l-0.052,0.145l-0.072,0.197l-0.034,0.092l-0.022,0.059l-0.046,0.128l-0.089,0.24l-0.033,0.087l-0.015,0.042l-0.04,0.106l-0.158,0.421l-0.081,0.211l-0.08,0.209l-0.021,0.056l-0.016,0.042l-0.041,0.106l-0.083,0.214l-0.046,0.117l-0.031,0.079l-0.034,0.087l-0.053,0.134l-0.075,0.191l-0.041,0.102l-0.02,0.051l-0.029,0.072l-0.133,0.332l-0.023,0.057l-0.004,0.01c-0.064,0.158 -0.128,0.315 -0.192,0.472l-0.012,0.029l-0.037,0.091l-0.103,0.249l-0.043,0.103l-0.027,0.065l-0.036,0.087l-0.066,0.156l-0.073,0.174l-0.037,0.089l-0.024,0.055l-0.039,0.092l-0.125,0.293l-0.027,0.064l-0.007,0.016c-0.068,0.159 -0.137,0.317 -0.206,0.476l-0.005,0.011l-0.021,0.048l-0.137,0.312l-0.042,0.095l-0.02,0.045l-0.032,0.074l-0.085,0.191l-0.075,0.167l-0.03,0.066l-0.022,0.05l-0.054,0.119l-0.128,0.284l-0.02,0.044l-0.007,0.013c-0.131,0.288 -0.263,0.575 -0.396,0.86l-0.045,0.095l-0.008,0.018l-0.017,0.036l-0.117,0.249l-0.055,0.115l-0.043,0.09l-0.107,0.225l-0.063,0.131l-0.028,0.058l-0.036,0.074l-0.08,0.165l-0.059,0.122l-0.03,0.062l-0.045,0.093l-0.091,0.185l-0.038,0.077l-0.019,0.04l-0.069,0.139l-0.114,0.229l-0.004,0.008l-0.003,0.005l-0.073,0.148l-0.078,0.154l-0.054,0.107l-0.074,0.146l-0.089,0.177l-0.038,0.075c-0.075,0.145 -0.149,0.29 -0.224,0.435l-0.036,0.07c-0.191,0.369 -0.384,0.736 -0.58,1.101l-0.022,0.042l-0.021,0.039l-0.044,0.083l-0.055,0.102l-0.098,0.181l-0.072,0.132l-0.053,0.098l-0.047,0.087l-0.047,0.085l-0.084,0.153l-0.101,0.185l-0.21,0.376l-0.118,0.211l-0.061,0.107l-0.094,0.167l-0.055,0.096l-0.048,0.086l-0.068,0.119l-0.055,0.095l-0.044,0.077l-0.093,0.162l-0.09,0.155c0,0 -0.125,0.215 -0.125,0.215c-0.118,0.203 -0.238,0.406 -0.358,0.608l-0.075,0.125l-0.064,0.108l-0.108,0.181l-0.028,0.046l-0.014,0.024c-0.082,0.135 -0.164,0.27 -0.246,0.405l-0.018,0.03l-0.032,0.052l-0.096,0.158l-0.123,0.199l-0.029,0.047l-0.012,0.019c-0.081,0.132 -0.163,0.263 -0.245,0.395l-0.025,0.039l-0.036,0.057l-0.081,0.13l-0.139,0.219l-0.028,0.045l-0.009,0.015c-0.082,0.128 -0.164,0.256 -0.246,0.384l-0.032,0.05l-0.038,0.059l-0.067,0.104l-0.159,0.245l-0.025,0.038l-0.011,0.017l-0.182,0.279l-0.058,0.087l-0.039,0.061l-0.04,0.059l-0.053,0.081l-0.185,0.278l-0.015,0.023l-0.041,0.06l-0.142,0.212l-0.065,0.095l-0.048,0.071l-0.039,0.058c-0.078,0.115 -0.156,0.23 -0.235,0.344l-0.004,0.007l-0.019,0.028l-0.046,0.066l-0.127,0.184l-0.096,0.139l-0.03,0.044l-0.019,0.026c-0.193,0.278 -0.387,0.554 -0.582,0.828l-0.004,0.005l-0.003,0.004c-0.219,0.307 -0.44,0.613 -0.663,0.917c-0.085,0.115 -0.17,0.23 -0.255,0.345c-0.101,0.136 -0.201,0.271 -0.303,0.405l-0.012,0.017l-0.025,0.033l-0.152,0.202l-0.11,0.145l-0.027,0.035l-0.022,0.03l-0.089,0.116l-0.194,0.253l-0.011,0.014l-0.003,0.004l-0.041,0.054l-0.222,0.285l-0.052,0.066l-0.008,0.011l-0.004,0.006l-0.233,0.296l-0.075,0.095l-0.185,0.232l-0.083,0.105l-0.011,0.014l-0.043,0.053l-0.158,0.196l-0.079,0.099l-0.032,0.039l-0.055,0.068l-0.064,0.078l-0.05,0.062l-0.149,0.182l-0.063,0.077l-0.074,0.09l-0.117,0.142l-0.067,0.079l-0.07,0.085l-0.046,0.055l-0.02,0.025l-0.125,0.149l-0.139,0.165l-0.141,0.166l-0.12,0.142l-0.019,0.022l-0.052,0.061l-0.112,0.13l-0.082,0.095l-0.054,0.063l-0.085,0.1l-0.08,0.09l-0.046,0.054l-0.089,0.102l-0.121,0.139l-0.046,0.051l-0.01,0.013l-0.12,0.135l-0.162,0.183l-0.142,0.158l-0.108,0.122l-0.026,0.029l-0.063,0.071l-0.108,0.118l-0.068,0.076l-0.063,0.069l-0.103,0.113l-0.071,0.077l-0.03,0.033l-0.096,0.105l-0.146,0.159l-0.078,0.084l-0.153,0.165l-0.044,0.046l-0.07,0.076l-0.063,0.066c-0.081,0.086 -0.162,0.172 -0.243,0.257l-0.042,0.045l-0.083,0.087l-0.079,0.083l-0.1,0.104l-0.086,0.091l-0.07,0.072l-0.162,0.168l-0.049,0.05l-0.07,0.072l-0.06,0.061c-0.083,0.085 -0.167,0.17 -0.25,0.255l-0.043,0.044l-0.083,0.083l-0.079,0.079l-0.105,0.106l-0.087,0.088l-0.075,0.074l-0.158,0.157l-0.05,0.05l-0.074,0.072l-0.061,0.06c-0.083,0.082 -0.167,0.164 -0.25,0.245l-0.047,0.046l-0.086,0.083l-0.075,0.072l-0.105,0.101l-0.093,0.091l-0.088,0.083l-0.145,0.139l-0.036,0.034l-0.093,0.088l-0.16,0.151l-0.065,0.061l-0.04,0.037l-0.098,0.093l-0.154,0.142l-0.063,0.059l-0.043,0.04l-0.106,0.097l-0.146,0.134l-0.062,0.057l-0.046,0.042l-0.113,0.102l-0.14,0.127l-0.059,0.054l-0.081,0.072l-0.088,0.08l-0.043,0.038c-0.109,0.097 -0.217,0.194 -0.326,0.29l-0.001,0.001l-0.004,0.003l-0.233,0.205l-0.109,0.095l-0.027,0.023l-0.024,0.021l-0.1,0.087c-0.194,0.169 -0.389,0.336 -0.585,0.501l-0.04,0.034l-0.043,0.036l-0.085,0.072l-0.221,0.185l-0.028,0.024l-0.019,0.015l-0.238,0.198l-0.067,0.055l-0.055,0.045l-0.059,0.049l-0.073,0.059l-0.184,0.151l-0.064,0.052l-0.055,0.044l-0.207,0.166l-0.057,0.046l-0.063,0.051l-0.07,0.055l-0.066,0.053l-0.165,0.13l-0.083,0.066l-0.071,0.055l-0.195,0.153l-0.053,0.041l-0.066,0.052l-0.075,0.057l-0.065,0.05l-0.158,0.122l-0.089,0.068l-0.073,0.056l-0.198,0.15l-0.051,0.039l-0.067,0.05l-0.076,0.056l-0.067,0.051l-0.157,0.117l-0.09,0.067l-0.03,0.022l-0.149,0.11l-0.134,0.098l-0.027,0.02l-0.052,0.038l-0.117,0.085l-0.118,0.085l-0.073,0.053l-0.085,0.062l-0.083,0.059l-0.073,0.052l-0.128,0.091l-0.111,0.079l-0.051,0.036l-0.026,0.018l-0.103,0.073l-0.163,0.114l-0.035,0.024l-0.015,0.011l-0.166,0.115l-0.127,0.087l-0.013,0.009l-0.012,0.008l-0.051,0.036l-0.181,0.123l-0.052,0.035l-0.034,0.024l-0.059,0.039l-0.112,0.076l-0.095,0.064l-0.054,0.036l-0.042,0.028l-0.066,0.045l-0.149,0.098l-0.063,0.042l-0.021,0.014l-0.026,0.017l-0.124,0.082l-0.145,0.095l-0.005,0.003l-0.006,0.004l-0.116,0.076l-0.173,0.111l-0.028,0.018l-0.013,0.009c-0.695,0.447 -1.396,0.879 -2.104,1.296l-0.09,0.053l-0.033,0.019l-0.078,0.046l-0.127,0.074l-0.056,0.033l-0.026,0.015l-0.052,0.03l-0.112,0.064l-0.074,0.043l-0.049,0.028l-0.052,0.03l-0.072,0.041l-0.099,0.056l-0.066,0.037l-0.029,0.016c-0.1,0.057 -0.201,0.113 -0.301,0.169l-0.332,0.183c-0.385,0.211 -0.772,0.418 -1.16,0.619l-0.016,0.009l-0.106,0.054l-0.21,0.109l-0.178,0.091c-0.209,0.106 -0.418,0.211 -0.628,0.314l-0.046,0.023l-0.072,0.035l-0.108,0.053l-0.093,0.045l-0.065,0.032l-0.055,0.026l-0.073,0.035l-0.133,0.064l-0.079,0.038l-0.033,0.015l-0.041,0.02l-0.207,0.097l-0.059,0.028l-0.01,0.005l-0.011,0.005l-0.126,0.059l-0.121,0.056l-0.011,0.005l-0.029,0.014l-0.17,0.077l-0.06,0.028l-0.011,0.005l-0.047,0.022l-0.176,0.079l-0.036,0.016l-0.01,0.005l-0.067,0.03l-0.171,0.076l-0.022,0.01l-0.01,0.004l-0.086,0.039l-0.163,0.071l-0.012,0.005l-0.008,0.003l-0.107,0.048l-0.152,0.065l-0.005,0.002l-0.003,0.002c-0.933,0.402 -1.875,0.779 -2.825,1.129l-0.043,0.016l-0.078,0.029l-0.12,0.044l-0.089,0.032l-0.064,0.023l-0.061,0.022l-0.082,0.03l-0.129,0.045l-0.08,0.029l-0.039,0.014l-0.049,0.017l-0.192,0.066l-0.073,0.026l-0.015,0.005c-0.109,0.038 -0.218,0.075 -0.328,0.112l-0.01,0.004l-0.063,0.021l-0.213,0.071l-0.043,0.014l-0.035,0.012l-0.082,0.027l-0.139,0.046l-0.076,0.024l-0.058,0.019l-0.069,0.022l-0.097,0.031l-0.113,0.036l-0.076,0.024l-0.049,0.016l-0.062,0.019l-0.163,0.051l-0.082,0.025l-0.025,0.008l-0.031,0.01l-0.301,0.091l0,50.544l102.75,14.353c6.724,0.636 12.11,2.975 15,8.625c2.287,4.588 2.225,9.216 0.375,13.875l-3,7.313l-33,0l0.75,-1.688l-82.875,-11.426l0,224.051l-30.75,0l0,-158.791l0,-53.05l0,-12.21l-82.875,11.426l0.75,1.688l-33,0l-3,-7.313c-1.85,-4.659 -1.912,-9.287 0.375,-13.875c2.89,-5.65 8.276,-7.989 15,-8.625l102.75,-14.353l0,-50.544c0,0 -0.301,-0.091 -0.301,-0.091l-0.031,-0.01l-0.025,-0.008l-0.082,-0.025l-0.163,-0.051l-0.062,-0.019l-0.049,-0.016l-0.076,-0.024l-0.113,-0.036l-0.097,-0.031l-0.069,-0.022l-0.058,-0.019l-0.076,-0.024l-0.139,-0.046l-0.082,-0.027l-0.035,-0.012l-0.043,-0.014l-0.213,-0.071l-0.063,-0.021l-0.01,-0.004c-0.11,-0.037 -0.219,-0.074 -0.328,-0.112l-0.015,-0.005l-0.073,-0.026l-0.192,-0.066l-0.049,-0.017l-0.039,-0.014l-0.08,-0.029l-0.129,-0.045l-0.082,-0.03l-0.061,-0.022l-0.064,-0.023l-0.089,-0.032l-0.12,-0.044l-0.078,-0.029l-0.043,-0.016c-0.95,-0.35 -1.892,-0.727 -2.825,-1.129l-0.003,-0.002l-0.005,-0.002l-0.152,-0.065l-0.107,-0.048l-0.008,-0.003l-0.012,-0.005l-0.163,-0.071l-0.086,-0.039l-0.01,-0.004l-0.022,-0.01l-0.171,-0.076l-0.067,-0.03l-0.01,-0.005l-0.036,-0.016l-0.176,-0.079l-0.047,-0.022l-0.011,-0.005l-0.06,-0.028l-0.17,-0.077l-0.029,-0.014l-0.011,-0.005l-0.121,-0.056l-0.126,-0.059l-0.011,-0.005l-0.01,-0.005l-0.059,-0.028l-0.207,-0.097l-0.041,-0.02l-0.033,-0.015l-0.079,-0.038l-0.133,-0.064l-0.073,-0.035l-0.055,-0.026l-0.065,-0.032l-0.093,-0.045l-0.108,-0.053l-0.072,-0.035l-0.046,-0.023c-0.21,-0.103 -0.419,-0.208 -0.628,-0.314l-0.087,-0.045c0,0 -0.091,-0.046 -0.091,-0.046l-0.21,-0.109l-0.106,-0.054l-0.016,-0.009c-0.388,-0.201 -0.775,-0.408 -1.16,-0.619l-0.332,-0.183c-0.1,-0.056 -0.201,-0.112 -0.301,-0.169l-0.029,-0.016l-0.066,-0.037l-0.099,-0.056l-0.072,-0.041l-0.052,-0.03l-0.049,-0.028l-0.074,-0.043l-0.112,-0.064l-0.052,-0.03l-0.026,-0.015l-0.056,-0.033l-0.127,-0.074l-0.078,-0.046l-0.033,-0.019l-0.09,-0.053c-0.708,-0.417 -1.409,-0.849 -2.104,-1.296l-0.013,-0.009l-0.028,-0.018l-0.173,-0.111l-0.116,-0.076l-0.006,-0.004l-0.005,-0.003l-0.145,-0.095l-0.124,-0.082l-0.026,-0.017l-0.021,-0.014l-0.063,-0.042l-0.149,-0.098l-0.066,-0.045l-0.042,-0.028l-0.054,-0.036l-0.095,-0.064l-0.112,-0.076l-0.059,-0.039l-0.034,-0.024l-0.052,-0.035l-0.181,-0.123l-0.051,-0.036l-0.012,-0.008l-0.013,-0.009l-0.127,-0.087l-0.166,-0.115l-0.015,-0.011l-0.035,-0.024l-0.163,-0.114l-0.103,-0.073l-0.026,-0.018l-0.051,-0.036l-0.111,-0.079l-0.128,-0.091l-0.073,-0.052l-0.083,-0.059l-0.085,-0.062l-0.073,-0.053l-0.118,-0.085l-0.117,-0.085l-0.052,-0.038l-0.027,-0.02l-0.134,-0.098l-0.149,-0.11l-0.03,-0.022l-0.09,-0.067l-0.157,-0.117l-0.067,-0.051l-0.076,-0.056l-0.067,-0.05l-0.051,-0.039l-0.198,-0.15l-0.073,-0.056l-0.089,-0.068l-0.158,-0.122l-0.065,-0.05l-0.075,-0.057l-0.066,-0.052l-0.053,-0.041l-0.195,-0.153l-0.071,-0.055l-0.083,-0.066l-0.165,-0.13l-0.066,-0.053l-0.07,-0.055l-0.063,-0.051l-0.057,-0.046l-0.207,-0.166l-0.055,-0.044l-0.064,-0.052l-0.184,-0.151l-0.073,-0.059l-0.059,-0.049l-0.055,-0.045l-0.067,-0.055l-0.238,-0.198l-0.019,-0.015l-0.028,-0.024l-0.221,-0.185l-0.085,-0.072l-0.043,-0.036l-0.04,-0.034c-0.196,-0.165 -0.391,-0.332 -0.585,-0.501l-0.1,-0.087l-0.024,-0.021l-0.027,-0.023l-0.109,-0.095l-0.233,-0.205l-0.004,-0.003l-0.001,-0.001c-0.109,-0.096 -0.217,-0.193 -0.326,-0.29l-0.043,-0.038l-0.088,-0.08l-0.081,-0.072l-0.059,-0.054l-0.14,-0.127l-0.113,-0.102l-0.046,-0.042l-0.062,-0.057l-0.146,-0.134l-0.106,-0.097l-0.043,-0.04l-0.063,-0.059l-0.154,-0.142l-0.098,-0.093l-0.04,-0.037l-0.065,-0.061l-0.16,-0.151l-0.093,-0.088l-0.036,-0.034l-0.145,-0.139l-0.088,-0.083l-0.093,-0.091l-0.105,-0.101l-0.075,-0.072l-0.086,-0.083l-0.047,-0.046c-0.084,-0.081 -0.167,-0.163 -0.25,-0.245l-0.061,-0.06l-0.074,-0.072l-0.05,-0.05l-0.158,-0.157l-0.075,-0.074l-0.087,-0.088l-0.105,-0.106l-0.079,-0.079l-0.083,-0.083l-0.043,-0.044c-0.083,-0.085 -0.167,-0.17 -0.25,-0.255l-0.06,-0.061l-0.07,-0.072l-0.049,-0.05l-0.162,-0.168l-0.07,-0.072l-0.086,-0.091l-0.1,-0.104l-0.079,-0.083l-0.083,-0.087l-0.042,-0.045c-0.082,-0.085 -0.162,-0.171 -0.243,-0.257l-0.063,-0.066l-0.07,-0.076l-0.044,-0.046l-0.153,-0.165l-0.078,-0.084l-0.146,-0.159l-0.096,-0.105l-0.03,-0.033l-0.071,-0.077l-0.103,-0.113l-0.063,-0.069l-0.068,-0.076l-0.108,-0.118l-0.063,-0.071l-0.026,-0.029l-0.108,-0.122l-0.142,-0.158l-0.162,-0.183l-0.12,-0.135l-0.01,-0.013l-0.046,-0.051l-0.121,-0.139l-0.089,-0.102l-0.046,-0.054l-0.08,-0.09l-0.085,-0.1l-0.054,-0.063l-0.082,-0.095l-0.112,-0.13l-0.052,-0.061l-0.019,-0.022l-0.12,-0.142l-0.141,-0.166l-0.139,-0.165l-0.125,-0.149l-0.02,-0.025l-0.046,-0.055l-0.07,-0.085l-0.067,-0.079l-0.117,-0.142l-0.074,-0.09l-0.063,-0.077l-0.149,-0.182l-0.05,-0.062l-0.064,-0.078l-0.055,-0.068l-0.032,-0.039l-0.079,-0.099l-0.158,-0.196l-0.043,-0.053l-0.011,-0.014l-0.083,-0.105l-0.185,-0.232l-0.075,-0.095l-0.233,-0.296l-0.004,-0.006l-0.008,-0.011l-0.052,-0.066l-0.222,-0.285l-0.041,-0.054l-0.003,-0.004l-0.011,-0.014l-0.194,-0.253l-0.089,-0.116l-0.022,-0.03l-0.027,-0.035l-0.11,-0.145l-0.152,-0.202l-0.025,-0.033l-0.012,-0.017c-0.102,-0.134 -0.202,-0.269 -0.303,-0.405c-0.085,-0.115 -0.17,-0.23 -0.255,-0.345c-0.223,-0.304 -0.444,-0.61 -0.663,-0.917l-0.003,-0.004l-0.004,-0.005c-0.195,-0.274 -0.389,-0.55 -0.582,-0.828l-0.019,-0.026l-0.03,-0.044l-0.096,-0.139l-0.127,-0.184l-0.046,-0.066l-0.019,-0.028l-0.004,-0.007c-0.079,-0.114 -0.157,-0.229 -0.235,-0.344l-0.039,-0.058l-0.048,-0.071l-0.065,-0.095l-0.142,-0.212l-0.041,-0.06l-0.015,-0.023l-0.185,-0.278l-0.053,-0.081l-0.04,-0.059l-0.039,-0.061l-0.058,-0.087l-0.182,-0.279l-0.011,-0.017l-0.025,-0.038l-0.159,-0.245l-0.067,-0.104l-0.038,-0.059l-0.032,-0.05c-0.082,-0.128 -0.164,-0.256 -0.246,-0.384l-0.009,-0.015l-0.028,-0.045l-0.139,-0.219l-0.081,-0.13l-0.036,-0.057l-0.025,-0.039c-0.082,-0.132 -0.164,-0.263 -0.245,-0.395l-0.012,-0.019l-0.029,-0.047l-0.123,-0.199l-0.096,-0.158l-0.032,-0.052l-0.018,-0.03c-0.082,-0.135 -0.164,-0.27 -0.246,-0.405l-0.014,-0.024l-0.028,-0.046l-0.108,-0.181l-0.064,-0.108l-0.075,-0.125c-0.12,-0.202 -0.24,-0.405 -0.358,-0.608l-0.125,-0.215c0,0 -0.09,-0.155 -0.09,-0.155l-0.093,-0.162l-0.044,-0.077l-0.055,-0.095l-0.068,-0.119l-0.048,-0.086l-0.055,-0.096l-0.094,-0.167l-0.061,-0.107l-0.118,-0.211l-0.21,-0.376l-0.101,-0.185l-0.084,-0.153l-0.047,-0.085l-0.047,-0.087l-0.053,-0.098l-0.072,-0.132l-0.098,-0.181l-0.055,-0.102l-0.044,-0.083l-0.021,-0.039l-0.022,-0.042c-0.196,-0.365 -0.389,-0.732 -0.58,-1.101l-0.036,-0.07c-0.075,-0.145 -0.149,-0.29 -0.224,-0.435l-0.038,-0.075l-0.089,-0.177l-0.074,-0.146l-0.054,-0.107l-0.078,-0.154l-0.073,-0.148l-0.003,-0.005l-0.004,-0.008l-0.114,-0.229l-0.069,-0.139l-0.019,-0.04l-0.038,-0.077l-0.091,-0.185l-0.045,-0.093l-0.03,-0.062l-0.059,-0.122l-0.08,-0.165l-0.036,-0.074l-0.028,-0.058l-0.063,-0.131l-0.107,-0.225l-0.043,-0.09l-0.055,-0.115l-0.117,-0.249l-0.017,-0.036l-0.008,-0.018l-0.045,-0.095c-0.133,-0.285 -0.265,-0.572 -0.396,-0.86l-0.007,-0.013l-0.02,-0.044l-0.128,-0.284l-0.054,-0.119l-0.022,-0.05l-0.03,-0.066l-0.075,-0.167l-0.085,-0.191l-0.032,-0.074l-0.02,-0.045l-0.042,-0.095l-0.137,-0.312l-0.021,-0.048l-0.005,-0.011c-0.069,-0.159 -0.138,-0.317 -0.206,-0.476l-0.007,-0.016l-0.027,-0.064l-0.125,-0.293l-0.039,-0.092l-0.024,-0.055l-0.037,-0.089l-0.073,-0.174l-0.066,-0.156l-0.036,-0.087l-0.027,-0.065l-0.043,-0.103l-0.103,-0.249l-0.037,-0.091l-0.012,-0.029c-0.064,-0.157 -0.128,-0.314 -0.192,-0.472l-0.004,-0.01l-0.023,-0.057l-0.133,-0.332l-0.029,-0.072l-0.02,-0.051l-0.041,-0.102l-0.075,-0.191l-0.053,-0.134l-0.034,-0.087l-0.031,-0.079l-0.046,-0.117l-0.083,-0.214l-0.041,-0.106l-0.016,-0.042l-0.021,-0.056l-0.08,-0.209l-0.081,-0.211l-0.021,-0.057c0,0 -0.137,-0.364 -0.137,-0.364l-0.04,-0.106l-0.015,-0.042l-0.033,-0.087l-0.089,-0.24l-0.046,-0.128l-0.022,-0.059l-0.034,-0.092l-0.072,-0.197l-0.052,-0.145l-0.03,-0.082l-0.034,-0.096l-0.056,-0.155l-0.054,-0.151l-0.041,-0.116l-0.041,-0.117l-0.034,-0.096l-0.117,-0.335l-0.006,-0.015l-0.001,-0.005l-0.044,-0.126l-0.074,-0.215l-0.016,-0.045l-0.013,-0.038l-0.063,-0.185l-0.05,-0.145l-0.008,-0.024l-0.018,-0.054c-0.084,-0.248 -0.168,-0.497 -0.25,-0.747l-0.142,-0.433l-0.141,-0.434l-0.022,-0.071l-0.051,-0.16l-0.024,-0.075l-0.013,-0.04l-0.039,-0.125l-0.062,-0.196l-0.012,-0.036l-0.008,-0.027l-0.044,-0.141l-0.054,-0.173l-0.018,-0.058l-0.016,-0.054l-0.047,-0.153l-0.043,-0.138l-0.016,-0.055l-0.023,-0.073l-0.052,-0.172l-0.032,-0.109l-0.014,-0.046l-0.029,-0.096l-0.057,-0.189l-0.023,-0.08l-0.011,-0.036l-0.037,-0.125l-0.059,-0.2l-0.015,-0.053l-0.008,-0.025l-0.049,-0.17l-0.056,-0.194l-0.008,-0.026l-0.004,-0.013l-0.114,-0.402c-0.085,-0.296 -0.168,-0.594 -0.249,-0.892l0,0l-0.122,-0.446c0,0 -0.12,-0.448 -0.12,-0.448l-0.016,-0.063l-0.013,-0.047l-0.029,-0.113l-0.015,-0.057l-0.057,-0.217l-0.045,-0.172l-0.025,-0.097l-0.07,-0.273l-0.03,-0.119l-0.018,-0.072l-0.017,-0.068l-0.031,-0.121l-0.09,-0.362l-0.003,-0.011l-0.001,-0.003l-0.001,-0.005l-0.08,-0.327l-0.056,-0.23l-0.001,-0.003l-0.002,-0.007l-0.089,-0.374l-0.043,-0.181l-0.001,-0.004l-0.002,-0.008l-0.1,-0.427l-0.03,-0.129l0,-0.002l-0.003,-0.012l-0.111,-0.488l-0.015,-0.066l-0.001,-0.002l-0.003,-0.015l-0.022,-0.098l-0.08,-0.36l-0.014,-0.065l-0.011,-0.049l-0.025,-0.115l-0.05,-0.229l-0.023,-0.106l-0.027,-0.124l-0.05,-0.237l-0.036,-0.171l-0.016,-0.076l-0.019,-0.092l-0.063,-0.307l-0.034,-0.164l-0.009,-0.042l-0.013,-0.064l-0.093,-0.463l-0.01,-0.053l-0.004,-0.019l-0.032,-0.163c-0.076,-0.386 -0.15,-0.772 -0.222,-1.16l-0.085,-0.466l-0.03,-0.167l-0.012,-0.066l-0.011,-0.058c-0.036,-0.203 -0.072,-0.407 -0.107,-0.611l-0.006,-0.034l-0.019,-0.111l-0.001,-0.007c-0.076,-0.44 -0.149,-0.882 -0.219,-1.324l-0.009,-0.052l-0.004,-0.029c-0.031,-0.197 -0.062,-0.395 -0.092,-0.592l-0.012,-0.074l-0.015,-0.1l-0.022,-0.148l-0.059,-0.393l-0.005,-0.039l-0.003,-0.017l-0.008,-0.056l-0.052,-0.363l-0.028,-0.195l-0.012,-0.085l-0.051,-0.368l-0.028,-0.205l-0.004,-0.032l-0.013,-0.095l-0.026,-0.2l-0.033,-0.249l-0.022,-0.169l-0.011,-0.085l-0.009,-0.077l-0.019,-0.148l-0.059,-0.478l0,-0.001c-0.019,-0.152 -0.037,-0.305 -0.055,-0.458l-0.003,-0.022c-0.014,-0.125 -0.029,-0.251 -0.043,-0.377l-0.002,-0.013l-0.008,-0.074l-0.029,-0.257l-0.006,-0.059l-0.005,-0.047l-0.011,-0.094l-0.017,-0.162l-0.011,-0.105l-0.009,-0.076l-0.007,-0.075l-0.012,-0.106l-0.016,-0.161l-0.01,-0.095l-0.005,-0.047l-0.006,-0.059l-0.026,-0.257l-0.007,-0.075l-0.001,-0.014c-0.014,-0.135 -0.027,-0.27 -0.04,-0.405l-0.001,-0.02l-0.009,-0.087l-0.021,-0.232l-0.005,-0.056l-0.006,-0.065l-0.02,-0.224l-0.013,-0.14l-0.003,-0.039l-0.003,-0.037l-0.013,-0.151l-0.017,-0.193l-0.004,-0.05l-0.004,-0.047l-0.012,-0.147l-0.014,-0.176l-0.005,-0.06l-0.005,-0.059l-0.011,-0.142l-0.012,-0.159l-0.006,-0.071l-0.005,-0.07l-0.01,-0.138l-0.011,-0.142l-0.005,-0.079l-0.007,-0.084l-0.009,-0.135l-0.009,-0.124l-0.006,-0.084l-0.007,-0.1l-0.008,-0.134l-0.007,-0.104l-0.006,-0.085l-0.008,-0.121l-0.008,-0.134l-0.006,-0.083l-0.004,-0.081l-0.01,-0.147l-0.008,-0.137l-0.003,-0.058l-0.003,-0.043c-0.026,-0.447 -0.049,-0.896 -0.07,-1.345l0,-0.001l-0.001,-0.001l-0.009,-0.199l-0.009,-0.202l-0.001,-0.025l-0.001,-0.027l-0.008,-0.194l-0.007,-0.167l-0.002,-0.039l-0.002,-0.051l-0.007,-0.191l-0.005,-0.141l-0.002,-0.046l-0.002,-0.067l-0.007,-0.194l-0.004,-0.124l-0.002,-0.043l-0.002,-0.076l-0.007,-0.207l-0.003,-0.112l-0.001,-0.034l-0.002,-0.069l-0.006,-0.235l-0.003,-0.109l0,-0.017l-0.001,-0.04c-0.012,-0.454 -0.021,-0.908 -0.027,-1.364l0,-0.045l-0.001,-0.054l-0.002,-0.176l-0.003,-0.265l-0.001,-0.094l0,-0.043l-0.001,-0.05l-0.001,-0.271l-0.001,-0.135l0,-0.023l0,-0.024l-0.001,-0.454c0,0 0.001,-0.32 0.001,-0.32l0,-0.128l0.001,-0.279l0.001,-0.094l0,-0.049l0.003,-0.261l0.003,-0.322l0.002,-0.116l0.002,-0.173l0.005,-0.291l0.002,-0.144l0.001,-0.062l0,-0.016c0.004,-0.188 0.008,-0.376 0.012,-0.563l0.002,-0.082l0.001,-0.046c0.005,-0.205 0.011,-0.411 0.017,-0.616l0.002,-0.06l0.001,-0.038c0.006,-0.21 0.013,-0.42 0.021,-0.63l0.002,-0.052l0.001,-0.037c0.008,-0.211 0.016,-0.421 0.025,-0.632l0.002,-0.05l0.002,-0.039l0.004,-0.103l0.019,-0.402l0.007,-0.173l0.003,-0.046l0.03,-0.584l0.001,-0.021l0.003,-0.064l0.015,-0.259l0.015,-0.257l0.004,-0.08l0.007,-0.119l0.014,-0.215l0.011,-0.186l0.009,-0.136l0.012,-0.175l0.011,-0.167l0.008,-0.121l0.014,-0.187l0.016,-0.236l0.009,-0.118l0.004,-0.057l0.017,-0.218c0.037,-0.486 0.076,-0.971 0.12,-1.455l0.01,-0.114l0.002,-0.022l0.012,-0.139l0.031,-0.336l0.009,-0.097l0.007,-0.07l0.019,-0.202l0.016,-0.16l0,-0.004l0.002,-0.019c0.039,-0.395 0.08,-0.79 0.123,-1.185l0.011,-0.103l0.008,-0.066l0.018,-0.166l0.017,-0.144l0.006,-0.058l0.015,-0.132l0.027,-0.231c0.058,-0.498 0.119,-0.995 0.184,-1.491l0.01,-0.075l0.005,-0.044c0.024,-0.176 0.047,-0.351 0.071,-0.527l0.008,-0.059l0.017,-0.128l0.023,-0.166l0.02,-0.14l0.015,-0.112l0.012,-0.077l0.011,-0.084l0.043,-0.295l0.013,-0.088l0.002,-0.018c0.024,-0.161 0.048,-0.321 0.072,-0.482l0.006,-0.044l0.015,-0.093l0.032,-0.214l0.025,-0.156l0.012,-0.079l0.009,-0.061l0.018,-0.115l0.053,-0.328l0.005,-0.037l0.002,-0.009c0.027,-0.171 0.055,-0.341 0.083,-0.512l0.004,-0.019l0.007,-0.046l0.046,-0.275l0.03,-0.172l0.007,-0.045l0.007,-0.04c0.032,-0.186 0.064,-0.371 0.097,-0.557c0.153,-0.872 0.317,-1.74 0.49,-2.602l0.001,-0.008l0.005,-0.023l0.073,-0.361l0.027,-0.129l0.003,-0.017l0.008,-0.037l0.064,-0.312l0.033,-0.155l0.005,-0.024l0.009,-0.042l0.058,-0.273l0.039,-0.182l0.006,-0.031l0.013,-0.059c0.073,-0.336 0.147,-0.67 0.222,-1.004l0.004,-0.016l0.001,-0.007l0.04,-0.177l0.039,-0.169l0.001,-0.005l0.003,-0.012c0.075,-0.327 0.152,-0.654 0.23,-0.979l0.03,-0.126l0.016,-0.067l0.025,-0.106l0.026,-0.104l0.022,-0.093l0.045,-0.183l0.026,-0.106l0.009,-0.037c0.037,-0.149 0.075,-0.299 0.112,-0.448l0,0l0,0l0.085,-0.335l0.04,-0.155l0.009,-0.035l0.008,-0.032c0.086,-0.335 0.174,-0.669 0.263,-1.003l0.003,-0.011l0.004,-0.015c0.705,-2.633 1.501,-5.211 2.383,-7.726c0.22,-0.627 0.445,-1.25 0.675,-1.869l0.008,-0.02l0.033,-0.087l0.107,-0.287l0.028,-0.073l0.016,-0.044l0.045,-0.117l0.081,-0.215l0.035,-0.09l0.025,-0.067l0.047,-0.122l0.065,-0.168l0.042,-0.106l0.035,-0.091l0.045,-0.116l0.052,-0.132l0.049,-0.123l0.045,-0.115l0.041,-0.104l0.041,-0.103l0.055,-0.138l0.056,-0.139l0.036,-0.089l0.03,-0.076l0.062,-0.152l0.067,-0.165l0.03,-0.073l0.021,-0.052l0.066,-0.16l0.08,-0.196l0.023,-0.055l0.012,-0.028l0.066,-0.159l0.098,-0.237l0.016,-0.037l0.003,-0.006l0.037,-0.089c0.116,-0.274 0.232,-0.548 0.35,-0.82l0.071,-0.163l0.101,-0.234l0.064,-0.145l0.089,-0.202l0.108,-0.244l0.059,-0.133l0.015,-0.033l0.015,-0.034l0.077,-0.173l0.079,-0.174l0.019,-0.042l0.024,-0.054l0.054,-0.119l0.09,-0.198l0.041,-0.089l0.016,-0.035l0.038,-0.082l0.092,-0.2l0.046,-0.099l0.027,-0.059l0.044,-0.094l0.072,-0.154l0.052,-0.11l0.037,-0.08l0.043,-0.091l0.058,-0.123l0.06,-0.125l0.046,-0.097l0.039,-0.081l0.047,-0.1l0.068,-0.142l0.054,-0.111l0.033,-0.069l0.038,-0.079l0.08,-0.162l0.06,-0.123l0.027,-0.056l0.028,-0.058l0.078,-0.158l0.045,-0.092l0.02,-0.04l0.054,-0.109l0.086,-0.171l0.02,-0.042l0.016,-0.032l0.076,-0.152l0.069,-0.135l0.021,-0.042l0.035,-0.069c0.11,-0.219 0.222,-0.438 0.334,-0.655l0.232,-0.448l0.106,-0.201l0.057,-0.109l0.045,-0.084c0.413,-0.783 0.835,-1.556 1.266,-2.321l0.016,-0.028l0.016,-0.027l0.051,-0.091l0.089,-0.157l0.04,-0.071l0.017,-0.029l0.014,-0.024l0.091,-0.159c0.13,-0.227 0.261,-0.453 0.393,-0.678l0.001,-0.003l0.001,-0.001c0.16,-0.273 0.321,-0.544 0.483,-0.815c0.13,-0.217 0.261,-0.433 0.393,-0.649l0.002,-0.003l0.004,-0.007l0.135,-0.221l0.123,-0.198l0.016,-0.027l0.009,-0.014l0.032,-0.052c0.08,-0.129 0.159,-0.257 0.24,-0.384l0,-0.001l0.001,-0.001l0.198,-0.314l0.06,-0.096l0.024,-0.037l0.036,-0.057l0.101,-0.158l0.102,-0.159l0.046,-0.072l0.029,-0.045l0.045,-0.071l0.178,-0.273l0.035,-0.054l0.079,-0.121l0.123,-0.187l0.025,-0.038l0.062,-0.095l0.094,-0.141l0.027,-0.042l0.035,-0.051l0.115,-0.173c0.633,-0.948 1.282,-1.878 1.945,-2.79l0.285,-0.389c0.324,-0.441 0.651,-0.877 0.982,-1.309l0.001,0l0,-0.001l0.174,-0.227c0.293,-0.379 0.589,-0.755 0.887,-1.128l0.164,-0.204l0.014,-0.018l0.009,-0.011l0.112,-0.139l0.118,-0.145l0.012,-0.015l0.017,-0.021l0.153,-0.188c0.703,-0.858 1.42,-1.698 2.151,-2.518c0.253,-0.284 0.508,-0.566 0.764,-0.845l0.024,-0.026l0.008,-0.009l0.062,-0.067l0.115,-0.124l0.081,-0.089l0.053,-0.056l0.039,-0.043l0.08,-0.084l0.096,-0.104l0.043,-0.045l0.035,-0.037l0.11,-0.117l0.081,-0.086l0.023,-0.024l0.04,-0.043l0.107,-0.112l0.1,-0.105l0.04,-0.042l0.058,-0.06l0.099,-0.102l0.074,-0.077l0.051,-0.053l0.082,-0.085l0.092,-0.095l0.047,-0.047l0.05,-0.052l0.118,-0.121l0.092,-0.092l0.013,-0.014l0.021,-0.022l0.183,-0.184l0.328,-0.328c0.177,-0.176 0.356,-0.352 0.535,-0.525l0.036,-0.036l0.03,-0.029l0.143,-0.139l0.1,-0.096l0.006,-0.005l0.02,-0.02l0.248,-0.238l0.089,-0.084l0.12,-0.114l0.094,-0.088c0.231,-0.218 0.463,-0.434 0.697,-0.648l0.037,-0.034l0.012,-0.011l0.087,-0.079l0.202,-0.184l0.056,-0.05l0.026,-0.024l0.098,-0.089l0.172,-0.153l0.062,-0.056l0.04,-0.035l0.11,-0.099l0.185,-0.163l0.025,-0.022l0.014,-0.012l0.092,-0.081l0.233,-0.203l0.023,-0.019l0.007,-0.007l0.053,-0.046l0.278,-0.239l0.025,-0.021l0.004,-0.004l0.011,-0.01l0.189,-0.16l0.161,-0.136l0.104,-0.088l0.09,-0.076l0.073,-0.06l0.099,-0.083l0.051,-0.042c0.083,-0.069 0.166,-0.138 0.25,-0.207l0.067,-0.055l0.088,-0.072l0.049,-0.04l0.122,-0.099l0.111,-0.091l0.11,-0.088l0.112,-0.09l0.058,-0.047l0.091,-0.073l0.061,-0.048c0.086,-0.068 0.172,-0.136 0.258,-0.204l0.053,-0.043l0.09,-0.07l0.075,-0.058l0.116,-0.091l0.094,-0.073l0.069,-0.053l0.181,-0.139l0.058,-0.045l0.067,-0.052l0.058,-0.044c0.097,-0.074 0.194,-0.147 0.292,-0.221l0.027,-0.021l0.061,-0.045l0.131,-0.098l0.14,-0.104l0.047,-0.036l0.02,-0.014c0.086,-0.064 0.172,-0.128 0.259,-0.191l0.056,-0.041l0.045,-0.034l0.112,-0.081l0.149,-0.108l0.066,-0.047l0.055,-0.04l0.108,-0.078l0.135,-0.097l0.075,-0.053l0.065,-0.046l0.103,-0.072l0.123,-0.087l0.084,-0.059l0.075,-0.053l0.096,-0.067l0.111,-0.077l0.095,-0.065l0.084,-0.058l0.089,-0.061l0.1,-0.069l0.174,-0.118l0.025,-0.017l0.009,-0.006c0.115,-0.077 0.229,-0.154 0.343,-0.23l0.037,-0.025l0.029,-0.019c0.112,-0.075 0.224,-0.149 0.337,-0.223l0.024,-0.016l0.038,-0.024c0.116,-0.077 0.233,-0.153 0.35,-0.228l0.004,-0.003l0.011,-0.007l0.211,-0.135l0.132,-0.085l0.039,-0.024l0.022,-0.014c0.112,-0.071 0.225,-0.142 0.337,-0.213l0.036,-0.022l0.038,-0.024c0.113,-0.07 0.226,-0.14 0.34,-0.21l0.018,-0.011l0.039,-0.024l0.15,-0.092l0.172,-0.104l0.036,-0.022l0.013,-0.008c0.113,-0.068 0.225,-0.135 0.338,-0.202l0.048,-0.029l0.037,-0.022c0.109,-0.064 0.218,-0.129 0.327,-0.193l0.036,-0.02l0.057,-0.034l0.099,-0.058l0.174,-0.1l0.052,-0.03l0.043,-0.024l0.2,-0.114l0.06,-0.034l0.062,-0.035l0.061,-0.035l0.052,-0.029l0.189,-0.106l0.064,-0.036l0.093,-0.051l0.125,-0.069l0.064,-0.035l0.085,-0.047l0.063,-0.034l0.024,-0.013l0.201,-0.11l0.08,-0.043l0.119,-0.063l0.074,-0.04l0.06,-0.032c0.206,-0.11 0.414,-0.218 0.622,-0.326l0.032,-0.016l0.04,-0.021c0.612,-0.316 1.229,-0.62 1.85,-0.913l0.008,-0.004l0.008,-0.003l0.171,-0.081l0.13,-0.06l0.006,-0.003l0.014,-0.007c0.301,-0.139 0.603,-0.276 0.906,-0.411l0.029,-0.013l0.003,-0.001l0.048,-0.021l0.143,-0.063l0.124,-0.054l0.055,-0.024l0.059,-0.026l0.077,-0.033l0.089,-0.038l0.127,-0.054l0.088,-0.038l0.039,-0.016c0.106,-0.045 0.212,-0.09 0.318,-0.134l0.026,-0.011l0.088,-0.036l0.156,-0.065l0.071,-0.029l0.069,-0.028l0.069,-0.028l0.073,-0.03l0.151,-0.06l0.091,-0.037l0.029,-0.011c0.105,-0.042 0.211,-0.084 0.318,-0.126l0.038,-0.015l0.095,-0.037l0.127,-0.049l0.083,-0.031l0.082,-0.032l0.066,-0.025l0.053,-0.02l0.165,-0.062l0.103,-0.04l0.08,-0.029l0.221,-0.082l0.029,-0.01l0.059,-0.022l0.108,-0.039l0.09,-0.033l0.081,-0.029l0.11,-0.039l0.069,-0.025l0.026,-0.009l0.13,-0.046l0.165,-0.058l0.187,-0.064l0.091,-0.032l0.022,-0.007l0.091,-0.032l0.133,-0.044l0.042,-0.014l0.056,-0.019l0.161,-0.054l0.07,-0.023l0.059,-0.02l0.115,-0.037l0.149,-0.049l0.081,-0.026l0.067,-0.022l0.109,-0.034l0.136,-0.044l0.092,-0.028l0.076,-0.024l0.102,-0.031c0.5,-0.155 1.003,-0.303 1.507,-0.443l0.012,-0.004l0.023,-0.006l0.17,-0.047l0.261,-0.071l0.023,-0.006l0.005,-0.001l0.11,-0.03l0.112,-0.03l0.012,-0.003l0.06,-0.015l0.216,-0.057l0.146,-0.037l0.057,-0.015l0.057,-0.014l0.14,-0.035l0.163,-0.041l0.121,-0.029l0.024,-0.006l0.093,-0.023l0.094,-0.022l0.029,-0.007l0.149,-0.036l0.131,-0.031l0.118,-0.027l0.084,-0.019l0.086,-0.02l0.115,-0.026l0.089,-0.02l0.194,-0.043l0.04,-0.009l0.08,-0.017l0.079,-0.017l0.043,-0.009l0.23,-0.049l0.053,-0.012l0.096,-0.019l0.105,-0.022l0.111,-0.023l0.093,-0.019l0.039,-0.007c0.099,-0.02 0.199,-0.04 0.299,-0.059l0.068,-0.014l0.067,-0.012c0.101,-0.02 0.203,-0.039 0.305,-0.058l0.035,-0.007l0.079,-0.014l0.122,-0.022l0.132,-0.024l0.075,-0.014l0.03,-0.005c0.106,-0.019 0.212,-0.037 0.318,-0.055l0.06,-0.01l0.057,-0.01c0.107,-0.018 0.215,-0.035 0.322,-0.053l0.031,-0.005l0.065,-0.01l0.133,-0.021l0.15,-0.024l0.062,-0.009l0.024,-0.004c0.111,-0.017 0.222,-0.033 0.333,-0.049l0.053,-0.008l0.049,-0.007c0.112,-0.016 0.224,-0.032 0.336,-0.048l0.027,-0.003l0.056,-0.008l0.141,-0.019l0.165,-0.022l0.05,-0.006l0.019,-0.003c0.115,-0.014 0.23,-0.029 0.345,-0.043l0.049,-0.006l0.043,-0.005c0.115,-0.014 0.231,-0.027 0.346,-0.04l0.024,-0.003l0.049,-0.006l0.147,-0.016l0.177,-0.019l0.041,-0.004l0.015,-0.002c0.119,-0.012 0.237,-0.024 0.355,-0.036l0.045,-0.004l0.04,-0.004c0.118,-0.012 0.236,-0.022 0.353,-0.033l0.023,-0.002l0.044,-0.004l0.15,-0.013l0.188,-0.016l0.034,-0.003l0.012,-0.001c0.121,-0.009 0.241,-0.019 0.362,-0.028l0.043,-0.003l0.037,-0.002c0.119,-0.009 0.239,-0.017 0.359,-0.025l0.021,-0.002l0.042,-0.002l0.151,-0.01l0.197,-0.012l0.029,-0.002l0.01,0c0.122,-0.007 0.245,-0.014 0.368,-0.02l0.041,-0.002l0.034,-0.002c0.121,-0.005 0.243,-0.011 0.364,-0.016l0.021,-0.001l0.038,-0.001l0.153,-0.007l0.247,-0.008l0.003,-0.001l0.001,0c0.134,-0.004 0.268,-0.008 0.402,-0.011l0.038,-0.001l0.027,-0.001c0.1,-0.002 0.199,-0.005 0.299,-0.007l0.006,0l0.032,0l0.206,-0.004l0.056,0l0.038,-0.001l0.056,0l0.103,-0.002l0.115,0l0.058,-0.001l0.033,0l0.047,0l0.253,-0.001Z"/><g><path d="M337.5,294.076c0,-11.942 -9.696,-21.638 -21.639,-21.638l-294.222,0c-11.943,0 -21.639,9.696 -21.639,21.638l0,167.66c0,11.943 9.696,21.639 21.639,21.639l294.222,0c11.943,0 21.639,-9.696 21.639,-21.639l0,-167.66Z" style="fill:#252525;"/><path id="Apple" d="M195,392.425c-0.348,1.007 -0.712,1.968 -1.099,2.89c-0.945,2.179 -2.061,4.184 -3.354,6.025c-1.758,2.513 -3.202,4.252 -4.314,5.217c-1.723,1.585 -3.57,2.399 -5.549,2.441c-1.421,0 -3.13,-0.403 -5.125,-1.22c-1.999,-0.817 -3.836,-1.221 -5.516,-1.221c-1.762,0 -3.652,0.404 -5.673,1.221c-2.025,0.817 -3.656,1.247 -4.903,1.286c-1.896,0.082 -3.786,-0.752 -5.673,-2.507c-1.204,-1.05 -2.71,-2.851 -4.515,-5.401c-1.936,-2.723 -3.527,-5.883 -4.774,-9.486c-1.336,-3.888 -2.005,-7.655 -2.005,-11.301c0,-4.177 0.902,-7.779 2.71,-10.798c1.421,-2.425 3.311,-4.338 5.677,-5.742c2.366,-1.405 4.922,-2.12 7.675,-2.166c1.506,0 3.481,0.466 5.935,1.381c2.448,0.919 4.02,1.385 4.709,1.385c0.515,0 2.261,-0.545 5.221,-1.631c2.798,-1.007 5.161,-1.424 7.097,-1.26c5.243,0.424 9.181,2.491 11.803,6.215c-4.689,2.842 -7.009,6.822 -6.963,11.927c0.042,3.977 1.483,7.288 4.318,9.916c1.286,1.218 2.723,2.159 4.318,2.829Zm-13.191,-45.682c0.043,0.417 0.063,0.834 0.063,1.247c0,3.117 -1.139,6.028 -3.406,8.722c-2.74,3.202 -6.054,5.053 -9.647,4.761c-0.046,-0.374 -0.072,-0.768 -0.072,-1.182c0,-2.992 1.302,-6.195 3.616,-8.813c1.155,-1.326 2.625,-2.428 4.403,-3.308c1.779,-0.866 3.462,-1.345 5.043,-1.427Z" style="fill:#7e7e7e;fill-rule:nonzero;"/></g></g></svg>