<?xml version="1.0" encoding="UTF-8" standalone="no"?><!DOCTYPE svg PUBLIC "-//W3C//DTD SVG 1.1//EN" "http://www.w3.org/Graphics/SVG/1.1/DTD/svg11.dtd"><svg width="100%" height="100%" viewBox="0 0 186 805" version="1.1" xmlns="http://www.w3.org/2000/svg" xmlns:xlink="http://www.w3.org/1999/xlink" xml:space="preserve" xmlns:serif="http://www.serif.com/" style="fill-rule:evenodd;clip-rule:evenodd;stroke-linejoin:round;stroke-miterlimit:1.41421;"><path id="Third-Man" serif:id="Third Man" d="M96.8,805.149c-0.073,0.01 -16.5,2.183 -16.5,-15c0,-17.221 16.5,-15.375 16.5,-15.375l57,0l-11.25,-117l-96,-82.875c-6.393,-7.205 -6.822,-14.749 3,-22.875l99.75,-66l-49.5,-76.125c-5.38,-7.857 -4.7,-15.375 3,-22.5l52.5,-53.625l0,-121.5c-16.108,1.128 -29.513,-3.952 -41.625,-12l-10.875,10.125c0,0 -1.421,1.208 -3.004,-0.375c-1.293,-1.292 0.004,-2.625 0.004,-2.625l10.5,-9.75c-24.973,-19.736 -37.456,-43.898 -42,-70.875c-21.254,11.558 -42.747,22.697 -64.5,33.375c3.461,-12.192 10.648,-23.427 22.125,-33.75c10.274,-9.432 21.562,-17.487 35.625,-18.75c-7.062,-30.71 -9.116,-60.857 -2.25,-90c7.953,1.279 15.458,1.922 20.625,-0.75c4.178,-2.655 7.004,-6.181 9.375,-14.25c1.391,-6.44 27.646,6.149 75,34.884c9.391,-3.818 31.539,-13.134 22.5,-9.009l0,23.625c-5.813,3.74 -9.667,7.372 -11.25,7.875c1.674,0.33 6.315,6.085 11.25,12.375l0.75,126.375c-0.75,0.732 -1.5,1.42 -2.25,1.875c0.606,1.491 0.693,2.995 0.75,4.5l0,285.75c-0.138,1.786 -0.485,3.54 -1.125,5.25l-12.375,147l10.5,9c3.635,4.202 4.304,7.842 3.75,11.25l0,54.75c-0.561,3.741 -2.358,7.214 -6.75,10.125l6,61.875c-0.639,9.449 -5.124,14.736 -14.25,15l-75,0Zm55.5,-284.625l-8.25,98.25l-60.75,-52.125l69,-46.125Zm-8.625,-130.875l-1.5,5.625c-0.926,2.963 -0.854,5.816 -0.375,8.625l3,18.75l-13.5,-20.625l12.375,-12.375Z"/></svg>