<?xml version="1.0" encoding="UTF-8" standalone="no"?><!DOCTYPE svg PUBLIC "-//W3C//DTD SVG 1.1//EN" "http://www.w3.org/Graphics/SVG/1.1/DTD/svg11.dtd"><svg width="100%" height="100%" viewBox="0 0 512 512" version="1.1" xmlns="http://www.w3.org/2000/svg" xmlns:xlink="http://www.w3.org/1999/xlink" xml:space="preserve" style="fill-rule:evenodd;clip-rule:evenodd;stroke-linejoin:round;stroke-miterlimit:1.41421;"><path d="M388.415,116.642l-269.82,152.548c-6.388,3.902 -3.445,9.381 5.149,12.712l53.959,17.804c8.62,2.887 13.973,5.175 20.55,0l151.619,-132.217l-114.09,147.992c-0.986,1.437 -1.443,4.978 -1.549,9.648l0,61.023c0.5,11.825 2.754,14.332 7.712,5.085l28.254,-58.481c1.219,-2.472 5.367,-1.902 10.283,0l53.959,20.346c8.916,3.254 17.163,1.204 17.994,-2.543l43.684,-226.297c2.141,-8.367 -0.422,-11.142 -7.704,-7.62l0,0Z" style="fill:#ffa702;"/></svg>