<?xml version="1.0" encoding="UTF-8" standalone="no"?><!DOCTYPE svg PUBLIC "-//W3C//DTD SVG 1.1//EN" "http://www.w3.org/Graphics/SVG/1.1/DTD/svg11.dtd"><svg width="100%" height="100%" viewBox="0 0 246 246" version="1.1" xmlns="http://www.w3.org/2000/svg" xmlns:xlink="http://www.w3.org/1999/xlink" xml:space="preserve" xmlns:serif="http://www.serif.com/" style="fill-rule:evenodd;clip-rule:evenodd;stroke-linecap:round;stroke-linejoin:round;stroke-miterlimit:1.5;"><g><path d="M185.149,62.648c0,-34.325 -27.818,-62.148 -62.14,-62.148c-34.327,0 -62.147,27.823 -62.147,62.148c-0.171,8.142 1.508,15.789 4.482,23.105c0.168,0.42 0.306,0.842 0.482,1.252c0.705,1.651 1.509,3.274 2.346,4.881c0.073,0.135 0.127,0.275 0.202,0.41c9.356,17.749 26.289,33.601 43.986,49.562l-0.003,0c0,0 2.191,1.853 0,5.964l-6.115,11.484c-0.07,0.132 -2.589,5.527 2.284,6.235l31.198,0c1.921,-0.324 4.9,-1.486 2.401,-5.766c0,0 0,-0.007 -0.013,-0.007l-7.318,-12.56c0,0 -2.092,-3.326 -0.011,-5.096c5.576,-4.703 14.333,-12.176 17.563,-15.37c11.629,-11.938 23.955,-27.489 29.617,-44.116c0.379,-1.35 0.723,-2.659 1.016,-3.906c1.011,-3.798 1.675,-7.728 1.955,-11.774c0.246,-2.725 0.215,-4.298 0.215,-4.298Zm-56.139,-36.028c-0.264,2.209 -1.654,2.483 -2.213,2.501c-0.057,0 -0.125,0 -0.187,0.008c-0.026,-0.008 -0.055,-0.008 -0.055,-0.008l0,0.003c-2.151,0.106 -4.323,0.389 -6.498,0.889c-17.4,4.016 -28.995,19.81 -28.344,37.016c-0.003,0.033 -0.019,0.051 -0.019,0.085c0.008,2.704 -0.868,4.539 -4.057,5.345c-2.151,0.545 -3.39,-1.174 -3.981,-2.359c-0.33,-1.018 -0.659,-2.037 -0.908,-3.103c-4.541,-19.701 7.746,-39.353 27.448,-43.892c5.975,-1.377 11.916,-1.159 17.456,0.3c0.871,0.345 1.599,1.496 1.358,3.215Z" style="fill:#797979;fill-rule:nonzero;"/><path d="M123,165.541c-12.437,54.186 9.813,71.087 45.897,79.959" style="fill:none;stroke:#797979;stroke-width:11px;"/></g></svg>