<?xml version="1.0" encoding="UTF-8" standalone="no"?><!DOCTYPE svg PUBLIC "-//W3C//DTD SVG 1.1//EN" "http://www.w3.org/Graphics/SVG/1.1/DTD/svg11.dtd"><svg width="100%" height="100%" viewBox="0 0 246 246" version="1.1" xmlns="http://www.w3.org/2000/svg" xmlns:xlink="http://www.w3.org/1999/xlink" xml:space="preserve" xmlns:serif="http://www.serif.com/" style="fill-rule:evenodd;clip-rule:evenodd;stroke-linejoin:round;stroke-miterlimit:2;"><g><path d="M70.411,156.618c2.178,5.041 5.112,9.674 8.801,13.9c7.932,1.559 15.814,1.336 23.644,-0.667c4.658,4.554 9.924,8.124 15.797,10.706c-7.236,22.649 -15.61,44.1 -24.846,64.943c-6.332,-9.918 -12.271,-19.9 -15.337,-30.346l-34.305,12.204c7.646,-22.741 26.246,-70.74 26.246,-70.74Zm105.271,-0.211l26.153,68.972c-11.106,-2.059 -21.736,-5.094 -31.336,-10.225l-18.143,30.346c-9.612,-21.126 -18.383,-42.598 -25.025,-64.937c5.879,-2.582 11.151,-6.154 15.813,-10.712c7.83,2.003 15.712,2.226 23.644,0.667c3.741,-4.285 6.706,-8.988 8.894,-14.111Z" style="fill:#797979;"/><g><path d="M123,0.5c-7.65,2.615 -14.363,6.748 -20.144,12.4c-7.83,-2.005 -15.712,-2.226 -23.644,-0.667c-5.318,6.09 -9.065,13.027 -11.245,20.811c-7.784,2.18 -14.722,5.927 -20.81,11.244c-1.56,7.932 -1.339,15.814 0.667,23.645c-5.652,5.781 -9.786,12.494 -12.4,20.143c2.614,7.65 6.748,14.365 12.4,20.144c-2.006,7.832 -2.227,15.712 -0.667,23.645c6.088,5.317 13.026,9.064 20.81,11.244c2.18,7.784 5.927,14.722 11.245,20.811c7.932,1.559 15.814,1.338 23.644,-0.667c5.781,5.652 12.494,9.785 20.144,12.4c7.65,-2.615 14.363,-6.748 20.144,-12.4c7.83,2.005 15.712,2.226 23.644,0.667c5.318,-6.089 9.065,-13.027 11.245,-20.811c7.784,-2.18 14.722,-5.927 20.81,-11.244c1.56,-7.933 1.339,-15.813 -0.667,-23.645c5.652,-5.779 9.786,-12.494 12.4,-20.144c-2.614,-7.649 -6.748,-14.362 -12.4,-20.143c2.006,-7.831 2.227,-15.713 0.667,-23.645c-6.088,-5.317 -13.026,-9.064 -20.81,-11.244c-2.18,-7.784 -5.927,-14.721 -11.245,-20.811c-7.932,-1.559 -15.814,-1.338 -23.644,0.667c-5.781,-5.652 -12.494,-9.785 -20.144,-12.4Zm0,18.867c37.921,0 68.709,30.789 68.709,68.709c0,37.921 -30.788,68.71 -68.709,68.71c-37.921,0 -68.709,-30.789 -68.709,-68.71c0,-37.92 30.788,-68.709 68.709,-68.709Z" style="fill:#797979;"/><path d="M123,25.075c34.772,0 63.003,28.23 63.003,63.001c0,34.772 -28.231,63.004 -63.003,63.004c-34.772,0 -63.003,-28.232 -63.003,-63.004c0,-34.771 28.231,-63.001 63.003,-63.001Zm0,24.811l9.48,29.176l30.675,0l-24.818,18.031l9.48,29.173l-24.817,-18.031l-24.817,18.031l9.48,-29.173l-24.818,-18.031l30.675,0l9.48,-29.176Z" style="fill:#797979;"/></g></g></svg>