<?xml version="1.0" encoding="UTF-8" standalone="no"?><!DOCTYPE svg PUBLIC "-//W3C//DTD SVG 1.1//EN" "http://www.w3.org/Graphics/SVG/1.1/DTD/svg11.dtd"><svg width="100%" height="100%" viewBox="0 0 246 246" version="1.1" xmlns="http://www.w3.org/2000/svg" xmlns:xlink="http://www.w3.org/1999/xlink" xml:space="preserve" xmlns:serif="http://www.serif.com/" style="fill-rule:evenodd;clip-rule:evenodd;stroke-linejoin:round;stroke-miterlimit:2;"><g id="School"><path d="M69.001,152.328l49.174,24.576c3.028,1.511 6.597,1.511 9.623,0l76.883,-38.432l0,23.169c0.02,4.38 -1.841,8.566 -5.105,11.486c-35.721,31.621 -86.694,37.281 -127.874,16.98c1.5,-1.778 2.404,-4.073 2.404,-6.578c0,-3.776 -2.054,-7.076 -5.105,-8.842l0,-22.359Zm-19.584,-9.788l0,20.615c-2.748,1.591 -4.687,4.426 -5.045,7.732c-1.979,-2.646 -3.068,-5.889 -3.053,-9.246l0,-23.148l8.098,4.047Zm78.552,-39.266c0.1,-0.398 0.152,-0.813 0.152,-1.234c0,-2.389 -1.676,-4.418 -3.906,-4.964c0.004,-0.084 0.006,-0.168 0.006,-0.252c0,-2.802 -2.305,-5.109 -5.108,-5.109c-0.793,0 -1.575,0.186 -2.284,0.541l-64.579,32.365c-1.732,0.861 -2.832,2.635 -2.833,4.569l0,0.715l-45.951,-22.965c-1.816,-0.913 -2.966,-2.779 -2.966,-4.811c0,-2.032 1.15,-3.898 2.966,-4.811l114.709,-57.407c3.035,-1.519 6.615,-1.519 9.65,0l114.709,57.381c1.816,0.913 2.966,2.779 2.966,4.811c0,2.033 -1.15,3.899 -2.966,4.812l-114.736,57.355c-3.026,1.511 -6.595,1.511 -9.623,0l-44.06,-22.021l55.394,-27.742c0.988,-0.494 1.769,-1.285 2.257,-2.234c1.143,-0.958 1.83,-2.388 1.83,-3.916c0,-2.803 -2.306,-5.109 -5.108,-5.109c-0.174,0 -0.347,0.009 -0.519,0.026Z" style="fill:#797979;fill-rule:nonzero;"/><path d="M53.316,168.37l0,-33.965c0.001,-1.933 1.102,-3.707 2.833,-4.568l64.58,-32.366c0.709,-0.355 1.491,-0.54 2.284,-0.54c2.802,0 5.108,2.306 5.108,5.109c0,1.931 -1.096,3.704 -2.824,4.568l-61.771,30.937l0,30.825c3.051,1.766 5.105,5.066 5.105,8.841c0,3.776 -2.054,7.076 -5.105,8.842l0,16.07c0,2.801 -2.304,5.106 -5.104,5.106c-2.801,0 -5.106,-2.305 -5.106,-5.106l0,-16.07c-3.05,-1.767 -5.104,-5.066 -5.104,-8.842c0,-3.775 2.054,-7.075 5.104,-8.841Z" style="fill:#797979;fill-rule:nonzero;"/><ellipse cx="124.221" cy="101.039" rx="12.763" ry="12.214" style="fill:#797979;"/></g></svg>