<?xml version="1.0" encoding="UTF-8" standalone="no"?><!DOCTYPE svg PUBLIC "-//W3C//DTD SVG 1.1//EN" "http://www.w3.org/Graphics/SVG/1.1/DTD/svg11.dtd"><svg width="100%" height="100%" viewBox="0 0 246 246" version="1.1" xmlns="http://www.w3.org/2000/svg" xmlns:xlink="http://www.w3.org/1999/xlink" xml:space="preserve" xmlns:serif="http://www.serif.com/" style="fill-rule:evenodd;clip-rule:evenodd;stroke-linejoin:round;stroke-miterlimit:2;"><path d="M228,0.5l-210.055,0c-9.625,0 -17.445,7.93 -17.445,17.664l0,209.672c0,9.734 7.82,17.664 17.445,17.664l210.055,0c9.625,0 17.5,-7.93 17.5,-17.664l0,-209.672c0,-9.734 -7.875,-17.664 -17.5,-17.664Zm-153.453,210l-36.313,0l0,-116.922l36.368,0l0,116.922l-0.055,0Zm-18.156,-132.891c-11.649,0 -21.055,-9.461 -21.055,-21.054c0,-11.594 9.406,-21.055 21.055,-21.055c11.593,0 21.054,9.461 21.054,21.055c0,11.648 -9.406,21.054 -21.054,21.054Zm154.273,132.891l-36.312,0l0,-56.875c0,-13.563 -0.274,-31.008 -18.868,-31.008c-18.921,0 -21.82,14.766 -21.82,30.024l0,57.859l-36.312,0l0,-116.922l34.835,0l0,15.969l0.493,0c4.867,-9.188 16.734,-18.867 34.398,-18.867c36.75,0 43.586,24.226 43.586,55.726l0,64.094Z" style="fill:#797979;fill-rule:nonzero;"/></svg>