<?xml version="1.0" encoding="UTF-8" standalone="no"?><!DOCTYPE svg PUBLIC "-//W3C//DTD SVG 1.1//EN" "http://www.w3.org/Graphics/SVG/1.1/DTD/svg11.dtd"><svg width="100%" height="100%" viewBox="0 0 246 246" version="1.1" xmlns="http://www.w3.org/2000/svg" xmlns:xlink="http://www.w3.org/1999/xlink" xml:space="preserve" xmlns:serif="http://www.serif.com/" style="fill-rule:evenodd;clip-rule:evenodd;stroke-linejoin:round;stroke-miterlimit:2;"><g><circle cx="123" cy="123" r="15.687" style="fill:#797979;"/><path d="M138.048,1.428c-9.994,-1.237 -20.102,-1.237 -30.096,0l-4.718,9.472l-7.674,-7.287c-9.814,2.255 -19.313,5.713 -28.281,10.293l-1.194,10.515l-9.703,-4.223c-8.451,5.476 -16.194,11.973 -23.055,19.345l2.474,10.289l-10.562,-0.65c-6.068,8.036 -11.122,16.79 -15.048,26.064l5.844,8.822l-10.147,3.002c-2.954,9.627 -4.709,19.582 -5.226,29.639l8.508,6.291l-8.508,6.291c0.517,10.057 2.272,20.012 5.226,29.639l10.147,3.002l-5.844,8.822c3.926,9.274 8.98,18.028 15.048,26.064l10.562,-0.65l-2.474,10.289c6.861,7.372 14.604,13.869 23.055,19.345l9.703,-4.223l1.194,10.515c8.968,4.58 18.467,8.038 28.281,10.293l7.674,-7.287l4.718,9.472c9.994,1.237 20.102,1.237 30.096,0l4.718,-9.472l7.674,7.287c9.814,-2.255 19.313,-5.713 28.281,-10.293l1.194,-10.515l9.703,4.223c8.451,-5.476 16.194,-11.973 23.055,-19.345l-2.474,-10.289l10.562,0.65c6.068,-8.036 11.122,-16.79 15.048,-26.064l-5.844,-8.822l10.147,-3.002c2.954,-9.627 4.709,-19.582 5.226,-29.639l-8.508,-6.291l8.508,-6.291c-0.517,-10.057 -2.272,-20.012 -5.226,-29.639l-10.147,-3.002l5.844,-8.822c-3.926,-9.274 -8.98,-18.028 -15.048,-26.064l-10.562,0.65l2.474,-10.289c-6.861,-7.372 -14.604,-13.869 -23.055,-19.345l-9.703,4.223l-1.194,-10.515c-8.968,-4.58 -18.467,-8.038 -28.281,-10.293l-7.674,7.287l-4.718,-9.472Zm-15.048,34.973c47.795,0 86.599,38.804 86.599,86.599c0,47.795 -38.804,86.599 -86.599,86.599c-47.795,0 -86.599,-38.804 -86.599,-86.599c0,-47.795 38.804,-86.599 86.599,-86.599Z" style="fill:#797979;"/><path d="M123,45.947c42.527,0 77.053,34.526 77.053,77.053c0,42.527 -34.526,77.053 -77.053,77.053c-42.527,0 -77.053,-34.526 -77.053,-77.053c0,-42.527 34.526,-77.053 77.053,-77.053Zm32.396,135.447c-4.985,-8.946 -11.757,-16.234 -20.317,-21.865c-0.126,0.042 -0.253,0.083 -0.38,0.123c-3.616,9.588 -4.81,19.467 -3.584,29.636c8.722,-1.059 16.927,-3.802 24.281,-7.894Zm-40.511,7.894c1.226,-10.169 0.032,-20.048 -3.584,-29.636c-0.127,-0.04 -0.254,-0.081 -0.38,-0.123c-8.56,5.631 -15.332,12.919 -20.317,21.865c7.354,4.092 15.559,6.835 24.281,7.894Zm-37.4,-17.444c6.962,-7.502 11.798,-16.192 14.507,-26.068c-0.079,-0.107 -0.158,-0.215 -0.235,-0.324c-10.237,-0.475 -20.002,1.441 -29.294,5.751c3.654,7.823 8.78,14.822 15.022,20.641Zm106.052,-20.641c-9.292,-4.31 -19.057,-6.226 -29.294,-5.751c-0.077,0.109 -0.156,0.217 -0.235,0.324c2.709,9.876 7.545,18.566 14.507,26.068c6.242,-5.819 11.368,-12.818 15.022,-20.641Zm-60.537,-51.603c12.915,0 23.4,10.485 23.4,23.4c0,12.915 -10.485,23.4 -23.4,23.4c-12.915,0 -23.4,-10.485 -23.4,-23.4c0,-12.915 10.485,-23.4 23.4,-23.4Zm65.555,10.633c-10.052,1.976 -19.079,6.165 -27.081,12.567c0,0.133 0,0.267 0,0.4c8.002,6.402 17.029,10.591 27.081,12.567c0.802,-4.133 1.222,-8.401 1.222,-12.767c0,-4.366 -0.42,-8.634 -1.222,-12.767Zm-131.11,0c-0.802,4.133 -1.222,8.401 -1.222,12.767c0,4.366 0.42,8.634 1.222,12.767c10.052,-1.976 19.079,-6.165 27.081,-12.567c0,-0.133 0,-0.267 0,-0.4c-8.002,-6.402 -17.029,-10.591 -27.081,-12.567Zm20.04,-36.077c-6.242,5.819 -11.368,12.818 -15.022,20.641c9.292,4.31 19.057,6.226 29.294,5.751c0.077,-0.109 0.156,-0.217 0.235,-0.324c-2.709,-9.876 -7.545,-18.566 -14.507,-26.068Zm91.03,0c-6.962,7.502 -11.798,16.192 -14.507,26.068c0.079,0.107 0.158,0.215 0.235,0.324c10.237,0.475 20.002,-1.441 29.294,-5.751c-3.654,-7.823 -8.78,-14.822 -15.022,-20.641Zm-37.4,-17.444c-1.226,10.169 -0.032,20.048 3.584,29.636c0.127,0.04 0.254,0.081 0.38,0.123c8.56,-5.631 15.332,-12.919 20.317,-21.865c-7.354,-4.092 -15.559,-6.835 -24.281,-7.894Zm-16.23,0c-8.722,1.059 -16.927,3.802 -24.281,7.894c4.985,8.946 11.757,16.234 20.317,21.865c0.126,-0.042 0.253,-0.083 0.38,-0.123c3.616,-9.588 4.81,-19.467 3.584,-29.636Z" style="fill:#797979;"/></g></svg>