<?xml version="1.0" encoding="UTF-8" standalone="no"?><!DOCTYPE svg PUBLIC "-//W3C//DTD SVG 1.1//EN" "http://www.w3.org/Graphics/SVG/1.1/DTD/svg11.dtd"><svg width="100%" height="100%" viewBox="0 0 246 246" version="1.1" xmlns="http://www.w3.org/2000/svg" xmlns:xlink="http://www.w3.org/1999/xlink" xml:space="preserve" xmlns:serif="http://www.serif.com/" style="fill-rule:evenodd;clip-rule:evenodd;stroke-linejoin:round;stroke-miterlimit:2;"><g><path d="M117.167,134.52c0.135,-0.977 0.512,-1.923 1.124,-2.717c0.83,-1.078 1.223,-1.162 2.367,-1.836l58.278,-24.976c1.537,-0.425 1.547,-0.426 3.141,-0.426c0.514,0.142 1.028,0.284 1.542,0.426l58.278,24.976l1.301,0.767c0.937,0.94 1.296,1.12 1.829,2.372c0.232,0.549 0.375,1.136 0.419,1.735c0.029,0.198 0.046,0.393 0.054,0.59l0,72.154c-0.091,2.331 -1.463,4.447 -3.603,5.464l-58.278,24.976c-1.347,0.515 -1.623,0.474 -2.283,0.48c-0.25,0.003 -0.499,-0.012 -0.742,-0.05c-0.26,-0.021 -0.516,-0.066 -0.769,-0.13c-0.405,-0.102 -0.5,-0.151 -0.889,-0.3l-58.278,-24.976c-2.107,-1.002 -3.511,-3.097 -3.603,-5.464l0,-72.154c0.013,-0.312 0.049,-0.619 0.112,-0.911Zm116.443,10.327l-46.388,22.089l0,56.609l46.388,-19.88l0,-58.818Zm-96.184,-9.13l23.296,11.093l20.556,9.788l43.851,-20.881l-43.851,-18.794l-43.852,18.794Z" style="fill:#9b9b9b;"/><clipPath id="_clip1"><path d="M117.167,134.52c0.135,-0.977 0.512,-1.923 1.124,-2.717c0.83,-1.078 1.223,-1.162 2.367,-1.836l58.278,-24.976c1.537,-0.425 1.547,-0.426 3.141,-0.426c0.514,0.142 1.028,0.284 1.542,0.426l58.278,24.976l1.301,0.767c0.937,0.94 1.296,1.12 1.829,2.372c0.232,0.549 0.375,1.136 0.419,1.735c0.029,0.198 0.046,0.393 0.054,0.59l0,72.154c-0.091,2.331 -1.463,4.447 -3.603,5.464l-58.278,24.976c-1.347,0.515 -1.623,0.474 -2.283,0.48c-0.25,0.003 -0.499,-0.012 -0.742,-0.05c-0.26,-0.021 -0.516,-0.066 -0.769,-0.13c-0.405,-0.102 -0.5,-0.151 -0.889,-0.3l-58.278,-24.976c-2.107,-1.002 -3.511,-3.097 -3.603,-5.464l0,-72.154c0.013,-0.312 0.049,-0.619 0.112,-0.911Zm116.443,10.327l-46.388,22.089l0,56.609l46.388,-19.88l0,-58.818Zm-96.184,-9.13l23.296,11.093l20.556,9.788l43.851,-20.881l-43.851,-18.794l-43.852,18.794Z"/></clipPath><g clip-path="url(#_clip1)"><path d="M240.266,129.529c2.89,0.467 5.115,2.948 5.234,5.902l0,72.154c-0.091,2.331 -1.463,4.447 -3.603,5.464l-58.278,24.976c-1.347,0.515 -1.623,0.474 -2.283,0.48c-2.81,0.028 -5.475,-2.162 -5.929,-5.009c-0.066,-0.412 -0.058,-0.519 -0.074,-0.935l0,-69.378c0.09,-2.247 1.345,-4.292 3.389,-5.368l58.277,-27.751c1.023,-0.437 2.122,-0.626 3.267,-0.535Zm-53.044,37.407l0,56.609l46.388,-19.88l0,-58.818c-15.462,7.363 -30.925,14.726 -46.388,22.089Z" style="fill:#9b9b9b;fill-rule:nonzero;"/><path d="M123.246,129.492c1.598,0.13 1.18,0.089 2.31,0.572l58.277,27.751c1.99,1.048 3.297,3.06 3.389,5.368l0,69.378c-0.057,1.442 -0.203,1.678 -0.458,2.288c-1.081,2.594 -4.144,4.181 -6.939,3.476c-0.405,-0.102 -0.5,-0.151 -0.889,-0.3l-58.278,-24.976c-2.107,-1.002 -3.511,-3.097 -3.603,-5.464l0,-72.154c0.131,-3.245 2.793,-5.943 6.191,-5.939Zm5.699,74.173l46.388,19.88l0,-56.609l-46.388,-22.089l0,58.818Z" style="fill:#9b9b9b;fill-rule:nonzero;"/><path d="M183.619,104.991l58.278,24.976l1.301,0.767c0.937,0.94 1.296,1.12 1.829,2.372c0.779,1.834 0.551,4.11 -0.623,5.765c-0.787,1.11 -1.177,1.209 -2.293,1.928l-58.278,27.751c-1.266,0.438 -2.582,0.721 -3.866,0.431c-0.428,-0.097 -0.83,-0.287 -1.245,-0.431l-58.278,-27.751c-1.116,-0.719 -1.506,-0.818 -2.293,-1.928c-1.453,-2.048 -1.416,-5.048 0.14,-7.068c0.83,-1.078 1.223,-1.162 2.367,-1.836l58.278,-24.976c1.537,-0.425 1.547,-0.426 3.141,-0.426c0.514,0.142 1.028,0.284 1.542,0.426Zm-46.193,30.726l43.852,20.881l43.851,-20.881l-43.851,-18.794c-14.618,6.265 -29.235,12.529 -43.852,18.794Z" style="fill:#9b9b9b;fill-rule:nonzero;"/></g><path d="M58.89,37.45c0.134,-0.977 0.511,-1.923 1.123,-2.717c0.831,-1.078 1.224,-1.162 2.368,-1.836l58.277,-24.976c1.537,-0.425 1.547,-0.427 3.142,-0.427c0.514,0.143 1.028,0.285 1.542,0.427l58.277,24.976l1.302,0.767c0.937,0.94 1.296,1.12 1.828,2.372c0.233,0.549 0.376,1.136 0.419,1.735c0.029,0.198 0.046,0.393 0.054,0.59l0,72.154c-0.09,2.331 -1.463,4.447 -3.603,5.464l-58.277,24.976c-1.348,0.515 -1.623,0.474 -2.284,0.48c-0.25,0.003 -0.499,-0.012 -0.741,-0.05c-0.261,-0.021 -0.516,-0.066 -0.77,-0.13c-0.405,-0.102 -0.499,-0.151 -0.889,-0.3l-58.277,-24.976c-2.108,-1.002 -3.511,-3.097 -3.603,-5.464l0,-72.154c0.012,-0.312 0.048,-0.619 0.112,-0.911Zm116.443,10.327l-46.388,22.089l0,56.609l46.388,-19.88l0,-58.818Zm-96.184,-9.13l23.295,11.093l20.556,9.788l43.851,-20.881l-43.851,-18.794l-43.851,18.794Z" style="fill:#9b9b9b;"/><clipPath id="_clip2"><path d="M58.89,37.45c0.134,-0.977 0.511,-1.923 1.123,-2.717c0.831,-1.078 1.224,-1.162 2.368,-1.836l58.277,-24.976c1.537,-0.425 1.547,-0.427 3.142,-0.427c0.514,0.143 1.028,0.285 1.542,0.427l58.277,24.976l1.302,0.767c0.937,0.94 1.296,1.12 1.828,2.372c0.233,0.549 0.376,1.136 0.419,1.735c0.029,0.198 0.046,0.393 0.054,0.59l0,72.154c-0.09,2.331 -1.463,4.447 -3.603,5.464l-58.277,24.976c-1.348,0.515 -1.623,0.474 -2.284,0.48c-0.25,0.003 -0.499,-0.012 -0.741,-0.05c-0.261,-0.021 -0.516,-0.066 -0.77,-0.13c-0.405,-0.102 -0.499,-0.151 -0.889,-0.3l-58.277,-24.976c-2.108,-1.002 -3.511,-3.097 -3.603,-5.464l0,-72.154c0.012,-0.312 0.048,-0.619 0.112,-0.911Zm116.443,10.327l-46.388,22.089l0,56.609l46.388,-19.88l0,-58.818Zm-96.184,-9.13l23.295,11.093l20.556,9.788l43.851,-20.881l-43.851,-18.794l-43.851,18.794Z"/></clipPath><g clip-path="url(#_clip2)"><path d="M181.988,32.459c2.89,0.467 5.115,2.948 5.234,5.902l0,72.154c-0.09,2.331 -1.463,4.447 -3.603,5.464l-58.277,24.976c-1.348,0.515 -1.623,0.474 -2.284,0.48c-2.809,0.028 -5.475,-2.162 -5.929,-5.009c-0.066,-0.412 -0.057,-0.519 -0.074,-0.935l0,-69.378c0.091,-2.247 1.345,-4.292 3.389,-5.368l58.278,-27.751c1.022,-0.437 2.121,-0.626 3.266,-0.535Zm-53.043,37.407l0,56.609l46.388,-19.88l0,-58.818c-15.463,7.363 -30.926,14.726 -46.388,22.089Z" style="fill:#9b9b9b;fill-rule:nonzero;"/><path d="M64.968,32.422c1.598,0.13 1.181,0.089 2.31,0.572l58.278,27.751c1.989,1.048 3.296,3.059 3.389,5.368l0,69.378c-0.057,1.442 -0.204,1.678 -0.458,2.288c-1.082,2.594 -4.144,4.181 -6.94,3.476c-0.405,-0.102 -0.499,-0.151 -0.889,-0.3l-58.277,-24.976c-2.108,-1.002 -3.511,-3.097 -3.603,-5.464l0,-72.154c0.13,-3.245 2.793,-5.943 6.19,-5.939Zm5.699,74.173l46.388,19.88l0,-56.609l-46.388,-22.089l0,58.818Z" style="fill:#9b9b9b;fill-rule:nonzero;"/><path d="M125.342,7.921l58.277,24.976l1.302,0.767c0.937,0.94 1.296,1.12 1.828,2.372c0.779,1.834 0.552,4.109 -0.623,5.765c-0.787,1.11 -1.176,1.209 -2.293,1.928l-58.277,27.751c-1.266,0.438 -2.583,0.721 -3.866,0.431c-0.429,-0.097 -0.831,-0.287 -1.246,-0.431l-58.277,-27.751c-1.117,-0.719 -1.506,-0.818 -2.293,-1.928c-1.453,-2.048 -1.417,-5.048 0.139,-7.068c0.831,-1.078 1.224,-1.162 2.368,-1.836l58.277,-24.976c1.537,-0.425 1.547,-0.427 3.142,-0.427c0.514,0.143 1.028,0.285 1.542,0.427Zm-46.193,30.726l43.851,20.881l43.851,-20.881l-43.851,-18.794c-14.617,6.265 -29.234,12.529 -43.851,18.794Z" style="fill:#9b9b9b;fill-rule:nonzero;"/></g><path d="M0.612,134.52c0.135,-0.977 0.512,-1.923 1.124,-2.717c0.83,-1.078 1.223,-1.162 2.367,-1.836l58.278,-24.976c1.537,-0.425 1.547,-0.426 3.141,-0.426c0.514,0.142 1.028,0.284 1.542,0.426l58.278,24.976l1.301,0.767c0.937,0.94 1.296,1.12 1.828,2.372c0.233,0.549 0.376,1.136 0.42,1.735c0.029,0.198 0.046,0.393 0.054,0.59l0,72.154c-0.091,2.331 -1.464,4.447 -3.603,5.464l-58.278,24.976c-1.348,0.515 -1.623,0.474 -2.284,0.48c-0.25,0.003 -0.498,-0.012 -0.741,-0.05c-0.26,-0.021 -0.516,-0.066 -0.769,-0.13c-0.406,-0.102 -0.5,-0.151 -0.889,-0.3l-58.278,-24.976c-2.107,-1.002 -3.511,-3.097 -3.603,-5.464l0,-72.154c0.013,-0.312 0.049,-0.619 0.112,-0.911Zm116.443,10.327l-46.388,22.089l0,56.609l46.388,-19.88l0,-58.818Zm-96.184,-9.13l23.296,11.093l20.555,9.788l43.852,-20.881l-43.852,-18.794l-43.851,18.794Z" style="fill:#9b9b9b;"/><clipPath id="_clip3"><path d="M0.612,134.52c0.135,-0.977 0.512,-1.923 1.124,-2.717c0.83,-1.078 1.223,-1.162 2.367,-1.836l58.278,-24.976c1.537,-0.425 1.547,-0.426 3.141,-0.426c0.514,0.142 1.028,0.284 1.542,0.426l58.278,24.976l1.301,0.767c0.937,0.94 1.296,1.12 1.828,2.372c0.233,0.549 0.376,1.136 0.42,1.735c0.029,0.198 0.046,0.393 0.054,0.59l0,72.154c-0.091,2.331 -1.464,4.447 -3.603,5.464l-58.278,24.976c-1.348,0.515 -1.623,0.474 -2.284,0.48c-0.25,0.003 -0.498,-0.012 -0.741,-0.05c-0.26,-0.021 -0.516,-0.066 -0.769,-0.13c-0.406,-0.102 -0.5,-0.151 -0.889,-0.3l-58.278,-24.976c-2.107,-1.002 -3.511,-3.097 -3.603,-5.464l0,-72.154c0.013,-0.312 0.049,-0.619 0.112,-0.911Zm116.443,10.327l-46.388,22.089l0,56.609l46.388,-19.88l0,-58.818Zm-96.184,-9.13l23.296,11.093l20.555,9.788l43.852,-20.881l-43.852,-18.794l-43.851,18.794Z"/></clipPath><g clip-path="url(#_clip3)"><path d="M123.711,129.529c2.89,0.467 5.115,2.948 5.234,5.902l0,72.154c-0.091,2.331 -1.464,4.447 -3.603,5.464l-58.278,24.976c-1.348,0.515 -1.623,0.474 -2.284,0.48c-2.809,0.028 -5.475,-2.162 -5.928,-5.009c-0.066,-0.412 -0.058,-0.519 -0.074,-0.935l0,-69.378c0.09,-2.247 1.345,-4.292 3.389,-5.368l58.277,-27.751c1.023,-0.437 2.121,-0.626 3.267,-0.535Zm-53.044,37.407l0,56.609l46.388,-19.88l0,-58.818c-15.462,7.363 -30.925,14.726 -46.388,22.089Z" style="fill:#9b9b9b;fill-rule:nonzero;"/><path d="M6.691,129.492c1.597,0.13 1.18,0.089 2.31,0.572l58.277,27.751c1.99,1.048 3.296,3.06 3.389,5.368l0,69.378c-0.057,1.442 -0.203,1.678 -0.458,2.288c-1.082,2.594 -4.144,4.181 -6.939,3.476c-0.406,-0.102 -0.5,-0.151 -0.889,-0.3l-58.278,-24.976c-2.107,-1.002 -3.511,-3.097 -3.603,-5.464l0,-72.154c0.131,-3.245 2.793,-5.943 6.191,-5.939Zm5.699,74.173l46.388,19.88l0,-56.609l-46.388,-22.089l0,58.818Z" style="fill:#9b9b9b;fill-rule:nonzero;"/><path d="M67.064,104.991l58.278,24.976l1.301,0.767c0.937,0.94 1.296,1.12 1.828,2.372c0.779,1.834 0.552,4.11 -0.622,5.765c-0.787,1.11 -1.177,1.209 -2.293,1.928l-58.278,27.751c-1.266,0.438 -2.582,0.721 -3.866,0.431c-0.428,-0.097 -0.83,-0.287 -1.245,-0.431l-58.278,-27.751c-1.116,-0.719 -1.506,-0.818 -2.293,-1.928c-1.453,-2.048 -1.417,-5.048 0.14,-7.068c0.83,-1.078 1.223,-1.162 2.367,-1.836l58.278,-24.976c1.537,-0.425 1.547,-0.426 3.141,-0.426c0.514,0.142 1.028,0.284 1.542,0.426Zm-46.193,30.726l43.851,20.881l43.852,-20.881l-43.852,-18.794c-14.617,6.265 -29.234,12.529 -43.851,18.794Z" style="fill:#9b9b9b;fill-rule:nonzero;"/></g></g></svg>