<?xml version="1.0" standalone="no"?>
<!DOCTYPE svg PUBLIC "-//W3C//DTD SVG 20010904//EN"
 "http://www.w3.org/TR/2001/REC-SVG-20010904/DTD/svg10.dtd">
<svg version="1.0" xmlns="http://www.w3.org/2000/svg"
 width="700.000000pt" height="700.000000pt" viewBox="0 0 700.000000 700.000000"
 preserveAspectRatio="xMidYMid meet">
<metadata>
Created by potrace 1.11, written by Peter Selinger 2001-2013
</metadata>
<g transform="translate(0.000000,700.000000) scale(0.100000,-0.100000)"
fill="#000000" stroke="none">
<path d="M3686 5483 c-1 -2 -200 -5 -442 -8 -420 -5 -508 -8 -564 -20 -14 -3
-35 -7 -47 -10 -76 -14 -148 -78 -194 -170 -33 -67 -40 -93 -40 -147 0 -112
80 -134 493 -133 153 0 278 -1 278 -3 0 -4 -52 -75 -61 -82 -3 -3 -36 -45 -74
-95 -65 -85 -272 -353 -298 -385 -51 -65 -121 -153 -153 -196 -44 -58 -482
-621 -501 -644 -7 -8 -85 -110 -175 -225 -90 -116 -180 -233 -202 -260 -21
-28 -73 -95 -115 -149 -65 -85 -216 -278 -254 -326 -7 -8 -66 -85 -132 -170
-135 -175 -128 -166 -187 -240 -23 -30 -62 -80 -85 -110 -95 -124 -78 -113
-189 -117 -230 -7 -333 -68 -395 -232 -31 -83 -33 -145 -6 -176 27 -31 90 -51
177 -55 86 -4 1008 -4 1085 0 123 7 233 46 277 99 59 70 100 166 101 235 1
105 -75 129 -410 130 -117 1 -213 3 -213 6 0 3 66 91 145 195 80 105 214 280
298 391 l152 201 847 0 847 1 1 -322 c0 -176 2 -352 3 -389 2 -40 -1 -71 -8
-75 -5 -3 -98 -7 -205 -8 -286 -2 -361 -15 -447 -77 -74 -53 -129 -157 -138
-259 -4 -46 -1 -53 26 -79 54 -50 87 -52 1114 -53 517 0 978 3 1025 7 159 15
175 17 225 27 28 5 68 12 89 15 50 7 182 40 266 67 184 59 402 189 545 325 53
50 169 184 200 231 13 20 37 55 53 77 27 38 114 191 139 245 49 102 126 325
139 398 3 15 9 43 14 62 11 43 19 82 26 135 3 22 8 51 10 65 22 124 22 556 0
675 -2 11 -7 42 -10 68 -4 27 -9 59 -12 70 -2 12 -8 47 -14 77 -15 80 -63 244
-99 333 -184 460 -530 805 -967 963 -100 36 -266 78 -354 89 -30 4 -64 9 -75
11 -50 10 -348 16 -904 17 -332 1 -604 1 -605 0z m1204 -478 c36 -3 76 -8 90
-11 14 -2 45 -6 70 -10 85 -11 255 -53 345 -84 345 -122 562 -336 688 -675 29
-78 63 -206 72 -275 4 -24 8 -47 10 -50 1 -3 6 -36 10 -75 4 -38 9 -83 11
-100 5 -35 5 -408 0 -445 -2 -14 -7 -56 -10 -93 -4 -37 -9 -78 -12 -90 -2 -12
-9 -49 -15 -82 -13 -72 -30 -133 -71 -245 -119 -326 -346 -549 -683 -670 -106
-39 -222 -67 -345 -86 -19 -3 -46 -7 -59 -9 -107 -18 -554 -26 -681 -12 -25 3
-59 5 -76 6 l-30 1 -1 1500 c0 825 1 1500 1 1501 1 0 33 3 71 6 39 3 71 6 73
8 6 5 478 -3 542 -10z m-1233 -899 l4 -876 -680 0 -681 0 78 103 c44 56 126
163 183 238 142 187 145 190 224 293 39 50 115 150 170 221 55 72 123 162 153
200 29 39 72 94 94 124 23 30 47 62 54 70 8 9 86 111 174 226 88 116 172 224
185 240 14 17 25 34 25 39 0 5 3 7 6 3 3 -3 8 -400 11 -881z"/>
</g>
</svg>
