<?xml version="1.0" encoding="UTF-8" standalone="no"?><!DOCTYPE svg PUBLIC "-//W3C//DTD SVG 1.1//EN" "http://www.w3.org/Graphics/SVG/1.1/DTD/svg11.dtd"><svg width="100%" height="100%" viewBox="0 0 512 512" version="1.1" xmlns="http://www.w3.org/2000/svg" xmlns:xlink="http://www.w3.org/1999/xlink" xml:space="preserve" xmlns:serif="http://www.serif.com/" style="fill-rule:evenodd;clip-rule:evenodd;stroke-linejoin:round;stroke-miterlimit:1.41421;"><g><g id="Shirt"><path id="Shape.2e..-34" d="M247.145,433.909l13.65,-14.787l14.787,14.787l-7.963,7.962l12.512,51.186l-38.673,0l13.649,-51.186l-7.962,-7.962Z" style="fill:#fd8002;fill-rule:nonzero;"/><path id="Rounded.2e..-Rectangle.2e..-13.2e..-copy.2e..-3" d="M423.749,496l-323.624,0l-6.277,0l1.567,-26.765c3.058,-52.257 44.232,-92.138 91.349,-92.138l42.652,0l0,5.339l-39.792,0c-45.411,0 -85.093,38.387 -88.042,88.687l-1.087,18.567l322.398,0l-0.602,-18.567c-2.948,-50.3 -42.631,-88.687 -88.042,-88.687l-40.286,0l0,-5.339l42.859,0c47.117,0 88.29,39.881 91.348,92.138l1.568,26.764l-5.989,0l0,0.001Z" style="fill:#2e2e2f;fill-rule:nonzero;"/><path id="neck.2e..-copy.2e..-7" d="M232.814,357.865l0,29.933c0,15.534 12.602,28.124 28.148,28.124c15.545,0 28.148,-12.59 28.148,-28.124l0,-29.314c1.633,-0.497 3.251,-1.038 4.853,-1.621l0,31.138c0,18.369 -14.883,33.26 -33.244,33.26c-18.36,0 -33.244,-14.891 -33.244,-33.26l0,-32.06c1.759,0.696 3.539,1.335 5.339,1.924Z" style="fill:#2e2e2f;fill-rule:nonzero;"/><rect id="Rectangle.2e..-24" x="227.475" y="376.127" width="5.338" height="117.931" style="fill:#2e2e2f;"/><rect id="Rectangle.2e..-24.2e..-copy" x="289.11" y="377.097" width="5.338" height="117.931" style="fill:#2e2e2f;"/><path id="Rectangle.2e..-24.2e..-copy.2e..-4" d="M278.651,493.841l-13.755,-51.339l2.861,-0.858l1.896,-2.015l14.549,54.299l-5.551,-0.087Zm-38.802,-0.606l14.361,-53.356l0.928,0.794l2.912,1.941l0.96,0.097l-13.623,50.611l-5.538,-0.087Z" style="fill:#2e2e2f;"/><path id="Ellipse.2e..-6" d="M293.947,448.455l-3.775,3.774l-14.687,-14.688c-2.836,4.503 -7.84,7.5 -13.552,7.5c-5.943,0 -11.12,-3.244 -13.883,-8.052l-15.333,15.331l-3.784,-3.784l30.187,-30.187l2.36,-2.189l2.361,2.189l30.106,30.106Zm-42.928,-14.437c1.935,3.942 5.983,6.655 10.671,6.655c4.581,0 8.547,-2.597 10.532,-6.394l-10.732,-10.73l-10.471,10.469Z" style="fill:#2e2e2f;"/></g><g id="Head"><path id="___1.2e..-line" d="M374.434,175.604l-3.613,87.448c-10.235,59.372 -51.929,102.236 -108.431,108.221c-55.118,-5.687 -97.629,-48.864 -109.346,-108.221l-3.613,-87.448c-2.663,-64.44 47.095,-120.755 112.502,-120.755c65.407,0 115.163,56.315 112.501,120.755Zm-112.493,-113.961c-61.456,0 -108.208,53.897 -105.705,115.569l3.394,83.694c11.009,56.806 50.952,98.131 102.739,103.573c53.091,-5.728 92.265,-46.752 101.882,-103.573l3.395,-83.694c2.5,-61.672 -44.25,-115.569 -105.705,-115.569Z" style="fill:#2e2e2f;"/><path id="___.2e.2e.2e..2e..-" d="M314.346,293.236c-8.82,7.659 -28.745,14.947 -51.928,14.947c-23.184,0 -43.107,-7.288 -51.929,-14.947c0,0 -0.903,-2.484 0.422,-3.808c1.348,-1.349 3.462,-1.055 3.462,-1.055c8.811,7.664 24.853,13.986 48.045,13.986c23.192,0 39.234,-6.322 48.046,-13.986c0,0 2.155,-0.801 3.202,0.246c2.017,2.017 0.68,4.617 0.68,4.617Z" style="fill:#2e2e2f;fill-rule:nonzero;"/><path id="Shape.2e..-3" d="M151.745,187.317c0,0 -22.951,-7.11 -22.141,16.483c0,0 3.416,34.211 4.899,37.364c0,0 9.014,19.92 23.888,20.802c14.538,0.863 0,0 0,0l0.181,6.421c0,0 -26.144,-3.352 -31.194,-33.481l-3.985,-27.37c0,0 -3.096,-36.222 26.923,-27.012c29.242,8.972 0,0 0,0l1.429,6.793" style="fill:#2e2e2f;fill-rule:nonzero;"/><path id="Shape.2e..-4" d="M144.169,234.85c0,0 -1.283,0.969 -2.387,0.969c-1.103,0 -2.372,-0.969 -2.372,-0.969l-2.368,-23.868c0,0 3.267,-11.753 17.134,-5.543l0.328,6.824c0,0 -12.166,-4.314 -11.914,1.059c0.242,5.171 1.579,21.528 1.579,21.528Z" style="fill:#2e2e2f;fill-rule:nonzero;"/><path id="Shape.2e..-3_1" d="M371.677,187.373c0,0 23.05,-7.107 22.239,16.471c0,0 -3.432,34.187 -4.922,37.339c0,0 -9.053,19.907 -23.992,20.788c-14.602,0.861 0,0 0,0l-0.182,6.416c0,0 26.259,-3.35 31.331,-33.459l4.003,-27.35c0,0 3.107,-36.198 -27.041,-26.995c-29.371,8.967 0,0 0,0l-1.436,6.79" style="fill:#2e2e2f;fill-rule:nonzero;"/><path id="Shape.2e..-4_1" d="M379.284,234.871c0,0 1.291,0.971 2.399,0.971c1.109,0 2.382,-0.971 2.382,-0.971l2.38,-23.85c0,0 -3.283,-11.746 -17.21,-5.538l-0.33,6.819c0,0 12.22,-4.312 11.968,1.057c-0.244,5.168 -1.589,21.512 -1.589,21.512Z" style="fill:#2e2e2f;fill-rule:nonzero;"/><path id="new_vector_shape_done" d="M270.911,232.958c0.566,0 1.132,0 1.699,0c3.511,4.77 4.94,12.1 6.793,18.444c0.575,1.965 0.018,5.403 -0.485,6.794c-1.839,5.09 -7.617,4.999 -12.375,7.279c-1.278,0.612 -2.228,1.669 -3.882,1.941c-1.079,-0.95 -2.381,-1.137 -2.912,-2.669c-1.311,-1.805 0.378,-2.933 1.698,-3.64c2.396,-1.285 9.791,-2.551 10.678,-4.853c1.094,-1.246 0.366,-4.994 0,-6.308c-0.942,-3.37 -1.392,-6.183 -2.67,-9.222c-0.849,-2.018 -2.34,-4.148 -1.456,-6.552c0.732,-0.313 2.313,-0.671 2.912,-1.214Z" style="fill:#2e2e2f;"/><path id="Rounded.2e..-Rectangle.2e..-8" d="M203.695,195.59l6.794,0c3.752,0 6.794,3.041 6.794,6.793c0,3.753 -3.042,6.796 -6.794,6.796l-6.794,0c-3.753,0 -6.794,-3.043 -6.794,-6.796c0,-3.752 3.041,-6.793 6.794,-6.793Z" style="fill:#2e2e2f;fill-rule:nonzero;"/><path id="Rounded.2e..-Rectangle.2e..-8.2e..-copy" d="M314.346,195.59l6.794,0c3.752,0 6.796,3.041 6.796,6.793c0,3.753 -3.044,6.796 -6.796,6.796l-6.794,0c-3.752,0 -6.794,-3.043 -6.794,-6.796c0,-3.752 3.042,-6.793 6.794,-6.793Z" style="fill:#2e2e2f;fill-rule:nonzero;"/><path id="Shape.2e..-1" d="M159.149,168.387c0,0 31.954,-16.201 28.423,-71.913c0,0 51.117,56.01 174.335,38.937l5.823,52.413c0,0 72.435,-134.219 -57.266,-165.006c-126.93,-30.129 -128.393,49.361 -128.393,49.361c0,0 -38.927,-5.816 -42.176,32.07c-3.251,37.885 8.474,77.752 8.474,77.752l8.568,8.902l2.212,-22.516Z" style="fill:#2e2e2f;fill-rule:nonzero;"/><path id="Shape.2e..-1.2e..-copy.2e..-5" d="M358.995,182.972l0,35.913c0,8.776 -8.561,22.47 -22.511,23.255c-2.049,-0.097 -43.491,0.04 -43.491,0.04c-18.631,0 -22.324,-22.325 -22.324,-22.325l0,-24.265l-17.472,0l0,24.265c0,0 -3.694,22.325 -22.325,22.325c0,0 -41.442,-0.137 -43.491,-0.04c-13.95,-0.785 -22.511,-14.479 -22.511,-23.255l0,-35.913l-15.53,0l0,-9.707l90.268,0c0,0 13.589,2.195 13.589,11.648l17.472,0c0,-9.453 13.588,-11.648 13.588,-11.648l90.268,0l0,9.707l-15.53,0Zm-115.504,4.852c0,-3.459 -3.883,-3.882 -3.883,-3.882l-65.032,0l0,33.973c0,10.585 14.559,14.559 14.559,14.559l39.796,0c13.692,0 14.56,-14.559 14.56,-14.559c0,0 0,-26.63 0,-30.091Zm105.798,-3.882l-65.032,0c0,0 -3.883,0.423 -3.883,3.882c0,3.461 0,30.091 0,30.091c0,0 0.868,14.559 14.56,14.559l39.795,0c0,0 14.56,-3.974 14.56,-14.559l0,-33.973Zm-13.59,58.238c0.265,-0.006 0.524,-0.025 0.785,-0.04c0.22,0.01 -0.001,0.024 -0.785,0.04Zm-148.318,-0.04c0.261,0.015 0.52,0.034 0.784,0.04c-0.783,-0.016 -1.004,-0.03 -0.784,-0.04Z" style="fill:#2e2e2f;"/></g></g></svg>