<?xml version="1.0" encoding="UTF-8" standalone="no"?><!DOCTYPE svg PUBLIC "-//W3C//DTD SVG 1.1//EN" "http://www.w3.org/Graphics/SVG/1.1/DTD/svg11.dtd"><svg width="100%" height="100%" viewBox="0 0 512 512" version="1.1" xmlns="http://www.w3.org/2000/svg" xmlns:xlink="http://www.w3.org/1999/xlink" xml:space="preserve" xmlns:serif="http://www.serif.com/" style="fill-rule:evenodd;clip-rule:evenodd;stroke-linejoin:round;stroke-miterlimit:1.41421;"><g id="School"><path d="M95.973,210.984l0,120.72c-0.04,8.583 3.605,16.783 10.001,22.504c85.24,75.458 214.812,75.458 300.052,0c6.396,-5.721 10.041,-13.921 10.001,-22.504l0,-120.72l-320.054,0Z" style="fill:#2e2e2f;fill-rule:nonzero;"/><path d="M95.973,210.984l0,37.407l177.03,88.464c5.931,2.961 12.922,2.961 18.853,0l91.666,-45.857c1.784,-0.894 3.755,-1.359 5.751,-1.359c7.049,0 12.852,5.802 12.852,12.852l0,29.164c0.025,8.564 -3.618,16.744 -10.002,22.453c-39.524,35.165 -90.194,55.32 -143.074,56.909c57.664,1.787 113.876,-18.608 156.977,-56.959c6.357,-5.687 9.998,-13.824 10.001,-22.354l0,-120.72l-320.054,0Z" style="fill:#1f1f1f;fill-rule:nonzero;"/><path d="M246.547,93.214l-224.737,112.469c-3.556,1.79 -5.81,5.446 -5.81,9.428c0,3.98 2.254,7.636 5.81,9.425l224.737,112.319c5.932,2.961 12.924,2.961 18.854,0l224.789,-112.368c3.556,-1.79 5.81,-5.446 5.81,-9.428c0,-3.981 -2.254,-7.636 -5.81,-9.426l-224.737,-112.419c-5.946,-2.978 -12.96,-2.978 -18.906,0Z" style="fill:#2e2e2f;fill-rule:nonzero;"/><path d="M38.664,224.836c-3.689,-1.843 -6.029,-5.628 -6.029,-9.752c0,-4.123 2.34,-7.907 6.029,-9.75c3.688,-1.844 213.385,-115.02 207.935,-112.12l-224.789,112.469c-3.556,1.79 -5.81,5.446 -5.81,9.428c0,3.98 2.254,7.636 5.81,9.425l224.737,112.319c5.452,2.751 -207.883,-112.019 -207.883,-112.019Z" style="fill:#1f1f1f;fill-rule:nonzero;"/><path d="M134.48,347.208c-8.947,0.036 -16.833,6.073 -19.203,14.702c9.892,7.874 20.43,14.899 31.505,21.003c4.803,-3.791 7.611,-9.583 7.611,-15.703c0,-10.939 -8.975,-19.954 -19.913,-20.002Z" style="fill:#1f1f1f;fill-rule:nonzero;"/><path d="M260.45,223.986l-112.317,63.861l-8.653,-3.351l120.97,-60.51Z" style="fill:#1f1f1f;fill-rule:nonzero;"/><path d="M139.48,378.713c2.867,1.733 5.768,3.4 8.702,5l0,-95.866l-8.702,-3.351l0,94.217Z" style="fill:#1f1f1f;fill-rule:nonzero;"/><path d="M119.477,411.017l0,-132.672c0.002,-3.789 2.157,-7.264 5.55,-8.951l126.523,-63.41c1.389,-0.695 2.921,-1.058 4.475,-1.058c5.49,0 10.008,4.518 10.008,10.009c0,3.784 -2.147,7.258 -5.532,8.951l-121.021,60.61l0,126.521c0,5.488 -4.514,10.002 -10.001,10.002c-5.487,0 -10.002,-4.514 -10.002,-10.002Z" style="fill:#fd8002;fill-rule:nonzero;"/><circle cx="129.479" cy="362.21" r="20.002" style="fill:#fd8002;"/><ellipse cx="258.393" cy="214.625" rx="25.005" ry="16.503" style="fill:#1f1f1f;"/></g></svg>