<?xml version="1.0" encoding="UTF-8" standalone="no"?><!DOCTYPE svg PUBLIC "-//W3C//DTD SVG 1.1//EN" "http://www.w3.org/Graphics/SVG/1.1/DTD/svg11.dtd"><svg width="100%" height="100%" viewBox="0 0 512 512" version="1.1" xmlns="http://www.w3.org/2000/svg" xmlns:xlink="http://www.w3.org/1999/xlink" xml:space="preserve" xmlns:serif="http://www.serif.com/" style="fill-rule:evenodd;clip-rule:evenodd;stroke-linecap:round;stroke-linejoin:round;stroke-miterlimit:1.5;"><g><path d="M250.089,16l-234.089,0l0,480l480,0l0,-243.847" style="fill:none;stroke:#2e2e2f;stroke-width:17.74px;"/><path d="M244.414,141.447c-4.966,5.04 -7.448,10.08 -7.448,17.638c0,6.72 2.482,12.6 7.448,17.64c4.965,5.039 9.931,7.56 17.379,7.56c6.621,0 12.414,-2.521 17.379,-7.56c4.966,-5.04 7.449,-10.92 7.449,-17.64c0,-7.558 -2.483,-13.439 -7.449,-17.638c-4.965,-5.04 -10.758,-6.72 -17.379,-6.72c-6.621,-0.84 -11.586,1.68 -17.379,6.72Z" style="fill:#fd8002;fill-rule:nonzero;"/><rect x="249.379" y="236.447" width="24.828" height="138.539" style="fill:#fd8002;"/></g></svg>