<?xml version="1.0" encoding="UTF-8" standalone="no"?><!DOCTYPE svg PUBLIC "-//W3C//DTD SVG 1.1//EN" "http://www.w3.org/Graphics/SVG/1.1/DTD/svg11.dtd"><svg width="100%" height="100%" viewBox="0 0 512 512" version="1.1" xmlns="http://www.w3.org/2000/svg" xmlns:xlink="http://www.w3.org/1999/xlink" xml:space="preserve" xmlns:serif="http://www.serif.com/" style="fill-rule:evenodd;clip-rule:evenodd;stroke-linejoin:round;stroke-miterlimit:1.41421;"><g><g><path d="M355.271,392.3c-2.625,0 -5.155,-1.031 -7.125,-3c-3.749,-3.937 -3.656,-10.217 0.282,-13.967l130.861,-126.456c3.938,-3.749 10.218,-3.655 13.967,0.281c3.75,3.938 3.656,10.219 -0.281,13.968l-130.861,126.455c-1.969,1.782 -4.405,2.719 -6.843,2.719Z" style="fill:#2e2e2f;fill-rule:nonzero;"/><path d="M486.133,265.845c-2.438,0 -4.969,-0.938 -6.844,-2.812l-130.955,-126.363c-3.937,-3.749 -4.031,-10.029 -0.281,-13.967c3.749,-3.937 10.031,-4.03 13.968,-0.281l130.86,126.455c3.938,3.75 4.031,10.031 0.282,13.968c-1.875,2.062 -4.5,3 -7.03,3Z" style="fill:#2e2e2f;fill-rule:nonzero;"/></g><g><path d="M156.729,392.3c-2.438,0 -4.968,-0.937 -6.843,-2.812l-130.861,-126.362c-3.937,-3.749 -4.031,-10.03 -0.281,-13.968c3.749,-3.936 10.029,-4.03 13.967,-0.281l130.861,126.456c3.938,3.75 4.031,10.03 0.282,13.967c-1.97,2.063 -4.5,3 -7.125,3Z" style="fill:#2e2e2f;fill-rule:nonzero;"/><path d="M25.867,265.845c-2.624,0 -5.155,-1.032 -7.123,-3c-3.75,-3.937 -3.656,-10.218 0.281,-13.968l130.861,-126.455c3.937,-3.749 10.218,-3.656 13.968,0.281c3.749,3.938 3.656,10.218 -0.282,13.967l-130.768,126.456c-1.968,1.875 -4.405,2.719 -6.937,2.719Z" style="fill:#2e2e2f;fill-rule:nonzero;"/></g><path d="M208.943,434.202c-0.845,0 -1.782,-0.094 -2.625,-0.375c-5.249,-1.499 -8.343,-6.937 -6.844,-12.186l94.022,-336.621c1.499,-5.249 6.937,-8.343 12.186,-6.844c5.249,1.501 8.343,6.938 6.844,12.187l-94.022,336.621c-1.218,4.407 -5.249,7.218 -9.561,7.218Z" style="fill:#fd8002;fill-rule:nonzero;"/></g></svg>