<?xml version="1.0" encoding="UTF-8" standalone="no"?><!DOCTYPE svg PUBLIC "-//W3C//DTD SVG 1.1//EN" "http://www.w3.org/Graphics/SVG/1.1/DTD/svg11.dtd"><svg width="100%" height="100%" viewBox="0 0 512 148" version="1.1" xmlns="http://www.w3.org/2000/svg" xmlns:xlink="http://www.w3.org/1999/xlink" xml:space="preserve" style="fill-rule:evenodd;clip-rule:evenodd;stroke-linejoin:round;stroke-miterlimit:1.41421;"><text x="101.742px" y="93.74px" style="font-family:'Courier';font-size:105.026px;fill:#4e4e4e;">umans</text><text x="414.924px" y="96.872px" style="font-family:'HelveticaNeue', 'Helvetica Neue';font-size:96.963px;fill:#7a7a7a;">t<tspan x="439.868px 482.578px " y="96.872px 96.872px ">xt</tspan></text><text x="403.451px" y="96.872px" style="font-family:'HelveticaNeue', 'Helvetica Neue';font-size:70.017px;fill:#7a7a7a;">.</text><text x="39.151px" y="137.409px" style="font-family:'Noteworthy-Light', 'Noteworthy';font-weight:300;font-size:29.174px;fill:#535353;">W<tspan x="70.891px 88.468px 98.936px 126.03px 138.121px 155.698px 166.166px 192.14px 209.717px 228.918px 247.614px 253.212px 270.789px 278.962px 289.43px 313.613px 330.518px 344.401px 354.869px 389.855px 409.28px 428.312px 446.17px 452.719px 472.2px 488.881px " y="137.409px 137.409px 137.409px 137.409px 137.409px 137.409px 137.409px 137.409px 137.409px 137.409px 137.409px 137.409px 137.409px 137.409px 137.409px 137.409px 137.409px 137.409px 137.409px 137.409px 137.409px 137.409px 137.409px 137.409px 137.409px 137.409px ">e Are People, Not Machines</tspan></text><path d="M14.62,10.502l32.324,-4.379l31.852,-4.271l17.124,35.719l8.157,45.164c1.619,4.993 2.045,12.28 -0.527,12.332c-7.549,0.153 -13.859,-0.008 -20.554,-0.045l-4.227,-0.584l-27.799,0.083l-16.022,-0.176l-1.398,0.035l-18.93,-83.878Z" style="fill:#eaeaea;"/><g id="_.23.e4582bff"><path d="M46.944,6.123c10.704,-1.354 21.384,-2.9 32.08,-4.301c7.347,-0.884 14.737,4.772 15.732,12.115c2.843,20.665 8.968,66.344 9.321,68.798c-1.794,-0.023 -3.975,0.107 -5.763,-0.058c-1.415,-0.096 -2.215,-1.622 -2.123,-2.912c0,-6.754 0.015,-13.505 0.023,-20.259c-0.02,-4.018 0.168,-8.063 -0.486,-12.043c-0.682,-4.435 -2.342,-8.885 -5.534,-12.13c-3.367,-3.375 -8.067,-5.12 -12.747,-5.576c-6.754,-0.735 -14.006,0.574 -19.466,4.803c-2.962,2.127 -5.373,4.948 -7.068,8.174c0.367,-9.468 0.168,-18.947 0.202,-28.422c0.031,-2.12 -0.248,-4.366 -1.538,-6.122c-0.662,-0.93 -1.68,-1.489 -2.633,-2.067Z" style="fill:#e4582b;fill-rule:nonzero;"/><path d="M14.348,10.532c4.202,-0.532 8.396,-1.148 12.602,-1.68c-0.05,3.482 -0.004,6.964 -0.016,10.447c2.051,0.065 4.114,-0.134 6.158,0.095c1.186,0.211 1.813,1.451 1.76,2.572c0.038,24.128 0.011,48.255 0.096,72.379c-3.288,0.118 -6.582,-0.05 -9.87,0.092c-6.784,0.088 -13.102,-5.212 -14.243,-11.894c-2.923,-18.529 -5.82,-37.066 -8.732,-55.595c-0.406,-3.004 0.114,-6.134 1.546,-8.809c2.097,-4.033 6.187,-6.98 10.699,-7.607Z" style="fill:#e4582b;fill-rule:nonzero;"/><path d="M65.565,44.85c3.31,-0.7 7.011,-0.834 10.061,0.846c2.028,1.075 3.157,3.233 3.811,5.345c0.93,2.92 0.827,6.016 0.804,9.043c1.037,-0.643 2.124,-1.313 3.375,-1.385c2.02,-0.245 4.075,1.041 4.741,2.965c1.837,4.761 -2.954,10.849 -8.109,9.399c0.043,5.832 0.012,11.668 0.039,17.5c-0.004,2.41 0.819,4.875 2.709,6.459c-9.861,-0.053 -26.787,-0.553 -28.119,-0.516c-0.827,0.023 -3.292,0.017 -3.907,0.015c0.077,-8.878 0.107,-17.76 0.069,-26.638c-0.046,-3.857 0.142,-7.83 1.596,-11.453c2.135,-5.603 6.987,-10.294 12.93,-11.58m-4.726,5.342c-1.768,0.452 -3.233,2.059 -3.31,3.915c-0.237,2.039 1.186,4.06 3.169,4.561c2.311,0.75 4.936,-0.876 5.468,-3.21c0.861,-3.004 -2.33,-6.154 -5.327,-5.266m10.344,1.867c-1.906,0.808 -3.088,3.085 -2.518,5.098c0.486,1.894 2.323,3.31 4.274,3.321c2.472,-0.011 4.661,-2.33 4.355,-4.825c-0.18,-2.847 -3.532,-4.841 -6.111,-3.594m-15.319,11.902c-0.428,3.222 -0.279,6.494 0.18,9.704c0.44,2.373 1.068,4.975 2.97,6.62c1.335,1.217 3.302,1.076 4.94,0.727c3.586,-1.056 6.188,-4.025 8.132,-7.071c1.825,-3.031 3.375,-6.269 4.263,-9.701c-3.892,1.607 -8.006,2.836 -12.23,3.077c-3.1,0.191 -6.081,-1.21 -8.255,-3.356Z" style="fill:#e4582b;fill-rule:nonzero;"/></g></svg>