<?xml version="1.0" standalone="no"?>
<!DOCTYPE svg PUBLIC "-//W3C//DTD SVG 1.1//EN" "http://www.w3.org/Graphics/SVG/1.1/DTD/svg11.dtd">
<svg width="100%" height="100%" viewBox="0 0 512 512" version="1.1" xmlns="http://www.w3.org/2000/svg" xmlns:xlink="http://www.w3.org/1999/xlink" xml:space="preserve" style="fill-rule:evenodd;clip-rule:evenodd;stroke-linejoin:round;stroke-miterlimit:1.41421;">
    <g transform="matrix(1.18485,4.93038e-32,4.93038e-32,1.18485,-47.1765,-93.0448)">
        <g id="Shirt">
            <path id="Shape 34" d="M243,451L255,438L268,451L261,458L272,503L238,503L250,458L243,451Z" style="fill:rgb(116,119,123);fill-rule:nonzero;"/>
            <path id="Rounded Rectangle 13 copy 3" d="M398.262,505.587L113.746,505.587L108.228,505.587L109.605,482.057C112.294,436.115 148.492,401.053 189.915,401.053L227.413,401.053L227.413,405.747L192.43,405.747C152.506,405.747 117.619,439.495 115.027,483.717L114.071,500.04L397.51,500.04L396.98,483.717C394.388,439.495 359.501,405.747 319.578,405.747L284.16,405.747L284.16,401.053L321.839,401.053C363.263,401.053 399.46,436.115 402.149,482.057L403.527,505.587L398.262,505.587Z" style="fill:rgb(116,119,123);fill-rule:nonzero;"/>
            <path id="neck copy 7" d="M230.4,384.146L230.4,410.461C230.4,424.117 241.479,435.187 255.147,435.187C268.814,435.187 279.893,424.117 279.893,410.461L279.893,384.689C281.329,384.252 282.752,383.777 284.16,383.264L284.16,410.64C284.16,426.789 271.075,439.88 254.933,439.88C238.792,439.88 225.707,426.789 225.707,410.64L225.707,382.454C227.253,383.065 228.818,383.627 230.4,384.146Z" style="fill:rgb(116,119,123);fill-rule:nonzero;"/>
            <rect id="Rectangle 24" x="225.707" y="400.2" width="4.693" height="103.68" style="fill:rgb(116,119,123);"/>
            <rect id="Rectangle 24 copy" x="279.893" y="401.053" width="4.693" height="103.68" style="fill:rgb(116,119,123);"/>
            <path id="Rectangle 24 copy 4" d="M270.699,503.69L258.605,458.554L261.12,457.8L262.787,456.028L275.579,503.766L270.699,503.69ZM236.585,503.157L249.211,456.248L250.027,456.947L252.587,458.653L253.431,458.738L241.454,503.233L236.585,503.157Z" style="fill:rgb(116,119,123);"/>
            <path id="Ellipse 6" d="M284.146,463.788L280.827,467.106L267.914,454.193C265.422,458.151 261.022,460.787 256,460.787C250.775,460.787 246.224,457.934 243.795,453.707L230.315,467.186L226.988,463.859L253.527,437.32L255.602,435.396L257.678,437.32L284.146,463.788ZM246.406,451.096C248.107,454.561 251.666,456.947 255.787,456.947C259.814,456.947 263.301,454.663 265.046,451.325L255.611,441.891L246.406,451.096Z" style="fill:rgb(116,119,123);"/>
        </g>
        <g id="Head">
            <path id="1 line" d="M354.907,223.909L351.73,300.79C342.732,352.987 306.077,390.671 256.402,395.933C207.945,390.934 170.571,352.974 160.27,300.79L157.094,223.909C154.753,167.257 198.497,117.747 256,117.747C313.504,117.747 357.247,167.257 354.907,223.909ZM256.007,123.72C201.978,123.72 160.876,171.104 163.076,225.323L166.06,298.903C175.739,348.845 210.855,385.175 256.384,389.96C303.059,384.924 337.499,348.858 345.954,298.903L348.938,225.323C351.137,171.104 310.036,123.72 256.007,123.72Z" style="fill:rgb(116,119,123);"/>
            <path id="-" d="M302.08,327.326C294.325,334.06 276.808,340.467 256.427,340.467C236.045,340.467 218.529,334.06 210.773,327.326C210.773,327.326 209.98,325.143 211.144,323.978C212.33,322.793 214.187,323.051 214.187,323.051C221.934,329.789 236.038,335.347 256.427,335.347C276.816,335.347 290.92,329.789 298.667,323.051C298.667,323.051 300.562,322.347 301.482,323.267C303.255,325.04 302.08,327.326 302.08,327.326Z" style="fill:rgb(116,119,123);fill-rule:nonzero;"/>
            <path id="Shape 3" d="M159.128,234.207C159.128,234.207 138.951,227.956 139.662,248.698C139.662,248.698 142.665,278.775 143.97,281.547C143.97,281.547 151.894,299.059 164.971,299.835C177.752,300.594 164.971,299.835 164.971,299.835L165.13,305.48C165.13,305.48 142.145,302.533 137.706,276.045L134.202,251.983C134.202,251.983 131.481,220.138 157.871,228.235C183.58,236.123 157.871,228.235 157.871,228.235L159.128,234.207" style="fill:rgb(116,119,123);fill-rule:nonzero;"/>
            <path id="Shape 4" d="M152.468,275.995C152.468,275.995 151.339,276.848 150.369,276.848C149.399,276.848 148.284,275.995 148.284,275.995L146.202,255.012C146.202,255.012 149.074,244.679 161.265,250.139L161.554,256.139C161.554,256.139 150.858,252.346 151.079,257.069C151.292,261.616 152.468,275.995 152.468,275.995Z" style="fill:rgb(116,119,123);fill-rule:nonzero;"/>
            <path id="Shape 3_1" d="M352.483,234.256C352.483,234.256 372.747,228.008 372.034,248.737C372.034,248.737 369.017,278.793 367.707,281.564C367.707,281.564 359.748,299.064 346.614,299.839C333.777,300.597 346.614,299.839 346.614,299.839L346.455,305.48C346.455,305.48 369.54,302.535 373.999,276.065L377.518,252.019C377.518,252.019 380.25,220.196 353.745,228.287C327.923,236.17 353.745,228.287 353.745,228.287L352.483,234.256" style="fill:rgb(116,119,123);fill-rule:nonzero;"/>
            <path id="Shape 4_1" d="M359.171,276.015C359.171,276.015 360.305,276.868 361.28,276.868C362.254,276.868 363.374,276.015 363.374,276.015L365.466,255.046C365.466,255.046 362.58,244.72 350.336,250.177L350.046,256.173C350.046,256.173 360.789,252.382 360.567,257.102C360.353,261.646 359.171,276.015 359.171,276.015Z" style="fill:rgb(116,119,123);fill-rule:nonzero;"/>
            <path id="new_vector_shape_done" d="M263.893,274.333C264.391,274.333 264.889,274.333 265.387,274.333C268.474,278.526 269.73,284.97 271.36,290.547C271.865,292.275 271.375,295.298 270.933,296.52C269.316,300.996 264.236,300.915 260.053,302.92C258.93,303.458 258.095,304.388 256.64,304.627C255.692,303.791 254.547,303.627 254.08,302.28C252.928,300.693 254.413,299.702 255.573,299.08C257.68,297.95 264.181,296.837 264.96,294.813C265.923,293.718 265.283,290.423 264.96,289.267C264.133,286.305 263.737,283.832 262.613,281.16C261.867,279.385 260.557,277.514 261.333,275.4C261.977,275.124 263.367,274.81 263.893,274.333Z" style="fill:rgb(116,119,123);"/>
            <path id="Rounded Rectangle 8" d="M204.8,241.48L210.773,241.48C214.072,241.48 216.747,244.154 216.747,247.453C216.747,250.752 214.072,253.427 210.773,253.427L204.8,253.427C201.501,253.427 198.827,250.752 198.827,247.453C198.827,244.154 201.501,241.48 204.8,241.48Z" style="fill:rgb(116,119,123);fill-rule:nonzero;"/>
            <path id="Rounded Rectangle 8 copy" d="M302.08,241.48L308.053,241.48C311.352,241.48 314.027,244.154 314.027,247.453C314.027,250.752 311.352,253.427 308.053,253.427L302.08,253.427C298.781,253.427 296.107,250.752 296.107,247.453C296.107,244.154 298.781,241.48 302.08,241.48Z" style="fill:rgb(116,119,123);fill-rule:nonzero;"/>
            <path id="Shape 1" d="M165.637,217.564C165.637,217.564 193.73,203.321 190.625,154.342C190.625,154.342 235.566,203.583 343.893,188.573L349.013,234.653C349.013,234.653 412.695,116.653 298.667,89.587C187.075,63.098 185.789,132.983 185.789,132.983C185.789,132.983 151.567,127.869 148.71,161.177C145.852,194.484 156.16,229.533 156.16,229.533L163.693,237.36L165.637,217.564Z" style="fill:rgb(116,119,123);fill-rule:nonzero;"/>
            <path id="Shape 1 copy 5" d="M341.333,230.387L341.333,261.96C341.333,269.676 333.807,281.715 321.543,282.405C319.741,282.319 283.307,282.44 283.307,282.44C266.928,282.44 263.68,262.813 263.68,262.813L263.68,241.48L248.32,241.48L248.32,262.813C248.32,262.813 245.072,282.44 228.693,282.44C228.693,282.44 192.259,282.319 190.457,282.405C178.193,281.715 170.667,269.676 170.667,261.96L170.667,230.387L157.013,230.387L157.013,221.853L236.373,221.853C236.373,221.853 248.32,223.783 248.32,232.093L263.68,232.093C263.68,223.783 275.627,221.853 275.627,221.853L354.987,221.853L354.987,230.387L341.333,230.387ZM239.787,234.653C239.787,231.612 236.373,231.24 236.373,231.24L179.2,231.24L179.2,261.107C179.2,270.413 192,273.907 192,273.907L226.987,273.907C239.024,273.907 239.787,261.107 239.787,261.107C239.787,261.107 239.787,237.695 239.787,234.653ZM332.8,231.24L275.627,231.24C275.627,231.24 272.213,231.612 272.213,234.653C272.213,237.695 272.213,261.107 272.213,261.107C272.213,261.107 272.976,273.907 285.013,273.907L320,273.907C320,273.907 332.8,270.413 332.8,261.107L332.8,231.24ZM320.853,282.44C321.086,282.435 321.313,282.418 321.543,282.405C321.736,282.414 321.542,282.426 320.853,282.44ZM190.457,282.405C190.687,282.418 190.914,282.435 191.147,282.44C190.458,282.426 190.264,282.414 190.457,282.405Z" style="fill:rgb(116,119,123);"/>
        </g>
    </g>
</svg>
