<?xml version="1.0" encoding="UTF-8" standalone="no"?><!DOCTYPE svg PUBLIC "-//W3C//DTD SVG 1.1//EN" "http://www.w3.org/Graphics/SVG/1.1/DTD/svg11.dtd"><svg width="100%" height="100%" viewBox="0 0 1024 1024" version="1.1" xmlns="http://www.w3.org/2000/svg" xmlns:xlink="http://www.w3.org/1999/xlink" xml:space="preserve" style="fill-rule:evenodd;clip-rule:evenodd;stroke-linejoin:round;stroke-miterlimit:1.41421;"><g><g id="Fr2"><path d="M646.673,400.674l0,214.2l28.49,0l0,-98.1l98.362,0l0,-24l-98.362,0l0,-68.1l119.354,0l0,-24l-147.844,0Z" style="fill:#74777b;fill-rule:nonzero;"/><path d="M825.771,459.767l0,155.107l25.47,0l0,-69c0,-10 0.572,-28.8 1.627,-33.524c2.28,-7.62 1.903,-7.754 6.225,-15.221c4.394,-5.4 11.943,-12.624 19.134,-15.424c9.48,-2.975 20.08,-4.058 28.599,-1.977l0.444,-23.357c-14.819,-0.835 -26.336,1.214 -35.758,6.506c-1.82,1.022 -11.53,5.152 -21.17,21.347l-0.571,0.001l0,-24.458l-24,0l0,0Z" style="fill:#74777b;fill-rule:nonzero;"/></g><path d="M917.333,1024l-341.333,0c-8.875,0 -16.853,-5.504 -19.968,-13.824l-64,-170.667c-4.139,-11.05 1.451,-23.338 12.459,-27.477c11.05,-4.096 23.338,1.451 27.477,12.459l58.837,156.842l326.528,0c35.286,0 64,-28.714 64,-64l0,-640c0,-35.285 -28.714,-64 -64,-64l-405.333,0c-11.776,0 -21.333,-9.557 -21.333,-21.333c0,-11.776 9.557,-21.333 21.333,-21.333l405.333,0c58.795,0 106.667,47.872 106.667,106.666l0,640c0,58.795 -47.872,106.667 -106.667,106.667Z" style="fill:#74777b;fill-rule:nonzero;"/><path d="M576,1024c-4.992,0 -9.984,-1.749 -14.037,-5.291c-8.875,-7.765 -9.771,-21.248 -2.006,-30.122l149.334,-170.667c7.765,-8.917 21.248,-9.771 30.122,-2.005c8.875,7.765 9.771,21.248 2.006,30.122l-149.334,170.667c-4.266,4.821 -10.154,7.296 -16.085,7.296l0,0Z" style="fill:#74777b;fill-rule:nonzero;"/><text id="En1" x="60.2px" y="526.867px" style="font-family:'HelveticaNeue', 'Helvetica Neue';font-size:400px;fill:#74777b;">En</text><path d="M725.333,853.333l-618.666,0c-58.795,0 -106.667,-47.872 -106.667,-106.666l0,-640c0,-58.795 47.872,-106.667 106.667,-106.667l341.333,0c9.131,0 17.237,5.803 20.181,14.421l277.334,810.667c2.218,6.485 1.152,13.696 -2.816,19.285c-4.011,5.632 -10.454,8.96 -17.366,8.96l0,0ZM106.667,42.667c-35.286,0 -64,28.714 -64,64l0,640c0,35.285 28.714,64 64,64l588.8,0l-262.699,-768l-326.101,0l0,0Z" style="fill:#74777b;fill-rule:nonzero;"/></g></svg>