<?xml version="1.0" encoding="UTF-8" standalone="no"?><!DOCTYPE svg PUBLIC "-//W3C//DTD SVG 1.1//EN" "http://www.w3.org/Graphics/SVG/1.1/DTD/svg11.dtd"><svg width="100%" height="100%" viewBox="0 0 1024 1024" version="1.1" xmlns="http://www.w3.org/2000/svg" xmlns:xlink="http://www.w3.org/1999/xlink" xml:space="preserve" style="fill-rule:evenodd;clip-rule:evenodd;stroke-linejoin:round;stroke-miterlimit:1.41421;"><g><text id="En2" x="623.271px" y="614.867px" style="font-family:'HelveticaNeue', 'Helvetica Neue';font-size:300px;fill:#74777b;">En</text><path d="M917.333,1024l-341.333,0c-8.875,0 -16.853,-5.504 -19.968,-13.824l-64,-170.667c-4.139,-11.05 1.451,-23.338 12.459,-27.477c11.05,-4.096 23.338,1.451 27.477,12.459l58.837,156.842l326.528,0c35.286,0 64,-28.714 64,-64l0,-640c0,-35.285 -28.714,-64 -64,-64l-405.333,0c-11.776,0 -21.333,-9.557 -21.333,-21.333c0,-11.776 9.557,-21.333 21.333,-21.333l405.333,0c58.795,0 106.667,47.872 106.667,106.666l0,640c0,58.795 -47.872,106.667 -106.667,106.667Z" style="fill:#74777b;fill-rule:nonzero;"/><path d="M576,1024c-4.992,0 -9.984,-1.749 -14.037,-5.291c-8.875,-7.765 -9.771,-21.248 -2.006,-30.122l149.334,-170.667c7.765,-8.917 21.248,-9.771 30.122,-2.005c8.875,7.765 9.771,21.248 2.006,30.122l-149.334,170.667c-4.266,4.821 -10.154,7.296 -16.085,7.296l0,0Z" style="fill:#74777b;fill-rule:nonzero;"/><g id="Fr1"><path d="M91.4,241.267l0,285.6l38,0l0,-130.8l131.2,0l0,-32l-131.2,0l0,-90.8l159.2,0l0,-32l-197.2,0l0,0Z" style="fill:#74777b;fill-rule:nonzero;"/><path d="M330.2,320.067l0,206.8l34,0l0,-92c0,-13.334 0.764,-38.401 2.173,-44.7c3.043,-10.159 2.54,-10.339 8.309,-20.294c5.867,-7.2 16.01,-16.724 25.61,-20.458c12.656,-3.965 23.216,-5.885 38.692,-2.557l0.016,-31.591c-20.108,-0.679 -35.161,1.881 -47.739,8.937c-2.429,1.362 -15.392,6.869 -28.261,28.463l-0.8,0l0,-32.6l-32,0l0,0Z" style="fill:#74777b;fill-rule:nonzero;"/></g><path d="M725.333,853.333l-618.666,0c-58.795,0 -106.667,-47.872 -106.667,-106.666l0,-640c0,-58.795 47.872,-106.667 106.667,-106.667l341.333,0c9.131,0 17.237,5.803 20.181,14.421l277.334,810.667c2.218,6.485 1.152,13.696 -2.816,19.285c-4.011,5.632 -10.454,8.96 -17.366,8.96l0,0ZM106.667,42.667c-35.286,0 -64,28.714 -64,64l0,640c0,35.285 28.714,64 64,64l588.8,0l-262.699,-768l-326.101,0l0,0Z" style="fill:#74777b;fill-rule:nonzero;"/></g></svg>