<?xml version="1.0" standalone="no"?>
<!DOCTYPE svg PUBLIC "-//W3C//DTD SVG 1.1//EN" "http://www.w3.org/Graphics/SVG/1.1/DTD/svg11.dtd">
<svg width="100%" height="100%" viewBox="0 0 512 512" version="1.1" xmlns="http://www.w3.org/2000/svg" xmlns:xlink="http://www.w3.org/1999/xlink" xml:space="preserve" style="fill-rule:evenodd;clip-rule:evenodd;stroke-linejoin:round;stroke-miterlimit:1.41421;">
    <g id="Expanded" transform="matrix(10.2084,0,0,10.2084,11.0026,-2.35515)">
        <path d="M42,48L28,48L28,35L20,35L20,48L6,48L6,27C6,26.448 6.447,26 7,26C7.553,26 8,26.448 8,27L8,46L18,46L18,33L30,33L30,46L40,46L40,28C40,27.448 40.447,27 41,27C41.553,27 42,27.448 42,28L42,48Z" style="fill:rgb(44,193,133);fill-rule:nonzero;"/>
        <path d="M47,27C46.751,27 46.503,26.908 46.309,26.723L24,5.384L1.691,26.723C1.292,27.104 0.659,27.091 0.277,26.692C-0.105,26.293 -0.09,25.66 0.308,25.278L24,2.616L47.691,25.277C48.089,25.659 48.104,26.292 47.722,26.691C47.526,26.896 47.264,27 47,27Z" style="fill:rgb(44,193,133);fill-rule:nonzero;"/>
        <path d="M39,15C38.447,15 38,14.552 38,14L38,8L32,8C31.447,8 31,7.552 31,7C31,6.448 31.447,6 32,6L40,6L40,14C40,14.552 39.553,15 39,15Z" style="fill:rgb(44,193,133);fill-rule:nonzero;"/>
    </g>
</svg>
