<?xml version="1.0" standalone="no"?>
<!DOCTYPE svg PUBLIC "-//W3C//DTD SVG 1.1//EN" "http://www.w3.org/Graphics/SVG/1.1/DTD/svg11.dtd">
<svg width="100%" height="100%" viewBox="0 0 512 512" version="1.1" xmlns="http://www.w3.org/2000/svg" xmlns:xlink="http://www.w3.org/1999/xlink" xml:space="preserve" style="fill-rule:evenodd;clip-rule:evenodd;stroke-linejoin:round;stroke-miterlimit:1.41421;">
    <g transform="matrix(0.956931,4.93038e-32,4.77631e-32,0.956931,11.0257,11.0276)">
        <g>
            <path d="M361.9,401.4C359.1,401.4 356.4,400.3 354.3,398.2C350.3,394 350.4,387.3 354.6,383.3L494.2,248.4C498.4,244.4 505.1,244.5 509.1,248.7C513.1,252.9 513,259.6 508.8,263.6L369.2,398.5C367.1,400.4 364.5,401.4 361.9,401.4Z" style="fill:rgb(116,119,123);fill-rule:nonzero;"/>
            <path d="M501.5,266.5C498.9,266.5 496.2,265.5 494.2,263.5L354.5,128.7C350.3,124.7 350.2,118 354.2,113.8C358.2,109.6 364.9,109.5 369.1,113.5L508.7,248.4C512.9,252.4 513,259.1 509,263.3C507,265.5 504.2,266.5 501.5,266.5Z" style="fill:rgb(116,119,123);fill-rule:nonzero;"/>
        </g>
        <g>
            <path d="M150.1,401.4C147.5,401.4 144.8,400.4 142.8,398.4L3.2,263.6C-1,259.6 -1.1,252.9 2.9,248.7C6.9,244.5 13.6,244.4 17.8,248.4L157.4,383.3C161.6,387.3 161.7,394 157.7,398.2C155.6,400.4 152.9,401.4 150.1,401.4Z" style="fill:rgb(116,119,123);fill-rule:nonzero;"/>
            <path d="M10.5,266.5C7.7,266.5 5,265.4 2.9,263.3C-1.1,259.1 -1,252.4 3.2,248.4L142.8,113.5C147,109.5 153.7,109.6 157.7,113.8C161.7,118 161.6,124.7 157.4,128.7L17.9,263.6C15.8,265.6 13.2,266.5 10.5,266.5Z" style="fill:rgb(116,119,123);fill-rule:nonzero;"/>
        </g>
        <path d="M205.8,446.1C204.9,446.1 203.9,446 203,445.7C197.4,444.1 194.1,438.3 195.7,432.7L296,73.6C297.6,68 303.4,64.7 309,66.3C314.6,67.9 317.9,73.7 316.3,79.3L216,438.4C214.7,443.1 210.4,446.1 205.8,446.1Z" style="fill:rgb(116,119,123);fill-rule:nonzero;"/>
    </g>
</svg>
