<?xml version="1.0" standalone="no"?><!DOCTYPE svg PUBLIC "-//W3C//DTD SVG 1.1//EN" "http://www.w3.org/Graphics/SVG/1.1/DTD/svg11.dtd"><svg width="100%" height="100%" viewBox="0 0 1024 1024" version="1.1" xmlns="http://www.w3.org/2000/svg" xmlns:xlink="http://www.w3.org/1999/xlink" xml:space="preserve" style="fill-rule:evenodd;clip-rule:evenodd;stroke-linejoin:round;stroke-miterlimit:1.41421;"><g><path d="M336.461,551.454l199.219,0l-1.462,-258.156l-197.757,258.156ZM464.565,293.298l-71.115,0c-19.808,0 -32.618,-2.679 -38.431,-8.037c-5.813,-5.358 -6.186,-14.369 -1.12,-27.033c5.325,-13.314 12.485,-22.487 21.48,-27.521c8.995,-5.033 29.079,-7.55 60.253,-7.55l138.82,-0.974c17.86,0 29.014,3.329 33.463,8.037c4.448,4.709 6.738,13.395 6.867,26.059l0.098,475.884l8.28,2c17.535,0 28.576,0.436 33.122,5.307c4.546,4.87 4.287,13.638 -0.779,26.302c-5.326,13.314 -12.08,22.487 -20.263,27.521c-8.183,5.033 -20.717,7.55 -37.603,7.55l-132.488,0c-24.679,0 -39.502,-2.517 -44.471,-7.55c-4.968,-5.034 -4.789,-14.207 0.536,-27.521c4.936,-12.339 12.226,-21.026 21.87,-26.059c9.645,-5.033 25.02,-7.55 46.127,-7.55l45.3,0l-0.877,-115.926l-247.44,0l-88.26,115.926l47.247,0c21.432,0 35.038,2.517 40.818,7.55c5.78,5.033 6.202,13.72 1.266,26.059c-5.325,13.314 -12.485,22.487 -21.48,27.521c-8.995,5.033 -25.345,7.55 -49.05,7.55l-128.104,0c-20.782,0 -33.576,-2.517 -38.382,-7.55c-4.806,-5.034 -4.546,-14.207 0.779,-27.521c5.066,-12.664 11.982,-21.432 20.75,-26.302c8.768,-4.871 22.893,-7.307 42.377,-7.307l9.254,0l341.156,-438.865Z" style="fill:#000;fill-rule:nonzero;"/><path d="M613.891,731.189c10.392,0.974 20.702,1.705 30.93,2.192c10.229,0.487 20.215,0.731 29.956,0.731c79.883,0 138.414,-17.86 175.595,-53.58c37.181,-35.72 55.772,-92.059 55.772,-169.019c0,-77.285 -18.672,-133.543 -56.015,-168.776c-37.344,-35.232 -97.093,-52.849 -179.248,-52.849c-15.262,0 -26.871,0.163 -34.827,0.487c-7.956,0.325 -15.343,0.975 -22.163,1.949l0,438.865ZM610.428,800.843l-73.496,-0.975l-21.919,0c-12.015,0 -21.026,-2.922 -27.034,-8.767c-6.007,-5.845 -9.011,-14.613 -9.011,-26.303c0,-12.664 3.491,-21.432 10.473,-26.303c6.981,-4.87 20.214,-4.306 39.697,-4.306l8.768,-2l0,-439.865l-7.794,0c-19.483,0 -32.878,-2.598 -40.184,-7.794c-7.306,-5.195 -10.96,-14.287 -10.96,-27.276c0,-12.015 3.004,-20.864 9.011,-26.547c6.008,-5.682 15.344,-7.55 28.008,-7.55l20.945,-0.974l184.606,0c80.856,0 145.314,26.059 193.373,78.178c48.059,52.118 72.089,122.502 72.089,211.152c0,43.188 -6.9,83.292 -20.701,120.31c-13.801,37.019 -33.853,69.491 -60.155,97.418c-24.355,25.328 -53.986,43.756 -88.894,55.284c-34.908,11.528 -79.801,17.292 -134.679,17.292c-6.495,0 -17.454,-0.325 -32.879,-0.974c-15.424,-0.65 -30.821,0 -39.264,0Z" style="fill:#000;fill-rule:nonzero;"/></g></svg>