<?xml version="1.0" encoding="UTF-8" standalone="no"?><!DOCTYPE svg PUBLIC "-//W3C//DTD SVG 1.1//EN" "http://www.w3.org/Graphics/SVG/1.1/DTD/svg11.dtd"><svg width="100%" height="100%" viewBox="0 0 100 100" version="1.1" xmlns="http://www.w3.org/2000/svg" xmlns:xlink="http://www.w3.org/1999/xlink" xml:space="preserve" xmlns:serif="http://www.serif.com/" style="fill-rule:evenodd;clip-rule:evenodd;stroke-linejoin:round;stroke-miterlimit:1.41421;"><g id="Dark"><rect x="0" y="0" width="100" height="100" style="fill:#2e2e2f;"/><g><g><rect x="0" y="0" width="10" height="10" style="fill:#323233;"/><rect x="20" y="0" width="10" height="10" style="fill:#323233;"/><rect x="40" y="0" width="10" height="10" style="fill:#323233;"/><rect x="60" y="0" width="10" height="10" style="fill:#323233;"/><rect x="80" y="0" width="10" height="10" style="fill:#323233;"/></g><g><rect x="10" y="10" width="10" height="10" style="fill:#323233;"/><rect x="30" y="10" width="10" height="10" style="fill:#323233;"/><rect x="50" y="10" width="10" height="10" style="fill:#323233;"/><rect x="70" y="10" width="10" height="10" style="fill:#323233;"/><rect x="90" y="10" width="10" height="10" style="fill:#323233;"/></g><g><rect x="10" y="30" width="10" height="10" style="fill:#323233;"/><rect x="30" y="30" width="10" height="10" style="fill:#323233;"/><rect x="50" y="30" width="10" height="10" style="fill:#323233;"/><rect x="70" y="30" width="10" height="10" style="fill:#323233;"/><rect x="90" y="30" width="10" height="10" style="fill:#323233;"/></g><g><rect x="10" y="50" width="10" height="10" style="fill:#323233;"/><rect x="30" y="50" width="10" height="10" style="fill:#323233;"/><rect x="50" y="50" width="10" height="10" style="fill:#323233;"/><rect x="70" y="50" width="10" height="10" style="fill:#323233;"/><rect x="90" y="50" width="10" height="10" style="fill:#323233;"/></g><g><rect x="10" y="70" width="10" height="10" style="fill:#323233;"/><rect x="30" y="70" width="10" height="10" style="fill:#323233;"/><rect x="50" y="70" width="10" height="10" style="fill:#323233;"/><rect x="70" y="70" width="10" height="10" style="fill:#323233;"/><rect x="90" y="70" width="10" height="10" style="fill:#323233;"/></g><g><rect x="10" y="90" width="10" height="10" style="fill:#323233;"/><rect x="30" y="90" width="10" height="10" style="fill:#323233;"/><rect x="50" y="90" width="10" height="10" style="fill:#323233;"/><rect x="70" y="90" width="10" height="10" style="fill:#323233;"/><rect x="90" y="90" width="10" height="10" style="fill:#323233;"/></g><g><rect x="0" y="20" width="10" height="10" style="fill:#323233;"/><rect x="20" y="20" width="10" height="10" style="fill:#323233;"/><rect x="40" y="20" width="10" height="10" style="fill:#323233;"/><rect x="60" y="20" width="10" height="10" style="fill:#323233;"/><rect x="80" y="20" width="10" height="10" style="fill:#323233;"/></g><g><rect x="0" y="40" width="10" height="10" style="fill:#323233;"/><rect x="20" y="40" width="10" height="10" style="fill:#323233;"/><rect x="40" y="40" width="10" height="10" style="fill:#323233;"/><rect x="60" y="40" width="10" height="10" style="fill:#323233;"/><rect x="80" y="40" width="10" height="10" style="fill:#323233;"/></g><g><rect x="0" y="60" width="10" height="10" style="fill:#323233;"/><rect x="20" y="60" width="10" height="10" style="fill:#323233;"/><rect x="40" y="60" width="10" height="10" style="fill:#323233;"/><rect x="60" y="60" width="10" height="10" style="fill:#323233;"/><rect x="80" y="60" width="10" height="10" style="fill:#323233;"/></g><g><rect x="0" y="80" width="10" height="10" style="fill:#323233;"/><rect x="20" y="80" width="10" height="10" style="fill:#323233;"/><rect x="40" y="80" width="10" height="10" style="fill:#323233;"/><rect x="60" y="80" width="10" height="10" style="fill:#323233;"/><rect x="80" y="80" width="10" height="10" style="fill:#323233;"/></g></g></g></svg>