<?xml version="1.0" encoding="UTF-8" standalone="no"?><!DOCTYPE svg PUBLIC "-//W3C//DTD SVG 1.1//EN" "http://www.w3.org/Graphics/SVG/1.1/DTD/svg11.dtd"><svg width="100%" height="100%" viewBox="0 0 22 22" version="1.1" xmlns="http://www.w3.org/2000/svg" xmlns:xlink="http://www.w3.org/1999/xlink" xml:space="preserve" xmlns:serif="http://www.serif.com/" style="fill-rule:evenodd;clip-rule:evenodd;stroke-linejoin:round;stroke-miterlimit:1.41421;"><path d="M20.87,11.63c0.348,-0.348 0.348,-0.912 0,-1.26l-9.24,-9.24c-0.348,-0.348 -0.912,-0.348 -1.26,0l-9.24,9.24c-0.348,0.348 -0.348,0.912 0,1.26l9.24,9.24c0.348,0.348 0.912,0.348 1.26,0l9.24,-9.24Zm-11.245,-5.304l-2.224,-2.227l0.895,-0.894l2.257,2.257c1.215,-0.41 2.365,0.753 1.948,1.96l2.228,2.229c1.537,-0.53 2.746,1.391 1.592,2.544c-1.189,1.189 -3.151,-0.129 -2.513,-1.676l-2.08,-2.077l0,5.468c1.135,0.563 0.999,1.879 0.407,2.469c-0.597,0.597 -1.581,0.597 -2.178,0c-0.789,-0.79 -0.497,-2.106 0.504,-2.514l0,-5.52c-0.933,-0.381 -1.104,-1.379 -0.836,-2.019Z"/></svg>