<?xml version="1.0" encoding="UTF-8" standalone="no"?><!DOCTYPE svg PUBLIC "-//W3C//DTD SVG 1.1//EN" "http://www.w3.org/Graphics/SVG/1.1/DTD/svg11.dtd"><svg width="100%" height="100%" viewBox="0 0 114 114" version="1.1" xmlns="http://www.w3.org/2000/svg" xmlns:xlink="http://www.w3.org/1999/xlink" xml:space="preserve" xmlns:serif="http://www.serif.com/" style="fill-rule:evenodd;clip-rule:evenodd;stroke-linejoin:round;stroke-miterlimit:1.41421;"><path d="M38.13,91.793c0,0.471 -0.528,0.848 -1.195,0.848c-0.758,0.071 -1.287,-0.306 -1.287,-0.848c0,-0.472 0.529,-0.849 1.195,-0.849c0.69,-0.071 1.287,0.306 1.287,0.849Zm-7.148,-1.061c-0.161,0.471 0.299,1.013 0.989,1.155c0.597,0.236 1.287,0 1.425,-0.472c0.137,-0.471 -0.299,-1.013 -0.989,-1.225c-0.597,-0.165 -1.264,0.07 -1.425,0.542Zm10.159,-0.401c-0.666,0.165 -1.126,0.613 -1.057,1.155c0.069,0.472 0.666,0.778 1.356,0.613c0.666,-0.165 1.126,-0.613 1.057,-1.084c-0.069,-0.448 -0.689,-0.755 -1.356,-0.684Zm15.124,-90.331c-31.879,0 -56.265,24.822 -56.265,57.518c0,26.142 16.043,48.513 38.958,56.386c2.942,0.542 3.976,-1.32 3.976,-2.852c0,-1.462 -0.069,-9.524 -0.069,-14.474c0,0 -16.089,3.536 -19.467,-7.025c0,0 -2.621,-6.859 -6.39,-8.627c0,0 -5.263,-3.701 0.368,-3.631c0,0 5.723,0.472 8.872,6.082c5.033,9.099 13.468,6.483 16.755,4.927c0.528,-3.772 2.022,-6.388 3.677,-7.944c-12.848,-1.462 -25.811,-3.371 -25.811,-26.048c0,-6.483 1.747,-9.736 5.425,-13.885c-0.598,-1.532 -2.552,-7.849 0.597,-16.006c4.804,-1.532 15.859,6.365 15.859,6.365c4.597,-1.32 9.538,-2.004 14.434,-2.004c4.895,0 9.837,0.684 14.434,2.004c0,0 11.055,-7.92 15.859,-6.365c3.148,8.18 1.195,14.474 0.597,16.006c3.678,4.173 5.93,7.426 5.93,13.885c0,22.748 -13.537,24.563 -26.385,26.048c2.114,1.862 3.907,5.398 3.907,10.938c0,7.944 -0.069,17.774 -0.069,19.706c0,1.533 1.057,3.395 3.976,2.853c22.984,-7.826 38.567,-30.197 38.567,-56.339c0,-32.696 -25.857,-57.518 -57.735,-57.518Zm-33.925,81.303c-0.298,0.235 -0.23,0.778 0.161,1.226c0.368,0.377 0.897,0.542 1.195,0.235c0.299,-0.235 0.23,-0.778 -0.161,-1.226c-0.367,-0.377 -0.896,-0.542 -1.195,-0.235Zm-2.482,-1.91c-0.161,0.307 0.069,0.684 0.529,0.92c0.367,0.235 0.827,0.165 0.988,-0.165c0.161,-0.307 -0.069,-0.684 -0.529,-0.92c-0.459,-0.141 -0.827,-0.07 -0.988,0.165Zm7.447,8.392c-0.368,0.307 -0.23,1.014 0.299,1.462c0.528,0.542 1.195,0.613 1.494,0.235c0.298,-0.306 0.16,-1.013 -0.299,-1.461c-0.506,-0.542 -1.195,-0.613 -1.494,-0.236Zm-2.62,-3.465c-0.368,0.236 -0.368,0.849 0,1.391c0.367,0.542 0.988,0.778 1.287,0.542c0.368,-0.306 0.368,-0.919 0,-1.461c-0.322,-0.543 -0.92,-0.778 -1.287,-0.472Z" style="fill:#ae0f19;fill-rule:nonzero;"/></svg>