<?xml version="1.0" encoding="UTF-8" standalone="no"?><!DOCTYPE svg PUBLIC "-//W3C//DTD SVG 1.1//EN" "http://www.w3.org/Graphics/SVG/1.1/DTD/svg11.dtd"><svg width="100%" height="100%" viewBox="0 0 512 143" version="1.1" xmlns="http://www.w3.org/2000/svg" xmlns:xlink="http://www.w3.org/1999/xlink" xml:space="preserve" xmlns:serif="http://www.serif.com/" style="fill-rule:evenodd;clip-rule:evenodd;stroke-linejoin:round;stroke-miterlimit:2;"><g><text x="97.135px" y="133.391px" style="font-family:'Noteworthy-Light', 'Noteworthy';font-weight:300;font-size:28.183px;fill:#a1a1a1;">W</text><text x="117.955px" y="133.391px" style="font-family:'Noteworthy-Light', 'Noteworthy';font-weight:300;font-size:28.183px;fill:#a1a1a1;">e Ar</text><text x="163.647px" y="133.391px" style="font-family:'Noteworthy-Light', 'Noteworthy';font-weight:300;font-size:28.183px;fill:#a1a1a1;">e P<tspan x="200.179px 212.087px 225.015px 237.627px 241.996px " y="133.391px 133.391px 133.391px 133.391px 133.391px ">eople</tspan>, No</text><text x="294.875px" y="133.391px" style="font-family:'Noteworthy-Light', 'Noteworthy';font-weight:300;font-size:28.183px;fill:#a1a1a1;">t Ma</text><text x="347.824px" y="133.391px" style="font-family:'Noteworthy-Light', 'Noteworthy';font-weight:300;font-size:28.183px;fill:#a1a1a1;">ch<tspan x="372.731px 377.698px 390.803px 402.147px " y="133.391px 133.391px 133.391px 133.391px ">ines</tspan></text></g><g><path d="M19.099,13.043l31.226,-4.23l30.771,-4.126l16.542,34.506l7.88,43.63c1.564,4.824 1.976,11.863 -0.509,11.913c-7.293,0.148 -13.388,-0.007 -19.856,-0.043l-4.083,-0.564l-26.855,0.08l-15.478,-0.17l-1.351,0.034l-18.287,-81.03Z" style="fill:#eaeaea;"/><g id="__.2e.23.2e.e4582bff"><path d="M50.325,8.813c10.341,-1.308 20.658,-2.801 30.991,-4.155c7.097,-0.854 14.236,4.61 15.198,11.704c2.746,19.963 8.663,64.091 9.004,66.461c-1.733,-0.022 -3.84,0.104 -5.567,-0.056c-1.367,-0.093 -2.14,-1.567 -2.051,-2.813c0,-6.525 0.014,-13.046 0.022,-19.571c-0.019,-3.881 0.162,-7.789 -0.469,-11.634c-0.659,-4.284 -2.263,-8.583 -5.346,-11.718c-3.253,-3.26 -7.793,-4.946 -12.315,-5.387c-6.524,-0.71 -13.53,0.555 -18.804,4.64c-2.862,2.055 -5.191,4.78 -6.828,7.897c0.354,-9.147 0.162,-18.304 0.195,-27.457c0.03,-2.048 -0.24,-4.218 -1.486,-5.914c-0.64,-0.898 -1.623,-1.438 -2.544,-1.997Z" style="fill:#e4582b;fill-rule:nonzero;"/><path d="M18.836,13.072c4.06,-0.514 8.111,-1.109 12.174,-1.623c-0.048,3.364 -0.003,6.728 -0.015,10.093c1.981,0.062 3.974,-0.13 5.949,0.091c1.146,0.204 1.751,1.402 1.7,2.485c0.037,23.309 0.011,46.616 0.093,69.921c-3.176,0.114 -6.359,-0.048 -9.535,0.089c-6.554,0.085 -12.657,-5.035 -13.759,-11.49c-2.824,-17.9 -5.623,-35.807 -8.436,-53.707c-0.392,-2.902 0.11,-5.926 1.494,-8.51c2.026,-3.896 5.977,-6.743 10.335,-7.349Z" style="fill:#e4582b;fill-rule:nonzero;"/><path d="M68.314,46.225c3.198,-0.676 6.773,-0.806 9.719,0.817c1.959,1.039 3.05,3.123 3.682,5.164c0.898,2.82 0.799,5.811 0.777,8.736c1.001,-0.622 2.051,-1.269 3.26,-1.338c1.951,-0.237 3.937,1.005 4.58,2.864c1.775,4.599 -2.854,10.48 -7.834,9.08c0.042,5.634 0.012,11.271 0.038,16.905c-0.004,2.328 0.791,4.71 2.617,6.24c-9.526,-0.051 -25.877,-0.534 -27.164,-0.499c-0.799,0.023 -3.18,0.017 -3.774,0.015c0.074,-8.577 0.103,-17.157 0.066,-25.733c-0.044,-3.726 0.138,-7.564 1.542,-11.064c2.063,-5.413 6.75,-9.945 12.491,-11.187m-4.565,5.16c-1.708,0.437 -3.124,1.99 -3.198,3.783c-0.229,1.969 1.146,3.922 3.061,4.406c2.233,0.724 4.769,-0.847 5.283,-3.101c0.831,-2.902 -2.251,-5.945 -5.146,-5.088m9.992,1.804c-1.841,0.781 -2.983,2.98 -2.432,4.925c0.469,1.83 2.244,3.198 4.129,3.208c2.388,-0.01 4.502,-2.251 4.207,-4.661c-0.174,-2.75 -3.412,-4.677 -5.904,-3.472m-14.799,11.498c-0.413,3.112 -0.269,6.273 0.174,9.374c0.425,2.293 1.032,4.806 2.87,6.395c1.289,1.176 3.189,1.04 4.772,0.703c3.464,-1.02 5.978,-3.889 7.856,-6.831c1.763,-2.928 3.26,-6.056 4.118,-9.372c-3.76,1.553 -7.734,2.74 -11.815,2.973c-2.995,0.184 -5.874,-1.169 -7.975,-3.242Z" style="fill:#e4582b;fill-rule:nonzero;"/></g><g><g><text x="405.808px" y="96.48px" style="font-family:'HelveticaNeue', 'Helvetica Neue';font-size:93.67px;fill:#8a8a8a;">t</text><text x="429.905px" y="96.48px" style="font-family:'HelveticaNeue', 'Helvetica Neue';font-size:93.67px;fill:#8a8a8a;">xt</text></g><text x="103.262px" y="93.454px" style="font-family:'Courier';font-size:101.459px;fill:#6f6e6e;">umans</text><text x="394.725px" y="96.48px" style="font-family:'HelveticaNeue', 'Helvetica Neue';font-size:67.639px;fill:#8a8a8a;">.</text></g></g></svg>