<?xml version="1.0" encoding="UTF-8" standalone="no"?><!DOCTYPE svg PUBLIC "-//W3C//DTD SVG 1.1//EN" "http://www.w3.org/Graphics/SVG/1.1/DTD/svg11.dtd"><svg width="100%" height="100%" viewBox="0 0 1024 1024" version="1.1" xmlns="http://www.w3.org/2000/svg" xmlns:xlink="http://www.w3.org/1999/xlink" xml:space="preserve" xmlns:serif="http://www.serif.com/" style="fill-rule:evenodd;clip-rule:evenodd;stroke-linejoin:round;stroke-miterlimit:1.41421;"><path d="M815.139,244.965c-65.344,3.708 -195.22,17.206 -275.398,66.286c-5.532,3.386 -8.668,9.408 -8.668,15.704l0,433.88c0,13.772 15.06,22.477 27.759,16.085c82.49,-41.519 201.79,-52.847 260.779,-55.947c20.139,-1.061 35.796,-17.207 35.796,-36.559l0,-402.842c0.012,-21.118 -18.304,-37.847 -40.268,-36.607Zm-330.88,66.286c-80.166,-49.08 -210.042,-62.566 -275.386,-66.286c-21.964,-1.24 -40.28,15.489 -40.28,36.607l0,402.854c0,19.364 15.657,35.509 35.796,36.559c59.012,3.1 178.372,14.44 260.863,55.983c12.663,6.379 27.675,-2.313 27.675,-16.05l0,-434.178c0,-6.308 -3.124,-12.091 -8.668,-15.489Z" style="fill-rule:nonzero;"/></svg>