<?xml version="1.0" encoding="UTF-8" standalone="no"?>
<!DOCTYPE svg PUBLIC "-//W3C//DTD SVG 1.1//EN" "http://www.w3.org/Graphics/SVG/1.1/DTD/svg11.dtd">
<svg width="100%" height="100%" viewBox="0 0 1024 1024" version="1.1" xmlns="http://www.w3.org/2000/svg" xmlns:xlink="http://www.w3.org/1999/xlink" xml:space="preserve" xmlns:serif="http://www.serif.com/" style="fill-rule:evenodd;clip-rule:evenodd;stroke-linejoin:round;stroke-miterlimit:2;">
    <g id="School" transform="matrix(-1.38571,0,0,1.38571,1228.38,-278.409)">
        <g transform="matrix(-0.721652,0,0,0.721652,886.463,200.914)">
            <path d="M375.664,664.004C359.456,654.804 344.004,643.828 329.596,631.074C321.841,624.137 317.421,614.195 317.469,603.788L317.469,518.739L227.549,473.788C223.236,471.618 220.504,467.185 220.504,462.357C220.504,457.53 223.236,453.098 227.549,450.928L500.041,314.619C507.25,311.01 515.755,311.01 522.964,314.619L795.457,450.989C799.769,453.159 802.501,457.592 802.501,462.42C802.501,467.246 799.769,471.679 795.457,473.848L705.535,518.789L705.535,603.788C705.583,614.195 701.163,624.137 693.408,631.074C691.796,632.501 690.17,633.906 688.536,635.286C688.945,637.052 689.161,638.889 689.161,640.777C689.161,649.745 684.283,657.583 677.036,661.78L677.036,699.955C677.036,706.609 671.561,712.083 664.908,712.083C658.256,712.083 652.782,706.609 652.782,699.955L652.782,661.781C652.515,661.626 652.251,661.467 651.992,661.303C649.696,662.666 647.385,663.994 645.064,665.282C644.123,665.81 643.178,666.332 642.231,666.849L642.231,666.832C602.227,688.413 557.902,699.365 513.509,699.686C515.65,699.801 517.789,699.891 519.93,699.955C469.1,701.531 419.201,688.89 375.664,664.004Z" style="fill-rule:nonzero;stroke:white;stroke-width:2px;"/>
        </g>
        <g transform="matrix(-0.721649,0,0,0.721649,886.46,200.914)">
            <path d="M317.467,518.741L227.546,473.79C223.233,471.62 220.501,467.187 220.501,462.359C220.501,457.532 223.233,453.1 227.546,450.93L500.039,314.621C507.248,311.012 515.753,311.012 522.962,314.621L795.456,450.991C799.768,453.161 802.501,457.594 802.501,462.422C802.501,467.248 799.768,471.681 795.456,473.85L705.534,518.791L705.534,603.791C705.582,614.198 701.162,624.14 693.407,631.077C590.054,722.57 432.947,722.57 329.594,631.077C321.839,624.14 317.419,614.198 317.467,603.791L317.467,518.741Z" style="fill:rgb(91,91,91);fill-rule:nonzero;"/>
        </g>
        <path d="M657.36,575.262L528.887,639.484L532.214,641.146C537.403,643.737 543.52,643.737 548.71,641.146L628.918,601.021C630.479,600.239 632.203,599.832 633.95,599.832C640.118,599.832 645.195,604.909 645.195,611.078L645.195,636.596C645.217,644.09 642.03,651.247 636.444,656.243C601.86,687.012 557.524,704.648 511.254,706.038C561.71,707.602 610.895,689.756 648.609,656.199C654.171,651.223 657.357,644.103 657.36,636.639L657.36,575.262Z" style="fill-rule:nonzero;"/>
        <g transform="matrix(-0.721649,0,0,0.721649,886.46,200.914)">
            <path d="M775.02,474.214C779.494,471.979 782.33,467.39 782.33,462.39C782.33,457.39 779.494,452.802 775.02,450.567C770.549,448.332 516.291,311.106 522.899,314.621L795.456,450.991C799.768,453.161 802.501,457.594 802.501,462.422C802.501,467.248 799.768,471.681 795.456,473.85L651.385,545.853L652.781,546.551L652.781,623.394C654.72,622.878 656.752,622.599 658.844,622.59C669.692,622.634 679.254,629.953 682.128,640.415C672.798,647.841 662.995,654.645 652.781,660.784L652.781,660.79C649.304,662.89 645.787,664.912 642.23,666.852L642.23,664.41C637.448,659.856 634.699,653.51 634.699,646.842C634.699,639.994 637.6,633.768 642.23,629.34L642.23,550.614L642.266,550.6L642.088,550.5L522.962,610.036C522.936,610.049 522.921,610.057 522.896,610.069C522.885,610.075 522.868,610.083 522.855,610.089C522.851,610.09 522.847,610.092 522.844,610.094C522.842,610.094 522.837,610.097 522.837,610.095C522.838,610.093 522.843,610.09 522.844,610.089C522.848,610.087 522.852,610.084 522.856,610.082C522.869,610.074 522.886,610.064 522.898,610.057C522.966,610.017 523.035,609.979 523.103,609.94C523.144,609.917 523.185,609.895 523.226,609.872C523.54,609.697 523.856,609.524 524.172,609.351C525.048,608.872 525.925,608.395 526.803,607.918C529.352,606.533 531.903,605.153 534.454,603.773C542.819,599.25 551.188,594.735 559.557,590.221C584.555,576.74 609.561,563.273 634.568,549.807L637.805,548.064L519.144,480.597C515.86,481.402 512.307,481.843 508.599,481.843C491.866,481.843 478.281,472.876 478.281,461.833C478.281,450.789 491.866,441.823 508.599,441.823C525.332,441.823 538.917,450.789 538.917,461.833C538.917,470.135 531.239,477.264 520.315,480.291L646.474,543.397C710.327,509.017 775.02,474.214 775.02,474.214Z" style="fill-rule:nonzero;"/>
        </g>
        <g transform="matrix(-0.721649,0,0,0.721649,886.46,200.914)">
            <path d="M652.781,619.776C645.534,623.971 640.655,631.81 640.655,640.78C640.655,649.749 645.534,657.588 652.781,661.784L652.781,699.958C652.781,706.612 658.255,712.086 664.907,712.086C671.56,712.086 677.035,706.612 677.035,699.958L677.035,661.783C684.282,657.586 689.16,649.748 689.16,640.78C689.16,631.812 684.282,623.974 677.035,619.777L677.035,539.093C677.032,534.5 674.419,530.286 670.305,528.24L538.905,462.386C538.575,470.424 531.045,477.286 520.421,480.262L652.781,546.551L652.781,619.776Z" style="fill:rgb(253,128,2);"/>
        </g>
    </g>
</svg>
