<?xml version="1.0" encoding="UTF-8" standalone="no"?>
<!DOCTYPE svg PUBLIC "-//W3C//DTD SVG 1.1//EN" "http://www.w3.org/Graphics/SVG/1.1/DTD/svg11.dtd">
<svg width="100%" height="100%" viewBox="0 0 1024 1024" version="1.1" xmlns="http://www.w3.org/2000/svg" xmlns:xlink="http://www.w3.org/1999/xlink" xml:space="preserve" xmlns:serif="http://www.serif.com/" style="fill-rule:evenodd;clip-rule:evenodd;stroke-linejoin:round;stroke-miterlimit:2;">
    <g transform="matrix(1,0,0,1,0.499368,-1.557)">
        <g transform="matrix(1,0,0,1,-0.499418,1.55682)">
            <path d="M574.988,367.717L237.675,367.717C228.471,367.717 221,375.189 221,384.393L221,400.319L221,400.435L221,677.811C221,695.869 235.66,710.529 253.718,710.529L770.282,710.529C788.34,710.529 803,695.869 803,677.811L803,464.465L803,464.463L803,384.393C803,375.189 795.528,367.717 786.324,367.717L596.683,367.717C596.683,367.717 596.835,365.474 596.835,364.333L596.835,350.701C596.835,330.153 580.153,313.471 559.605,313.471L465.146,313.471C444.598,313.471 427.916,330.153 427.916,350.701L427.916,364.333C427.916,365.474 428.068,367.717 428.068,367.717L449.676,367.717L449.676,349.202C449.676,341.166 456.201,334.642 464.237,334.642L560.428,334.642C568.464,334.642 574.988,341.166 574.988,349.202L574.988,367.717Z" style="stroke:white;stroke-width:2px;"/>
        </g>
        <g>
            <g transform="matrix(1.19269,0,0,1,-101.173,0)">
                <path d="M757.677,401.992C757.677,383.935 745.385,369.274 730.245,369.274L297.136,369.274C281.996,369.274 269.704,383.935 269.704,401.992L269.704,679.368C269.704,697.426 281.996,712.086 297.136,712.086L730.245,712.086C745.385,712.086 757.677,697.426 757.677,679.368L757.677,401.992Z"/>
            </g>
            <path d="M220.501,385.95L220.501,527.321C220.501,527.321 221,408.42 221,456.635C221,504.851 260.145,543.996 308.361,543.996L715.639,543.996C760.682,543.996 797.809,509.833 802.501,466.02L802.501,385.95C802.501,376.746 795.029,369.274 785.825,369.274L237.176,369.274C227.972,369.274 220.501,376.746 220.501,385.95Z" style="fill:rgb(91,91,91);"/>
        </g>
        <g>
            <g transform="matrix(1,0,0,0.501693,0,184.012)">
                <rect x="485.425" y="369.274" width="54.478" height="348.264"/>
            </g>
            <g transform="matrix(1,0,0,0.48265,0,365.766)">
                <rect x="485.425" y="369.274" width="54.478" height="348.264" style="fill:rgb(91,91,91);"/>
            </g>
            <g transform="matrix(1.04686,0,0,1.02693,-24.0248,-15.9153)">
                <path d="M539.902,521.465C539.902,516.241 535.742,512 530.618,512L494.709,512C489.585,512 485.425,516.241 485.425,521.465L485.425,568.992C485.425,574.216 489.585,578.457 494.709,578.457L530.618,578.457C535.742,578.457 539.902,574.216 539.902,568.992L539.902,521.465Z" style="fill:rgb(253,128,2);"/>
            </g>
        </g>
        <path d="M449.177,369.274L449.177,350.759C449.177,342.723 455.702,336.199 463.738,336.199L559.929,336.199C567.965,336.199 574.489,342.723 574.489,350.759L574.489,369.274L596.184,369.274C596.184,369.274 596.336,367.031 596.336,365.89L596.336,352.258C596.336,331.71 579.654,315.028 559.106,315.028L464.647,315.028C444.099,315.028 427.417,331.71 427.417,352.258L427.417,365.89C427.417,367.031 427.569,369.274 427.569,369.274L449.177,369.274Z" style="fill:rgb(253,128,2);"/>
    </g>
</svg>
