<?xml version="1.0" encoding="UTF-8" standalone="no"?><!DOCTYPE svg PUBLIC "-//W3C//DTD SVG 1.1//EN" "http://www.w3.org/Graphics/SVG/1.1/DTD/svg11.dtd"><svg width="100%" height="100%" viewBox="0 0 30 30" version="1.1" xmlns="http://www.w3.org/2000/svg" xmlns:xlink="http://www.w3.org/1999/xlink" xml:space="preserve" style="fill-rule:evenodd;clip-rule:evenodd;stroke-linejoin:round;stroke-miterlimit:1.41421;"><path d="M26,25.513l0,-8.134c0,-4.359 -2.326,-6.387 -5.429,-6.387c-2.504,0 -3.625,1.378 -4.25,2.344l0,-2.011l-4.716,0c0.063,1.332 0,14.188 0,14.188l4.716,0l0,-7.924c0,-0.423 0.031,-0.847 0.156,-1.149c0.34,-0.847 1.116,-1.724 2.419,-1.724c1.707,0 2.389,1.3 2.389,3.207l0,7.591l4.715,-0.001Zm-19.364,-16.124c1.644,0 2.668,-1.091 2.668,-2.452c-0.03,-1.392 -1.024,-2.451 -2.637,-2.451c-1.613,0 -2.667,1.057 -2.667,2.449c0,1.363 1.023,2.452 2.607,2.452l0.029,0l0,0.002Zm2.358,16.124l0,-14.188l-4.714,0l0,14.188l4.714,0Z" style="fill:#2ab77e;fill-rule:nonzero;"/></svg>