<?xml version="1.0" encoding="UTF-8" standalone="no"?><!DOCTYPE svg PUBLIC "-//W3C//DTD SVG 1.1//EN" "http://www.w3.org/Graphics/SVG/1.1/DTD/svg11.dtd"><svg width="100%" height="100%" viewBox="0 0 1024 1024" version="1.1" xmlns="http://www.w3.org/2000/svg" xmlns:xlink="http://www.w3.org/1999/xlink" xml:space="preserve" style="fill-rule:evenodd;clip-rule:evenodd;stroke-linejoin:round;stroke-miterlimit:1.41421;"><path d="M1024,27.816c0,-15.352 -12.464,-27.816 -27.816,-27.816l-968.368,0c-15.352,0 -27.816,12.464 -27.816,27.816l0,968.368c0,15.352 12.464,27.816 27.816,27.816l968.368,0c15.352,0 27.816,-12.464 27.816,-27.816l0,-968.368l0,0Z" style="fill:#acacac;"/><g><path d="M1006.21,36.061c0,-5.558 -4.513,-10.072 -10.072,-10.072l-965.712,0c-5.559,0 -10.072,4.514 -10.072,10.072l0,951.92c0,5.559 4.513,10.072 10.072,10.072l965.712,0c5.559,0 10.072,-4.513 10.072,-10.072l0,-951.92l0,0Z" style="fill:#d9d7da;"/><path d="M965.824,248.902c0,-12.644 -10.265,-22.909 -22.909,-22.909l-851.158,0c-12.644,0 -22.909,10.265 -22.909,22.909l0,642.993c0,12.644 10.265,22.909 22.909,22.909l851.158,0c12.644,0 22.909,-10.265 22.909,-22.909l0,-642.993l0,0Z" style="fill:#dde2e8;"/><g><path d="M55.392,116.454c0,28.642 23.201,51.842 51.84,51.842c28.592,0 51.809,-23.2 51.809,-51.842c0,-28.642 -23.217,-51.858 -51.809,-51.858c-28.639,0 -51.84,23.216 -51.84,51.858l0,0Z" style="fill:#e13f39;fill-rule:nonzero;"/><path d="M62.72,116.454c0,24.592 19.92,44.525 44.512,44.525c24.576,0 44.496,-19.933 44.496,-44.525c0,-24.592 -19.92,-44.541 -44.496,-44.541c-24.592,0 -44.512,19.949 -44.512,44.541l0,0Z" style="fill:#ff6159;fill-rule:nonzero;"/><path d="M190.064,116.454c0,28.642 23.217,51.842 51.825,51.842c28.624,0 51.84,-23.2 51.84,-51.842c0,-28.642 -23.216,-51.858 -51.84,-51.858c-28.608,0 -51.825,23.216 -51.825,51.858l0,0Z" style="fill:#de9f34;fill-rule:nonzero;"/><path d="M197.376,116.454c0,24.592 19.952,44.525 44.513,44.525c24.576,0 44.496,-19.933 44.496,-44.525c0,-24.592 -19.92,-44.541 -44.496,-44.541c-24.561,0 -44.513,19.949 -44.513,44.541l0,0Z" style="fill:#fdbf41;fill-rule:nonzero;"/><path d="M326.674,116.454c0,28.642 23.232,51.842 51.824,51.842c28.624,0 51.84,-23.2 51.84,-51.842c0,-28.642 -23.216,-51.858 -51.84,-51.858c-28.592,0 -51.824,23.216 -51.824,51.858l0,0Z" style="fill:#1bab2c;fill-rule:nonzero;"/><path d="M334.002,116.454c0,24.592 19.936,44.525 44.496,44.525c24.592,0 44.512,-19.933 44.512,-44.525c0,-24.592 -19.92,-44.541 -44.512,-44.541c-24.56,0 -44.496,19.949 -44.496,44.541l0,0Z" style="fill:#29c941;fill-rule:nonzero;"/></g><g><g id="Shirt"><path id="Shape.-34" d="M504.519,726.069l11.944,-12.938l12.938,12.938l-6.967,6.967l10.948,44.788l-33.839,0l11.943,-44.788l-6.967,-6.967l0,0Z" style="fill:#fd8002;fill-rule:nonzero;"/><path id="Rounded.-Rectangle.-13.-copy.-3" d="M659.048,780.399l-283.172,0l-5.492,0l1.371,-23.419c2.676,-45.725 38.703,-80.621 79.93,-80.621l37.321,0l0,4.671l-34.818,0c-39.735,0 -74.457,33.589 -77.037,77.602l-0.951,16.246l282.099,0l-0.527,-16.246c-2.58,-44.013 -37.302,-77.602 -77.037,-77.602l-35.25,0l0,-4.671l37.501,0c41.228,0 77.254,34.896 79.93,80.621l1.372,23.418l-5.24,0l0,0.001Z" style="fill:#fd8002;fill-rule:nonzero;"/><path id="neck.-copy.-7" d="M491.979,659.531l0,26.191c0,13.592 11.027,24.609 24.63,24.609c13.602,0 24.629,-11.017 24.629,-24.609l0,-25.65c1.429,-0.435 2.845,-0.908 4.247,-1.418l0,27.246c0,16.073 -13.023,29.102 -29.089,29.102c-16.065,0 -29.088,-13.029 -29.088,-29.102l0,-28.053c1.539,0.609 3.096,1.168 4.671,1.684l0,0Z" style="fill:#fd8002;fill-rule:nonzero;"/><rect id="Rectangle.-24" x="487.308" y="675.51" width="4.671" height="103.19" style="fill:#fd8002;"/><rect id="Rectangle.-24.-copy" x="541.238" y="676.359" width="4.671" height="103.19" style="fill:#fd8002;"/><path id="Rectangle.-24.-copy.-4" d="M532.087,778.51l-12.036,-44.922l2.503,-0.751l1.659,-1.763l12.731,47.512l-4.857,-0.076l0,0Zm-33.952,-0.53l12.566,-46.687l0.812,0.695l2.548,1.698l0.84,0.085l-11.92,44.285l-4.846,-0.076l0,0Z" style="fill:#fd8002;"/><path id="Ellipse.-6" d="M545.471,738.797l-3.303,3.302l-12.852,-12.852c-2.481,3.94 -6.86,6.563 -11.858,6.563c-5.2,0 -9.73,-2.839 -12.147,-7.046l-13.417,13.415l-3.311,-3.311l26.414,-26.414l2.065,-1.915l2.066,1.915l26.343,26.343Zm-37.562,-12.632c1.693,3.449 5.235,5.823 9.337,5.823c4.008,0 7.478,-2.273 9.215,-5.595l-9.39,-9.389l-9.162,9.161l0,0Z" style="fill:#fd8002;"/></g><g id="Head"><path id="__1.-line" d="M615.897,500.052l-3.161,76.517c-8.956,51.951 -45.438,89.457 -94.878,94.694c-48.228,-4.976 -85.425,-42.756 -95.678,-94.694l-3.161,-76.517c-2.33,-56.385 41.208,-105.661 98.439,-105.661c57.232,0 100.768,49.276 98.439,105.661l0,0Zm-98.432,-99.716c-53.774,0 -94.682,47.16 -92.492,101.123l2.97,73.232c9.633,49.706 44.583,85.865 89.897,90.627c46.455,-5.012 80.732,-40.908 89.147,-90.627l2.97,-73.232c2.188,-53.963 -38.718,-101.123 -92.492,-101.123l0,0Z" style="fill:#fd8002;"/><path id="__.2e..-" d="M563.32,602.98c-7.718,6.702 -25.152,13.079 -45.437,13.079c-20.286,0 -37.719,-6.377 -45.438,-13.079c0,0 -0.79,-2.173 0.369,-3.332c1.18,-1.18 3.029,-0.923 3.029,-0.923c7.71,6.706 21.747,12.238 42.04,12.238c20.293,0 34.33,-5.532 42.04,-12.238c0,0 1.886,-0.701 2.802,0.215c1.765,1.765 0.595,4.04 0.595,4.04l0,0Z" style="fill:#fd8002;fill-rule:nonzero;"/><path id="Shape.-3" d="M421.044,510.301c0,0 -20.082,-6.221 -19.374,14.423c0,0 2.989,29.934 4.287,32.693c0,0 7.887,17.43 20.902,18.202c12.721,0.755 0,0 0,0l0.158,5.618c0,0 -22.876,-2.933 -27.294,-29.296l-3.487,-23.948c0,0 -2.709,-31.695 23.557,-23.636c25.587,7.851 0,0 0,0l1.251,5.944" style="fill:#fd8002;fill-rule:nonzero;"/><path id="Shape.-4" d="M414.415,551.892c0,0 -1.123,0.848 -2.089,0.848c-0.965,0 -2.075,-0.848 -2.075,-0.848l-2.072,-20.884c0,0 2.858,-10.284 14.992,-4.85l0.287,5.971c0,0 -10.645,-3.775 -10.425,0.926c0.212,4.525 1.382,18.837 1.382,18.837Z" style="fill:#fd8002;fill-rule:nonzero;"/><path id="Shape.-3_1" d="M613.485,510.35c0,0 20.168,-6.219 19.459,14.412c0,0 -3.003,29.914 -4.307,32.672c0,0 -7.921,17.418 -20.993,18.189c-12.777,0.754 0,0 0,0l-0.159,5.614c0,0 22.976,-2.931 27.414,-29.276l3.503,-23.932c0,0 2.719,-31.673 -23.661,-23.62c-25.7,7.846 0,0 0,0l-1.256,5.941" style="fill:#fd8002;fill-rule:nonzero;"/><path id="Shape.-4_1" d="M620.141,551.911c0,0 1.129,0.849 2.099,0.849c0.97,0 2.084,-0.849 2.084,-0.849l2.083,-20.869c0,0 -2.873,-10.278 -15.059,-4.846l-0.289,5.967c0,0 10.693,-3.773 10.472,0.925c-0.213,4.522 -1.39,18.823 -1.39,18.823l0,0Z" style="fill:#fd8002;fill-rule:nonzero;"/><path id="new_vector_shape_done" d="M525.314,550.237c0.495,0 0.991,0 1.487,0c3.072,4.174 4.322,10.587 5.944,16.138c0.503,1.72 0.015,4.728 -0.425,5.945c-1.609,4.454 -6.665,4.374 -10.828,6.369c-1.118,0.536 -1.949,1.461 -3.397,1.699c-0.944,-0.832 -2.083,-0.995 -2.548,-2.336c-1.147,-1.579 0.331,-2.566 1.486,-3.185c2.097,-1.124 8.567,-2.232 9.343,-4.246c0.958,-1.09 0.321,-4.37 0,-5.52c-0.824,-2.948 -1.218,-5.41 -2.336,-8.069c-0.743,-1.766 -2.047,-3.629 -1.274,-5.733c0.641,-0.274 2.024,-0.587 2.548,-1.062l0,0Z" style="fill:#fd8002;"/><path id="Rounded.-Rectangle.-8" d="M466.5,517.54l5.945,0c3.283,0 5.945,2.661 5.945,5.944c0,3.284 -2.662,5.946 -5.945,5.946l-5.945,0c-3.284,0 -5.945,-2.662 -5.945,-5.946c0,-3.283 2.661,-5.944 5.945,-5.944Z" style="fill:#fd8002;fill-rule:nonzero;"/><path id="Rounded.-Rectangle.-8.-copy" d="M563.32,517.54l5.945,0c3.283,0 5.946,2.661 5.946,5.944c0,3.284 -2.663,5.946 -5.946,5.946l-5.945,0c-3.283,0 -5.945,-2.662 -5.945,-5.946c0,-3.283 2.662,-5.944 5.945,-5.944Z" style="fill:#fd8002;fill-rule:nonzero;"/><path id="Shape.-1" d="M427.522,493.737c0,0 27.96,-14.176 24.87,-62.924c0,0 44.728,49.009 152.544,34.07l5.095,45.862c0,0 63.381,-117.442 -50.108,-144.381c-111.064,-26.363 -112.344,43.191 -112.344,43.191c0,0 -34.061,-5.089 -36.904,28.061c-2.845,33.15 7.415,68.033 7.415,68.033l7.497,7.79l1.935,-19.702l0,0Z" style="fill:#fd8002;fill-rule:nonzero;"/><path id="Shape.-1.-copy.-5" d="M602.388,506.499l0,31.424c0,7.679 -7.491,19.661 -19.697,20.348c-1.793,-0.085 -38.055,0.035 -38.055,0.035c-16.302,0 -19.534,-19.534 -19.534,-19.534l0,-21.232l-15.288,0l0,21.232c0,0 -3.232,19.534 -19.534,19.534c0,0 -36.262,-0.12 -38.055,-0.035c-12.206,-0.687 -19.697,-12.669 -19.697,-20.348l0,-31.424l-13.589,0l0,-8.494l78.985,0c0,0 11.89,1.921 11.89,10.192l15.288,0c0,-8.271 11.89,-10.192 11.89,-10.192l78.985,0l0,8.494l-13.589,0Zm-101.066,4.246c0,-3.027 -3.398,-3.397 -3.398,-3.397l-56.903,0l0,29.726c0,9.262 12.739,12.739 12.739,12.739l34.822,0c11.98,0 12.74,-12.739 12.74,-12.739c0,0 0,-23.301 0,-26.329l0,0Zm92.573,-3.397l-56.903,0c0,0 -3.398,0.37 -3.398,3.397c0,3.028 0,26.329 0,26.329c0,0 0.76,12.739 12.74,12.739l34.821,0c0,0 12.74,-3.477 12.74,-12.739l0,-29.726l0,0Zm-11.891,50.958c0.232,-0.005 0.458,-0.022 0.687,-0.035c0.192,0.009 -0.001,0.021 -0.687,0.035Zm-129.779,-0.035c0.229,0.013 0.455,0.03 0.686,0.035c-0.685,-0.014 -0.878,-0.026 -0.686,-0.035Z" style="fill:#fd8002;"/></g></g></g></svg>