<?xml version="1.0" encoding="UTF-8" standalone="no"?><!DOCTYPE svg PUBLIC "-//W3C//DTD SVG 1.1//EN" "http://www.w3.org/Graphics/SVG/1.1/DTD/svg11.dtd"><svg width="100%" height="100%" viewBox="0 0 1024 1024" version="1.1" xmlns="http://www.w3.org/2000/svg" xmlns:xlink="http://www.w3.org/1999/xlink" xml:space="preserve" style="fill-rule:evenodd;clip-rule:evenodd;stroke-linejoin:round;stroke-miterlimit:1.41421;"><path d="M1024,27.816c0,-15.352 -12.464,-27.816 -27.816,-27.816l-968.368,0c-15.352,0 -27.816,12.464 -27.816,27.816l0,968.368c0,15.352 12.464,27.816 27.816,27.816l968.368,0c15.352,0 27.816,-12.464 27.816,-27.816l0,-968.368l0,0Z" style="fill:#acacac;"/><g><path d="M1006.21,36.061c0,-5.558 -4.513,-10.072 -10.072,-10.072l-965.712,0c-5.559,0 -10.072,4.514 -10.072,10.072l0,951.92c0,5.559 4.513,10.072 10.072,10.072l965.712,0c5.559,0 10.072,-4.513 10.072,-10.072l0,-951.92l0,0Z" style="fill:#d9d7da;"/><path d="M965.824,248.902c0,-12.644 -10.265,-22.909 -22.909,-22.909l-851.158,0c-12.644,0 -22.909,10.265 -22.909,22.909l0,642.993c0,12.644 10.265,22.909 22.909,22.909l851.158,0c12.644,0 22.909,-10.265 22.909,-22.909l0,-642.993l0,0Z" style="fill:#dde2e8;"/><g><path d="M55.392,116.454c0,28.642 23.201,51.842 51.84,51.842c28.592,0 51.809,-23.2 51.809,-51.842c0,-28.642 -23.217,-51.858 -51.809,-51.858c-28.639,0 -51.84,23.216 -51.84,51.858l0,0Z" style="fill:#e13f39;fill-rule:nonzero;"/><path d="M62.72,116.454c0,24.592 19.92,44.525 44.512,44.525c24.576,0 44.496,-19.933 44.496,-44.525c0,-24.592 -19.92,-44.541 -44.496,-44.541c-24.592,0 -44.512,19.949 -44.512,44.541l0,0Z" style="fill:#ff6159;fill-rule:nonzero;"/><path d="M190.064,116.454c0,28.642 23.217,51.842 51.825,51.842c28.624,0 51.84,-23.2 51.84,-51.842c0,-28.642 -23.216,-51.858 -51.84,-51.858c-28.608,0 -51.825,23.216 -51.825,51.858l0,0Z" style="fill:#de9f34;fill-rule:nonzero;"/><path d="M197.376,116.454c0,24.592 19.952,44.525 44.513,44.525c24.576,0 44.496,-19.933 44.496,-44.525c0,-24.592 -19.92,-44.541 -44.496,-44.541c-24.561,0 -44.513,19.949 -44.513,44.541l0,0Z" style="fill:#fdbf41;fill-rule:nonzero;"/><path d="M326.674,116.454c0,28.642 23.232,51.842 51.824,51.842c28.624,0 51.84,-23.2 51.84,-51.842c0,-28.642 -23.216,-51.858 -51.84,-51.858c-28.592,0 -51.824,23.216 -51.824,51.858l0,0Z" style="fill:#1bab2c;fill-rule:nonzero;"/><path d="M334.002,116.454c0,24.592 19.936,44.525 44.496,44.525c24.592,0 44.512,-19.933 44.512,-44.525c0,-24.592 -19.92,-44.541 -44.512,-44.541c-24.56,0 -44.496,19.949 -44.496,44.541l0,0Z" style="fill:#29c941;fill-rule:nonzero;"/></g><g id="School"><path d="M377.312,531.009l0,105.63c-0.035,7.51 3.155,14.685 8.751,19.691c74.585,66.026 187.961,66.026 262.546,0c5.596,-5.006 8.786,-12.181 8.751,-19.691l0,-105.63l-280.048,0Z" style="fill:#2e2e2f;fill-rule:nonzero;"/><path d="M377.312,531.009l0,32.731l154.902,77.406c5.189,2.591 11.306,2.591 16.496,0l80.208,-40.125c1.561,-0.782 3.285,-1.189 5.032,-1.189c6.168,0 11.245,5.077 11.245,11.246l0,25.518c0.022,7.494 -3.165,14.651 -8.751,19.647c-34.584,30.769 -78.92,48.405 -125.19,49.795c50.456,1.564 99.641,-16.282 137.355,-49.839c5.562,-4.976 8.748,-12.096 8.751,-19.56l0,-105.63l-280.048,0l0,0Z" style="fill:#1f1f1f;fill-rule:nonzero;"/><path d="M509.065,427.96l-196.645,98.411c-3.112,1.566 -5.084,4.765 -5.084,8.249c0,3.483 1.972,6.682 5.084,8.247l196.645,98.279c5.19,2.591 11.308,2.591 16.497,0l196.69,-98.322c3.112,-1.566 5.084,-4.765 5.084,-8.249c0,-3.484 -1.972,-6.682 -5.084,-8.248l-196.645,-98.367c-5.202,-2.605 -11.34,-2.605 -16.542,0l0,0Z" style="fill:#2e2e2f;fill-rule:nonzero;"/><path d="M327.167,543.13c-3.228,-1.613 -5.275,-4.925 -5.275,-8.533c0,-3.608 2.047,-6.919 5.275,-8.532c3.227,-1.613 186.712,-100.642 181.943,-98.105l-196.69,98.411c-3.112,1.566 -5.084,4.765 -5.084,8.249c0,3.483 1.972,6.682 5.084,8.247l196.645,98.279c4.77,2.407 -181.898,-98.016 -181.898,-98.016l0,0Z" style="fill:#1f1f1f;fill-rule:nonzero;"/><path d="M411.006,650.205c-7.829,0.032 -14.729,5.314 -16.803,12.864c8.656,6.89 17.877,13.037 27.567,18.378c4.203,-3.317 6.66,-8.385 6.66,-13.74c0,-9.572 -7.853,-17.46 -17.424,-17.502l0,0Z" style="fill:#1f1f1f;fill-rule:nonzero;"/><path d="M521.23,542.386l-98.278,55.878l-7.571,-2.932l105.849,-52.946Z" style="fill:#1f1f1f;fill-rule:nonzero;"/><path d="M415.381,677.772c2.509,1.516 5.047,2.975 7.614,4.375l0,-83.883l-7.614,-2.932l0,82.44Z" style="fill:#1f1f1f;fill-rule:nonzero;"/><path d="M397.878,706.038l0,-116.088c0.002,-3.315 1.888,-6.356 4.857,-7.832l110.707,-55.484c1.216,-0.608 2.556,-0.926 3.916,-0.926c4.804,0 8.757,3.954 8.757,8.758c0,3.311 -1.879,6.351 -4.841,7.832l-105.893,53.034l0,110.706c0,4.802 -3.95,8.752 -8.751,8.752c-4.801,0 -8.752,-3.95 -8.752,-8.752l0,0Z" style="fill:#fd8002;fill-rule:nonzero;"/><circle cx="406.63" cy="663.332" r="17.502" style="fill:#fd8002;"/><ellipse cx="519.43" cy="534.195" rx="21.879" ry="14.44" style="fill:#1f1f1f;"/></g></g></svg>