<?xml version="1.0" encoding="UTF-8" standalone="no"?><!DOCTYPE svg PUBLIC "-//W3C//DTD SVG 1.1//EN" "http://www.w3.org/Graphics/SVG/1.1/DTD/svg11.dtd"><svg width="100%" height="100%" viewBox="0 0 1024 1024" version="1.1" xmlns="http://www.w3.org/2000/svg" xmlns:xlink="http://www.w3.org/1999/xlink" xml:space="preserve" style="fill-rule:evenodd;clip-rule:evenodd;stroke-linejoin:round;stroke-miterlimit:1.41421;"><path d="M1024,27.816c0,-15.352 -12.464,-27.816 -27.816,-27.816l-968.368,0c-15.352,0 -27.816,12.464 -27.816,27.816l0,968.368c0,15.352 12.464,27.816 27.816,27.816l968.368,0c15.352,0 27.816,-12.464 27.816,-27.816l0,-968.368l0,0Z" style="fill:#acacac;"/><g><path d="M1006.21,36.061c0,-5.558 -4.513,-10.072 -10.072,-10.072l-965.712,0c-5.559,0 -10.072,4.514 -10.072,10.072l0,951.92c0,5.559 4.513,10.072 10.072,10.072l965.712,0c5.559,0 10.072,-4.513 10.072,-10.072l0,-951.92l0,0Z" style="fill:#d9d7da;"/><path d="M965.824,248.902c0,-12.644 -10.265,-22.909 -22.909,-22.909l-851.158,0c-12.644,0 -22.909,10.265 -22.909,22.909l0,642.993c0,12.644 10.265,22.909 22.909,22.909l851.158,0c12.644,0 22.909,-10.265 22.909,-22.909l0,-642.993l0,0Z" style="fill:#dde2e8;"/><g><path d="M55.392,116.454c0,28.642 23.201,51.842 51.84,51.842c28.592,0 51.809,-23.2 51.809,-51.842c0,-28.642 -23.217,-51.858 -51.809,-51.858c-28.639,0 -51.84,23.216 -51.84,51.858l0,0Z" style="fill:#e13f39;fill-rule:nonzero;"/><path d="M62.72,116.454c0,24.592 19.92,44.525 44.512,44.525c24.576,0 44.496,-19.933 44.496,-44.525c0,-24.592 -19.92,-44.541 -44.496,-44.541c-24.592,0 -44.512,19.949 -44.512,44.541l0,0Z" style="fill:#ff6159;fill-rule:nonzero;"/><path d="M190.064,116.454c0,28.642 23.217,51.842 51.825,51.842c28.624,0 51.84,-23.2 51.84,-51.842c0,-28.642 -23.216,-51.858 -51.84,-51.858c-28.608,0 -51.825,23.216 -51.825,51.858l0,0Z" style="fill:#b1b0b1;fill-rule:nonzero;"/><path d="M197.376,116.454c0,24.592 19.952,44.525 44.513,44.525c24.576,0 44.496,-19.933 44.496,-44.525c0,-24.592 -19.92,-44.541 -44.496,-44.541c-24.561,0 -44.513,19.949 -44.513,44.541l0,0Z" style="fill:#d0d0d0;fill-rule:nonzero;"/><path d="M326.674,116.454c0,28.642 23.232,51.842 51.824,51.842c28.624,0 51.84,-23.2 51.84,-51.842c0,-28.642 -23.216,-51.858 -51.84,-51.858c-28.592,0 -51.824,23.216 -51.824,51.858l0,0Z" style="fill:#1bab2c;fill-rule:nonzero;"/><path d="M334.002,116.454c0,24.592 19.936,44.525 44.496,44.525c24.592,0 44.512,-19.933 44.512,-44.525c0,-24.592 -19.92,-44.541 -44.512,-44.541c-24.56,0 -44.496,19.949 -44.496,44.541l0,0Z" style="fill:#29c941;fill-rule:nonzero;"/></g><g><rect x="470.673" y="360.398" width="79.236" height="79.246" style="fill:#a6a4a6;"/><rect x="470.673" y="701.141" width="79.236" height="79.257" style="fill:#a6a4a6;"/><rect x="302" y="530.77" width="79.246" height="79.246" style="fill:url(#_Linear1);"/><rect x="642.743" y="530.77" width="79.257" height="79.246" style="fill:url(#_Linear2);"/><path d="M446.98,451.121l-56.044,56.032l-56.064,-56.032l56.054,-56.043l56.054,56.043Z" style="fill:url(#_Linear3);fill-rule:nonzero;"/><path d="M687.909,692.071l-56.043,56.054l-56.032,-56.054l56.032,-56.053l56.043,56.053Z" style="fill:#a6a4a6;fill-rule:nonzero;"/><path d="M448.166,690.873l-56.042,56.022l-56.054,-56.022l56.054,-56.053l56.042,56.053Z" style="fill:url(#_Linear4);fill-rule:nonzero;"/><path d="M689.117,449.924l-56.043,56.031l-56.032,-56.031l56.032,-56.044l56.043,56.044Z" style="fill:url(#_Linear5);fill-rule:nonzero;"/><path d="M682.388,570.382c0,94.109 -76.295,170.393 -170.394,170.393c-94.097,0 -170.382,-76.284 -170.382,-170.393c0,-94.087 76.285,-170.36 170.382,-170.36c94.099,0 170.394,76.273 170.394,170.36Zm-81.195,-1.699c0,-49.259 -39.928,-89.187 -89.199,-89.187c-49.27,0 -89.197,39.928 -89.197,89.187c0,49.271 39.927,89.199 89.197,89.199c49.271,0 89.199,-39.928 89.199,-89.199Z" style="fill:url(#_Linear6);fill-rule:nonzero;"/><path d="M543.953,570.41c0,17.628 -14.319,31.946 -31.958,31.946c-17.64,0 -31.947,-14.318 -31.947,-31.946c0,-17.662 14.307,-31.969 31.947,-31.969c17.639,0 31.958,14.307 31.958,31.969Z" style="fill:url(#_Linear7);fill-rule:nonzero;"/></g></g><defs><linearGradient id="_Linear1" x1="0" y1="0" x2="1" y2="0" gradientUnits="userSpaceOnUse" gradientTransform="matrix(-21.6429,2.65049e-15,-2.65049e-15,-21.6429,858.761,154.87)"><stop offset="0" style="stop-color:#bdbcbd;stop-opacity:1"/><stop offset="1" style="stop-color:#a6a4a6;stop-opacity:1"/></linearGradient><linearGradient id="_Linear2" x1="0" y1="0" x2="1" y2="0" gradientUnits="userSpaceOnUse" gradientTransform="matrix(-39.6475,4.85542e-15,-4.85542e-15,-39.6475,848.217,154.868)"><stop offset="0" style="stop-color:#bdbcbd;stop-opacity:1"/><stop offset="1" style="stop-color:#a6a4a6;stop-opacity:1"/></linearGradient><linearGradient id="_Linear3" x1="0" y1="0" x2="1" y2="0" gradientUnits="userSpaceOnUse" gradientTransform="matrix(-7.30062,-7.30272,7.30272,-7.30062,848.533,159.93)"><stop offset="0" style="stop-color:#bdbcbd;stop-opacity:1"/><stop offset="1" style="stop-color:#a6a4a6;stop-opacity:1"/></linearGradient><linearGradient id="_Linear4" x1="0" y1="0" x2="1" y2="0" gradientUnits="userSpaceOnUse" gradientTransform="matrix(-15.062,15.0649,-15.0649,-15.062,854.713,143.624)"><stop offset="0" style="stop-color:#bdbcbd;stop-opacity:1"/><stop offset="1" style="stop-color:#a6a4a6;stop-opacity:1"/></linearGradient><linearGradient id="_Linear5" x1="0" y1="0" x2="1" y2="0" gradientUnits="userSpaceOnUse" gradientTransform="matrix(-17.8242,17.8242,-17.8242,-17.8242,845.904,152.434)"><stop offset="0" style="stop-color:#bdbcbd;stop-opacity:1"/><stop offset="1" style="stop-color:#a6a4a6;stop-opacity:1"/></linearGradient><linearGradient id="_Linear6" x1="0" y1="0" x2="1" y2="0" gradientUnits="userSpaceOnUse" gradientTransform="matrix(-8.16606,1.00005e-15,-1.00005e-15,-8.16606,847.555,154.868)"><stop offset="0" style="stop-color:#bdbcbd;stop-opacity:1"/><stop offset="1" style="stop-color:#a6a4a6;stop-opacity:1"/></linearGradient><linearGradient id="_Linear7" x1="0" y1="0" x2="1" y2="0" gradientUnits="userSpaceOnUse" gradientTransform="matrix(11.3774,11.7167,-11.7167,11.3774,840.731,150.301)"><stop offset="0" style="stop-color:#bdbcbd;stop-opacity:1"/><stop offset="1" style="stop-color:#a6a4a6;stop-opacity:1"/></linearGradient></defs></svg>