<?xml version="1.0" encoding="UTF-8" standalone="no"?><!DOCTYPE svg PUBLIC "-//W3C//DTD SVG 1.1//EN" "http://www.w3.org/Graphics/SVG/1.1/DTD/svg11.dtd"><svg width="100%" height="100%" viewBox="0 0 700 700" version="1.1" xmlns="http://www.w3.org/2000/svg" xmlns:xlink="http://www.w3.org/1999/xlink" xml:space="preserve" xmlns:serif="http://www.serif.com/" style="fill-rule:evenodd;clip-rule:evenodd;stroke-linejoin:round;stroke-miterlimit:2;"><path d="M385.425,149.812l77.424,0c24.154,0 47.932,3.715 71.332,11.145c23.399,7.43 43.78,17.446 61.141,30.049c23.589,16.741 42.082,38.655 55.481,65.742c13.398,27.087 20.097,58.97 20.097,95.65c0,34.047 -6.416,63.579 -19.248,88.597c-12.832,25.017 -29.533,45.521 -50.102,61.509c-20.758,15.989 -44.064,27.934 -69.917,35.834c-25.853,7.9 -52.554,11.85 -80.107,11.85l-15.65,0l-164.435,0l7.583,-19.754c14.824,-0.928 27.546,-2.782 38.167,-5.565c10.621,-2.782 16.714,-6.214 18.281,-10.294c0.64,-1.67 1.238,-3.71 1.793,-6.121c0.554,-2.412 0.817,-4.545 0.787,-6.4l1.132,-88.478l-138.282,0c-10.178,12.985 -18.741,24.299 -25.689,33.945c-6.949,9.645 -13.288,18.548 -19.018,26.71c-5.473,7.976 -9.634,14.468 -12.484,19.476c-2.85,5.008 -4.88,9.089 -6.091,12.242c-2.848,7.42 0.788,13.17 10.907,17.251c10.119,4.081 22.364,6.492 36.732,7.234l-7.583,19.754l-148.576,0l7.583,-19.754c4.965,-0.371 11.403,-1.438 19.313,-3.2c7.911,-1.762 14.754,-4.127 20.531,-7.095c9.342,-5.008 17.103,-10.248 23.285,-15.72c6.181,-5.472 13.07,-13.03 20.668,-22.676c38.858,-49.525 82.107,-105.172 129.745,-166.939c47.639,-61.768 90.081,-116.765 127.328,-164.992l7.872,0Zm15.261,339.715c1.357,12.916 6.226,22.132 14.608,27.649c10.002,6.584 25.381,9.876 46.139,9.876c23.966,0 44.913,-4.233 62.84,-12.697c17.928,-8.465 32.458,-20.221 43.592,-35.269c11.7,-15.801 20.239,-34.094 25.617,-54.879c5.378,-20.786 8.068,-44.816 8.068,-72.091c0,-26.899 -3.586,-51.211 -10.757,-72.937c-7.171,-21.726 -17.644,-40.677 -31.42,-56.854c-13.021,-15.424 -29.014,-27.557 -47.979,-36.398c-18.965,-8.84 -40.053,-13.261 -63.265,-13.261c-7.737,0 -16.464,0.141 -26.183,0.423c-9.718,0.282 -16.937,0.518 -21.654,0.706l0,162.485l0.394,153.247Zm-62.013,-100.714l-1.078,-153.028l-117.449,153.028l118.527,0Z" style="fill-rule:nonzero;"/></svg>