<?xml version="1.0" encoding="UTF-8" standalone="no"?><!DOCTYPE svg PUBLIC "-//W3C//DTD SVG 1.1//EN" "http://www.w3.org/Graphics/SVG/1.1/DTD/svg11.dtd"><svg width="100%" height="100%" viewBox="0 0 1024 1024" version="1.1" xmlns="http://www.w3.org/2000/svg" xmlns:xlink="http://www.w3.org/1999/xlink" xml:space="preserve" xmlns:serif="http://www.serif.com/" style="fill-rule:evenodd;clip-rule:evenodd;stroke-linejoin:round;stroke-miterlimit:2;"><path id="With-curves" serif:id="With curves" d="M561.677,231.275l108.571,0c33.873,0 67.216,5.209 100.029,15.628c32.814,10.42 61.394,24.466 85.74,42.139c33.078,23.476 59.012,54.206 77.8,92.19c18.789,37.984 28.183,82.695 28.183,134.131c0,47.744 -8.997,89.157 -26.992,124.239c-17.995,35.083 -41.414,63.835 -70.259,86.256c-29.109,22.421 -61.79,39.171 -98.044,50.249c-36.253,11.079 -73.697,16.618 -112.334,16.618l-21.946,0l-230.589,0l10.634,-27.701c20.787,-1.301 38.628,-3.902 53.522,-7.804c14.893,-3.901 23.438,-8.714 25.635,-14.436c0.898,-2.341 1.737,-5.202 2.514,-8.584c0.778,-3.381 1.146,-6.372 1.104,-8.974l1.588,-124.073l-193.914,0c-14.273,18.209 -26.281,34.075 -36.024,47.601c-9.744,13.525 -18.634,26.011 -26.669,37.456c-7.674,11.185 -13.51,20.288 -17.507,27.311c-3.996,7.023 -6.843,12.746 -8.54,17.168c-3.994,10.404 1.104,18.468 15.294,24.19c14.191,5.723 31.361,9.104 51.51,10.145l-10.634,27.701l-208.349,0l10.634,-27.701c6.962,-0.521 15.99,-2.016 27.083,-4.487c11.093,-2.471 20.69,-5.788 28.79,-9.95c13.1,-7.023 23.984,-14.371 32.652,-22.044c8.668,-7.673 18.329,-18.273 28.984,-31.799c54.491,-69.45 115.138,-147.483 181.942,-234.1c64.272,-83.335 121.8,-157.881 172.583,-223.64c2.001,-2.59 4.135,-5.441 6.97,-6.729c2.835,-1.289 10.039,-1 10.039,-1Zm21.4,476.385c1.903,18.111 8.731,31.035 20.485,38.772c14.025,9.233 35.593,13.849 64.702,13.849c33.607,0 62.981,-5.935 88.121,-17.805c25.139,-11.87 45.515,-28.356 61.128,-49.459c16.407,-22.157 28.382,-47.809 35.924,-76.957c7.541,-29.147 11.312,-62.845 11.312,-101.093c0,-37.72 -5.027,-71.813 -15.083,-102.279c-10.056,-30.467 -24.743,-57.042 -44.061,-79.727c-18.259,-21.63 -40.686,-38.644 -67.281,-51.041c-26.595,-12.398 -56.167,-18.596 -88.717,-18.596c-10.849,0 -23.088,0.197 -36.717,0.593c-13.628,0.396 -21.305,-0.477 -26.366,3.989c-5.061,4.467 -4,22.811 -4,22.811l0,202.043l0.553,214.9Zm-86.961,-141.232l-1.512,-214.592l-164.699,214.592l166.211,0Z" style="fill-rule:nonzero;"/></svg>