<?xml version="1.0" encoding="UTF-8" standalone="no"?><!DOCTYPE svg PUBLIC "-//W3C//DTD SVG 1.1//EN" "http://www.w3.org/Graphics/SVG/1.1/DTD/svg11.dtd"><svg width="100%" height="100%" viewBox="0 0 1024 1024" version="1.1" xmlns="http://www.w3.org/2000/svg" xmlns:xlink="http://www.w3.org/1999/xlink" xml:space="preserve" style="fill-rule:evenodd;clip-rule:evenodd;stroke-linejoin:round;stroke-miterlimit:1.41421;"><g><g><path d="M842,962l-384,0c-9.984,0 -18.96,-5.805 -22.464,-14.58l39.12,-30.42l367.344,0c39.696,0 72,-30.285 72,-67.5l0,-675.001c0,-37.214 -32.304,-67.5 -72,-67.5l-456,0c-13.248,0 -24,-10.079 -24,-22.499c0,-12.42 10.752,-22.5 24,-22.5l456,0c66.144,0 120,50.49 120,112.499l0,675.001c0,62.01 -53.856,112.5 -120,112.5Z" style="fill:#f27a02;fill-rule:nonzero;"/><path d="M182,962l384,0c9.984,0 18.96,-5.805 22.464,-14.58l-39.12,-30.42l-367.344,0c-39.696,0 -72,-30.285 -72,-67.5l0,-675.001c0,-37.214 32.304,-67.5 72,-67.5l456,0c13.248,0 24,-10.079 24,-22.499c0,-12.42 -10.752,-22.5 -24,-22.5l-456,0c-66.144,0 -120,50.49 -120,112.499l0,675.001c0,62.01 53.856,112.5 120,112.5Z" style="fill:#f27a02;fill-rule:nonzero;"/></g><g id="En2"><path d="M213.371,303.979l0,416.042l289.015,0l0,-46.616l-233.659,0l0,-143.924l216.178,0l0,-46.616l-216.178,0l0,-132.27l231.911,0l0,-46.616l-287.267,0Z" style="fill:#f27a02;fill-rule:nonzero;"/><path d="M561.237,418.769l0,301.252l49.529,0l0,-170.146c0,-13.596 1.845,-26.124 5.536,-37.584c3.69,-11.459 9.226,-21.462 16.606,-30.008c7.381,-8.546 16.607,-15.15 27.678,-19.812c11.071,-4.661 24.182,-6.992 39.332,-6.992c19.034,0 33.99,5.438 44.867,16.315c10.877,10.877 16.315,25.639 16.315,44.285l0,203.942l49.529,0l0,-198.115c0,-16.316 -1.651,-31.174 -4.953,-44.576c-3.302,-13.402 -9.032,-24.959 -17.189,-34.67c-8.158,-9.712 -18.841,-17.287 -32.048,-22.725c-13.208,-5.439 -29.717,-8.158 -49.529,-8.158c-44.673,0 -77.304,18.258 -97.892,54.773l-1.165,0l0,-47.781l-46.616,0Z" style="fill:#f27a02;fill-rule:nonzero;"/></g></g></svg>