<?xml version="1.0" encoding="UTF-8" standalone="no"?><!DOCTYPE svg PUBLIC "-//W3C//DTD SVG 1.1//EN" "http://www.w3.org/Graphics/SVG/1.1/DTD/svg11.dtd"><svg width="100%" height="100%" viewBox="0 0 1024 1024" version="1.1" xmlns="http://www.w3.org/2000/svg" xmlns:xlink="http://www.w3.org/1999/xlink" xml:space="preserve" style="fill-rule:evenodd;clip-rule:evenodd;stroke-linejoin:round;stroke-miterlimit:1.41421;"><g><g><path d="M842,962l-384,0c-9.984,0 -18.96,-5.805 -22.464,-14.58l39.12,-30.42l367.344,0c39.696,0 72,-30.285 72,-67.5l0,-675.001c0,-37.214 -32.304,-67.5 -72,-67.5l-456,0c-13.248,0 -24,-10.079 -24,-22.499c0,-12.42 10.752,-22.5 24,-22.5l456,0c66.144,0 120,50.49 120,112.499l0,675.001c0,62.01 -53.856,112.5 -120,112.5Z" style="fill:#f27a02;fill-rule:nonzero;"/><path d="M182,962l384,0c9.984,0 18.96,-5.805 22.464,-14.58l-39.12,-30.42l-367.344,0c-39.696,0 -72,-30.285 -72,-67.5l0,-675.001c0,-37.214 32.304,-67.5 72,-67.5l456,0c13.248,0 24,-10.079 24,-22.499c0,-12.42 -10.752,-22.5 -24,-22.5l-456,0c-66.144,0 -120,50.49 -120,112.499l0,675.001c0,62.01 53.856,112.5 120,112.5Z" style="fill:#f27a02;fill-rule:nonzero;"/></g><g id="Fr1"><path d="M262,306.591l0,410.818l54.661,0l0,-188.148l188.722,0l0,-46.03l-188.722,0l0,-130.61l228.998,0l0,-46.03l-283.659,0l0,0Z" style="fill:#f27a02;fill-rule:nonzero;"/><path d="M605.498,419.94l0,297.469l48.907,0l0,-132.337c0,-19.18 1.099,-55.237 3.126,-64.298c4.377,-14.613 3.653,-14.872 11.952,-29.191c8.439,-10.357 23.029,-24.057 36.838,-29.428c18.205,-5.703 33.395,-8.465 55.656,-3.678l0.023,-45.441c-28.924,-0.977 -50.577,2.705 -68.669,12.855c-3.494,1.959 -22.141,9.881 -40.652,40.942l-1.151,0l0,-46.893l-46.03,0l0,0Z" style="fill:#f27a02;fill-rule:nonzero;"/></g></g></svg>