<?xml version="1.0" encoding="UTF-8" standalone="no"?><!DOCTYPE svg PUBLIC "-//W3C//DTD SVG 1.1//EN" "http://www.w3.org/Graphics/SVG/1.1/DTD/svg11.dtd"><svg width="100%" height="100%" viewBox="0 0 512 299" version="1.1" xmlns="http://www.w3.org/2000/svg" xmlns:xlink="http://www.w3.org/1999/xlink" xml:space="preserve" xmlns:serif="http://www.serif.com/" style="fill-rule:evenodd;clip-rule:evenodd;stroke-linecap:round;stroke-linejoin:round;stroke-miterlimit:1.5;"><rect x="0" y="0" width="512" height="299" style="fill-opacity:0.74902;"/><g><g><path d="M30,27c0,-1.38 -1.12,-2.5 -2.5,-2.5l-5,0c-1.38,0 -2.5,1.12 -2.5,2.5l0,5c0,1.38 1.12,2.5 2.5,2.5l5,0c1.38,0 2.5,-1.12 2.5,-2.5l0,-5Z" style="fill:none;"/><clipPath id="_clip1"><path d="M30,27c0,-1.38 -1.12,-2.5 -2.5,-2.5l-5,0c-1.38,0 -2.5,1.12 -2.5,2.5l0,5c0,1.38 1.12,2.5 2.5,2.5l5,0c1.38,0 2.5,-1.12 2.5,-2.5l0,-5Z"/></clipPath><g clip-path="url(#_clip1)"><circle cx="25" cy="29.5" r="1.5" style="fill:#e3d69c;stroke:#e3d69c;stroke-width:0.9px;"/></g><path d="M30,27c0,-1.38 -1.12,-2.5 -2.5,-2.5l-5,0c-1.38,0 -2.5,1.12 -2.5,2.5l0,5c0,1.38 1.12,2.5 2.5,2.5l5,0c1.38,0 2.5,-1.12 2.5,-2.5l0,-5Z" style="fill:none;stroke:#e3d69c;stroke-width:0.9px;"/><path d="M30,57c0,-1.38 -1.12,-2.5 -2.5,-2.5l-5,0c-1.38,0 -2.5,1.12 -2.5,2.5l0,5c0,1.38 1.12,2.5 2.5,2.5l5,0c1.38,0 2.5,-1.12 2.5,-2.5l0,-5Z" style="fill:none;"/><clipPath id="_clip2"><path d="M30,57c0,-1.38 -1.12,-2.5 -2.5,-2.5l-5,0c-1.38,0 -2.5,1.12 -2.5,2.5l0,5c0,1.38 1.12,2.5 2.5,2.5l5,0c1.38,0 2.5,-1.12 2.5,-2.5l0,-5Z"/></clipPath><g clip-path="url(#_clip2)"><circle cx="25" cy="59.5" r="1.5" style="fill:#e3d69c;stroke:#e3d69c;stroke-width:0.9px;"/></g><path d="M30,57c0,-1.38 -1.12,-2.5 -2.5,-2.5l-5,0c-1.38,0 -2.5,1.12 -2.5,2.5l0,5c0,1.38 1.12,2.5 2.5,2.5l5,0c1.38,0 2.5,-1.12 2.5,-2.5l0,-5Z" style="fill:none;stroke:#e3d69c;stroke-width:0.9px;"/><path d="M30,87c0,-1.38 -1.12,-2.5 -2.5,-2.5l-5,0c-1.38,0 -2.5,1.12 -2.5,2.5l0,5c0,1.38 1.12,2.5 2.5,2.5l5,0c1.38,0 2.5,-1.12 2.5,-2.5l0,-5Z" style="fill:none;"/><clipPath id="_clip3"><path d="M30,87c0,-1.38 -1.12,-2.5 -2.5,-2.5l-5,0c-1.38,0 -2.5,1.12 -2.5,2.5l0,5c0,1.38 1.12,2.5 2.5,2.5l5,0c1.38,0 2.5,-1.12 2.5,-2.5l0,-5Z"/></clipPath><g clip-path="url(#_clip3)"><circle cx="25" cy="89.5" r="1.5" style="fill:#e3d69c;stroke:#e3d69c;stroke-width:0.9px;"/></g><path d="M30,87c0,-1.38 -1.12,-2.5 -2.5,-2.5l-5,0c-1.38,0 -2.5,1.12 -2.5,2.5l0,5c0,1.38 1.12,2.5 2.5,2.5l5,0c1.38,0 2.5,-1.12 2.5,-2.5l0,-5Z" style="fill:none;stroke:#e3d69c;stroke-width:0.9px;"/><path d="M30,117c0,-1.38 -1.12,-2.5 -2.5,-2.5l-5,0c-1.38,0 -2.5,1.12 -2.5,2.5l0,5c0,1.38 1.12,2.5 2.5,2.5l5,0c1.38,0 2.5,-1.12 2.5,-2.5l0,-5Z" style="fill:none;"/><clipPath id="_clip4"><path d="M30,117c0,-1.38 -1.12,-2.5 -2.5,-2.5l-5,0c-1.38,0 -2.5,1.12 -2.5,2.5l0,5c0,1.38 1.12,2.5 2.5,2.5l5,0c1.38,0 2.5,-1.12 2.5,-2.5l0,-5Z"/></clipPath><g clip-path="url(#_clip4)"><circle cx="25" cy="119.5" r="1.5" style="fill:#e3d69c;stroke:#e3d69c;stroke-width:0.9px;"/></g><path d="M30,117c0,-1.38 -1.12,-2.5 -2.5,-2.5l-5,0c-1.38,0 -2.5,1.12 -2.5,2.5l0,5c0,1.38 1.12,2.5 2.5,2.5l5,0c1.38,0 2.5,-1.12 2.5,-2.5l0,-5Z" style="fill:none;stroke:#e3d69c;stroke-width:0.9px;"/><g><circle cx="25" cy="149.5" r="1.5" style="fill:#be3a30;stroke:#be3a30;stroke-width:0.9px;"/><path d="M25,144.5c2.76,0 5,2.24 5,5c0,2.76 -2.24,5 -5,5c-2.76,0 -5,-2.24 -5,-5c0,-2.76 2.24,-5 5,-5Zm0,1.25c2.07,0 3.75,1.68 3.75,3.75c0,2.07 -1.68,3.75 -3.75,3.75c-2.07,0 -3.75,-1.68 -3.75,-3.75c0,-2.07 1.68,-3.75 3.75,-3.75Z" style="fill:#be3a30;stroke:#be3a30;stroke-width:0.9px;"/></g><path d="M30,177c0,-1.38 -1.12,-2.5 -2.5,-2.5l-5,0c-1.38,0 -2.5,1.12 -2.5,2.5l0,5c0,1.38 1.12,2.5 2.5,2.5l5,0c1.38,0 2.5,-1.12 2.5,-2.5l0,-5Z" style="fill:none;"/><clipPath id="_clip5"><path d="M30,177c0,-1.38 -1.12,-2.5 -2.5,-2.5l-5,0c-1.38,0 -2.5,1.12 -2.5,2.5l0,5c0,1.38 1.12,2.5 2.5,2.5l5,0c1.38,0 2.5,-1.12 2.5,-2.5l0,-5Z"/></clipPath><g clip-path="url(#_clip5)"><circle cx="25" cy="179.5" r="1.5" style="fill:#e3d69c;stroke:#e3d69c;stroke-width:0.9px;"/></g><path d="M30,177c0,-1.38 -1.12,-2.5 -2.5,-2.5l-5,0c-1.38,0 -2.5,1.12 -2.5,2.5l0,5c0,1.38 1.12,2.5 2.5,2.5l5,0c1.38,0 2.5,-1.12 2.5,-2.5l0,-5Z" style="fill:none;stroke:#e3d69c;stroke-width:0.9px;"/><path d="M30,207c0,-1.38 -1.12,-2.5 -2.5,-2.5l-5,0c-1.38,0 -2.5,1.12 -2.5,2.5l0,5c0,1.38 1.12,2.5 2.5,2.5l5,0c1.38,0 2.5,-1.12 2.5,-2.5l0,-5Z" style="fill:none;"/><clipPath id="_clip6"><path d="M30,207c0,-1.38 -1.12,-2.5 -2.5,-2.5l-5,0c-1.38,0 -2.5,1.12 -2.5,2.5l0,5c0,1.38 1.12,2.5 2.5,2.5l5,0c1.38,0 2.5,-1.12 2.5,-2.5l0,-5Z"/></clipPath><g clip-path="url(#_clip6)"><circle cx="25" cy="209.5" r="1.5" style="fill:#e3d69c;stroke:#e3d69c;stroke-width:0.9px;"/></g><path d="M30,207c0,-1.38 -1.12,-2.5 -2.5,-2.5l-5,0c-1.38,0 -2.5,1.12 -2.5,2.5l0,5c0,1.38 1.12,2.5 2.5,2.5l5,0c1.38,0 2.5,-1.12 2.5,-2.5l0,-5Z" style="fill:none;stroke:#e3d69c;stroke-width:0.9px;"/><path d="M30,237c0,-1.38 -1.12,-2.5 -2.5,-2.5l-5,0c-1.38,0 -2.5,1.12 -2.5,2.5l0,5c0,1.38 1.12,2.5 2.5,2.5l5,0c1.38,0 2.5,-1.12 2.5,-2.5l0,-5Z" style="fill:none;"/><clipPath id="_clip7"><path d="M30,237c0,-1.38 -1.12,-2.5 -2.5,-2.5l-5,0c-1.38,0 -2.5,1.12 -2.5,2.5l0,5c0,1.38 1.12,2.5 2.5,2.5l5,0c1.38,0 2.5,-1.12 2.5,-2.5l0,-5Z"/></clipPath><g clip-path="url(#_clip7)"><circle cx="25" cy="239.5" r="1.5" style="fill:#e3d69c;stroke:#e3d69c;stroke-width:0.9px;"/></g><path d="M30,237c0,-1.38 -1.12,-2.5 -2.5,-2.5l-5,0c-1.38,0 -2.5,1.12 -2.5,2.5l0,5c0,1.38 1.12,2.5 2.5,2.5l5,0c1.38,0 2.5,-1.12 2.5,-2.5l0,-5Z" style="fill:none;stroke:#e3d69c;stroke-width:0.9px;"/><path d="M30,267c0,-1.38 -1.12,-2.5 -2.5,-2.5l-5,0c-1.38,0 -2.5,1.12 -2.5,2.5l0,5c0,1.38 1.12,2.5 2.5,2.5l5,0c1.38,0 2.5,-1.12 2.5,-2.5l0,-5Z" style="fill:none;"/><clipPath id="_clip8"><path d="M30,267c0,-1.38 -1.12,-2.5 -2.5,-2.5l-5,0c-1.38,0 -2.5,1.12 -2.5,2.5l0,5c0,1.38 1.12,2.5 2.5,2.5l5,0c1.38,0 2.5,-1.12 2.5,-2.5l0,-5Z"/></clipPath><g clip-path="url(#_clip8)"><circle cx="25" cy="269.5" r="1.5" style="fill:#e3d69c;stroke:#e3d69c;stroke-width:0.9px;"/></g><path d="M30,267c0,-1.38 -1.12,-2.5 -2.5,-2.5l-5,0c-1.38,0 -2.5,1.12 -2.5,2.5l0,5c0,1.38 1.12,2.5 2.5,2.5l5,0c1.38,0 2.5,-1.12 2.5,-2.5l0,-5Z" style="fill:none;stroke:#e3d69c;stroke-width:0.9px;"/></g><g><path d="M60,27c0,-1.38 -1.12,-2.5 -2.5,-2.5l-5,0c-1.38,0 -2.5,1.12 -2.5,2.5l0,5c0,1.38 1.12,2.5 2.5,2.5l5,0c1.38,0 2.5,-1.12 2.5,-2.5l0,-5Z" style="fill:none;"/><clipPath id="_clip9"><path d="M60,27c0,-1.38 -1.12,-2.5 -2.5,-2.5l-5,0c-1.38,0 -2.5,1.12 -2.5,2.5l0,5c0,1.38 1.12,2.5 2.5,2.5l5,0c1.38,0 2.5,-1.12 2.5,-2.5l0,-5Z"/></clipPath><g clip-path="url(#_clip9)"><circle cx="55" cy="29.5" r="1.5" style="fill:#e3d69c;stroke:#e3d69c;stroke-width:0.9px;"/></g><path d="M60,27c0,-1.38 -1.12,-2.5 -2.5,-2.5l-5,0c-1.38,0 -2.5,1.12 -2.5,2.5l0,5c0,1.38 1.12,2.5 2.5,2.5l5,0c1.38,0 2.5,-1.12 2.5,-2.5l0,-5Z" style="fill:none;stroke:#e3d69c;stroke-width:0.9px;"/><path d="M60,57c0,-1.38 -1.12,-2.5 -2.5,-2.5l-5,0c-1.38,0 -2.5,1.12 -2.5,2.5l0,5c0,1.38 1.12,2.5 2.5,2.5l5,0c1.38,0 2.5,-1.12 2.5,-2.5l0,-5Z" style="fill:none;"/><clipPath id="_clip10"><path d="M60,57c0,-1.38 -1.12,-2.5 -2.5,-2.5l-5,0c-1.38,0 -2.5,1.12 -2.5,2.5l0,5c0,1.38 1.12,2.5 2.5,2.5l5,0c1.38,0 2.5,-1.12 2.5,-2.5l0,-5Z"/></clipPath><g clip-path="url(#_clip10)"><circle cx="55" cy="59.5" r="1.5" style="fill:#e3d69c;stroke:#e3d69c;stroke-width:0.9px;"/></g><path d="M60,57c0,-1.38 -1.12,-2.5 -2.5,-2.5l-5,0c-1.38,0 -2.5,1.12 -2.5,2.5l0,5c0,1.38 1.12,2.5 2.5,2.5l5,0c1.38,0 2.5,-1.12 2.5,-2.5l0,-5Z" style="fill:none;stroke:#e3d69c;stroke-width:0.9px;"/><path d="M60,87c0,-1.38 -1.12,-2.5 -2.5,-2.5l-5,0c-1.38,0 -2.5,1.12 -2.5,2.5l0,5c0,1.38 1.12,2.5 2.5,2.5l5,0c1.38,0 2.5,-1.12 2.5,-2.5l0,-5Z" style="fill:none;"/><clipPath id="_clip11"><path d="M60,87c0,-1.38 -1.12,-2.5 -2.5,-2.5l-5,0c-1.38,0 -2.5,1.12 -2.5,2.5l0,5c0,1.38 1.12,2.5 2.5,2.5l5,0c1.38,0 2.5,-1.12 2.5,-2.5l0,-5Z"/></clipPath><g clip-path="url(#_clip11)"><circle cx="55" cy="89.5" r="1.5" style="fill:#e3d69c;stroke:#e3d69c;stroke-width:0.9px;"/></g><path d="M60,87c0,-1.38 -1.12,-2.5 -2.5,-2.5l-5,0c-1.38,0 -2.5,1.12 -2.5,2.5l0,5c0,1.38 1.12,2.5 2.5,2.5l5,0c1.38,0 2.5,-1.12 2.5,-2.5l0,-5Z" style="fill:none;stroke:#e3d69c;stroke-width:0.9px;"/><path d="M60,117c0,-1.38 -1.12,-2.5 -2.5,-2.5l-5,0c-1.38,0 -2.5,1.12 -2.5,2.5l0,5c0,1.38 1.12,2.5 2.5,2.5l5,0c1.38,0 2.5,-1.12 2.5,-2.5l0,-5Z" style="fill:none;"/><clipPath id="_clip12"><path d="M60,117c0,-1.38 -1.12,-2.5 -2.5,-2.5l-5,0c-1.38,0 -2.5,1.12 -2.5,2.5l0,5c0,1.38 1.12,2.5 2.5,2.5l5,0c1.38,0 2.5,-1.12 2.5,-2.5l0,-5Z"/></clipPath><g clip-path="url(#_clip12)"><circle cx="55" cy="119.5" r="1.5" style="fill:#e3d69c;stroke:#e3d69c;stroke-width:0.9px;"/></g><path d="M60,117c0,-1.38 -1.12,-2.5 -2.5,-2.5l-5,0c-1.38,0 -2.5,1.12 -2.5,2.5l0,5c0,1.38 1.12,2.5 2.5,2.5l5,0c1.38,0 2.5,-1.12 2.5,-2.5l0,-5Z" style="fill:none;stroke:#e3d69c;stroke-width:0.9px;"/><g><circle cx="55" cy="149.5" r="1.5" style="fill:#be3a30;stroke:#be3a30;stroke-width:0.9px;"/><path d="M55,144.5c2.76,0 5,2.24 5,5c0,2.76 -2.24,5 -5,5c-2.76,0 -5,-2.24 -5,-5c0,-2.76 2.24,-5 5,-5Zm0,1.25c2.07,0 3.75,1.68 3.75,3.75c0,2.07 -1.68,3.75 -3.75,3.75c-2.07,0 -3.75,-1.68 -3.75,-3.75c0,-2.07 1.68,-3.75 3.75,-3.75Z" style="fill:#be3a30;stroke:#be3a30;stroke-width:0.9px;"/></g><path d="M60,177c0,-1.38 -1.12,-2.5 -2.5,-2.5l-5,0c-1.38,0 -2.5,1.12 -2.5,2.5l0,5c0,1.38 1.12,2.5 2.5,2.5l5,0c1.38,0 2.5,-1.12 2.5,-2.5l0,-5Z" style="fill:none;"/><clipPath id="_clip13"><path d="M60,177c0,-1.38 -1.12,-2.5 -2.5,-2.5l-5,0c-1.38,0 -2.5,1.12 -2.5,2.5l0,5c0,1.38 1.12,2.5 2.5,2.5l5,0c1.38,0 2.5,-1.12 2.5,-2.5l0,-5Z"/></clipPath><g clip-path="url(#_clip13)"><circle cx="55" cy="179.5" r="1.5" style="fill:#e3d69c;stroke:#e3d69c;stroke-width:0.9px;"/></g><path d="M60,177c0,-1.38 -1.12,-2.5 -2.5,-2.5l-5,0c-1.38,0 -2.5,1.12 -2.5,2.5l0,5c0,1.38 1.12,2.5 2.5,2.5l5,0c1.38,0 2.5,-1.12 2.5,-2.5l0,-5Z" style="fill:none;stroke:#e3d69c;stroke-width:0.9px;"/><path d="M60,207c0,-1.38 -1.12,-2.5 -2.5,-2.5l-5,0c-1.38,0 -2.5,1.12 -2.5,2.5l0,5c0,1.38 1.12,2.5 2.5,2.5l5,0c1.38,0 2.5,-1.12 2.5,-2.5l0,-5Z" style="fill:none;"/><clipPath id="_clip14"><path d="M60,207c0,-1.38 -1.12,-2.5 -2.5,-2.5l-5,0c-1.38,0 -2.5,1.12 -2.5,2.5l0,5c0,1.38 1.12,2.5 2.5,2.5l5,0c1.38,0 2.5,-1.12 2.5,-2.5l0,-5Z"/></clipPath><g clip-path="url(#_clip14)"><circle cx="55" cy="209.5" r="1.5" style="fill:#e3d69c;stroke:#e3d69c;stroke-width:0.9px;"/></g><path d="M60,207c0,-1.38 -1.12,-2.5 -2.5,-2.5l-5,0c-1.38,0 -2.5,1.12 -2.5,2.5l0,5c0,1.38 1.12,2.5 2.5,2.5l5,0c1.38,0 2.5,-1.12 2.5,-2.5l0,-5Z" style="fill:none;stroke:#e3d69c;stroke-width:0.9px;"/><path d="M60,237c0,-1.38 -1.12,-2.5 -2.5,-2.5l-5,0c-1.38,0 -2.5,1.12 -2.5,2.5l0,5c0,1.38 1.12,2.5 2.5,2.5l5,0c1.38,0 2.5,-1.12 2.5,-2.5l0,-5Z" style="fill:none;"/><clipPath id="_clip15"><path d="M60,237c0,-1.38 -1.12,-2.5 -2.5,-2.5l-5,0c-1.38,0 -2.5,1.12 -2.5,2.5l0,5c0,1.38 1.12,2.5 2.5,2.5l5,0c1.38,0 2.5,-1.12 2.5,-2.5l0,-5Z"/></clipPath><g clip-path="url(#_clip15)"><circle cx="55" cy="239.5" r="1.5" style="fill:#e3d69c;stroke:#e3d69c;stroke-width:0.9px;"/></g><path d="M60,237c0,-1.38 -1.12,-2.5 -2.5,-2.5l-5,0c-1.38,0 -2.5,1.12 -2.5,2.5l0,5c0,1.38 1.12,2.5 2.5,2.5l5,0c1.38,0 2.5,-1.12 2.5,-2.5l0,-5Z" style="fill:none;stroke:#e3d69c;stroke-width:0.9px;"/><path d="M60,267c0,-1.38 -1.12,-2.5 -2.5,-2.5l-5,0c-1.38,0 -2.5,1.12 -2.5,2.5l0,5c0,1.38 1.12,2.5 2.5,2.5l5,0c1.38,0 2.5,-1.12 2.5,-2.5l0,-5Z" style="fill:none;"/><clipPath id="_clip16"><path d="M60,267c0,-1.38 -1.12,-2.5 -2.5,-2.5l-5,0c-1.38,0 -2.5,1.12 -2.5,2.5l0,5c0,1.38 1.12,2.5 2.5,2.5l5,0c1.38,0 2.5,-1.12 2.5,-2.5l0,-5Z"/></clipPath><g clip-path="url(#_clip16)"><circle cx="55" cy="269.5" r="1.5" style="fill:#e3d69c;stroke:#e3d69c;stroke-width:0.9px;"/></g><path d="M60,267c0,-1.38 -1.12,-2.5 -2.5,-2.5l-5,0c-1.38,0 -2.5,1.12 -2.5,2.5l0,5c0,1.38 1.12,2.5 2.5,2.5l5,0c1.38,0 2.5,-1.12 2.5,-2.5l0,-5Z" style="fill:none;stroke:#e3d69c;stroke-width:0.9px;"/></g><g><path d="M90,27c0,-1.38 -1.12,-2.5 -2.5,-2.5l-5,0c-1.38,0 -2.5,1.12 -2.5,2.5l0,5c0,1.38 1.12,2.5 2.5,2.5l5,0c1.38,0 2.5,-1.12 2.5,-2.5l0,-5Z" style="fill:none;"/><clipPath id="_clip17"><path d="M90,27c0,-1.38 -1.12,-2.5 -2.5,-2.5l-5,0c-1.38,0 -2.5,1.12 -2.5,2.5l0,5c0,1.38 1.12,2.5 2.5,2.5l5,0c1.38,0 2.5,-1.12 2.5,-2.5l0,-5Z"/></clipPath><g clip-path="url(#_clip17)"><circle cx="85" cy="29.5" r="1.5" style="fill:#e3d69c;stroke:#e3d69c;stroke-width:0.9px;"/></g><path d="M90,27c0,-1.38 -1.12,-2.5 -2.5,-2.5l-5,0c-1.38,0 -2.5,1.12 -2.5,2.5l0,5c0,1.38 1.12,2.5 2.5,2.5l5,0c1.38,0 2.5,-1.12 2.5,-2.5l0,-5Z" style="fill:none;stroke:#e3d69c;stroke-width:0.9px;"/><path d="M90,57c0,-1.38 -1.12,-2.5 -2.5,-2.5l-5,0c-1.38,0 -2.5,1.12 -2.5,2.5l0,5c0,1.38 1.12,2.5 2.5,2.5l5,0c1.38,0 2.5,-1.12 2.5,-2.5l0,-5Z" style="fill:none;"/><clipPath id="_clip18"><path d="M90,57c0,-1.38 -1.12,-2.5 -2.5,-2.5l-5,0c-1.38,0 -2.5,1.12 -2.5,2.5l0,5c0,1.38 1.12,2.5 2.5,2.5l5,0c1.38,0 2.5,-1.12 2.5,-2.5l0,-5Z"/></clipPath><g clip-path="url(#_clip18)"><circle cx="85" cy="59.5" r="1.5" style="fill:#e3d69c;stroke:#e3d69c;stroke-width:0.9px;"/></g><path d="M90,57c0,-1.38 -1.12,-2.5 -2.5,-2.5l-5,0c-1.38,0 -2.5,1.12 -2.5,2.5l0,5c0,1.38 1.12,2.5 2.5,2.5l5,0c1.38,0 2.5,-1.12 2.5,-2.5l0,-5Z" style="fill:none;stroke:#e3d69c;stroke-width:0.9px;"/><path d="M90,87c0,-1.38 -1.12,-2.5 -2.5,-2.5l-5,0c-1.38,0 -2.5,1.12 -2.5,2.5l0,5c0,1.38 1.12,2.5 2.5,2.5l5,0c1.38,0 2.5,-1.12 2.5,-2.5l0,-5Z" style="fill:none;"/><clipPath id="_clip19"><path d="M90,87c0,-1.38 -1.12,-2.5 -2.5,-2.5l-5,0c-1.38,0 -2.5,1.12 -2.5,2.5l0,5c0,1.38 1.12,2.5 2.5,2.5l5,0c1.38,0 2.5,-1.12 2.5,-2.5l0,-5Z"/></clipPath><g clip-path="url(#_clip19)"><circle cx="85" cy="89.5" r="1.5" style="fill:#e3d69c;stroke:#e3d69c;stroke-width:0.9px;"/></g><path d="M90,87c0,-1.38 -1.12,-2.5 -2.5,-2.5l-5,0c-1.38,0 -2.5,1.12 -2.5,2.5l0,5c0,1.38 1.12,2.5 2.5,2.5l5,0c1.38,0 2.5,-1.12 2.5,-2.5l0,-5Z" style="fill:none;stroke:#e3d69c;stroke-width:0.9px;"/><g><circle cx="85" cy="119.5" r="1.5" style="fill:#be3a30;stroke:#be3a30;stroke-width:0.9px;"/><path d="M85,114.5c2.76,0 5,2.24 5,5c0,2.76 -2.24,5 -5,5c-2.76,0 -5,-2.24 -5,-5c0,-2.76 2.24,-5 5,-5Zm0,1.25c2.07,0 3.75,1.68 3.75,3.75c0,2.07 -1.68,3.75 -3.75,3.75c-2.07,0 -3.75,-1.68 -3.75,-3.75c0,-2.07 1.68,-3.75 3.75,-3.75Z" style="fill:#be3a30;stroke:#be3a30;stroke-width:0.9px;"/></g><g><circle cx="85" cy="149.5" r="1.5" style="fill:#be3a30;stroke:#be3a30;stroke-width:0.9px;"/><path d="M85,144.5c2.76,0 5,2.24 5,5c0,2.76 -2.24,5 -5,5c-2.76,0 -5,-2.24 -5,-5c0,-2.76 2.24,-5 5,-5Zm0,1.25c2.07,0 3.75,1.68 3.75,3.75c0,2.07 -1.68,3.75 -3.75,3.75c-2.07,0 -3.75,-1.68 -3.75,-3.75c0,-2.07 1.68,-3.75 3.75,-3.75Z" style="fill:#be3a30;stroke:#be3a30;stroke-width:0.9px;"/></g><g><circle cx="85" cy="179.5" r="1.5" style="fill:#be3a30;stroke:#be3a30;stroke-width:0.9px;"/><path d="M85,174.5c2.76,0 5,2.24 5,5c0,2.76 -2.24,5 -5,5c-2.76,0 -5,-2.24 -5,-5c0,-2.76 2.24,-5 5,-5Zm0,1.25c2.07,0 3.75,1.68 3.75,3.75c0,2.07 -1.68,3.75 -3.75,3.75c-2.07,0 -3.75,-1.68 -3.75,-3.75c0,-2.07 1.68,-3.75 3.75,-3.75Z" style="fill:#be3a30;stroke:#be3a30;stroke-width:0.9px;"/></g><path d="M90,207c0,-1.38 -1.12,-2.5 -2.5,-2.5l-5,0c-1.38,0 -2.5,1.12 -2.5,2.5l0,5c0,1.38 1.12,2.5 2.5,2.5l5,0c1.38,0 2.5,-1.12 2.5,-2.5l0,-5Z" style="fill:none;"/><clipPath id="_clip20"><path d="M90,207c0,-1.38 -1.12,-2.5 -2.5,-2.5l-5,0c-1.38,0 -2.5,1.12 -2.5,2.5l0,5c0,1.38 1.12,2.5 2.5,2.5l5,0c1.38,0 2.5,-1.12 2.5,-2.5l0,-5Z"/></clipPath><g clip-path="url(#_clip20)"><circle cx="85" cy="209.5" r="1.5" style="fill:#e3d69c;stroke:#e3d69c;stroke-width:0.9px;"/></g><path d="M90,207c0,-1.38 -1.12,-2.5 -2.5,-2.5l-5,0c-1.38,0 -2.5,1.12 -2.5,2.5l0,5c0,1.38 1.12,2.5 2.5,2.5l5,0c1.38,0 2.5,-1.12 2.5,-2.5l0,-5Z" style="fill:none;stroke:#e3d69c;stroke-width:0.9px;"/><path d="M90,237c0,-1.38 -1.12,-2.5 -2.5,-2.5l-5,0c-1.38,0 -2.5,1.12 -2.5,2.5l0,5c0,1.38 1.12,2.5 2.5,2.5l5,0c1.38,0 2.5,-1.12 2.5,-2.5l0,-5Z" style="fill:none;"/><clipPath id="_clip21"><path d="M90,237c0,-1.38 -1.12,-2.5 -2.5,-2.5l-5,0c-1.38,0 -2.5,1.12 -2.5,2.5l0,5c0,1.38 1.12,2.5 2.5,2.5l5,0c1.38,0 2.5,-1.12 2.5,-2.5l0,-5Z"/></clipPath><g clip-path="url(#_clip21)"><circle cx="85" cy="239.5" r="1.5" style="fill:#e3d69c;stroke:#e3d69c;stroke-width:0.9px;"/></g><path d="M90,237c0,-1.38 -1.12,-2.5 -2.5,-2.5l-5,0c-1.38,0 -2.5,1.12 -2.5,2.5l0,5c0,1.38 1.12,2.5 2.5,2.5l5,0c1.38,0 2.5,-1.12 2.5,-2.5l0,-5Z" style="fill:none;stroke:#e3d69c;stroke-width:0.9px;"/><path d="M90,267c0,-1.38 -1.12,-2.5 -2.5,-2.5l-5,0c-1.38,0 -2.5,1.12 -2.5,2.5l0,5c0,1.38 1.12,2.5 2.5,2.5l5,0c1.38,0 2.5,-1.12 2.5,-2.5l0,-5Z" style="fill:none;"/><clipPath id="_clip22"><path d="M90,267c0,-1.38 -1.12,-2.5 -2.5,-2.5l-5,0c-1.38,0 -2.5,1.12 -2.5,2.5l0,5c0,1.38 1.12,2.5 2.5,2.5l5,0c1.38,0 2.5,-1.12 2.5,-2.5l0,-5Z"/></clipPath><g clip-path="url(#_clip22)"><circle cx="85" cy="269.5" r="1.5" style="fill:#e3d69c;stroke:#e3d69c;stroke-width:0.9px;"/></g><path d="M90,267c0,-1.38 -1.12,-2.5 -2.5,-2.5l-5,0c-1.38,0 -2.5,1.12 -2.5,2.5l0,5c0,1.38 1.12,2.5 2.5,2.5l5,0c1.38,0 2.5,-1.12 2.5,-2.5l0,-5Z" style="fill:none;stroke:#e3d69c;stroke-width:0.9px;"/></g><g><path d="M120,27c0,-1.38 -1.12,-2.5 -2.5,-2.5l-5,0c-1.38,0 -2.5,1.12 -2.5,2.5l0,5c0,1.38 1.12,2.5 2.5,2.5l5,0c1.38,0 2.5,-1.12 2.5,-2.5l0,-5Z" style="fill:none;"/><clipPath id="_clip23"><path d="M120,27c0,-1.38 -1.12,-2.5 -2.5,-2.5l-5,0c-1.38,0 -2.5,1.12 -2.5,2.5l0,5c0,1.38 1.12,2.5 2.5,2.5l5,0c1.38,0 2.5,-1.12 2.5,-2.5l0,-5Z"/></clipPath><g clip-path="url(#_clip23)"><circle cx="115" cy="29.5" r="1.5" style="fill:#e3d69c;stroke:#e3d69c;stroke-width:0.9px;"/></g><path d="M120,27c0,-1.38 -1.12,-2.5 -2.5,-2.5l-5,0c-1.38,0 -2.5,1.12 -2.5,2.5l0,5c0,1.38 1.12,2.5 2.5,2.5l5,0c1.38,0 2.5,-1.12 2.5,-2.5l0,-5Z" style="fill:none;stroke:#e3d69c;stroke-width:0.9px;"/><path d="M120,57c0,-1.38 -1.12,-2.5 -2.5,-2.5l-5,0c-1.38,0 -2.5,1.12 -2.5,2.5l0,5c0,1.38 1.12,2.5 2.5,2.5l5,0c1.38,0 2.5,-1.12 2.5,-2.5l0,-5Z" style="fill:none;"/><clipPath id="_clip24"><path d="M120,57c0,-1.38 -1.12,-2.5 -2.5,-2.5l-5,0c-1.38,0 -2.5,1.12 -2.5,2.5l0,5c0,1.38 1.12,2.5 2.5,2.5l5,0c1.38,0 2.5,-1.12 2.5,-2.5l0,-5Z"/></clipPath><g clip-path="url(#_clip24)"><circle cx="115" cy="59.5" r="1.5" style="fill:#e3d69c;stroke:#e3d69c;stroke-width:0.9px;"/></g><path d="M120,57c0,-1.38 -1.12,-2.5 -2.5,-2.5l-5,0c-1.38,0 -2.5,1.12 -2.5,2.5l0,5c0,1.38 1.12,2.5 2.5,2.5l5,0c1.38,0 2.5,-1.12 2.5,-2.5l0,-5Z" style="fill:none;stroke:#e3d69c;stroke-width:0.9px;"/><path d="M120,87c0,-1.38 -1.12,-2.5 -2.5,-2.5l-5,0c-1.38,0 -2.5,1.12 -2.5,2.5l0,5c0,1.38 1.12,2.5 2.5,2.5l5,0c1.38,0 2.5,-1.12 2.5,-2.5l0,-5Z" style="fill:none;"/><clipPath id="_clip25"><path d="M120,87c0,-1.38 -1.12,-2.5 -2.5,-2.5l-5,0c-1.38,0 -2.5,1.12 -2.5,2.5l0,5c0,1.38 1.12,2.5 2.5,2.5l5,0c1.38,0 2.5,-1.12 2.5,-2.5l0,-5Z"/></clipPath><g clip-path="url(#_clip25)"><circle cx="115" cy="89.5" r="1.5" style="fill:#e3d69c;stroke:#e3d69c;stroke-width:0.9px;"/></g><path d="M120,87c0,-1.38 -1.12,-2.5 -2.5,-2.5l-5,0c-1.38,0 -2.5,1.12 -2.5,2.5l0,5c0,1.38 1.12,2.5 2.5,2.5l5,0c1.38,0 2.5,-1.12 2.5,-2.5l0,-5Z" style="fill:none;stroke:#e3d69c;stroke-width:0.9px;"/><path d="M120,117c0,-1.38 -1.12,-2.5 -2.5,-2.5l-5,0c-1.38,0 -2.5,1.12 -2.5,2.5l0,5c0,1.38 1.12,2.5 2.5,2.5l5,0c1.38,0 2.5,-1.12 2.5,-2.5l0,-5Z" style="fill:none;"/><clipPath id="_clip26"><path d="M120,117c0,-1.38 -1.12,-2.5 -2.5,-2.5l-5,0c-1.38,0 -2.5,1.12 -2.5,2.5l0,5c0,1.38 1.12,2.5 2.5,2.5l5,0c1.38,0 2.5,-1.12 2.5,-2.5l0,-5Z"/></clipPath><g clip-path="url(#_clip26)"><circle cx="115" cy="119.5" r="1.5" style="fill:#e3d69c;stroke:#e3d69c;stroke-width:0.9px;"/></g><path d="M120,117c0,-1.38 -1.12,-2.5 -2.5,-2.5l-5,0c-1.38,0 -2.5,1.12 -2.5,2.5l0,5c0,1.38 1.12,2.5 2.5,2.5l5,0c1.38,0 2.5,-1.12 2.5,-2.5l0,-5Z" style="fill:none;stroke:#e3d69c;stroke-width:0.9px;"/><path d="M120,147c0,-1.38 -1.12,-2.5 -2.5,-2.5l-5,0c-1.38,0 -2.5,1.12 -2.5,2.5l0,5c0,1.38 1.12,2.5 2.5,2.5l5,0c1.38,0 2.5,-1.12 2.5,-2.5l0,-5Z" style="fill:none;"/><clipPath id="_clip27"><path d="M120,147c0,-1.38 -1.12,-2.5 -2.5,-2.5l-5,0c-1.38,0 -2.5,1.12 -2.5,2.5l0,5c0,1.38 1.12,2.5 2.5,2.5l5,0c1.38,0 2.5,-1.12 2.5,-2.5l0,-5Z"/></clipPath><g clip-path="url(#_clip27)"><circle cx="115" cy="149.5" r="1.5" style="fill:#e3d69c;stroke:#e3d69c;stroke-width:0.9px;"/></g><path d="M120,147c0,-1.38 -1.12,-2.5 -2.5,-2.5l-5,0c-1.38,0 -2.5,1.12 -2.5,2.5l0,5c0,1.38 1.12,2.5 2.5,2.5l5,0c1.38,0 2.5,-1.12 2.5,-2.5l0,-5Z" style="fill:none;stroke:#e3d69c;stroke-width:0.9px;"/><path d="M120,177c0,-1.38 -1.12,-2.5 -2.5,-2.5l-5,0c-1.38,0 -2.5,1.12 -2.5,2.5l0,5c0,1.38 1.12,2.5 2.5,2.5l5,0c1.38,0 2.5,-1.12 2.5,-2.5l0,-5Z" style="fill:none;"/><clipPath id="_clip28"><path d="M120,177c0,-1.38 -1.12,-2.5 -2.5,-2.5l-5,0c-1.38,0 -2.5,1.12 -2.5,2.5l0,5c0,1.38 1.12,2.5 2.5,2.5l5,0c1.38,0 2.5,-1.12 2.5,-2.5l0,-5Z"/></clipPath><g clip-path="url(#_clip28)"><circle cx="115" cy="179.5" r="1.5" style="fill:#e3d69c;stroke:#e3d69c;stroke-width:0.9px;"/></g><path d="M120,177c0,-1.38 -1.12,-2.5 -2.5,-2.5l-5,0c-1.38,0 -2.5,1.12 -2.5,2.5l0,5c0,1.38 1.12,2.5 2.5,2.5l5,0c1.38,0 2.5,-1.12 2.5,-2.5l0,-5Z" style="fill:none;stroke:#e3d69c;stroke-width:0.9px;"/><path d="M120,207c0,-1.38 -1.12,-2.5 -2.5,-2.5l-5,0c-1.38,0 -2.5,1.12 -2.5,2.5l0,5c0,1.38 1.12,2.5 2.5,2.5l5,0c1.38,0 2.5,-1.12 2.5,-2.5l0,-5Z" style="fill:none;"/><clipPath id="_clip29"><path d="M120,207c0,-1.38 -1.12,-2.5 -2.5,-2.5l-5,0c-1.38,0 -2.5,1.12 -2.5,2.5l0,5c0,1.38 1.12,2.5 2.5,2.5l5,0c1.38,0 2.5,-1.12 2.5,-2.5l0,-5Z"/></clipPath><g clip-path="url(#_clip29)"><circle cx="115" cy="209.5" r="1.5" style="fill:#e3d69c;stroke:#e3d69c;stroke-width:0.9px;"/></g><path d="M120,207c0,-1.38 -1.12,-2.5 -2.5,-2.5l-5,0c-1.38,0 -2.5,1.12 -2.5,2.5l0,5c0,1.38 1.12,2.5 2.5,2.5l5,0c1.38,0 2.5,-1.12 2.5,-2.5l0,-5Z" style="fill:none;stroke:#e3d69c;stroke-width:0.9px;"/><path d="M120,237c0,-1.38 -1.12,-2.5 -2.5,-2.5l-5,0c-1.38,0 -2.5,1.12 -2.5,2.5l0,5c0,1.38 1.12,2.5 2.5,2.5l5,0c1.38,0 2.5,-1.12 2.5,-2.5l0,-5Z" style="fill:none;"/><clipPath id="_clip30"><path d="M120,237c0,-1.38 -1.12,-2.5 -2.5,-2.5l-5,0c-1.38,0 -2.5,1.12 -2.5,2.5l0,5c0,1.38 1.12,2.5 2.5,2.5l5,0c1.38,0 2.5,-1.12 2.5,-2.5l0,-5Z"/></clipPath><g clip-path="url(#_clip30)"><circle cx="115" cy="239.5" r="1.5" style="fill:#e3d69c;stroke:#e3d69c;stroke-width:0.9px;"/></g><path d="M120,237c0,-1.38 -1.12,-2.5 -2.5,-2.5l-5,0c-1.38,0 -2.5,1.12 -2.5,2.5l0,5c0,1.38 1.12,2.5 2.5,2.5l5,0c1.38,0 2.5,-1.12 2.5,-2.5l0,-5Z" style="fill:none;stroke:#e3d69c;stroke-width:0.9px;"/><path d="M120,267c0,-1.38 -1.12,-2.5 -2.5,-2.5l-5,0c-1.38,0 -2.5,1.12 -2.5,2.5l0,5c0,1.38 1.12,2.5 2.5,2.5l5,0c1.38,0 2.5,-1.12 2.5,-2.5l0,-5Z" style="fill:none;"/><clipPath id="_clip31"><path d="M120,267c0,-1.38 -1.12,-2.5 -2.5,-2.5l-5,0c-1.38,0 -2.5,1.12 -2.5,2.5l0,5c0,1.38 1.12,2.5 2.5,2.5l5,0c1.38,0 2.5,-1.12 2.5,-2.5l0,-5Z"/></clipPath><g clip-path="url(#_clip31)"><circle cx="115" cy="269.5" r="1.5" style="fill:#e3d69c;stroke:#e3d69c;stroke-width:0.9px;"/></g><path d="M120,267c0,-1.38 -1.12,-2.5 -2.5,-2.5l-5,0c-1.38,0 -2.5,1.12 -2.5,2.5l0,5c0,1.38 1.12,2.5 2.5,2.5l5,0c1.38,0 2.5,-1.12 2.5,-2.5l0,-5Z" style="fill:none;stroke:#e3d69c;stroke-width:0.9px;"/></g><g><path d="M150,27c0,-1.38 -1.12,-2.5 -2.5,-2.5l-5,0c-1.38,0 -2.5,1.12 -2.5,2.5l0,5c0,1.38 1.12,2.5 2.5,2.5l5,0c1.38,0 2.5,-1.12 2.5,-2.5l0,-5Z" style="fill:none;"/><clipPath id="_clip32"><path d="M150,27c0,-1.38 -1.12,-2.5 -2.5,-2.5l-5,0c-1.38,0 -2.5,1.12 -2.5,2.5l0,5c0,1.38 1.12,2.5 2.5,2.5l5,0c1.38,0 2.5,-1.12 2.5,-2.5l0,-5Z"/></clipPath><g clip-path="url(#_clip32)"><circle cx="145" cy="29.5" r="1.5" style="fill:#e3d69c;stroke:#e3d69c;stroke-width:0.9px;"/></g><path d="M150,27c0,-1.38 -1.12,-2.5 -2.5,-2.5l-5,0c-1.38,0 -2.5,1.12 -2.5,2.5l0,5c0,1.38 1.12,2.5 2.5,2.5l5,0c1.38,0 2.5,-1.12 2.5,-2.5l0,-5Z" style="fill:none;stroke:#e3d69c;stroke-width:0.9px;"/><path d="M150,57c0,-1.38 -1.12,-2.5 -2.5,-2.5l-5,0c-1.38,0 -2.5,1.12 -2.5,2.5l0,5c0,1.38 1.12,2.5 2.5,2.5l5,0c1.38,0 2.5,-1.12 2.5,-2.5l0,-5Z" style="fill:none;"/><clipPath id="_clip33"><path d="M150,57c0,-1.38 -1.12,-2.5 -2.5,-2.5l-5,0c-1.38,0 -2.5,1.12 -2.5,2.5l0,5c0,1.38 1.12,2.5 2.5,2.5l5,0c1.38,0 2.5,-1.12 2.5,-2.5l0,-5Z"/></clipPath><g clip-path="url(#_clip33)"><circle cx="145" cy="59.5" r="1.5" style="fill:#e3d69c;stroke:#e3d69c;stroke-width:0.9px;"/></g><path d="M150,57c0,-1.38 -1.12,-2.5 -2.5,-2.5l-5,0c-1.38,0 -2.5,1.12 -2.5,2.5l0,5c0,1.38 1.12,2.5 2.5,2.5l5,0c1.38,0 2.5,-1.12 2.5,-2.5l0,-5Z" style="fill:none;stroke:#e3d69c;stroke-width:0.9px;"/><path d="M150,87c0,-1.38 -1.12,-2.5 -2.5,-2.5l-5,0c-1.38,0 -2.5,1.12 -2.5,2.5l0,5c0,1.38 1.12,2.5 2.5,2.5l5,0c1.38,0 2.5,-1.12 2.5,-2.5l0,-5Z" style="fill:none;"/><clipPath id="_clip34"><path d="M150,87c0,-1.38 -1.12,-2.5 -2.5,-2.5l-5,0c-1.38,0 -2.5,1.12 -2.5,2.5l0,5c0,1.38 1.12,2.5 2.5,2.5l5,0c1.38,0 2.5,-1.12 2.5,-2.5l0,-5Z"/></clipPath><g clip-path="url(#_clip34)"><circle cx="145" cy="89.5" r="1.5" style="fill:#e3d69c;stroke:#e3d69c;stroke-width:0.9px;"/></g><path d="M150,87c0,-1.38 -1.12,-2.5 -2.5,-2.5l-5,0c-1.38,0 -2.5,1.12 -2.5,2.5l0,5c0,1.38 1.12,2.5 2.5,2.5l5,0c1.38,0 2.5,-1.12 2.5,-2.5l0,-5Z" style="fill:none;stroke:#e3d69c;stroke-width:0.9px;"/><path d="M150,117c0,-1.38 -1.12,-2.5 -2.5,-2.5l-5,0c-1.38,0 -2.5,1.12 -2.5,2.5l0,5c0,1.38 1.12,2.5 2.5,2.5l5,0c1.38,0 2.5,-1.12 2.5,-2.5l0,-5Z" style="fill:none;"/><clipPath id="_clip35"><path d="M150,117c0,-1.38 -1.12,-2.5 -2.5,-2.5l-5,0c-1.38,0 -2.5,1.12 -2.5,2.5l0,5c0,1.38 1.12,2.5 2.5,2.5l5,0c1.38,0 2.5,-1.12 2.5,-2.5l0,-5Z"/></clipPath><g clip-path="url(#_clip35)"><circle cx="145" cy="119.5" r="1.5" style="fill:#e3d69c;stroke:#e3d69c;stroke-width:0.9px;"/></g><path d="M150,117c0,-1.38 -1.12,-2.5 -2.5,-2.5l-5,0c-1.38,0 -2.5,1.12 -2.5,2.5l0,5c0,1.38 1.12,2.5 2.5,2.5l5,0c1.38,0 2.5,-1.12 2.5,-2.5l0,-5Z" style="fill:none;stroke:#e3d69c;stroke-width:0.9px;"/><path d="M150,147c0,-1.38 -1.12,-2.5 -2.5,-2.5l-5,0c-1.38,0 -2.5,1.12 -2.5,2.5l0,5c0,1.38 1.12,2.5 2.5,2.5l5,0c1.38,0 2.5,-1.12 2.5,-2.5l0,-5Z" style="fill:none;"/><clipPath id="_clip36"><path d="M150,147c0,-1.38 -1.12,-2.5 -2.5,-2.5l-5,0c-1.38,0 -2.5,1.12 -2.5,2.5l0,5c0,1.38 1.12,2.5 2.5,2.5l5,0c1.38,0 2.5,-1.12 2.5,-2.5l0,-5Z"/></clipPath><g clip-path="url(#_clip36)"><circle cx="145" cy="149.5" r="1.5" style="fill:#e3d69c;stroke:#e3d69c;stroke-width:0.9px;"/></g><path d="M150,147c0,-1.38 -1.12,-2.5 -2.5,-2.5l-5,0c-1.38,0 -2.5,1.12 -2.5,2.5l0,5c0,1.38 1.12,2.5 2.5,2.5l5,0c1.38,0 2.5,-1.12 2.5,-2.5l0,-5Z" style="fill:none;stroke:#e3d69c;stroke-width:0.9px;"/><path d="M150,177c0,-1.38 -1.12,-2.5 -2.5,-2.5l-5,0c-1.38,0 -2.5,1.12 -2.5,2.5l0,5c0,1.38 1.12,2.5 2.5,2.5l5,0c1.38,0 2.5,-1.12 2.5,-2.5l0,-5Z" style="fill:none;"/><clipPath id="_clip37"><path d="M150,177c0,-1.38 -1.12,-2.5 -2.5,-2.5l-5,0c-1.38,0 -2.5,1.12 -2.5,2.5l0,5c0,1.38 1.12,2.5 2.5,2.5l5,0c1.38,0 2.5,-1.12 2.5,-2.5l0,-5Z"/></clipPath><g clip-path="url(#_clip37)"><circle cx="145" cy="179.5" r="1.5" style="fill:#e3d69c;stroke:#e3d69c;stroke-width:0.9px;"/></g><path d="M150,177c0,-1.38 -1.12,-2.5 -2.5,-2.5l-5,0c-1.38,0 -2.5,1.12 -2.5,2.5l0,5c0,1.38 1.12,2.5 2.5,2.5l5,0c1.38,0 2.5,-1.12 2.5,-2.5l0,-5Z" style="fill:none;stroke:#e3d69c;stroke-width:0.9px;"/><path d="M150,207c0,-1.38 -1.12,-2.5 -2.5,-2.5l-5,0c-1.38,0 -2.5,1.12 -2.5,2.5l0,5c0,1.38 1.12,2.5 2.5,2.5l5,0c1.38,0 2.5,-1.12 2.5,-2.5l0,-5Z" style="fill:none;"/><clipPath id="_clip38"><path d="M150,207c0,-1.38 -1.12,-2.5 -2.5,-2.5l-5,0c-1.38,0 -2.5,1.12 -2.5,2.5l0,5c0,1.38 1.12,2.5 2.5,2.5l5,0c1.38,0 2.5,-1.12 2.5,-2.5l0,-5Z"/></clipPath><g clip-path="url(#_clip38)"><circle cx="145" cy="209.5" r="1.5" style="fill:#e3d69c;stroke:#e3d69c;stroke-width:0.9px;"/></g><path d="M150,207c0,-1.38 -1.12,-2.5 -2.5,-2.5l-5,0c-1.38,0 -2.5,1.12 -2.5,2.5l0,5c0,1.38 1.12,2.5 2.5,2.5l5,0c1.38,0 2.5,-1.12 2.5,-2.5l0,-5Z" style="fill:none;stroke:#e3d69c;stroke-width:0.9px;"/><path d="M150,237c0,-1.38 -1.12,-2.5 -2.5,-2.5l-5,0c-1.38,0 -2.5,1.12 -2.5,2.5l0,5c0,1.38 1.12,2.5 2.5,2.5l5,0c1.38,0 2.5,-1.12 2.5,-2.5l0,-5Z" style="fill:none;"/><clipPath id="_clip39"><path d="M150,237c0,-1.38 -1.12,-2.5 -2.5,-2.5l-5,0c-1.38,0 -2.5,1.12 -2.5,2.5l0,5c0,1.38 1.12,2.5 2.5,2.5l5,0c1.38,0 2.5,-1.12 2.5,-2.5l0,-5Z"/></clipPath><g clip-path="url(#_clip39)"><circle cx="145" cy="239.5" r="1.5" style="fill:#e3d69c;stroke:#e3d69c;stroke-width:0.9px;"/></g><path d="M150,237c0,-1.38 -1.12,-2.5 -2.5,-2.5l-5,0c-1.38,0 -2.5,1.12 -2.5,2.5l0,5c0,1.38 1.12,2.5 2.5,2.5l5,0c1.38,0 2.5,-1.12 2.5,-2.5l0,-5Z" style="fill:none;stroke:#e3d69c;stroke-width:0.9px;"/><path d="M150,267c0,-1.38 -1.12,-2.5 -2.5,-2.5l-5,0c-1.38,0 -2.5,1.12 -2.5,2.5l0,5c0,1.38 1.12,2.5 2.5,2.5l5,0c1.38,0 2.5,-1.12 2.5,-2.5l0,-5Z" style="fill:none;"/><clipPath id="_clip40"><path d="M150,267c0,-1.38 -1.12,-2.5 -2.5,-2.5l-5,0c-1.38,0 -2.5,1.12 -2.5,2.5l0,5c0,1.38 1.12,2.5 2.5,2.5l5,0c1.38,0 2.5,-1.12 2.5,-2.5l0,-5Z"/></clipPath><g clip-path="url(#_clip40)"><circle cx="145" cy="269.5" r="1.5" style="fill:#e3d69c;stroke:#e3d69c;stroke-width:0.9px;"/></g><path d="M150,267c0,-1.38 -1.12,-2.5 -2.5,-2.5l-5,0c-1.38,0 -2.5,1.12 -2.5,2.5l0,5c0,1.38 1.12,2.5 2.5,2.5l5,0c1.38,0 2.5,-1.12 2.5,-2.5l0,-5Z" style="fill:none;stroke:#e3d69c;stroke-width:0.9px;"/></g><g><path d="M180,27c0,-1.38 -1.12,-2.5 -2.5,-2.5l-5,0c-1.38,0 -2.5,1.12 -2.5,2.5l0,5c0,1.38 1.12,2.5 2.5,2.5l5,0c1.38,0 2.5,-1.12 2.5,-2.5l0,-5Z" style="fill:none;"/><clipPath id="_clip41"><path d="M180,27c0,-1.38 -1.12,-2.5 -2.5,-2.5l-5,0c-1.38,0 -2.5,1.12 -2.5,2.5l0,5c0,1.38 1.12,2.5 2.5,2.5l5,0c1.38,0 2.5,-1.12 2.5,-2.5l0,-5Z"/></clipPath><g clip-path="url(#_clip41)"><circle cx="175" cy="29.5" r="1.5" style="fill:#e3d69c;stroke:#e3d69c;stroke-width:0.9px;"/></g><path d="M180,27c0,-1.38 -1.12,-2.5 -2.5,-2.5l-5,0c-1.38,0 -2.5,1.12 -2.5,2.5l0,5c0,1.38 1.12,2.5 2.5,2.5l5,0c1.38,0 2.5,-1.12 2.5,-2.5l0,-5Z" style="fill:none;stroke:#e3d69c;stroke-width:0.9px;"/><path d="M180,57c0,-1.38 -1.12,-2.5 -2.5,-2.5l-5,0c-1.38,0 -2.5,1.12 -2.5,2.5l0,5c0,1.38 1.12,2.5 2.5,2.5l5,0c1.38,0 2.5,-1.12 2.5,-2.5l0,-5Z" style="fill:none;"/><clipPath id="_clip42"><path d="M180,57c0,-1.38 -1.12,-2.5 -2.5,-2.5l-5,0c-1.38,0 -2.5,1.12 -2.5,2.5l0,5c0,1.38 1.12,2.5 2.5,2.5l5,0c1.38,0 2.5,-1.12 2.5,-2.5l0,-5Z"/></clipPath><g clip-path="url(#_clip42)"><circle cx="175" cy="59.5" r="1.5" style="fill:#e3d69c;stroke:#e3d69c;stroke-width:0.9px;"/></g><path d="M180,57c0,-1.38 -1.12,-2.5 -2.5,-2.5l-5,0c-1.38,0 -2.5,1.12 -2.5,2.5l0,5c0,1.38 1.12,2.5 2.5,2.5l5,0c1.38,0 2.5,-1.12 2.5,-2.5l0,-5Z" style="fill:none;stroke:#e3d69c;stroke-width:0.9px;"/><path d="M180,87c0,-1.38 -1.12,-2.5 -2.5,-2.5l-5,0c-1.38,0 -2.5,1.12 -2.5,2.5l0,5c0,1.38 1.12,2.5 2.5,2.5l5,0c1.38,0 2.5,-1.12 2.5,-2.5l0,-5Z" style="fill:none;"/><clipPath id="_clip43"><path d="M180,87c0,-1.38 -1.12,-2.5 -2.5,-2.5l-5,0c-1.38,0 -2.5,1.12 -2.5,2.5l0,5c0,1.38 1.12,2.5 2.5,2.5l5,0c1.38,0 2.5,-1.12 2.5,-2.5l0,-5Z"/></clipPath><g clip-path="url(#_clip43)"><circle cx="175" cy="89.5" r="1.5" style="fill:#e3d69c;stroke:#e3d69c;stroke-width:0.9px;"/></g><path d="M180,87c0,-1.38 -1.12,-2.5 -2.5,-2.5l-5,0c-1.38,0 -2.5,1.12 -2.5,2.5l0,5c0,1.38 1.12,2.5 2.5,2.5l5,0c1.38,0 2.5,-1.12 2.5,-2.5l0,-5Z" style="fill:none;stroke:#e3d69c;stroke-width:0.9px;"/><g><circle cx="175" cy="119.5" r="1.5" style="fill:#be3a30;stroke:#be3a30;stroke-width:0.9px;"/><path d="M175,114.5c2.76,0 5,2.24 5,5c0,2.76 -2.24,5 -5,5c-2.76,0 -5,-2.24 -5,-5c0,-2.76 2.24,-5 5,-5Zm0,1.25c2.07,0 3.75,1.68 3.75,3.75c0,2.07 -1.68,3.75 -3.75,3.75c-2.07,0 -3.75,-1.68 -3.75,-3.75c0,-2.07 1.68,-3.75 3.75,-3.75Z" style="fill:#be3a30;stroke:#be3a30;stroke-width:0.9px;"/></g><g><circle cx="175" cy="149.5" r="1.5" style="fill:#be3a30;stroke:#be3a30;stroke-width:0.9px;"/><path d="M175,144.5c2.76,0 5,2.24 5,5c0,2.76 -2.24,5 -5,5c-2.76,0 -5,-2.24 -5,-5c0,-2.76 2.24,-5 5,-5Zm0,1.25c2.07,0 3.75,1.68 3.75,3.75c0,2.07 -1.68,3.75 -3.75,3.75c-2.07,0 -3.75,-1.68 -3.75,-3.75c0,-2.07 1.68,-3.75 3.75,-3.75Z" style="fill:#be3a30;stroke:#be3a30;stroke-width:0.9px;"/></g><g><circle cx="175" cy="179.5" r="1.5" style="fill:#be3a30;stroke:#be3a30;stroke-width:0.9px;"/><path d="M175,174.5c2.76,0 5,2.24 5,5c0,2.76 -2.24,5 -5,5c-2.76,0 -5,-2.24 -5,-5c0,-2.76 2.24,-5 5,-5Zm0,1.25c2.07,0 3.75,1.68 3.75,3.75c0,2.07 -1.68,3.75 -3.75,3.75c-2.07,0 -3.75,-1.68 -3.75,-3.75c0,-2.07 1.68,-3.75 3.75,-3.75Z" style="fill:#be3a30;stroke:#be3a30;stroke-width:0.9px;"/></g><path d="M180,207c0,-1.38 -1.12,-2.5 -2.5,-2.5l-5,0c-1.38,0 -2.5,1.12 -2.5,2.5l0,5c0,1.38 1.12,2.5 2.5,2.5l5,0c1.38,0 2.5,-1.12 2.5,-2.5l0,-5Z" style="fill:none;"/><clipPath id="_clip44"><path d="M180,207c0,-1.38 -1.12,-2.5 -2.5,-2.5l-5,0c-1.38,0 -2.5,1.12 -2.5,2.5l0,5c0,1.38 1.12,2.5 2.5,2.5l5,0c1.38,0 2.5,-1.12 2.5,-2.5l0,-5Z"/></clipPath><g clip-path="url(#_clip44)"><circle cx="175" cy="209.5" r="1.5" style="fill:#e3d69c;stroke:#e3d69c;stroke-width:0.9px;"/></g><path d="M180,207c0,-1.38 -1.12,-2.5 -2.5,-2.5l-5,0c-1.38,0 -2.5,1.12 -2.5,2.5l0,5c0,1.38 1.12,2.5 2.5,2.5l5,0c1.38,0 2.5,-1.12 2.5,-2.5l0,-5Z" style="fill:none;stroke:#e3d69c;stroke-width:0.9px;"/><path d="M180,237c0,-1.38 -1.12,-2.5 -2.5,-2.5l-5,0c-1.38,0 -2.5,1.12 -2.5,2.5l0,5c0,1.38 1.12,2.5 2.5,2.5l5,0c1.38,0 2.5,-1.12 2.5,-2.5l0,-5Z" style="fill:none;"/><clipPath id="_clip45"><path d="M180,237c0,-1.38 -1.12,-2.5 -2.5,-2.5l-5,0c-1.38,0 -2.5,1.12 -2.5,2.5l0,5c0,1.38 1.12,2.5 2.5,2.5l5,0c1.38,0 2.5,-1.12 2.5,-2.5l0,-5Z"/></clipPath><g clip-path="url(#_clip45)"><circle cx="175" cy="239.5" r="1.5" style="fill:#e3d69c;stroke:#e3d69c;stroke-width:0.9px;"/></g><path d="M180,237c0,-1.38 -1.12,-2.5 -2.5,-2.5l-5,0c-1.38,0 -2.5,1.12 -2.5,2.5l0,5c0,1.38 1.12,2.5 2.5,2.5l5,0c1.38,0 2.5,-1.12 2.5,-2.5l0,-5Z" style="fill:none;stroke:#e3d69c;stroke-width:0.9px;"/><path d="M180,267c0,-1.38 -1.12,-2.5 -2.5,-2.5l-5,0c-1.38,0 -2.5,1.12 -2.5,2.5l0,5c0,1.38 1.12,2.5 2.5,2.5l5,0c1.38,0 2.5,-1.12 2.5,-2.5l0,-5Z" style="fill:none;"/><clipPath id="_clip46"><path d="M180,267c0,-1.38 -1.12,-2.5 -2.5,-2.5l-5,0c-1.38,0 -2.5,1.12 -2.5,2.5l0,5c0,1.38 1.12,2.5 2.5,2.5l5,0c1.38,0 2.5,-1.12 2.5,-2.5l0,-5Z"/></clipPath><g clip-path="url(#_clip46)"><circle cx="175" cy="269.5" r="1.5" style="fill:#e3d69c;stroke:#e3d69c;stroke-width:0.9px;"/></g><path d="M180,267c0,-1.38 -1.12,-2.5 -2.5,-2.5l-5,0c-1.38,0 -2.5,1.12 -2.5,2.5l0,5c0,1.38 1.12,2.5 2.5,2.5l5,0c1.38,0 2.5,-1.12 2.5,-2.5l0,-5Z" style="fill:none;stroke:#e3d69c;stroke-width:0.9px;"/></g><g><path d="M210,27c0,-1.38 -1.12,-2.5 -2.5,-2.5l-5,0c-1.38,0 -2.5,1.12 -2.5,2.5l0,5c0,1.38 1.12,2.5 2.5,2.5l5,0c1.38,0 2.5,-1.12 2.5,-2.5l0,-5Z" style="fill:none;"/><clipPath id="_clip47"><path d="M210,27c0,-1.38 -1.12,-2.5 -2.5,-2.5l-5,0c-1.38,0 -2.5,1.12 -2.5,2.5l0,5c0,1.38 1.12,2.5 2.5,2.5l5,0c1.38,0 2.5,-1.12 2.5,-2.5l0,-5Z"/></clipPath><g clip-path="url(#_clip47)"><circle cx="205" cy="29.5" r="1.5" style="fill:#e3d69c;stroke:#e3d69c;stroke-width:0.9px;"/></g><path d="M210,27c0,-1.38 -1.12,-2.5 -2.5,-2.5l-5,0c-1.38,0 -2.5,1.12 -2.5,2.5l0,5c0,1.38 1.12,2.5 2.5,2.5l5,0c1.38,0 2.5,-1.12 2.5,-2.5l0,-5Z" style="fill:none;stroke:#e3d69c;stroke-width:0.9px;"/><path d="M210,57c0,-1.38 -1.12,-2.5 -2.5,-2.5l-5,0c-1.38,0 -2.5,1.12 -2.5,2.5l0,5c0,1.38 1.12,2.5 2.5,2.5l5,0c1.38,0 2.5,-1.12 2.5,-2.5l0,-5Z" style="fill:none;"/><clipPath id="_clip48"><path d="M210,57c0,-1.38 -1.12,-2.5 -2.5,-2.5l-5,0c-1.38,0 -2.5,1.12 -2.5,2.5l0,5c0,1.38 1.12,2.5 2.5,2.5l5,0c1.38,0 2.5,-1.12 2.5,-2.5l0,-5Z"/></clipPath><g clip-path="url(#_clip48)"><circle cx="205" cy="59.5" r="1.5" style="fill:#e3d69c;stroke:#e3d69c;stroke-width:0.9px;"/></g><path d="M210,57c0,-1.38 -1.12,-2.5 -2.5,-2.5l-5,0c-1.38,0 -2.5,1.12 -2.5,2.5l0,5c0,1.38 1.12,2.5 2.5,2.5l5,0c1.38,0 2.5,-1.12 2.5,-2.5l0,-5Z" style="fill:none;stroke:#e3d69c;stroke-width:0.9px;"/><path d="M210,87c0,-1.38 -1.12,-2.5 -2.5,-2.5l-5,0c-1.38,0 -2.5,1.12 -2.5,2.5l0,5c0,1.38 1.12,2.5 2.5,2.5l5,0c1.38,0 2.5,-1.12 2.5,-2.5l0,-5Z" style="fill:none;"/><clipPath id="_clip49"><path d="M210,87c0,-1.38 -1.12,-2.5 -2.5,-2.5l-5,0c-1.38,0 -2.5,1.12 -2.5,2.5l0,5c0,1.38 1.12,2.5 2.5,2.5l5,0c1.38,0 2.5,-1.12 2.5,-2.5l0,-5Z"/></clipPath><g clip-path="url(#_clip49)"><circle cx="205" cy="89.5" r="1.5" style="fill:#e3d69c;stroke:#e3d69c;stroke-width:0.9px;"/></g><path d="M210,87c0,-1.38 -1.12,-2.5 -2.5,-2.5l-5,0c-1.38,0 -2.5,1.12 -2.5,2.5l0,5c0,1.38 1.12,2.5 2.5,2.5l5,0c1.38,0 2.5,-1.12 2.5,-2.5l0,-5Z" style="fill:none;stroke:#e3d69c;stroke-width:0.9px;"/><path d="M210,117c0,-1.38 -1.12,-2.5 -2.5,-2.5l-5,0c-1.38,0 -2.5,1.12 -2.5,2.5l0,5c0,1.38 1.12,2.5 2.5,2.5l5,0c1.38,0 2.5,-1.12 2.5,-2.5l0,-5Z" style="fill:none;"/><clipPath id="_clip50"><path d="M210,117c0,-1.38 -1.12,-2.5 -2.5,-2.5l-5,0c-1.38,0 -2.5,1.12 -2.5,2.5l0,5c0,1.38 1.12,2.5 2.5,2.5l5,0c1.38,0 2.5,-1.12 2.5,-2.5l0,-5Z"/></clipPath><g clip-path="url(#_clip50)"><circle cx="205" cy="119.5" r="1.5" style="fill:#e3d69c;stroke:#e3d69c;stroke-width:0.9px;"/></g><path d="M210,117c0,-1.38 -1.12,-2.5 -2.5,-2.5l-5,0c-1.38,0 -2.5,1.12 -2.5,2.5l0,5c0,1.38 1.12,2.5 2.5,2.5l5,0c1.38,0 2.5,-1.12 2.5,-2.5l0,-5Z" style="fill:none;stroke:#e3d69c;stroke-width:0.9px;"/><g><circle cx="205" cy="149.5" r="1.5" style="fill:#be3a30;stroke:#be3a30;stroke-width:0.9px;"/><path d="M205,144.5c2.76,0 5,2.24 5,5c0,2.76 -2.24,5 -5,5c-2.76,0 -5,-2.24 -5,-5c0,-2.76 2.24,-5 5,-5Zm0,1.25c2.07,0 3.75,1.68 3.75,3.75c0,2.07 -1.68,3.75 -3.75,3.75c-2.07,0 -3.75,-1.68 -3.75,-3.75c0,-2.07 1.68,-3.75 3.75,-3.75Z" style="fill:#be3a30;stroke:#be3a30;stroke-width:0.9px;"/></g><path d="M210,177c0,-1.38 -1.12,-2.5 -2.5,-2.5l-5,0c-1.38,0 -2.5,1.12 -2.5,2.5l0,5c0,1.38 1.12,2.5 2.5,2.5l5,0c1.38,0 2.5,-1.12 2.5,-2.5l0,-5Z" style="fill:none;"/><clipPath id="_clip51"><path d="M210,177c0,-1.38 -1.12,-2.5 -2.5,-2.5l-5,0c-1.38,0 -2.5,1.12 -2.5,2.5l0,5c0,1.38 1.12,2.5 2.5,2.5l5,0c1.38,0 2.5,-1.12 2.5,-2.5l0,-5Z"/></clipPath><g clip-path="url(#_clip51)"><circle cx="205" cy="179.5" r="1.5" style="fill:#e3d69c;stroke:#e3d69c;stroke-width:0.9px;"/></g><path d="M210,177c0,-1.38 -1.12,-2.5 -2.5,-2.5l-5,0c-1.38,0 -2.5,1.12 -2.5,2.5l0,5c0,1.38 1.12,2.5 2.5,2.5l5,0c1.38,0 2.5,-1.12 2.5,-2.5l0,-5Z" style="fill:none;stroke:#e3d69c;stroke-width:0.9px;"/><path d="M210,207c0,-1.38 -1.12,-2.5 -2.5,-2.5l-5,0c-1.38,0 -2.5,1.12 -2.5,2.5l0,5c0,1.38 1.12,2.5 2.5,2.5l5,0c1.38,0 2.5,-1.12 2.5,-2.5l0,-5Z" style="fill:none;"/><clipPath id="_clip52"><path d="M210,207c0,-1.38 -1.12,-2.5 -2.5,-2.5l-5,0c-1.38,0 -2.5,1.12 -2.5,2.5l0,5c0,1.38 1.12,2.5 2.5,2.5l5,0c1.38,0 2.5,-1.12 2.5,-2.5l0,-5Z"/></clipPath><g clip-path="url(#_clip52)"><circle cx="205" cy="209.5" r="1.5" style="fill:#e3d69c;stroke:#e3d69c;stroke-width:0.9px;"/></g><path d="M210,207c0,-1.38 -1.12,-2.5 -2.5,-2.5l-5,0c-1.38,0 -2.5,1.12 -2.5,2.5l0,5c0,1.38 1.12,2.5 2.5,2.5l5,0c1.38,0 2.5,-1.12 2.5,-2.5l0,-5Z" style="fill:none;stroke:#e3d69c;stroke-width:0.9px;"/><path d="M210,237c0,-1.38 -1.12,-2.5 -2.5,-2.5l-5,0c-1.38,0 -2.5,1.12 -2.5,2.5l0,5c0,1.38 1.12,2.5 2.5,2.5l5,0c1.38,0 2.5,-1.12 2.5,-2.5l0,-5Z" style="fill:none;"/><clipPath id="_clip53"><path d="M210,237c0,-1.38 -1.12,-2.5 -2.5,-2.5l-5,0c-1.38,0 -2.5,1.12 -2.5,2.5l0,5c0,1.38 1.12,2.5 2.5,2.5l5,0c1.38,0 2.5,-1.12 2.5,-2.5l0,-5Z"/></clipPath><g clip-path="url(#_clip53)"><circle cx="205" cy="239.5" r="1.5" style="fill:#e3d69c;stroke:#e3d69c;stroke-width:0.9px;"/></g><path d="M210,237c0,-1.38 -1.12,-2.5 -2.5,-2.5l-5,0c-1.38,0 -2.5,1.12 -2.5,2.5l0,5c0,1.38 1.12,2.5 2.5,2.5l5,0c1.38,0 2.5,-1.12 2.5,-2.5l0,-5Z" style="fill:none;stroke:#e3d69c;stroke-width:0.9px;"/><path d="M210,267c0,-1.38 -1.12,-2.5 -2.5,-2.5l-5,0c-1.38,0 -2.5,1.12 -2.5,2.5l0,5c0,1.38 1.12,2.5 2.5,2.5l5,0c1.38,0 2.5,-1.12 2.5,-2.5l0,-5Z" style="fill:none;"/><clipPath id="_clip54"><path d="M210,267c0,-1.38 -1.12,-2.5 -2.5,-2.5l-5,0c-1.38,0 -2.5,1.12 -2.5,2.5l0,5c0,1.38 1.12,2.5 2.5,2.5l5,0c1.38,0 2.5,-1.12 2.5,-2.5l0,-5Z"/></clipPath><g clip-path="url(#_clip54)"><circle cx="205" cy="269.5" r="1.5" style="fill:#e3d69c;stroke:#e3d69c;stroke-width:0.9px;"/></g><path d="M210,267c0,-1.38 -1.12,-2.5 -2.5,-2.5l-5,0c-1.38,0 -2.5,1.12 -2.5,2.5l0,5c0,1.38 1.12,2.5 2.5,2.5l5,0c1.38,0 2.5,-1.12 2.5,-2.5l0,-5Z" style="fill:none;stroke:#e3d69c;stroke-width:0.9px;"/></g><g><path d="M240,27c0,-1.38 -1.12,-2.5 -2.5,-2.5l-5,0c-1.38,0 -2.5,1.12 -2.5,2.5l0,5c0,1.38 1.12,2.5 2.5,2.5l5,0c1.38,0 2.5,-1.12 2.5,-2.5l0,-5Z" style="fill:none;"/><clipPath id="_clip55"><path d="M240,27c0,-1.38 -1.12,-2.5 -2.5,-2.5l-5,0c-1.38,0 -2.5,1.12 -2.5,2.5l0,5c0,1.38 1.12,2.5 2.5,2.5l5,0c1.38,0 2.5,-1.12 2.5,-2.5l0,-5Z"/></clipPath><g clip-path="url(#_clip55)"><circle cx="235" cy="29.5" r="1.5" style="fill:#e3d69c;stroke:#e3d69c;stroke-width:0.9px;"/></g><path d="M240,27c0,-1.38 -1.12,-2.5 -2.5,-2.5l-5,0c-1.38,0 -2.5,1.12 -2.5,2.5l0,5c0,1.38 1.12,2.5 2.5,2.5l5,0c1.38,0 2.5,-1.12 2.5,-2.5l0,-5Z" style="fill:none;stroke:#e3d69c;stroke-width:0.9px;"/><path d="M240,57c0,-1.38 -1.12,-2.5 -2.5,-2.5l-5,0c-1.38,0 -2.5,1.12 -2.5,2.5l0,5c0,1.38 1.12,2.5 2.5,2.5l5,0c1.38,0 2.5,-1.12 2.5,-2.5l0,-5Z" style="fill:none;"/><clipPath id="_clip56"><path d="M240,57c0,-1.38 -1.12,-2.5 -2.5,-2.5l-5,0c-1.38,0 -2.5,1.12 -2.5,2.5l0,5c0,1.38 1.12,2.5 2.5,2.5l5,0c1.38,0 2.5,-1.12 2.5,-2.5l0,-5Z"/></clipPath><g clip-path="url(#_clip56)"><circle cx="235" cy="59.5" r="1.5" style="fill:#e3d69c;stroke:#e3d69c;stroke-width:0.9px;"/></g><path d="M240,57c0,-1.38 -1.12,-2.5 -2.5,-2.5l-5,0c-1.38,0 -2.5,1.12 -2.5,2.5l0,5c0,1.38 1.12,2.5 2.5,2.5l5,0c1.38,0 2.5,-1.12 2.5,-2.5l0,-5Z" style="fill:none;stroke:#e3d69c;stroke-width:0.9px;"/><path d="M240,87c0,-1.38 -1.12,-2.5 -2.5,-2.5l-5,0c-1.38,0 -2.5,1.12 -2.5,2.5l0,5c0,1.38 1.12,2.5 2.5,2.5l5,0c1.38,0 2.5,-1.12 2.5,-2.5l0,-5Z" style="fill:none;"/><clipPath id="_clip57"><path d="M240,87c0,-1.38 -1.12,-2.5 -2.5,-2.5l-5,0c-1.38,0 -2.5,1.12 -2.5,2.5l0,5c0,1.38 1.12,2.5 2.5,2.5l5,0c1.38,0 2.5,-1.12 2.5,-2.5l0,-5Z"/></clipPath><g clip-path="url(#_clip57)"><circle cx="235" cy="89.5" r="1.5" style="fill:#e3d69c;stroke:#e3d69c;stroke-width:0.9px;"/></g><path d="M240,87c0,-1.38 -1.12,-2.5 -2.5,-2.5l-5,0c-1.38,0 -2.5,1.12 -2.5,2.5l0,5c0,1.38 1.12,2.5 2.5,2.5l5,0c1.38,0 2.5,-1.12 2.5,-2.5l0,-5Z" style="fill:none;stroke:#e3d69c;stroke-width:0.9px;"/><path d="M240,117c0,-1.38 -1.12,-2.5 -2.5,-2.5l-5,0c-1.38,0 -2.5,1.12 -2.5,2.5l0,5c0,1.38 1.12,2.5 2.5,2.5l5,0c1.38,0 2.5,-1.12 2.5,-2.5l0,-5Z" style="fill:none;"/><clipPath id="_clip58"><path d="M240,117c0,-1.38 -1.12,-2.5 -2.5,-2.5l-5,0c-1.38,0 -2.5,1.12 -2.5,2.5l0,5c0,1.38 1.12,2.5 2.5,2.5l5,0c1.38,0 2.5,-1.12 2.5,-2.5l0,-5Z"/></clipPath><g clip-path="url(#_clip58)"><circle cx="235" cy="119.5" r="1.5" style="fill:#e3d69c;stroke:#e3d69c;stroke-width:0.9px;"/></g><path d="M240,117c0,-1.38 -1.12,-2.5 -2.5,-2.5l-5,0c-1.38,0 -2.5,1.12 -2.5,2.5l0,5c0,1.38 1.12,2.5 2.5,2.5l5,0c1.38,0 2.5,-1.12 2.5,-2.5l0,-5Z" style="fill:none;stroke:#e3d69c;stroke-width:0.9px;"/><g><circle cx="235" cy="149.5" r="1.5" style="fill:#be3a30;stroke:#be3a30;stroke-width:0.9px;"/><path d="M235,144.5c2.76,0 5,2.24 5,5c0,2.76 -2.24,5 -5,5c-2.76,0 -5,-2.24 -5,-5c0,-2.76 2.24,-5 5,-5Zm0,1.25c2.07,0 3.75,1.68 3.75,3.75c0,2.07 -1.68,3.75 -3.75,3.75c-2.07,0 -3.75,-1.68 -3.75,-3.75c0,-2.07 1.68,-3.75 3.75,-3.75Z" style="fill:#be3a30;stroke:#be3a30;stroke-width:0.9px;"/></g><path d="M240,177c0,-1.38 -1.12,-2.5 -2.5,-2.5l-5,0c-1.38,0 -2.5,1.12 -2.5,2.5l0,5c0,1.38 1.12,2.5 2.5,2.5l5,0c1.38,0 2.5,-1.12 2.5,-2.5l0,-5Z" style="fill:none;"/><clipPath id="_clip59"><path d="M240,177c0,-1.38 -1.12,-2.5 -2.5,-2.5l-5,0c-1.38,0 -2.5,1.12 -2.5,2.5l0,5c0,1.38 1.12,2.5 2.5,2.5l5,0c1.38,0 2.5,-1.12 2.5,-2.5l0,-5Z"/></clipPath><g clip-path="url(#_clip59)"><circle cx="235" cy="179.5" r="1.5" style="fill:#e3d69c;stroke:#e3d69c;stroke-width:0.9px;"/></g><path d="M240,177c0,-1.38 -1.12,-2.5 -2.5,-2.5l-5,0c-1.38,0 -2.5,1.12 -2.5,2.5l0,5c0,1.38 1.12,2.5 2.5,2.5l5,0c1.38,0 2.5,-1.12 2.5,-2.5l0,-5Z" style="fill:none;stroke:#e3d69c;stroke-width:0.9px;"/><path d="M240,207c0,-1.38 -1.12,-2.5 -2.5,-2.5l-5,0c-1.38,0 -2.5,1.12 -2.5,2.5l0,5c0,1.38 1.12,2.5 2.5,2.5l5,0c1.38,0 2.5,-1.12 2.5,-2.5l0,-5Z" style="fill:none;"/><clipPath id="_clip60"><path d="M240,207c0,-1.38 -1.12,-2.5 -2.5,-2.5l-5,0c-1.38,0 -2.5,1.12 -2.5,2.5l0,5c0,1.38 1.12,2.5 2.5,2.5l5,0c1.38,0 2.5,-1.12 2.5,-2.5l0,-5Z"/></clipPath><g clip-path="url(#_clip60)"><circle cx="235" cy="209.5" r="1.5" style="fill:#e3d69c;stroke:#e3d69c;stroke-width:0.9px;"/></g><path d="M240,207c0,-1.38 -1.12,-2.5 -2.5,-2.5l-5,0c-1.38,0 -2.5,1.12 -2.5,2.5l0,5c0,1.38 1.12,2.5 2.5,2.5l5,0c1.38,0 2.5,-1.12 2.5,-2.5l0,-5Z" style="fill:none;stroke:#e3d69c;stroke-width:0.9px;"/><path d="M240,237c0,-1.38 -1.12,-2.5 -2.5,-2.5l-5,0c-1.38,0 -2.5,1.12 -2.5,2.5l0,5c0,1.38 1.12,2.5 2.5,2.5l5,0c1.38,0 2.5,-1.12 2.5,-2.5l0,-5Z" style="fill:none;"/><clipPath id="_clip61"><path d="M240,237c0,-1.38 -1.12,-2.5 -2.5,-2.5l-5,0c-1.38,0 -2.5,1.12 -2.5,2.5l0,5c0,1.38 1.12,2.5 2.5,2.5l5,0c1.38,0 2.5,-1.12 2.5,-2.5l0,-5Z"/></clipPath><g clip-path="url(#_clip61)"><circle cx="235" cy="239.5" r="1.5" style="fill:#e3d69c;stroke:#e3d69c;stroke-width:0.9px;"/></g><path d="M240,237c0,-1.38 -1.12,-2.5 -2.5,-2.5l-5,0c-1.38,0 -2.5,1.12 -2.5,2.5l0,5c0,1.38 1.12,2.5 2.5,2.5l5,0c1.38,0 2.5,-1.12 2.5,-2.5l0,-5Z" style="fill:none;stroke:#e3d69c;stroke-width:0.9px;"/><path d="M240,267c0,-1.38 -1.12,-2.5 -2.5,-2.5l-5,0c-1.38,0 -2.5,1.12 -2.5,2.5l0,5c0,1.38 1.12,2.5 2.5,2.5l5,0c1.38,0 2.5,-1.12 2.5,-2.5l0,-5Z" style="fill:none;"/><clipPath id="_clip62"><path d="M240,267c0,-1.38 -1.12,-2.5 -2.5,-2.5l-5,0c-1.38,0 -2.5,1.12 -2.5,2.5l0,5c0,1.38 1.12,2.5 2.5,2.5l5,0c1.38,0 2.5,-1.12 2.5,-2.5l0,-5Z"/></clipPath><g clip-path="url(#_clip62)"><circle cx="235" cy="269.5" r="1.5" style="fill:#e3d69c;stroke:#e3d69c;stroke-width:0.9px;"/></g><path d="M240,267c0,-1.38 -1.12,-2.5 -2.5,-2.5l-5,0c-1.38,0 -2.5,1.12 -2.5,2.5l0,5c0,1.38 1.12,2.5 2.5,2.5l5,0c1.38,0 2.5,-1.12 2.5,-2.5l0,-5Z" style="fill:none;stroke:#e3d69c;stroke-width:0.9px;"/></g><g><path d="M270,27c0,-1.38 -1.12,-2.5 -2.5,-2.5l-5,0c-1.38,0 -2.5,1.12 -2.5,2.5l0,5c0,1.38 1.12,2.5 2.5,2.5l5,0c1.38,0 2.5,-1.12 2.5,-2.5l0,-5Z" style="fill:none;"/><clipPath id="_clip63"><path d="M270,27c0,-1.38 -1.12,-2.5 -2.5,-2.5l-5,0c-1.38,0 -2.5,1.12 -2.5,2.5l0,5c0,1.38 1.12,2.5 2.5,2.5l5,0c1.38,0 2.5,-1.12 2.5,-2.5l0,-5Z"/></clipPath><g clip-path="url(#_clip63)"><circle cx="265" cy="29.5" r="1.5" style="fill:#e3d69c;stroke:#e3d69c;stroke-width:0.9px;"/></g><path d="M270,27c0,-1.38 -1.12,-2.5 -2.5,-2.5l-5,0c-1.38,0 -2.5,1.12 -2.5,2.5l0,5c0,1.38 1.12,2.5 2.5,2.5l5,0c1.38,0 2.5,-1.12 2.5,-2.5l0,-5Z" style="fill:none;stroke:#e3d69c;stroke-width:0.9px;"/><path d="M270,57c0,-1.38 -1.12,-2.5 -2.5,-2.5l-5,0c-1.38,0 -2.5,1.12 -2.5,2.5l0,5c0,1.38 1.12,2.5 2.5,2.5l5,0c1.38,0 2.5,-1.12 2.5,-2.5l0,-5Z" style="fill:none;"/><clipPath id="_clip64"><path d="M270,57c0,-1.38 -1.12,-2.5 -2.5,-2.5l-5,0c-1.38,0 -2.5,1.12 -2.5,2.5l0,5c0,1.38 1.12,2.5 2.5,2.5l5,0c1.38,0 2.5,-1.12 2.5,-2.5l0,-5Z"/></clipPath><g clip-path="url(#_clip64)"><circle cx="265" cy="59.5" r="1.5" style="fill:#e3d69c;stroke:#e3d69c;stroke-width:0.9px;"/></g><path d="M270,57c0,-1.38 -1.12,-2.5 -2.5,-2.5l-5,0c-1.38,0 -2.5,1.12 -2.5,2.5l0,5c0,1.38 1.12,2.5 2.5,2.5l5,0c1.38,0 2.5,-1.12 2.5,-2.5l0,-5Z" style="fill:none;stroke:#e3d69c;stroke-width:0.9px;"/><path d="M270,87c0,-1.38 -1.12,-2.5 -2.5,-2.5l-5,0c-1.38,0 -2.5,1.12 -2.5,2.5l0,5c0,1.38 1.12,2.5 2.5,2.5l5,0c1.38,0 2.5,-1.12 2.5,-2.5l0,-5Z" style="fill:none;"/><clipPath id="_clip65"><path d="M270,87c0,-1.38 -1.12,-2.5 -2.5,-2.5l-5,0c-1.38,0 -2.5,1.12 -2.5,2.5l0,5c0,1.38 1.12,2.5 2.5,2.5l5,0c1.38,0 2.5,-1.12 2.5,-2.5l0,-5Z"/></clipPath><g clip-path="url(#_clip65)"><circle cx="265" cy="89.5" r="1.5" style="fill:#e3d69c;stroke:#e3d69c;stroke-width:0.9px;"/></g><path d="M270,87c0,-1.38 -1.12,-2.5 -2.5,-2.5l-5,0c-1.38,0 -2.5,1.12 -2.5,2.5l0,5c0,1.38 1.12,2.5 2.5,2.5l5,0c1.38,0 2.5,-1.12 2.5,-2.5l0,-5Z" style="fill:none;stroke:#e3d69c;stroke-width:0.9px;"/><path d="M270,117c0,-1.38 -1.12,-2.5 -2.5,-2.5l-5,0c-1.38,0 -2.5,1.12 -2.5,2.5l0,5c0,1.38 1.12,2.5 2.5,2.5l5,0c1.38,0 2.5,-1.12 2.5,-2.5l0,-5Z" style="fill:none;"/><clipPath id="_clip66"><path d="M270,117c0,-1.38 -1.12,-2.5 -2.5,-2.5l-5,0c-1.38,0 -2.5,1.12 -2.5,2.5l0,5c0,1.38 1.12,2.5 2.5,2.5l5,0c1.38,0 2.5,-1.12 2.5,-2.5l0,-5Z"/></clipPath><g clip-path="url(#_clip66)"><circle cx="265" cy="119.5" r="1.5" style="fill:#e3d69c;stroke:#e3d69c;stroke-width:0.9px;"/></g><path d="M270,117c0,-1.38 -1.12,-2.5 -2.5,-2.5l-5,0c-1.38,0 -2.5,1.12 -2.5,2.5l0,5c0,1.38 1.12,2.5 2.5,2.5l5,0c1.38,0 2.5,-1.12 2.5,-2.5l0,-5Z" style="fill:none;stroke:#e3d69c;stroke-width:0.9px;"/><g><circle cx="265" cy="149.5" r="1.5" style="fill:#be3a30;stroke:#be3a30;stroke-width:0.9px;"/><path d="M265,144.5c2.76,0 5,2.24 5,5c0,2.76 -2.24,5 -5,5c-2.76,0 -5,-2.24 -5,-5c0,-2.76 2.24,-5 5,-5Zm0,1.25c2.07,0 3.75,1.68 3.75,3.75c0,2.07 -1.68,3.75 -3.75,3.75c-2.07,0 -3.75,-1.68 -3.75,-3.75c0,-2.07 1.68,-3.75 3.75,-3.75Z" style="fill:#be3a30;stroke:#be3a30;stroke-width:0.9px;"/></g><path d="M270,177c0,-1.38 -1.12,-2.5 -2.5,-2.5l-5,0c-1.38,0 -2.5,1.12 -2.5,2.5l0,5c0,1.38 1.12,2.5 2.5,2.5l5,0c1.38,0 2.5,-1.12 2.5,-2.5l0,-5Z" style="fill:none;"/><clipPath id="_clip67"><path d="M270,177c0,-1.38 -1.12,-2.5 -2.5,-2.5l-5,0c-1.38,0 -2.5,1.12 -2.5,2.5l0,5c0,1.38 1.12,2.5 2.5,2.5l5,0c1.38,0 2.5,-1.12 2.5,-2.5l0,-5Z"/></clipPath><g clip-path="url(#_clip67)"><circle cx="265" cy="179.5" r="1.5" style="fill:#e3d69c;stroke:#e3d69c;stroke-width:0.9px;"/></g><path d="M270,177c0,-1.38 -1.12,-2.5 -2.5,-2.5l-5,0c-1.38,0 -2.5,1.12 -2.5,2.5l0,5c0,1.38 1.12,2.5 2.5,2.5l5,0c1.38,0 2.5,-1.12 2.5,-2.5l0,-5Z" style="fill:none;stroke:#e3d69c;stroke-width:0.9px;"/><path d="M270,207c0,-1.38 -1.12,-2.5 -2.5,-2.5l-5,0c-1.38,0 -2.5,1.12 -2.5,2.5l0,5c0,1.38 1.12,2.5 2.5,2.5l5,0c1.38,0 2.5,-1.12 2.5,-2.5l0,-5Z" style="fill:none;"/><clipPath id="_clip68"><path d="M270,207c0,-1.38 -1.12,-2.5 -2.5,-2.5l-5,0c-1.38,0 -2.5,1.12 -2.5,2.5l0,5c0,1.38 1.12,2.5 2.5,2.5l5,0c1.38,0 2.5,-1.12 2.5,-2.5l0,-5Z"/></clipPath><g clip-path="url(#_clip68)"><circle cx="265" cy="209.5" r="1.5" style="fill:#e3d69c;stroke:#e3d69c;stroke-width:0.9px;"/></g><path d="M270,207c0,-1.38 -1.12,-2.5 -2.5,-2.5l-5,0c-1.38,0 -2.5,1.12 -2.5,2.5l0,5c0,1.38 1.12,2.5 2.5,2.5l5,0c1.38,0 2.5,-1.12 2.5,-2.5l0,-5Z" style="fill:none;stroke:#e3d69c;stroke-width:0.9px;"/><path d="M270,237c0,-1.38 -1.12,-2.5 -2.5,-2.5l-5,0c-1.38,0 -2.5,1.12 -2.5,2.5l0,5c0,1.38 1.12,2.5 2.5,2.5l5,0c1.38,0 2.5,-1.12 2.5,-2.5l0,-5Z" style="fill:none;"/><clipPath id="_clip69"><path d="M270,237c0,-1.38 -1.12,-2.5 -2.5,-2.5l-5,0c-1.38,0 -2.5,1.12 -2.5,2.5l0,5c0,1.38 1.12,2.5 2.5,2.5l5,0c1.38,0 2.5,-1.12 2.5,-2.5l0,-5Z"/></clipPath><g clip-path="url(#_clip69)"><circle cx="265" cy="239.5" r="1.5" style="fill:#e3d69c;stroke:#e3d69c;stroke-width:0.9px;"/></g><path d="M270,237c0,-1.38 -1.12,-2.5 -2.5,-2.5l-5,0c-1.38,0 -2.5,1.12 -2.5,2.5l0,5c0,1.38 1.12,2.5 2.5,2.5l5,0c1.38,0 2.5,-1.12 2.5,-2.5l0,-5Z" style="fill:none;stroke:#e3d69c;stroke-width:0.9px;"/><path d="M270,267c0,-1.38 -1.12,-2.5 -2.5,-2.5l-5,0c-1.38,0 -2.5,1.12 -2.5,2.5l0,5c0,1.38 1.12,2.5 2.5,2.5l5,0c1.38,0 2.5,-1.12 2.5,-2.5l0,-5Z" style="fill:none;"/><clipPath id="_clip70"><path d="M270,267c0,-1.38 -1.12,-2.5 -2.5,-2.5l-5,0c-1.38,0 -2.5,1.12 -2.5,2.5l0,5c0,1.38 1.12,2.5 2.5,2.5l5,0c1.38,0 2.5,-1.12 2.5,-2.5l0,-5Z"/></clipPath><g clip-path="url(#_clip70)"><circle cx="265" cy="269.5" r="1.5" style="fill:#e3d69c;stroke:#e3d69c;stroke-width:0.9px;"/></g><path d="M270,267c0,-1.38 -1.12,-2.5 -2.5,-2.5l-5,0c-1.38,0 -2.5,1.12 -2.5,2.5l0,5c0,1.38 1.12,2.5 2.5,2.5l5,0c1.38,0 2.5,-1.12 2.5,-2.5l0,-5Z" style="fill:none;stroke:#e3d69c;stroke-width:0.9px;"/></g><g><path d="M300,27c0,-1.38 -1.12,-2.5 -2.5,-2.5l-5,0c-1.38,0 -2.5,1.12 -2.5,2.5l0,5c0,1.38 1.12,2.5 2.5,2.5l5,0c1.38,0 2.5,-1.12 2.5,-2.5l0,-5Z" style="fill:none;"/><clipPath id="_clip71"><path d="M300,27c0,-1.38 -1.12,-2.5 -2.5,-2.5l-5,0c-1.38,0 -2.5,1.12 -2.5,2.5l0,5c0,1.38 1.12,2.5 2.5,2.5l5,0c1.38,0 2.5,-1.12 2.5,-2.5l0,-5Z"/></clipPath><g clip-path="url(#_clip71)"><circle cx="295" cy="29.5" r="1.5" style="fill:#e3d69c;stroke:#e3d69c;stroke-width:0.9px;"/></g><path d="M300,27c0,-1.38 -1.12,-2.5 -2.5,-2.5l-5,0c-1.38,0 -2.5,1.12 -2.5,2.5l0,5c0,1.38 1.12,2.5 2.5,2.5l5,0c1.38,0 2.5,-1.12 2.5,-2.5l0,-5Z" style="fill:none;stroke:#e3d69c;stroke-width:0.9px;"/><path d="M300,57c0,-1.38 -1.12,-2.5 -2.5,-2.5l-5,0c-1.38,0 -2.5,1.12 -2.5,2.5l0,5c0,1.38 1.12,2.5 2.5,2.5l5,0c1.38,0 2.5,-1.12 2.5,-2.5l0,-5Z" style="fill:none;"/><clipPath id="_clip72"><path d="M300,57c0,-1.38 -1.12,-2.5 -2.5,-2.5l-5,0c-1.38,0 -2.5,1.12 -2.5,2.5l0,5c0,1.38 1.12,2.5 2.5,2.5l5,0c1.38,0 2.5,-1.12 2.5,-2.5l0,-5Z"/></clipPath><g clip-path="url(#_clip72)"><circle cx="295" cy="59.5" r="1.5" style="fill:#e3d69c;stroke:#e3d69c;stroke-width:0.9px;"/></g><path d="M300,57c0,-1.38 -1.12,-2.5 -2.5,-2.5l-5,0c-1.38,0 -2.5,1.12 -2.5,2.5l0,5c0,1.38 1.12,2.5 2.5,2.5l5,0c1.38,0 2.5,-1.12 2.5,-2.5l0,-5Z" style="fill:none;stroke:#e3d69c;stroke-width:0.9px;"/><path d="M300,87c0,-1.38 -1.12,-2.5 -2.5,-2.5l-5,0c-1.38,0 -2.5,1.12 -2.5,2.5l0,5c0,1.38 1.12,2.5 2.5,2.5l5,0c1.38,0 2.5,-1.12 2.5,-2.5l0,-5Z" style="fill:none;"/><clipPath id="_clip73"><path d="M300,87c0,-1.38 -1.12,-2.5 -2.5,-2.5l-5,0c-1.38,0 -2.5,1.12 -2.5,2.5l0,5c0,1.38 1.12,2.5 2.5,2.5l5,0c1.38,0 2.5,-1.12 2.5,-2.5l0,-5Z"/></clipPath><g clip-path="url(#_clip73)"><circle cx="295" cy="89.5" r="1.5" style="fill:#e3d69c;stroke:#e3d69c;stroke-width:0.9px;"/></g><path d="M300,87c0,-1.38 -1.12,-2.5 -2.5,-2.5l-5,0c-1.38,0 -2.5,1.12 -2.5,2.5l0,5c0,1.38 1.12,2.5 2.5,2.5l5,0c1.38,0 2.5,-1.12 2.5,-2.5l0,-5Z" style="fill:none;stroke:#e3d69c;stroke-width:0.9px;"/><path d="M300,117c0,-1.38 -1.12,-2.5 -2.5,-2.5l-5,0c-1.38,0 -2.5,1.12 -2.5,2.5l0,5c0,1.38 1.12,2.5 2.5,2.5l5,0c1.38,0 2.5,-1.12 2.5,-2.5l0,-5Z" style="fill:none;"/><clipPath id="_clip74"><path d="M300,117c0,-1.38 -1.12,-2.5 -2.5,-2.5l-5,0c-1.38,0 -2.5,1.12 -2.5,2.5l0,5c0,1.38 1.12,2.5 2.5,2.5l5,0c1.38,0 2.5,-1.12 2.5,-2.5l0,-5Z"/></clipPath><g clip-path="url(#_clip74)"><circle cx="295" cy="119.5" r="1.5" style="fill:#e3d69c;stroke:#e3d69c;stroke-width:0.9px;"/></g><path d="M300,117c0,-1.38 -1.12,-2.5 -2.5,-2.5l-5,0c-1.38,0 -2.5,1.12 -2.5,2.5l0,5c0,1.38 1.12,2.5 2.5,2.5l5,0c1.38,0 2.5,-1.12 2.5,-2.5l0,-5Z" style="fill:none;stroke:#e3d69c;stroke-width:0.9px;"/><g><circle cx="295" cy="149.5" r="1.5" style="fill:#be3a30;stroke:#be3a30;stroke-width:0.9px;"/><path d="M295,144.5c2.76,0 5,2.24 5,5c0,2.76 -2.24,5 -5,5c-2.76,0 -5,-2.24 -5,-5c0,-2.76 2.24,-5 5,-5Zm0,1.25c2.07,0 3.75,1.68 3.75,3.75c0,2.07 -1.68,3.75 -3.75,3.75c-2.07,0 -3.75,-1.68 -3.75,-3.75c0,-2.07 1.68,-3.75 3.75,-3.75Z" style="fill:#be3a30;stroke:#be3a30;stroke-width:0.9px;"/></g><path d="M300,177c0,-1.38 -1.12,-2.5 -2.5,-2.5l-5,0c-1.38,0 -2.5,1.12 -2.5,2.5l0,5c0,1.38 1.12,2.5 2.5,2.5l5,0c1.38,0 2.5,-1.12 2.5,-2.5l0,-5Z" style="fill:none;"/><clipPath id="_clip75"><path d="M300,177c0,-1.38 -1.12,-2.5 -2.5,-2.5l-5,0c-1.38,0 -2.5,1.12 -2.5,2.5l0,5c0,1.38 1.12,2.5 2.5,2.5l5,0c1.38,0 2.5,-1.12 2.5,-2.5l0,-5Z"/></clipPath><g clip-path="url(#_clip75)"><circle cx="295" cy="179.5" r="1.5" style="fill:#e3d69c;stroke:#e3d69c;stroke-width:0.9px;"/></g><path d="M300,177c0,-1.38 -1.12,-2.5 -2.5,-2.5l-5,0c-1.38,0 -2.5,1.12 -2.5,2.5l0,5c0,1.38 1.12,2.5 2.5,2.5l5,0c1.38,0 2.5,-1.12 2.5,-2.5l0,-5Z" style="fill:none;stroke:#e3d69c;stroke-width:0.9px;"/><path d="M300,207c0,-1.38 -1.12,-2.5 -2.5,-2.5l-5,0c-1.38,0 -2.5,1.12 -2.5,2.5l0,5c0,1.38 1.12,2.5 2.5,2.5l5,0c1.38,0 2.5,-1.12 2.5,-2.5l0,-5Z" style="fill:none;"/><clipPath id="_clip76"><path d="M300,207c0,-1.38 -1.12,-2.5 -2.5,-2.5l-5,0c-1.38,0 -2.5,1.12 -2.5,2.5l0,5c0,1.38 1.12,2.5 2.5,2.5l5,0c1.38,0 2.5,-1.12 2.5,-2.5l0,-5Z"/></clipPath><g clip-path="url(#_clip76)"><circle cx="295" cy="209.5" r="1.5" style="fill:#e3d69c;stroke:#e3d69c;stroke-width:0.9px;"/></g><path d="M300,207c0,-1.38 -1.12,-2.5 -2.5,-2.5l-5,0c-1.38,0 -2.5,1.12 -2.5,2.5l0,5c0,1.38 1.12,2.5 2.5,2.5l5,0c1.38,0 2.5,-1.12 2.5,-2.5l0,-5Z" style="fill:none;stroke:#e3d69c;stroke-width:0.9px;"/><path d="M300,237c0,-1.38 -1.12,-2.5 -2.5,-2.5l-5,0c-1.38,0 -2.5,1.12 -2.5,2.5l0,5c0,1.38 1.12,2.5 2.5,2.5l5,0c1.38,0 2.5,-1.12 2.5,-2.5l0,-5Z" style="fill:none;"/><clipPath id="_clip77"><path d="M300,237c0,-1.38 -1.12,-2.5 -2.5,-2.5l-5,0c-1.38,0 -2.5,1.12 -2.5,2.5l0,5c0,1.38 1.12,2.5 2.5,2.5l5,0c1.38,0 2.5,-1.12 2.5,-2.5l0,-5Z"/></clipPath><g clip-path="url(#_clip77)"><circle cx="295" cy="239.5" r="1.5" style="fill:#e3d69c;stroke:#e3d69c;stroke-width:0.9px;"/></g><path d="M300,237c0,-1.38 -1.12,-2.5 -2.5,-2.5l-5,0c-1.38,0 -2.5,1.12 -2.5,2.5l0,5c0,1.38 1.12,2.5 2.5,2.5l5,0c1.38,0 2.5,-1.12 2.5,-2.5l0,-5Z" style="fill:none;stroke:#e3d69c;stroke-width:0.9px;"/><path d="M300,267c0,-1.38 -1.12,-2.5 -2.5,-2.5l-5,0c-1.38,0 -2.5,1.12 -2.5,2.5l0,5c0,1.38 1.12,2.5 2.5,2.5l5,0c1.38,0 2.5,-1.12 2.5,-2.5l0,-5Z" style="fill:none;"/><clipPath id="_clip78"><path d="M300,267c0,-1.38 -1.12,-2.5 -2.5,-2.5l-5,0c-1.38,0 -2.5,1.12 -2.5,2.5l0,5c0,1.38 1.12,2.5 2.5,2.5l5,0c1.38,0 2.5,-1.12 2.5,-2.5l0,-5Z"/></clipPath><g clip-path="url(#_clip78)"><circle cx="295" cy="269.5" r="1.5" style="fill:#e3d69c;stroke:#e3d69c;stroke-width:0.9px;"/></g><path d="M300,267c0,-1.38 -1.12,-2.5 -2.5,-2.5l-5,0c-1.38,0 -2.5,1.12 -2.5,2.5l0,5c0,1.38 1.12,2.5 2.5,2.5l5,0c1.38,0 2.5,-1.12 2.5,-2.5l0,-5Z" style="fill:none;stroke:#e3d69c;stroke-width:0.9px;"/></g><g><path d="M330,27c0,-1.38 -1.12,-2.5 -2.5,-2.5l-5,0c-1.38,0 -2.5,1.12 -2.5,2.5l0,5c0,1.38 1.12,2.5 2.5,2.5l5,0c1.38,0 2.5,-1.12 2.5,-2.5l0,-5Z" style="fill:none;"/><clipPath id="_clip79"><path d="M330,27c0,-1.38 -1.12,-2.5 -2.5,-2.5l-5,0c-1.38,0 -2.5,1.12 -2.5,2.5l0,5c0,1.38 1.12,2.5 2.5,2.5l5,0c1.38,0 2.5,-1.12 2.5,-2.5l0,-5Z"/></clipPath><g clip-path="url(#_clip79)"><circle cx="325" cy="29.5" r="1.5" style="fill:#e3d69c;stroke:#e3d69c;stroke-width:0.9px;"/></g><path d="M330,27c0,-1.38 -1.12,-2.5 -2.5,-2.5l-5,0c-1.38,0 -2.5,1.12 -2.5,2.5l0,5c0,1.38 1.12,2.5 2.5,2.5l5,0c1.38,0 2.5,-1.12 2.5,-2.5l0,-5Z" style="fill:none;stroke:#e3d69c;stroke-width:0.9px;"/><path d="M330,57c0,-1.38 -1.12,-2.5 -2.5,-2.5l-5,0c-1.38,0 -2.5,1.12 -2.5,2.5l0,5c0,1.38 1.12,2.5 2.5,2.5l5,0c1.38,0 2.5,-1.12 2.5,-2.5l0,-5Z" style="fill:none;"/><clipPath id="_clip80"><path d="M330,57c0,-1.38 -1.12,-2.5 -2.5,-2.5l-5,0c-1.38,0 -2.5,1.12 -2.5,2.5l0,5c0,1.38 1.12,2.5 2.5,2.5l5,0c1.38,0 2.5,-1.12 2.5,-2.5l0,-5Z"/></clipPath><g clip-path="url(#_clip80)"><circle cx="325" cy="59.5" r="1.5" style="fill:#e3d69c;stroke:#e3d69c;stroke-width:0.9px;"/></g><path d="M330,57c0,-1.38 -1.12,-2.5 -2.5,-2.5l-5,0c-1.38,0 -2.5,1.12 -2.5,2.5l0,5c0,1.38 1.12,2.5 2.5,2.5l5,0c1.38,0 2.5,-1.12 2.5,-2.5l0,-5Z" style="fill:none;stroke:#e3d69c;stroke-width:0.9px;"/><path d="M330,87c0,-1.38 -1.12,-2.5 -2.5,-2.5l-5,0c-1.38,0 -2.5,1.12 -2.5,2.5l0,5c0,1.38 1.12,2.5 2.5,2.5l5,0c1.38,0 2.5,-1.12 2.5,-2.5l0,-5Z" style="fill:none;"/><clipPath id="_clip81"><path d="M330,87c0,-1.38 -1.12,-2.5 -2.5,-2.5l-5,0c-1.38,0 -2.5,1.12 -2.5,2.5l0,5c0,1.38 1.12,2.5 2.5,2.5l5,0c1.38,0 2.5,-1.12 2.5,-2.5l0,-5Z"/></clipPath><g clip-path="url(#_clip81)"><circle cx="325" cy="89.5" r="1.5" style="fill:#e3d69c;stroke:#e3d69c;stroke-width:0.9px;"/></g><path d="M330,87c0,-1.38 -1.12,-2.5 -2.5,-2.5l-5,0c-1.38,0 -2.5,1.12 -2.5,2.5l0,5c0,1.38 1.12,2.5 2.5,2.5l5,0c1.38,0 2.5,-1.12 2.5,-2.5l0,-5Z" style="fill:none;stroke:#e3d69c;stroke-width:0.9px;"/><g><circle cx="325" cy="119.5" r="1.5" style="fill:#be3a30;stroke:#be3a30;stroke-width:0.9px;"/><path d="M325,114.5c2.76,0 5,2.24 5,5c0,2.76 -2.24,5 -5,5c-2.76,0 -5,-2.24 -5,-5c0,-2.76 2.24,-5 5,-5Zm0,1.25c2.07,0 3.75,1.68 3.75,3.75c0,2.07 -1.68,3.75 -3.75,3.75c-2.07,0 -3.75,-1.68 -3.75,-3.75c0,-2.07 1.68,-3.75 3.75,-3.75Z" style="fill:#be3a30;stroke:#be3a30;stroke-width:0.9px;"/></g><g><circle cx="325" cy="149.5" r="1.5" style="fill:#be3a30;stroke:#be3a30;stroke-width:0.9px;"/><path d="M325,144.5c2.76,0 5,2.24 5,5c0,2.76 -2.24,5 -5,5c-2.76,0 -5,-2.24 -5,-5c0,-2.76 2.24,-5 5,-5Zm0,1.25c2.07,0 3.75,1.68 3.75,3.75c0,2.07 -1.68,3.75 -3.75,3.75c-2.07,0 -3.75,-1.68 -3.75,-3.75c0,-2.07 1.68,-3.75 3.75,-3.75Z" style="fill:#be3a30;stroke:#be3a30;stroke-width:0.9px;"/></g><g><circle cx="325" cy="179.5" r="1.5" style="fill:#be3a30;stroke:#be3a30;stroke-width:0.9px;"/><path d="M325,174.5c2.76,0 5,2.24 5,5c0,2.76 -2.24,5 -5,5c-2.76,0 -5,-2.24 -5,-5c0,-2.76 2.24,-5 5,-5Zm0,1.25c2.07,0 3.75,1.68 3.75,3.75c0,2.07 -1.68,3.75 -3.75,3.75c-2.07,0 -3.75,-1.68 -3.75,-3.75c0,-2.07 1.68,-3.75 3.75,-3.75Z" style="fill:#be3a30;stroke:#be3a30;stroke-width:0.9px;"/></g><path d="M330,207c0,-1.38 -1.12,-2.5 -2.5,-2.5l-5,0c-1.38,0 -2.5,1.12 -2.5,2.5l0,5c0,1.38 1.12,2.5 2.5,2.5l5,0c1.38,0 2.5,-1.12 2.5,-2.5l0,-5Z" style="fill:none;"/><clipPath id="_clip82"><path d="M330,207c0,-1.38 -1.12,-2.5 -2.5,-2.5l-5,0c-1.38,0 -2.5,1.12 -2.5,2.5l0,5c0,1.38 1.12,2.5 2.5,2.5l5,0c1.38,0 2.5,-1.12 2.5,-2.5l0,-5Z"/></clipPath><g clip-path="url(#_clip82)"><circle cx="325" cy="209.5" r="1.5" style="fill:#e3d69c;stroke:#e3d69c;stroke-width:0.9px;"/></g><path d="M330,207c0,-1.38 -1.12,-2.5 -2.5,-2.5l-5,0c-1.38,0 -2.5,1.12 -2.5,2.5l0,5c0,1.38 1.12,2.5 2.5,2.5l5,0c1.38,0 2.5,-1.12 2.5,-2.5l0,-5Z" style="fill:none;stroke:#e3d69c;stroke-width:0.9px;"/><path d="M330,237c0,-1.38 -1.12,-2.5 -2.5,-2.5l-5,0c-1.38,0 -2.5,1.12 -2.5,2.5l0,5c0,1.38 1.12,2.5 2.5,2.5l5,0c1.38,0 2.5,-1.12 2.5,-2.5l0,-5Z" style="fill:none;"/><clipPath id="_clip83"><path d="M330,237c0,-1.38 -1.12,-2.5 -2.5,-2.5l-5,0c-1.38,0 -2.5,1.12 -2.5,2.5l0,5c0,1.38 1.12,2.5 2.5,2.5l5,0c1.38,0 2.5,-1.12 2.5,-2.5l0,-5Z"/></clipPath><g clip-path="url(#_clip83)"><circle cx="325" cy="239.5" r="1.5" style="fill:#e3d69c;stroke:#e3d69c;stroke-width:0.9px;"/></g><path d="M330,237c0,-1.38 -1.12,-2.5 -2.5,-2.5l-5,0c-1.38,0 -2.5,1.12 -2.5,2.5l0,5c0,1.38 1.12,2.5 2.5,2.5l5,0c1.38,0 2.5,-1.12 2.5,-2.5l0,-5Z" style="fill:none;stroke:#e3d69c;stroke-width:0.9px;"/><path d="M330,267c0,-1.38 -1.12,-2.5 -2.5,-2.5l-5,0c-1.38,0 -2.5,1.12 -2.5,2.5l0,5c0,1.38 1.12,2.5 2.5,2.5l5,0c1.38,0 2.5,-1.12 2.5,-2.5l0,-5Z" style="fill:none;"/><clipPath id="_clip84"><path d="M330,267c0,-1.38 -1.12,-2.5 -2.5,-2.5l-5,0c-1.38,0 -2.5,1.12 -2.5,2.5l0,5c0,1.38 1.12,2.5 2.5,2.5l5,0c1.38,0 2.5,-1.12 2.5,-2.5l0,-5Z"/></clipPath><g clip-path="url(#_clip84)"><circle cx="325" cy="269.5" r="1.5" style="fill:#e3d69c;stroke:#e3d69c;stroke-width:0.9px;"/></g><path d="M330,267c0,-1.38 -1.12,-2.5 -2.5,-2.5l-5,0c-1.38,0 -2.5,1.12 -2.5,2.5l0,5c0,1.38 1.12,2.5 2.5,2.5l5,0c1.38,0 2.5,-1.12 2.5,-2.5l0,-5Z" style="fill:none;stroke:#e3d69c;stroke-width:0.9px;"/></g><g><path d="M360,27c0,-1.38 -1.12,-2.5 -2.5,-2.5l-5,0c-1.38,0 -2.5,1.12 -2.5,2.5l0,5c0,1.38 1.12,2.5 2.5,2.5l5,0c1.38,0 2.5,-1.12 2.5,-2.5l0,-5Z" style="fill:none;"/><clipPath id="_clip85"><path d="M360,27c0,-1.38 -1.12,-2.5 -2.5,-2.5l-5,0c-1.38,0 -2.5,1.12 -2.5,2.5l0,5c0,1.38 1.12,2.5 2.5,2.5l5,0c1.38,0 2.5,-1.12 2.5,-2.5l0,-5Z"/></clipPath><g clip-path="url(#_clip85)"><circle cx="355" cy="29.5" r="1.5" style="fill:#e3d69c;stroke:#e3d69c;stroke-width:0.9px;"/></g><path d="M360,27c0,-1.38 -1.12,-2.5 -2.5,-2.5l-5,0c-1.38,0 -2.5,1.12 -2.5,2.5l0,5c0,1.38 1.12,2.5 2.5,2.5l5,0c1.38,0 2.5,-1.12 2.5,-2.5l0,-5Z" style="fill:none;stroke:#e3d69c;stroke-width:0.9px;"/><path d="M360,57c0,-1.38 -1.12,-2.5 -2.5,-2.5l-5,0c-1.38,0 -2.5,1.12 -2.5,2.5l0,5c0,1.38 1.12,2.5 2.5,2.5l5,0c1.38,0 2.5,-1.12 2.5,-2.5l0,-5Z" style="fill:none;"/><clipPath id="_clip86"><path d="M360,57c0,-1.38 -1.12,-2.5 -2.5,-2.5l-5,0c-1.38,0 -2.5,1.12 -2.5,2.5l0,5c0,1.38 1.12,2.5 2.5,2.5l5,0c1.38,0 2.5,-1.12 2.5,-2.5l0,-5Z"/></clipPath><g clip-path="url(#_clip86)"><circle cx="355" cy="59.5" r="1.5" style="fill:#e3d69c;stroke:#e3d69c;stroke-width:0.9px;"/></g><path d="M360,57c0,-1.38 -1.12,-2.5 -2.5,-2.5l-5,0c-1.38,0 -2.5,1.12 -2.5,2.5l0,5c0,1.38 1.12,2.5 2.5,2.5l5,0c1.38,0 2.5,-1.12 2.5,-2.5l0,-5Z" style="fill:none;stroke:#e3d69c;stroke-width:0.9px;"/><path d="M360,87c0,-1.38 -1.12,-2.5 -2.5,-2.5l-5,0c-1.38,0 -2.5,1.12 -2.5,2.5l0,5c0,1.38 1.12,2.5 2.5,2.5l5,0c1.38,0 2.5,-1.12 2.5,-2.5l0,-5Z" style="fill:none;"/><clipPath id="_clip87"><path d="M360,87c0,-1.38 -1.12,-2.5 -2.5,-2.5l-5,0c-1.38,0 -2.5,1.12 -2.5,2.5l0,5c0,1.38 1.12,2.5 2.5,2.5l5,0c1.38,0 2.5,-1.12 2.5,-2.5l0,-5Z"/></clipPath><g clip-path="url(#_clip87)"><circle cx="355" cy="89.5" r="1.5" style="fill:#e3d69c;stroke:#e3d69c;stroke-width:0.9px;"/></g><path d="M360,87c0,-1.38 -1.12,-2.5 -2.5,-2.5l-5,0c-1.38,0 -2.5,1.12 -2.5,2.5l0,5c0,1.38 1.12,2.5 2.5,2.5l5,0c1.38,0 2.5,-1.12 2.5,-2.5l0,-5Z" style="fill:none;stroke:#e3d69c;stroke-width:0.9px;"/><path d="M360,117c0,-1.38 -1.12,-2.5 -2.5,-2.5l-5,0c-1.38,0 -2.5,1.12 -2.5,2.5l0,5c0,1.38 1.12,2.5 2.5,2.5l5,0c1.38,0 2.5,-1.12 2.5,-2.5l0,-5Z" style="fill:none;"/><clipPath id="_clip88"><path d="M360,117c0,-1.38 -1.12,-2.5 -2.5,-2.5l-5,0c-1.38,0 -2.5,1.12 -2.5,2.5l0,5c0,1.38 1.12,2.5 2.5,2.5l5,0c1.38,0 2.5,-1.12 2.5,-2.5l0,-5Z"/></clipPath><g clip-path="url(#_clip88)"><circle cx="355" cy="119.5" r="1.5" style="fill:#e3d69c;stroke:#e3d69c;stroke-width:0.9px;"/></g><path d="M360,117c0,-1.38 -1.12,-2.5 -2.5,-2.5l-5,0c-1.38,0 -2.5,1.12 -2.5,2.5l0,5c0,1.38 1.12,2.5 2.5,2.5l5,0c1.38,0 2.5,-1.12 2.5,-2.5l0,-5Z" style="fill:none;stroke:#e3d69c;stroke-width:0.9px;"/><path d="M360,147c0,-1.38 -1.12,-2.5 -2.5,-2.5l-5,0c-1.38,0 -2.5,1.12 -2.5,2.5l0,5c0,1.38 1.12,2.5 2.5,2.5l5,0c1.38,0 2.5,-1.12 2.5,-2.5l0,-5Z" style="fill:none;"/><clipPath id="_clip89"><path d="M360,147c0,-1.38 -1.12,-2.5 -2.5,-2.5l-5,0c-1.38,0 -2.5,1.12 -2.5,2.5l0,5c0,1.38 1.12,2.5 2.5,2.5l5,0c1.38,0 2.5,-1.12 2.5,-2.5l0,-5Z"/></clipPath><g clip-path="url(#_clip89)"><circle cx="355" cy="149.5" r="1.5" style="fill:#e3d69c;stroke:#e3d69c;stroke-width:0.9px;"/></g><path d="M360,147c0,-1.38 -1.12,-2.5 -2.5,-2.5l-5,0c-1.38,0 -2.5,1.12 -2.5,2.5l0,5c0,1.38 1.12,2.5 2.5,2.5l5,0c1.38,0 2.5,-1.12 2.5,-2.5l0,-5Z" style="fill:none;stroke:#e3d69c;stroke-width:0.9px;"/><path d="M360,177c0,-1.38 -1.12,-2.5 -2.5,-2.5l-5,0c-1.38,0 -2.5,1.12 -2.5,2.5l0,5c0,1.38 1.12,2.5 2.5,2.5l5,0c1.38,0 2.5,-1.12 2.5,-2.5l0,-5Z" style="fill:none;"/><clipPath id="_clip90"><path d="M360,177c0,-1.38 -1.12,-2.5 -2.5,-2.5l-5,0c-1.38,0 -2.5,1.12 -2.5,2.5l0,5c0,1.38 1.12,2.5 2.5,2.5l5,0c1.38,0 2.5,-1.12 2.5,-2.5l0,-5Z"/></clipPath><g clip-path="url(#_clip90)"><circle cx="355" cy="179.5" r="1.5" style="fill:#e3d69c;stroke:#e3d69c;stroke-width:0.9px;"/></g><path d="M360,177c0,-1.38 -1.12,-2.5 -2.5,-2.5l-5,0c-1.38,0 -2.5,1.12 -2.5,2.5l0,5c0,1.38 1.12,2.5 2.5,2.5l5,0c1.38,0 2.5,-1.12 2.5,-2.5l0,-5Z" style="fill:none;stroke:#e3d69c;stroke-width:0.9px;"/><path d="M360,207c0,-1.38 -1.12,-2.5 -2.5,-2.5l-5,0c-1.38,0 -2.5,1.12 -2.5,2.5l0,5c0,1.38 1.12,2.5 2.5,2.5l5,0c1.38,0 2.5,-1.12 2.5,-2.5l0,-5Z" style="fill:none;"/><clipPath id="_clip91"><path d="M360,207c0,-1.38 -1.12,-2.5 -2.5,-2.5l-5,0c-1.38,0 -2.5,1.12 -2.5,2.5l0,5c0,1.38 1.12,2.5 2.5,2.5l5,0c1.38,0 2.5,-1.12 2.5,-2.5l0,-5Z"/></clipPath><g clip-path="url(#_clip91)"><circle cx="355" cy="209.5" r="1.5" style="fill:#e3d69c;stroke:#e3d69c;stroke-width:0.9px;"/></g><path d="M360,207c0,-1.38 -1.12,-2.5 -2.5,-2.5l-5,0c-1.38,0 -2.5,1.12 -2.5,2.5l0,5c0,1.38 1.12,2.5 2.5,2.5l5,0c1.38,0 2.5,-1.12 2.5,-2.5l0,-5Z" style="fill:none;stroke:#e3d69c;stroke-width:0.9px;"/><path d="M360,237c0,-1.38 -1.12,-2.5 -2.5,-2.5l-5,0c-1.38,0 -2.5,1.12 -2.5,2.5l0,5c0,1.38 1.12,2.5 2.5,2.5l5,0c1.38,0 2.5,-1.12 2.5,-2.5l0,-5Z" style="fill:none;"/><clipPath id="_clip92"><path d="M360,237c0,-1.38 -1.12,-2.5 -2.5,-2.5l-5,0c-1.38,0 -2.5,1.12 -2.5,2.5l0,5c0,1.38 1.12,2.5 2.5,2.5l5,0c1.38,0 2.5,-1.12 2.5,-2.5l0,-5Z"/></clipPath><g clip-path="url(#_clip92)"><circle cx="355" cy="239.5" r="1.5" style="fill:#e3d69c;stroke:#e3d69c;stroke-width:0.9px;"/></g><path d="M360,237c0,-1.38 -1.12,-2.5 -2.5,-2.5l-5,0c-1.38,0 -2.5,1.12 -2.5,2.5l0,5c0,1.38 1.12,2.5 2.5,2.5l5,0c1.38,0 2.5,-1.12 2.5,-2.5l0,-5Z" style="fill:none;stroke:#e3d69c;stroke-width:0.9px;"/><path d="M360,267c0,-1.38 -1.12,-2.5 -2.5,-2.5l-5,0c-1.38,0 -2.5,1.12 -2.5,2.5l0,5c0,1.38 1.12,2.5 2.5,2.5l5,0c1.38,0 2.5,-1.12 2.5,-2.5l0,-5Z" style="fill:none;"/><clipPath id="_clip93"><path d="M360,267c0,-1.38 -1.12,-2.5 -2.5,-2.5l-5,0c-1.38,0 -2.5,1.12 -2.5,2.5l0,5c0,1.38 1.12,2.5 2.5,2.5l5,0c1.38,0 2.5,-1.12 2.5,-2.5l0,-5Z"/></clipPath><g clip-path="url(#_clip93)"><circle cx="355" cy="269.5" r="1.5" style="fill:#e3d69c;stroke:#e3d69c;stroke-width:0.9px;"/></g><path d="M360,267c0,-1.38 -1.12,-2.5 -2.5,-2.5l-5,0c-1.38,0 -2.5,1.12 -2.5,2.5l0,5c0,1.38 1.12,2.5 2.5,2.5l5,0c1.38,0 2.5,-1.12 2.5,-2.5l0,-5Z" style="fill:none;stroke:#e3d69c;stroke-width:0.9px;"/></g><g><path d="M390,27c0,-1.38 -1.12,-2.5 -2.5,-2.5l-5,0c-1.38,0 -2.5,1.12 -2.5,2.5l0,5c0,1.38 1.12,2.5 2.5,2.5l5,0c1.38,0 2.5,-1.12 2.5,-2.5l0,-5Z" style="fill:none;"/><clipPath id="_clip94"><path d="M390,27c0,-1.38 -1.12,-2.5 -2.5,-2.5l-5,0c-1.38,0 -2.5,1.12 -2.5,2.5l0,5c0,1.38 1.12,2.5 2.5,2.5l5,0c1.38,0 2.5,-1.12 2.5,-2.5l0,-5Z"/></clipPath><g clip-path="url(#_clip94)"><circle cx="385" cy="29.5" r="1.5" style="fill:#e3d69c;stroke:#e3d69c;stroke-width:0.9px;"/></g><path d="M390,27c0,-1.38 -1.12,-2.5 -2.5,-2.5l-5,0c-1.38,0 -2.5,1.12 -2.5,2.5l0,5c0,1.38 1.12,2.5 2.5,2.5l5,0c1.38,0 2.5,-1.12 2.5,-2.5l0,-5Z" style="fill:none;stroke:#e3d69c;stroke-width:0.9px;"/><path d="M390,57c0,-1.38 -1.12,-2.5 -2.5,-2.5l-5,0c-1.38,0 -2.5,1.12 -2.5,2.5l0,5c0,1.38 1.12,2.5 2.5,2.5l5,0c1.38,0 2.5,-1.12 2.5,-2.5l0,-5Z" style="fill:none;"/><clipPath id="_clip95"><path d="M390,57c0,-1.38 -1.12,-2.5 -2.5,-2.5l-5,0c-1.38,0 -2.5,1.12 -2.5,2.5l0,5c0,1.38 1.12,2.5 2.5,2.5l5,0c1.38,0 2.5,-1.12 2.5,-2.5l0,-5Z"/></clipPath><g clip-path="url(#_clip95)"><circle cx="385" cy="59.5" r="1.5" style="fill:#e3d69c;stroke:#e3d69c;stroke-width:0.9px;"/></g><path d="M390,57c0,-1.38 -1.12,-2.5 -2.5,-2.5l-5,0c-1.38,0 -2.5,1.12 -2.5,2.5l0,5c0,1.38 1.12,2.5 2.5,2.5l5,0c1.38,0 2.5,-1.12 2.5,-2.5l0,-5Z" style="fill:none;stroke:#e3d69c;stroke-width:0.9px;"/><path d="M390,87c0,-1.38 -1.12,-2.5 -2.5,-2.5l-5,0c-1.38,0 -2.5,1.12 -2.5,2.5l0,5c0,1.38 1.12,2.5 2.5,2.5l5,0c1.38,0 2.5,-1.12 2.5,-2.5l0,-5Z" style="fill:none;"/><clipPath id="_clip96"><path d="M390,87c0,-1.38 -1.12,-2.5 -2.5,-2.5l-5,0c-1.38,0 -2.5,1.12 -2.5,2.5l0,5c0,1.38 1.12,2.5 2.5,2.5l5,0c1.38,0 2.5,-1.12 2.5,-2.5l0,-5Z"/></clipPath><g clip-path="url(#_clip96)"><circle cx="385" cy="89.5" r="1.5" style="fill:#e3d69c;stroke:#e3d69c;stroke-width:0.9px;"/></g><path d="M390,87c0,-1.38 -1.12,-2.5 -2.5,-2.5l-5,0c-1.38,0 -2.5,1.12 -2.5,2.5l0,5c0,1.38 1.12,2.5 2.5,2.5l5,0c1.38,0 2.5,-1.12 2.5,-2.5l0,-5Z" style="fill:none;stroke:#e3d69c;stroke-width:0.9px;"/><path d="M390,117c0,-1.38 -1.12,-2.5 -2.5,-2.5l-5,0c-1.38,0 -2.5,1.12 -2.5,2.5l0,5c0,1.38 1.12,2.5 2.5,2.5l5,0c1.38,0 2.5,-1.12 2.5,-2.5l0,-5Z" style="fill:none;"/><clipPath id="_clip97"><path d="M390,117c0,-1.38 -1.12,-2.5 -2.5,-2.5l-5,0c-1.38,0 -2.5,1.12 -2.5,2.5l0,5c0,1.38 1.12,2.5 2.5,2.5l5,0c1.38,0 2.5,-1.12 2.5,-2.5l0,-5Z"/></clipPath><g clip-path="url(#_clip97)"><circle cx="385" cy="119.5" r="1.5" style="fill:#e3d69c;stroke:#e3d69c;stroke-width:0.9px;"/></g><path d="M390,117c0,-1.38 -1.12,-2.5 -2.5,-2.5l-5,0c-1.38,0 -2.5,1.12 -2.5,2.5l0,5c0,1.38 1.12,2.5 2.5,2.5l5,0c1.38,0 2.5,-1.12 2.5,-2.5l0,-5Z" style="fill:none;stroke:#e3d69c;stroke-width:0.9px;"/><path d="M390,147c0,-1.38 -1.12,-2.5 -2.5,-2.5l-5,0c-1.38,0 -2.5,1.12 -2.5,2.5l0,5c0,1.38 1.12,2.5 2.5,2.5l5,0c1.38,0 2.5,-1.12 2.5,-2.5l0,-5Z" style="fill:none;"/><clipPath id="_clip98"><path d="M390,147c0,-1.38 -1.12,-2.5 -2.5,-2.5l-5,0c-1.38,0 -2.5,1.12 -2.5,2.5l0,5c0,1.38 1.12,2.5 2.5,2.5l5,0c1.38,0 2.5,-1.12 2.5,-2.5l0,-5Z"/></clipPath><g clip-path="url(#_clip98)"><circle cx="385" cy="149.5" r="1.5" style="fill:#e3d69c;stroke:#e3d69c;stroke-width:0.9px;"/></g><path d="M390,147c0,-1.38 -1.12,-2.5 -2.5,-2.5l-5,0c-1.38,0 -2.5,1.12 -2.5,2.5l0,5c0,1.38 1.12,2.5 2.5,2.5l5,0c1.38,0 2.5,-1.12 2.5,-2.5l0,-5Z" style="fill:none;stroke:#e3d69c;stroke-width:0.9px;"/><path d="M390,177c0,-1.38 -1.12,-2.5 -2.5,-2.5l-5,0c-1.38,0 -2.5,1.12 -2.5,2.5l0,5c0,1.38 1.12,2.5 2.5,2.5l5,0c1.38,0 2.5,-1.12 2.5,-2.5l0,-5Z" style="fill:none;"/><clipPath id="_clip99"><path d="M390,177c0,-1.38 -1.12,-2.5 -2.5,-2.5l-5,0c-1.38,0 -2.5,1.12 -2.5,2.5l0,5c0,1.38 1.12,2.5 2.5,2.5l5,0c1.38,0 2.5,-1.12 2.5,-2.5l0,-5Z"/></clipPath><g clip-path="url(#_clip99)"><circle cx="385" cy="179.5" r="1.5" style="fill:#e3d69c;stroke:#e3d69c;stroke-width:0.9px;"/></g><path d="M390,177c0,-1.38 -1.12,-2.5 -2.5,-2.5l-5,0c-1.38,0 -2.5,1.12 -2.5,2.5l0,5c0,1.38 1.12,2.5 2.5,2.5l5,0c1.38,0 2.5,-1.12 2.5,-2.5l0,-5Z" style="fill:none;stroke:#e3d69c;stroke-width:0.9px;"/><path d="M390,207c0,-1.38 -1.12,-2.5 -2.5,-2.5l-5,0c-1.38,0 -2.5,1.12 -2.5,2.5l0,5c0,1.38 1.12,2.5 2.5,2.5l5,0c1.38,0 2.5,-1.12 2.5,-2.5l0,-5Z" style="fill:none;"/><clipPath id="_clip100"><path d="M390,207c0,-1.38 -1.12,-2.5 -2.5,-2.5l-5,0c-1.38,0 -2.5,1.12 -2.5,2.5l0,5c0,1.38 1.12,2.5 2.5,2.5l5,0c1.38,0 2.5,-1.12 2.5,-2.5l0,-5Z"/></clipPath><g clip-path="url(#_clip100)"><circle cx="385" cy="209.5" r="1.5" style="fill:#e3d69c;stroke:#e3d69c;stroke-width:0.9px;"/></g><path d="M390,207c0,-1.38 -1.12,-2.5 -2.5,-2.5l-5,0c-1.38,0 -2.5,1.12 -2.5,2.5l0,5c0,1.38 1.12,2.5 2.5,2.5l5,0c1.38,0 2.5,-1.12 2.5,-2.5l0,-5Z" style="fill:none;stroke:#e3d69c;stroke-width:0.9px;"/><path d="M390,237c0,-1.38 -1.12,-2.5 -2.5,-2.5l-5,0c-1.38,0 -2.5,1.12 -2.5,2.5l0,5c0,1.38 1.12,2.5 2.5,2.5l5,0c1.38,0 2.5,-1.12 2.5,-2.5l0,-5Z" style="fill:none;"/><clipPath id="_clip101"><path d="M390,237c0,-1.38 -1.12,-2.5 -2.5,-2.5l-5,0c-1.38,0 -2.5,1.12 -2.5,2.5l0,5c0,1.38 1.12,2.5 2.5,2.5l5,0c1.38,0 2.5,-1.12 2.5,-2.5l0,-5Z"/></clipPath><g clip-path="url(#_clip101)"><circle cx="385" cy="239.5" r="1.5" style="fill:#e3d69c;stroke:#e3d69c;stroke-width:0.9px;"/></g><path d="M390,237c0,-1.38 -1.12,-2.5 -2.5,-2.5l-5,0c-1.38,0 -2.5,1.12 -2.5,2.5l0,5c0,1.38 1.12,2.5 2.5,2.5l5,0c1.38,0 2.5,-1.12 2.5,-2.5l0,-5Z" style="fill:none;stroke:#e3d69c;stroke-width:0.9px;"/><path d="M390,267c0,-1.38 -1.12,-2.5 -2.5,-2.5l-5,0c-1.38,0 -2.5,1.12 -2.5,2.5l0,5c0,1.38 1.12,2.5 2.5,2.5l5,0c1.38,0 2.5,-1.12 2.5,-2.5l0,-5Z" style="fill:none;"/><clipPath id="_clip102"><path d="M390,267c0,-1.38 -1.12,-2.5 -2.5,-2.5l-5,0c-1.38,0 -2.5,1.12 -2.5,2.5l0,5c0,1.38 1.12,2.5 2.5,2.5l5,0c1.38,0 2.5,-1.12 2.5,-2.5l0,-5Z"/></clipPath><g clip-path="url(#_clip102)"><circle cx="385" cy="269.5" r="1.5" style="fill:#e3d69c;stroke:#e3d69c;stroke-width:0.9px;"/></g><path d="M390,267c0,-1.38 -1.12,-2.5 -2.5,-2.5l-5,0c-1.38,0 -2.5,1.12 -2.5,2.5l0,5c0,1.38 1.12,2.5 2.5,2.5l5,0c1.38,0 2.5,-1.12 2.5,-2.5l0,-5Z" style="fill:none;stroke:#e3d69c;stroke-width:0.9px;"/></g><g><path d="M420,27c0,-1.38 -1.12,-2.5 -2.5,-2.5l-5,0c-1.38,0 -2.5,1.12 -2.5,2.5l0,5c0,1.38 1.12,2.5 2.5,2.5l5,0c1.38,0 2.5,-1.12 2.5,-2.5l0,-5Z" style="fill:none;"/><clipPath id="_clip103"><path d="M420,27c0,-1.38 -1.12,-2.5 -2.5,-2.5l-5,0c-1.38,0 -2.5,1.12 -2.5,2.5l0,5c0,1.38 1.12,2.5 2.5,2.5l5,0c1.38,0 2.5,-1.12 2.5,-2.5l0,-5Z"/></clipPath><g clip-path="url(#_clip103)"><circle cx="415" cy="29.5" r="1.5" style="fill:#e3d69c;stroke:#e3d69c;stroke-width:0.9px;"/></g><path d="M420,27c0,-1.38 -1.12,-2.5 -2.5,-2.5l-5,0c-1.38,0 -2.5,1.12 -2.5,2.5l0,5c0,1.38 1.12,2.5 2.5,2.5l5,0c1.38,0 2.5,-1.12 2.5,-2.5l0,-5Z" style="fill:none;stroke:#e3d69c;stroke-width:0.9px;"/><path d="M420,57c0,-1.38 -1.12,-2.5 -2.5,-2.5l-5,0c-1.38,0 -2.5,1.12 -2.5,2.5l0,5c0,1.38 1.12,2.5 2.5,2.5l5,0c1.38,0 2.5,-1.12 2.5,-2.5l0,-5Z" style="fill:none;"/><clipPath id="_clip104"><path d="M420,57c0,-1.38 -1.12,-2.5 -2.5,-2.5l-5,0c-1.38,0 -2.5,1.12 -2.5,2.5l0,5c0,1.38 1.12,2.5 2.5,2.5l5,0c1.38,0 2.5,-1.12 2.5,-2.5l0,-5Z"/></clipPath><g clip-path="url(#_clip104)"><circle cx="415" cy="59.5" r="1.5" style="fill:#e3d69c;stroke:#e3d69c;stroke-width:0.9px;"/></g><path d="M420,57c0,-1.38 -1.12,-2.5 -2.5,-2.5l-5,0c-1.38,0 -2.5,1.12 -2.5,2.5l0,5c0,1.38 1.12,2.5 2.5,2.5l5,0c1.38,0 2.5,-1.12 2.5,-2.5l0,-5Z" style="fill:none;stroke:#e3d69c;stroke-width:0.9px;"/><path d="M420,87c0,-1.38 -1.12,-2.5 -2.5,-2.5l-5,0c-1.38,0 -2.5,1.12 -2.5,2.5l0,5c0,1.38 1.12,2.5 2.5,2.5l5,0c1.38,0 2.5,-1.12 2.5,-2.5l0,-5Z" style="fill:none;"/><clipPath id="_clip105"><path d="M420,87c0,-1.38 -1.12,-2.5 -2.5,-2.5l-5,0c-1.38,0 -2.5,1.12 -2.5,2.5l0,5c0,1.38 1.12,2.5 2.5,2.5l5,0c1.38,0 2.5,-1.12 2.5,-2.5l0,-5Z"/></clipPath><g clip-path="url(#_clip105)"><circle cx="415" cy="89.5" r="1.5" style="fill:#e3d69c;stroke:#e3d69c;stroke-width:0.9px;"/></g><path d="M420,87c0,-1.38 -1.12,-2.5 -2.5,-2.5l-5,0c-1.38,0 -2.5,1.12 -2.5,2.5l0,5c0,1.38 1.12,2.5 2.5,2.5l5,0c1.38,0 2.5,-1.12 2.5,-2.5l0,-5Z" style="fill:none;stroke:#e3d69c;stroke-width:0.9px;"/><g><circle cx="415" cy="119.5" r="1.5" style="fill:#be3a30;stroke:#be3a30;stroke-width:0.9px;"/><path d="M415,114.5c2.76,0 5,2.24 5,5c0,2.76 -2.24,5 -5,5c-2.76,0 -5,-2.24 -5,-5c0,-2.76 2.24,-5 5,-5Zm0,1.25c2.07,0 3.75,1.68 3.75,3.75c0,2.07 -1.68,3.75 -3.75,3.75c-2.07,0 -3.75,-1.68 -3.75,-3.75c0,-2.07 1.68,-3.75 3.75,-3.75Z" style="fill:#be3a30;stroke:#be3a30;stroke-width:0.9px;"/></g><g><circle cx="415" cy="149.5" r="1.5" style="fill:#be3a30;stroke:#be3a30;stroke-width:0.9px;"/><path d="M415,144.5c2.76,0 5,2.24 5,5c0,2.76 -2.24,5 -5,5c-2.76,0 -5,-2.24 -5,-5c0,-2.76 2.24,-5 5,-5Zm0,1.25c2.07,0 3.75,1.68 3.75,3.75c0,2.07 -1.68,3.75 -3.75,3.75c-2.07,0 -3.75,-1.68 -3.75,-3.75c0,-2.07 1.68,-3.75 3.75,-3.75Z" style="fill:#be3a30;stroke:#be3a30;stroke-width:0.9px;"/></g><g><circle cx="415" cy="179.5" r="1.5" style="fill:#be3a30;stroke:#be3a30;stroke-width:0.9px;"/><path d="M415,174.5c2.76,0 5,2.24 5,5c0,2.76 -2.24,5 -5,5c-2.76,0 -5,-2.24 -5,-5c0,-2.76 2.24,-5 5,-5Zm0,1.25c2.07,0 3.75,1.68 3.75,3.75c0,2.07 -1.68,3.75 -3.75,3.75c-2.07,0 -3.75,-1.68 -3.75,-3.75c0,-2.07 1.68,-3.75 3.75,-3.75Z" style="fill:#be3a30;stroke:#be3a30;stroke-width:0.9px;"/></g><path d="M420,207c0,-1.38 -1.12,-2.5 -2.5,-2.5l-5,0c-1.38,0 -2.5,1.12 -2.5,2.5l0,5c0,1.38 1.12,2.5 2.5,2.5l5,0c1.38,0 2.5,-1.12 2.5,-2.5l0,-5Z" style="fill:none;"/><clipPath id="_clip106"><path d="M420,207c0,-1.38 -1.12,-2.5 -2.5,-2.5l-5,0c-1.38,0 -2.5,1.12 -2.5,2.5l0,5c0,1.38 1.12,2.5 2.5,2.5l5,0c1.38,0 2.5,-1.12 2.5,-2.5l0,-5Z"/></clipPath><g clip-path="url(#_clip106)"><circle cx="415" cy="209.5" r="1.5" style="fill:#e3d69c;stroke:#e3d69c;stroke-width:0.9px;"/></g><path d="M420,207c0,-1.38 -1.12,-2.5 -2.5,-2.5l-5,0c-1.38,0 -2.5,1.12 -2.5,2.5l0,5c0,1.38 1.12,2.5 2.5,2.5l5,0c1.38,0 2.5,-1.12 2.5,-2.5l0,-5Z" style="fill:none;stroke:#e3d69c;stroke-width:0.9px;"/><path d="M420,237c0,-1.38 -1.12,-2.5 -2.5,-2.5l-5,0c-1.38,0 -2.5,1.12 -2.5,2.5l0,5c0,1.38 1.12,2.5 2.5,2.5l5,0c1.38,0 2.5,-1.12 2.5,-2.5l0,-5Z" style="fill:none;"/><clipPath id="_clip107"><path d="M420,237c0,-1.38 -1.12,-2.5 -2.5,-2.5l-5,0c-1.38,0 -2.5,1.12 -2.5,2.5l0,5c0,1.38 1.12,2.5 2.5,2.5l5,0c1.38,0 2.5,-1.12 2.5,-2.5l0,-5Z"/></clipPath><g clip-path="url(#_clip107)"><circle cx="415" cy="239.5" r="1.5" style="fill:#e3d69c;stroke:#e3d69c;stroke-width:0.9px;"/></g><path d="M420,237c0,-1.38 -1.12,-2.5 -2.5,-2.5l-5,0c-1.38,0 -2.5,1.12 -2.5,2.5l0,5c0,1.38 1.12,2.5 2.5,2.5l5,0c1.38,0 2.5,-1.12 2.5,-2.5l0,-5Z" style="fill:none;stroke:#e3d69c;stroke-width:0.9px;"/><path d="M420,267c0,-1.38 -1.12,-2.5 -2.5,-2.5l-5,0c-1.38,0 -2.5,1.12 -2.5,2.5l0,5c0,1.38 1.12,2.5 2.5,2.5l5,0c1.38,0 2.5,-1.12 2.5,-2.5l0,-5Z" style="fill:none;"/><clipPath id="_clip108"><path d="M420,267c0,-1.38 -1.12,-2.5 -2.5,-2.5l-5,0c-1.38,0 -2.5,1.12 -2.5,2.5l0,5c0,1.38 1.12,2.5 2.5,2.5l5,0c1.38,0 2.5,-1.12 2.5,-2.5l0,-5Z"/></clipPath><g clip-path="url(#_clip108)"><circle cx="415" cy="269.5" r="1.5" style="fill:#e3d69c;stroke:#e3d69c;stroke-width:0.9px;"/></g><path d="M420,267c0,-1.38 -1.12,-2.5 -2.5,-2.5l-5,0c-1.38,0 -2.5,1.12 -2.5,2.5l0,5c0,1.38 1.12,2.5 2.5,2.5l5,0c1.38,0 2.5,-1.12 2.5,-2.5l0,-5Z" style="fill:none;stroke:#e3d69c;stroke-width:0.9px;"/></g><g><path d="M450,27c0,-1.38 -1.12,-2.5 -2.5,-2.5l-5,0c-1.38,0 -2.5,1.12 -2.5,2.5l0,5c0,1.38 1.12,2.5 2.5,2.5l5,0c1.38,0 2.5,-1.12 2.5,-2.5l0,-5Z" style="fill:none;"/><clipPath id="_clip109"><path d="M450,27c0,-1.38 -1.12,-2.5 -2.5,-2.5l-5,0c-1.38,0 -2.5,1.12 -2.5,2.5l0,5c0,1.38 1.12,2.5 2.5,2.5l5,0c1.38,0 2.5,-1.12 2.5,-2.5l0,-5Z"/></clipPath><g clip-path="url(#_clip109)"><circle cx="445" cy="29.5" r="1.5" style="fill:#e3d69c;stroke:#e3d69c;stroke-width:0.9px;"/></g><path d="M450,27c0,-1.38 -1.12,-2.5 -2.5,-2.5l-5,0c-1.38,0 -2.5,1.12 -2.5,2.5l0,5c0,1.38 1.12,2.5 2.5,2.5l5,0c1.38,0 2.5,-1.12 2.5,-2.5l0,-5Z" style="fill:none;stroke:#e3d69c;stroke-width:0.9px;"/><path d="M450,57c0,-1.38 -1.12,-2.5 -2.5,-2.5l-5,0c-1.38,0 -2.5,1.12 -2.5,2.5l0,5c0,1.38 1.12,2.5 2.5,2.5l5,0c1.38,0 2.5,-1.12 2.5,-2.5l0,-5Z" style="fill:none;"/><clipPath id="_clip110"><path d="M450,57c0,-1.38 -1.12,-2.5 -2.5,-2.5l-5,0c-1.38,0 -2.5,1.12 -2.5,2.5l0,5c0,1.38 1.12,2.5 2.5,2.5l5,0c1.38,0 2.5,-1.12 2.5,-2.5l0,-5Z"/></clipPath><g clip-path="url(#_clip110)"><circle cx="445" cy="59.5" r="1.5" style="fill:#e3d69c;stroke:#e3d69c;stroke-width:0.9px;"/></g><path d="M450,57c0,-1.38 -1.12,-2.5 -2.5,-2.5l-5,0c-1.38,0 -2.5,1.12 -2.5,2.5l0,5c0,1.38 1.12,2.5 2.5,2.5l5,0c1.38,0 2.5,-1.12 2.5,-2.5l0,-5Z" style="fill:none;stroke:#e3d69c;stroke-width:0.9px;"/><path d="M450,87c0,-1.38 -1.12,-2.5 -2.5,-2.5l-5,0c-1.38,0 -2.5,1.12 -2.5,2.5l0,5c0,1.38 1.12,2.5 2.5,2.5l5,0c1.38,0 2.5,-1.12 2.5,-2.5l0,-5Z" style="fill:none;"/><clipPath id="_clip111"><path d="M450,87c0,-1.38 -1.12,-2.5 -2.5,-2.5l-5,0c-1.38,0 -2.5,1.12 -2.5,2.5l0,5c0,1.38 1.12,2.5 2.5,2.5l5,0c1.38,0 2.5,-1.12 2.5,-2.5l0,-5Z"/></clipPath><g clip-path="url(#_clip111)"><circle cx="445" cy="89.5" r="1.5" style="fill:#e3d69c;stroke:#e3d69c;stroke-width:0.9px;"/></g><path d="M450,87c0,-1.38 -1.12,-2.5 -2.5,-2.5l-5,0c-1.38,0 -2.5,1.12 -2.5,2.5l0,5c0,1.38 1.12,2.5 2.5,2.5l5,0c1.38,0 2.5,-1.12 2.5,-2.5l0,-5Z" style="fill:none;stroke:#e3d69c;stroke-width:0.9px;"/><path d="M450,117c0,-1.38 -1.12,-2.5 -2.5,-2.5l-5,0c-1.38,0 -2.5,1.12 -2.5,2.5l0,5c0,1.38 1.12,2.5 2.5,2.5l5,0c1.38,0 2.5,-1.12 2.5,-2.5l0,-5Z" style="fill:none;"/><clipPath id="_clip112"><path d="M450,117c0,-1.38 -1.12,-2.5 -2.5,-2.5l-5,0c-1.38,0 -2.5,1.12 -2.5,2.5l0,5c0,1.38 1.12,2.5 2.5,2.5l5,0c1.38,0 2.5,-1.12 2.5,-2.5l0,-5Z"/></clipPath><g clip-path="url(#_clip112)"><circle cx="445" cy="119.5" r="1.5" style="fill:#e3d69c;stroke:#e3d69c;stroke-width:0.9px;"/></g><path d="M450,117c0,-1.38 -1.12,-2.5 -2.5,-2.5l-5,0c-1.38,0 -2.5,1.12 -2.5,2.5l0,5c0,1.38 1.12,2.5 2.5,2.5l5,0c1.38,0 2.5,-1.12 2.5,-2.5l0,-5Z" style="fill:none;stroke:#e3d69c;stroke-width:0.9px;"/><g><circle cx="445" cy="149.5" r="1.5" style="fill:#be3a30;stroke:#be3a30;stroke-width:0.9px;"/><path d="M445,144.5c2.76,0 5,2.24 5,5c0,2.76 -2.24,5 -5,5c-2.76,0 -5,-2.24 -5,-5c0,-2.76 2.24,-5 5,-5Zm0,1.25c2.07,0 3.75,1.68 3.75,3.75c0,2.07 -1.68,3.75 -3.75,3.75c-2.07,0 -3.75,-1.68 -3.75,-3.75c0,-2.07 1.68,-3.75 3.75,-3.75Z" style="fill:#be3a30;stroke:#be3a30;stroke-width:0.9px;"/></g><path d="M450,177c0,-1.38 -1.12,-2.5 -2.5,-2.5l-5,0c-1.38,0 -2.5,1.12 -2.5,2.5l0,5c0,1.38 1.12,2.5 2.5,2.5l5,0c1.38,0 2.5,-1.12 2.5,-2.5l0,-5Z" style="fill:none;"/><clipPath id="_clip113"><path d="M450,177c0,-1.38 -1.12,-2.5 -2.5,-2.5l-5,0c-1.38,0 -2.5,1.12 -2.5,2.5l0,5c0,1.38 1.12,2.5 2.5,2.5l5,0c1.38,0 2.5,-1.12 2.5,-2.5l0,-5Z"/></clipPath><g clip-path="url(#_clip113)"><circle cx="445" cy="179.5" r="1.5" style="fill:#e3d69c;stroke:#e3d69c;stroke-width:0.9px;"/></g><path d="M450,177c0,-1.38 -1.12,-2.5 -2.5,-2.5l-5,0c-1.38,0 -2.5,1.12 -2.5,2.5l0,5c0,1.38 1.12,2.5 2.5,2.5l5,0c1.38,0 2.5,-1.12 2.5,-2.5l0,-5Z" style="fill:none;stroke:#e3d69c;stroke-width:0.9px;"/><path d="M450,207c0,-1.38 -1.12,-2.5 -2.5,-2.5l-5,0c-1.38,0 -2.5,1.12 -2.5,2.5l0,5c0,1.38 1.12,2.5 2.5,2.5l5,0c1.38,0 2.5,-1.12 2.5,-2.5l0,-5Z" style="fill:none;"/><clipPath id="_clip114"><path d="M450,207c0,-1.38 -1.12,-2.5 -2.5,-2.5l-5,0c-1.38,0 -2.5,1.12 -2.5,2.5l0,5c0,1.38 1.12,2.5 2.5,2.5l5,0c1.38,0 2.5,-1.12 2.5,-2.5l0,-5Z"/></clipPath><g clip-path="url(#_clip114)"><circle cx="445" cy="209.5" r="1.5" style="fill:#e3d69c;stroke:#e3d69c;stroke-width:0.9px;"/></g><path d="M450,207c0,-1.38 -1.12,-2.5 -2.5,-2.5l-5,0c-1.38,0 -2.5,1.12 -2.5,2.5l0,5c0,1.38 1.12,2.5 2.5,2.5l5,0c1.38,0 2.5,-1.12 2.5,-2.5l0,-5Z" style="fill:none;stroke:#e3d69c;stroke-width:0.9px;"/><path d="M450,237c0,-1.38 -1.12,-2.5 -2.5,-2.5l-5,0c-1.38,0 -2.5,1.12 -2.5,2.5l0,5c0,1.38 1.12,2.5 2.5,2.5l5,0c1.38,0 2.5,-1.12 2.5,-2.5l0,-5Z" style="fill:none;"/><clipPath id="_clip115"><path d="M450,237c0,-1.38 -1.12,-2.5 -2.5,-2.5l-5,0c-1.38,0 -2.5,1.12 -2.5,2.5l0,5c0,1.38 1.12,2.5 2.5,2.5l5,0c1.38,0 2.5,-1.12 2.5,-2.5l0,-5Z"/></clipPath><g clip-path="url(#_clip115)"><circle cx="445" cy="239.5" r="1.5" style="fill:#e3d69c;stroke:#e3d69c;stroke-width:0.9px;"/></g><path d="M450,237c0,-1.38 -1.12,-2.5 -2.5,-2.5l-5,0c-1.38,0 -2.5,1.12 -2.5,2.5l0,5c0,1.38 1.12,2.5 2.5,2.5l5,0c1.38,0 2.5,-1.12 2.5,-2.5l0,-5Z" style="fill:none;stroke:#e3d69c;stroke-width:0.9px;"/><path d="M450,267c0,-1.38 -1.12,-2.5 -2.5,-2.5l-5,0c-1.38,0 -2.5,1.12 -2.5,2.5l0,5c0,1.38 1.12,2.5 2.5,2.5l5,0c1.38,0 2.5,-1.12 2.5,-2.5l0,-5Z" style="fill:none;"/><clipPath id="_clip116"><path d="M450,267c0,-1.38 -1.12,-2.5 -2.5,-2.5l-5,0c-1.38,0 -2.5,1.12 -2.5,2.5l0,5c0,1.38 1.12,2.5 2.5,2.5l5,0c1.38,0 2.5,-1.12 2.5,-2.5l0,-5Z"/></clipPath><g clip-path="url(#_clip116)"><circle cx="445" cy="269.5" r="1.5" style="fill:#e3d69c;stroke:#e3d69c;stroke-width:0.9px;"/></g><path d="M450,267c0,-1.38 -1.12,-2.5 -2.5,-2.5l-5,0c-1.38,0 -2.5,1.12 -2.5,2.5l0,5c0,1.38 1.12,2.5 2.5,2.5l5,0c1.38,0 2.5,-1.12 2.5,-2.5l0,-5Z" style="fill:none;stroke:#e3d69c;stroke-width:0.9px;"/></g><g><path d="M480,27c0,-1.38 -1.12,-2.5 -2.5,-2.5l-5,0c-1.38,0 -2.5,1.12 -2.5,2.5l0,5c0,1.38 1.12,2.5 2.5,2.5l5,0c1.38,0 2.5,-1.12 2.5,-2.5l0,-5Z" style="fill:none;"/><clipPath id="_clip117"><path d="M480,27c0,-1.38 -1.12,-2.5 -2.5,-2.5l-5,0c-1.38,0 -2.5,1.12 -2.5,2.5l0,5c0,1.38 1.12,2.5 2.5,2.5l5,0c1.38,0 2.5,-1.12 2.5,-2.5l0,-5Z"/></clipPath><g clip-path="url(#_clip117)"><circle cx="475" cy="29.5" r="1.5" style="fill:#e3d69c;stroke:#e3d69c;stroke-width:0.9px;"/></g><path d="M480,27c0,-1.38 -1.12,-2.5 -2.5,-2.5l-5,0c-1.38,0 -2.5,1.12 -2.5,2.5l0,5c0,1.38 1.12,2.5 2.5,2.5l5,0c1.38,0 2.5,-1.12 2.5,-2.5l0,-5Z" style="fill:none;stroke:#e3d69c;stroke-width:0.9px;"/><path d="M480,57c0,-1.38 -1.12,-2.5 -2.5,-2.5l-5,0c-1.38,0 -2.5,1.12 -2.5,2.5l0,5c0,1.38 1.12,2.5 2.5,2.5l5,0c1.38,0 2.5,-1.12 2.5,-2.5l0,-5Z" style="fill:none;"/><clipPath id="_clip118"><path d="M480,57c0,-1.38 -1.12,-2.5 -2.5,-2.5l-5,0c-1.38,0 -2.5,1.12 -2.5,2.5l0,5c0,1.38 1.12,2.5 2.5,2.5l5,0c1.38,0 2.5,-1.12 2.5,-2.5l0,-5Z"/></clipPath><g clip-path="url(#_clip118)"><circle cx="475" cy="59.5" r="1.5" style="fill:#e3d69c;stroke:#e3d69c;stroke-width:0.9px;"/></g><path d="M480,57c0,-1.38 -1.12,-2.5 -2.5,-2.5l-5,0c-1.38,0 -2.5,1.12 -2.5,2.5l0,5c0,1.38 1.12,2.5 2.5,2.5l5,0c1.38,0 2.5,-1.12 2.5,-2.5l0,-5Z" style="fill:none;stroke:#e3d69c;stroke-width:0.9px;"/><path d="M480,87c0,-1.38 -1.12,-2.5 -2.5,-2.5l-5,0c-1.38,0 -2.5,1.12 -2.5,2.5l0,5c0,1.38 1.12,2.5 2.5,2.5l5,0c1.38,0 2.5,-1.12 2.5,-2.5l0,-5Z" style="fill:none;"/><clipPath id="_clip119"><path d="M480,87c0,-1.38 -1.12,-2.5 -2.5,-2.5l-5,0c-1.38,0 -2.5,1.12 -2.5,2.5l0,5c0,1.38 1.12,2.5 2.5,2.5l5,0c1.38,0 2.5,-1.12 2.5,-2.5l0,-5Z"/></clipPath><g clip-path="url(#_clip119)"><circle cx="475" cy="89.5" r="1.5" style="fill:#e3d69c;stroke:#e3d69c;stroke-width:0.9px;"/></g><path d="M480,87c0,-1.38 -1.12,-2.5 -2.5,-2.5l-5,0c-1.38,0 -2.5,1.12 -2.5,2.5l0,5c0,1.38 1.12,2.5 2.5,2.5l5,0c1.38,0 2.5,-1.12 2.5,-2.5l0,-5Z" style="fill:none;stroke:#e3d69c;stroke-width:0.9px;"/><path d="M480,117c0,-1.38 -1.12,-2.5 -2.5,-2.5l-5,0c-1.38,0 -2.5,1.12 -2.5,2.5l0,5c0,1.38 1.12,2.5 2.5,2.5l5,0c1.38,0 2.5,-1.12 2.5,-2.5l0,-5Z" style="fill:none;"/><clipPath id="_clip120"><path d="M480,117c0,-1.38 -1.12,-2.5 -2.5,-2.5l-5,0c-1.38,0 -2.5,1.12 -2.5,2.5l0,5c0,1.38 1.12,2.5 2.5,2.5l5,0c1.38,0 2.5,-1.12 2.5,-2.5l0,-5Z"/></clipPath><g clip-path="url(#_clip120)"><circle cx="475" cy="119.5" r="1.5" style="fill:#e3d69c;stroke:#e3d69c;stroke-width:0.9px;"/></g><path d="M480,117c0,-1.38 -1.12,-2.5 -2.5,-2.5l-5,0c-1.38,0 -2.5,1.12 -2.5,2.5l0,5c0,1.38 1.12,2.5 2.5,2.5l5,0c1.38,0 2.5,-1.12 2.5,-2.5l0,-5Z" style="fill:none;stroke:#e3d69c;stroke-width:0.9px;"/><g><circle cx="475" cy="149.5" r="1.5" style="fill:#be3a30;stroke:#be3a30;stroke-width:0.9px;"/><path d="M475,144.5c2.76,0 5,2.24 5,5c0,2.76 -2.24,5 -5,5c-2.76,0 -5,-2.24 -5,-5c0,-2.76 2.24,-5 5,-5Zm0,1.25c2.07,0 3.75,1.68 3.75,3.75c0,2.07 -1.68,3.75 -3.75,3.75c-2.07,0 -3.75,-1.68 -3.75,-3.75c0,-2.07 1.68,-3.75 3.75,-3.75Z" style="fill:#be3a30;stroke:#be3a30;stroke-width:0.9px;"/></g><path d="M480,177c0,-1.38 -1.12,-2.5 -2.5,-2.5l-5,0c-1.38,0 -2.5,1.12 -2.5,2.5l0,5c0,1.38 1.12,2.5 2.5,2.5l5,0c1.38,0 2.5,-1.12 2.5,-2.5l0,-5Z" style="fill:none;"/><clipPath id="_clip121"><path d="M480,177c0,-1.38 -1.12,-2.5 -2.5,-2.5l-5,0c-1.38,0 -2.5,1.12 -2.5,2.5l0,5c0,1.38 1.12,2.5 2.5,2.5l5,0c1.38,0 2.5,-1.12 2.5,-2.5l0,-5Z"/></clipPath><g clip-path="url(#_clip121)"><circle cx="475" cy="179.5" r="1.5" style="fill:#e3d69c;stroke:#e3d69c;stroke-width:0.9px;"/></g><path d="M480,177c0,-1.38 -1.12,-2.5 -2.5,-2.5l-5,0c-1.38,0 -2.5,1.12 -2.5,2.5l0,5c0,1.38 1.12,2.5 2.5,2.5l5,0c1.38,0 2.5,-1.12 2.5,-2.5l0,-5Z" style="fill:none;stroke:#e3d69c;stroke-width:0.9px;"/><path d="M480,207c0,-1.38 -1.12,-2.5 -2.5,-2.5l-5,0c-1.38,0 -2.5,1.12 -2.5,2.5l0,5c0,1.38 1.12,2.5 2.5,2.5l5,0c1.38,0 2.5,-1.12 2.5,-2.5l0,-5Z" style="fill:none;"/><clipPath id="_clip122"><path d="M480,207c0,-1.38 -1.12,-2.5 -2.5,-2.5l-5,0c-1.38,0 -2.5,1.12 -2.5,2.5l0,5c0,1.38 1.12,2.5 2.5,2.5l5,0c1.38,0 2.5,-1.12 2.5,-2.5l0,-5Z"/></clipPath><g clip-path="url(#_clip122)"><circle cx="475" cy="209.5" r="1.5" style="fill:#e3d69c;stroke:#e3d69c;stroke-width:0.9px;"/></g><path d="M480,207c0,-1.38 -1.12,-2.5 -2.5,-2.5l-5,0c-1.38,0 -2.5,1.12 -2.5,2.5l0,5c0,1.38 1.12,2.5 2.5,2.5l5,0c1.38,0 2.5,-1.12 2.5,-2.5l0,-5Z" style="fill:none;stroke:#e3d69c;stroke-width:0.9px;"/><path d="M480,237c0,-1.38 -1.12,-2.5 -2.5,-2.5l-5,0c-1.38,0 -2.5,1.12 -2.5,2.5l0,5c0,1.38 1.12,2.5 2.5,2.5l5,0c1.38,0 2.5,-1.12 2.5,-2.5l0,-5Z" style="fill:none;"/><clipPath id="_clip123"><path d="M480,237c0,-1.38 -1.12,-2.5 -2.5,-2.5l-5,0c-1.38,0 -2.5,1.12 -2.5,2.5l0,5c0,1.38 1.12,2.5 2.5,2.5l5,0c1.38,0 2.5,-1.12 2.5,-2.5l0,-5Z"/></clipPath><g clip-path="url(#_clip123)"><circle cx="475" cy="239.5" r="1.5" style="fill:#e3d69c;stroke:#e3d69c;stroke-width:0.9px;"/></g><path d="M480,237c0,-1.38 -1.12,-2.5 -2.5,-2.5l-5,0c-1.38,0 -2.5,1.12 -2.5,2.5l0,5c0,1.38 1.12,2.5 2.5,2.5l5,0c1.38,0 2.5,-1.12 2.5,-2.5l0,-5Z" style="fill:none;stroke:#e3d69c;stroke-width:0.9px;"/><path d="M480,267c0,-1.38 -1.12,-2.5 -2.5,-2.5l-5,0c-1.38,0 -2.5,1.12 -2.5,2.5l0,5c0,1.38 1.12,2.5 2.5,2.5l5,0c1.38,0 2.5,-1.12 2.5,-2.5l0,-5Z" style="fill:none;"/><clipPath id="_clip124"><path d="M480,267c0,-1.38 -1.12,-2.5 -2.5,-2.5l-5,0c-1.38,0 -2.5,1.12 -2.5,2.5l0,5c0,1.38 1.12,2.5 2.5,2.5l5,0c1.38,0 2.5,-1.12 2.5,-2.5l0,-5Z"/></clipPath><g clip-path="url(#_clip124)"><circle cx="475" cy="269.5" r="1.5" style="fill:#e3d69c;stroke:#e3d69c;stroke-width:0.9px;"/></g><path d="M480,267c0,-1.38 -1.12,-2.5 -2.5,-2.5l-5,0c-1.38,0 -2.5,1.12 -2.5,2.5l0,5c0,1.38 1.12,2.5 2.5,2.5l5,0c1.38,0 2.5,-1.12 2.5,-2.5l0,-5Z" style="fill:none;stroke:#e3d69c;stroke-width:0.9px;"/></g></g></svg>